<svg xmlns="http://www.w3.org/2000/svg" xmlns:xlink="http://www.w3.org/1999/xlink" width="1502" height="507" version="1.1">
<style type="text/css">
.l0{
  fill: #000000;
  stroke: #000000;
  stroke-linecap:round;
  stroke-linejoin:round;
  stroke-width: 0.686713;
}
.l1{
  fill: #00ccee;
  stroke: #00ccee;
  stroke-linecap:round;
  stroke-linejoin:round;
  stroke-width: 0.686713;
}
.l2{
  fill: #4f4f4f; fill-opacity: 0.2;
  stroke: #4f4f4f;
  stroke-linecap:round;
  stroke-linejoin:round;
  stroke-width: 0.686713;
}
.l3{
  fill: #cccccc; fill-opacity: 0.5;
  stroke: #cccccc;
  stroke-linecap:round;
  stroke-linejoin:round;
  stroke-width: 0.686713;
}
.l4{
  fill: #88dd00;
  stroke: #88dd00;
  stroke-linecap:round;
  stroke-linejoin:round;
  stroke-width: 0.686713;
}
.l5{
  fill: #bb2200;
  stroke: #bb2200;
  stroke-linecap:round;
  stroke-linejoin:round;
  stroke-width: 0.686713;
}
.l6{
  fill: #00ccee; fill-opacity: 0.5;
  stroke: #00ccee;
  stroke-linecap:round;
  stroke-linejoin:round;
  stroke-width: 0.686713;
}
.l7{
  fill: #ff0000; fill-opacity: 0.5;
  stroke: #ff0000;
  stroke-linecap:round;
  stroke-linejoin:round;
  stroke-width: 0.686713;
}
.l8{
  fill: #ffff00; fill-opacity: 0.5;
  stroke: #ffff00;
  stroke-linecap:round;
  stroke-linejoin:round;
  stroke-width: 0.686713;
}
.l9{
  fill: #ffffff; fill-opacity: 0.5;
  stroke: #ffffff;
  stroke-linecap:round;
  stroke-linejoin:round;
  stroke-width: 0.686713;
}
.l10{
  fill: #ff00ff;
  stroke: #ff00ff;
  stroke-linecap:round;
  stroke-linejoin:round;
  stroke-width: 0.686713;
}
.l11{
  fill: #00ff00; fill-opacity: 0.5;
  stroke: #00ff00;
  stroke-linecap:round;
  stroke-linejoin:round;
  stroke-width: 0.686713;
}
.l12{
  fill: #0000ff; fill-opacity: 0.5;
  stroke: #0000ff;
  stroke-linecap:round;
  stroke-linejoin:round;
  stroke-width: 0.686713;
}
.l13{
  fill: #aaaa00; fill-opacity: 0.5;
  stroke: #aaaa00;
  stroke-linecap:round;
  stroke-linejoin:round;
  stroke-width: 0.686713;
}
.l14{
  fill: #aaccaa; fill-opacity: 0.2;
  stroke: #aaccaa;
  stroke-linecap:round;
  stroke-linejoin:round;
  stroke-width: 0.686713;
}
.l15{
  fill: #ff7777; fill-opacity: 0.5;
  stroke: #ff7777;
  stroke-linecap:round;
  stroke-linejoin:round;
  stroke-width: 0.686713;
}
.l16{
  fill: #bfff81; fill-opacity: 0.5;
  stroke: #bfff81;
  stroke-linecap:round;
  stroke-linejoin:round;
  stroke-width: 0.686713;
}
.l17{
  fill: #00ffcc; fill-opacity: 0.2;
  stroke: #00ffcc;
  stroke-linecap:round;
  stroke-linejoin:round;
  stroke-width: 0.686713;
}
.l18{
  fill: #ce0097; fill-opacity: 0.5;
  stroke: #ce0097;
  stroke-linecap:round;
  stroke-linejoin:round;
  stroke-width: 0.686713;
}
.l19{
  fill: #d2d46b; fill-opacity: 0.2;
  stroke: #d2d46b;
  stroke-linecap:round;
  stroke-linejoin:round;
  stroke-width: 0.686713;
}
.l20{
  fill: #ef6158; fill-opacity: 0.2;
  stroke: #ef6158;
  stroke-linecap:round;
  stroke-linejoin:round;
  stroke-width: 0.686713;
}
.l21{
  fill: #fdb200; fill-opacity: 0.2;
  stroke: #fdb200;
  stroke-linecap:round;
  stroke-linejoin:round;
  stroke-width: 0.686713;
}
text {font-family: Sans-Serif;}
</style>
<rect class="l0" x="0" y="0" width="1502" height="507"/>
<text fill="#00ccee"  xml:space="preserve" font-size="6.6128" transform="translate(311.126, 55.2282)" >GND</text>
<text fill="#00ccee"  xml:space="preserve" font-size="6.6128" transform="translate(387.428, 55.2282)" >GND</text>
<text fill="#00ccee"  xml:space="preserve" font-size="6.6128" transform="translate(489.163, 55.2282)" >GND</text>
<text fill="#00ccee"  xml:space="preserve" font-size="6.6128" transform="translate(718.068, 55.2282)" >GND</text>
<text fill="#00ccee"  xml:space="preserve" font-size="6.6128" transform="translate(228.466, 252.34)" >GND</text>
<text fill="#00ccee"  xml:space="preserve" font-size="8.92727" transform="translate(210.108, 208.436)" >p1</text>
<text fill="#00ccee"  xml:space="preserve" font-size="6.6128" transform="translate(374.711, 252.34)" >GND</text>
<text fill="#00ccee"  xml:space="preserve" font-size="8.92727" transform="translate(356.352, 208.436)" >p1</text>
<text fill="#00ccee"  xml:space="preserve" font-size="6.6128" transform="translate(228.466, 335)" >GND</text>
<text fill="#00ccee"  xml:space="preserve" font-size="8.92727" transform="translate(210.108, 291.096)" >p2</text>
<text fill="#00ccee"  xml:space="preserve" font-size="6.6128" transform="translate(374.711, 335)" >GND</text>
<text fill="#00ccee"  xml:space="preserve" font-size="8.92727" transform="translate(356.352, 291.096)" >p2</text>
<text fill="#00ccee"  xml:space="preserve" font-size="8.92727" transform="translate(494.597, 183.002)" >Vcm</text>
<text fill="#00ccee"  xml:space="preserve" font-size="8.92727" transform="translate(392.862, 322.888)" >Vcm</text>
<text fill="#00ccee"  xml:space="preserve" font-size="8.92727" transform="translate(252.617, 189.361)" >Vin</text>
<text fill="#00ccee"  xml:space="preserve" font-size="8.92727" transform="translate(613.049, 144.851)" >vo1</text>
<text fill="#00ccee"  xml:space="preserve" font-size="6.6128" transform="translate(966.047, 61.5867)" >GND</text>
<text fill="#00ccee"  xml:space="preserve" font-size="6.6128" transform="translate(183.957, 55.2282)" >GND</text>
<text fill="#00ccee"  xml:space="preserve" font-size="6.6128" transform="translate(241.183, 55.2282)" >GND</text>
<text fill="#00ccee"  xml:space="preserve" font-size="6.6128" transform="translate(272.976, 322.283)" >GND</text>
<text fill="#00ccee"  xml:space="preserve" font-size="6.6128" transform="translate(711.709, 252.34)" >GND</text>
<text fill="#00ccee"  xml:space="preserve" font-size="8.92727" transform="translate(693.351, 208.436)" >p1</text>
<text fill="#00ccee"  xml:space="preserve" font-size="6.6128" transform="translate(857.954, 252.34)" >GND</text>
<text fill="#00ccee"  xml:space="preserve" font-size="8.92727" transform="translate(839.595, 208.436)" >p2</text>
<text fill="#00ccee"  xml:space="preserve" font-size="6.6128" transform="translate(711.709, 335)" >GND</text>
<text fill="#00ccee"  xml:space="preserve" font-size="8.92727" transform="translate(693.351, 291.096)" >p2</text>
<text fill="#00ccee"  xml:space="preserve" font-size="6.6128" transform="translate(857.954, 335)" >GND</text>
<text fill="#00ccee"  xml:space="preserve" font-size="8.92727" transform="translate(839.595, 291.096)" >p1</text>
<text fill="#00ccee"  xml:space="preserve" font-size="8.92727" transform="translate(977.84, 183.002)" >Vcm</text>
<text fill="#00ccee"  xml:space="preserve" font-size="8.92727" transform="translate(876.104, 322.888)" >Vcm</text>
<text fill="#00ccee"  xml:space="preserve" font-size="8.92727" transform="translate(733.86, 189.361)" >vo1</text>
<text fill="#00ccee"  xml:space="preserve" font-size="8.92727" transform="translate(1096.29, 144.851)" >vo2</text>
<text fill="#00ccee"  xml:space="preserve" font-size="6.6128" transform="translate(756.218, 322.283)" >GND</text>
<text fill="#00ccee"  xml:space="preserve" font-size="6.6128" transform="translate(565.465, 201.473)" >GND</text>
<text fill="#00ccee"  xml:space="preserve" font-size="6.6128" transform="translate(1048.71, 201.473)" >GND</text>
<text fill="#cccccc"  xml:space="preserve" font-size="6.6128" transform="translate(319.074, 8.3346)" >Vcm</text>
<text fill="#cccccc"  xml:space="preserve" font-size="6.6128" transform="translate(319.074, 24.2307)" >dc {vdd/2}</text>
<text fill="#cccccc"  xml:space="preserve" font-size="6.6128" transform="translate(395.376, 8.3346)" >Vin</text>
<text fill="#cccccc"  xml:space="preserve" font-size="6.6128" transform="translate(395.376, 24.2307)" >dc 0.75 ac 1 </text>
<text fill="#cccccc"  xml:space="preserve" font-size="6.6128" transform="translate(497.111, 8.3346)" >Vp1</text>
<text fill="#cccccc"  xml:space="preserve" font-size="6.6128" transform="translate(497.111, 24.2307)" >dc 0 pulse(0, {vdd}, 5n, 100p, 100p, {per/2-5n}, {per}) </text>
<text fill="#cccccc"  xml:space="preserve" font-size="6.6128" transform="translate(726.016, 8.3346)" >Vp2</text>
<text fill="#cccccc"  xml:space="preserve" font-size="6.6128" transform="translate(726.016, 24.2307)" >dc {vdd} pulse({vdd}, 0, 0, 100p, 100p, {per/2+5n}, {per})</text>
<text fill="#cccccc"  xml:space="preserve" font-size="6.6128" transform="translate(271.386, 201.518)" >S1</text>
<text fill="#cccccc"  xml:space="preserve" font-size="6.6128" transform="translate(271.386, 216.097)" >mysw</text>
<text fill="#cccccc"  xml:space="preserve" font-size="1.98384" transform="translate(269.796, 221.432)" >.MODEL SW1 SW( VT=0.9 VH=0.01 RON=0.01 ROFF=10G )</text>
<text fill="#cccccc"  xml:space="preserve" font-size="6.6128" transform="translate(417.63, 201.518)" >S2</text>
<text fill="#cccccc"  xml:space="preserve" font-size="6.6128" transform="translate(417.63, 216.097)" >mysw</text>
<text fill="#cccccc"  xml:space="preserve" font-size="1.98384" transform="translate(416.041, 221.432)" >.MODEL SW1 SW( VT=0.9 VH=0.01 RON=0.01 ROFF=10G )</text>
<text fill="#cccccc"  xml:space="preserve" font-size="6.6128" transform="translate(271.386, 284.178)" >S3</text>
<text fill="#cccccc"  xml:space="preserve" font-size="6.6128" transform="translate(271.386, 298.757)" >mysw</text>
<text fill="#cccccc"  xml:space="preserve" font-size="1.98384" transform="translate(269.796, 304.092)" >.MODEL SW1 SW( VT=0.9 VH=0.01 RON=0.01 ROFF=10G )</text>
<text fill="#cccccc"  xml:space="preserve" font-size="6.6128" transform="translate(417.63, 284.178)" >S4</text>
<text fill="#cccccc"  xml:space="preserve" font-size="6.6128" transform="translate(417.63, 298.757)" >mysw</text>
<text fill="#cccccc"  xml:space="preserve" font-size="1.98384" transform="translate(416.041, 304.092)" >.MODEL SW1 SW( VT=0.9 VH=0.01 RON=0.01 ROFF=10G )</text>
<text fill="#aaaa00"  xml:space="preserve" font-size="6.6128" transform="translate(314.746, 269.411) rotate(270)" >1</text>
<text fill="#aaaa00"  xml:space="preserve" font-size="6.6128" transform="translate(341.77, 269.411) rotate(270)" >2</text>
<text fill="#cccccc"  xml:space="preserve" font-size="6.6128" transform="translate(319.515, 252.694) rotate(270)" >C7</text>
<text fill="#cccccc"  xml:space="preserve" font-size="6.6128" transform="translate(327.463, 252.694) rotate(270)" >410f</text>
<text fill="#cccccc"  xml:space="preserve" font-size="6.6128" transform="translate(335.411, 252.694) rotate(270)" >m=1</text>
<text fill="#aaaa00"  xml:space="preserve" font-size="6.6128" transform="translate(524.575, 123.167) rotate(270)" >1</text>
<text fill="#aaaa00"  xml:space="preserve" font-size="6.6128" transform="translate(551.599, 123.167) rotate(270)" >2</text>
<text fill="#cccccc"  xml:space="preserve" font-size="6.6128" transform="translate(529.344, 106.45) rotate(270)" >C1</text>
<text fill="#cccccc"  xml:space="preserve" font-size="6.6128" transform="translate(537.292, 106.45) rotate(270)" >6.49p</text>
<text fill="#cccccc"  xml:space="preserve" font-size="6.6128" transform="translate(545.24, 106.45) rotate(270)" >m=1</text>
<text fill="#cccccc"  xml:space="preserve" font-size="6.6128" transform="translate(973.995, 14.6931)" >Vresb</text>
<text fill="#cccccc"  xml:space="preserve" font-size="6.6128" transform="translate(973.995, 30.5892)" >dc 0 pwl(0, 0, {per/2}, 0, {per/2+100p} {vdd}</text>
<text fill="#cccccc"  xml:space="preserve" font-size="9.91919" transform="translate(1218.8, 290.314)" >MODEL</text>
<text fill="#cccccc"  xml:space="preserve" font-size="9.91919" style="font-family:Monospace;" transform="translate(1225.15, 317.588)" >.lib $::SG13G2_MODELS/cornerMOSlv.lib mos_tt</text>
<text fill="#cccccc"  xml:space="preserve" font-size="9.91919" style="font-family:Monospace;" transform="translate(1225.15, 328.965)" >.lib $::SG13G2_MODELS/cornerRES.lib res_typ</text>
<text fill="#cccccc"  xml:space="preserve" font-size="9.91919" style="font-family:Monospace;" transform="translate(1225.15, 340.342)" >.inc /foss/pdks/sg13g2/libs.ref/sg13g2_stdcell/spice/sg13g2_stdcell.spice</text>
<text fill="#cccccc"  xml:space="preserve" font-size="9.91919" transform="translate(1218.8, 55.0512)" >NGSPICE</text>
<text fill="#cccccc"  xml:space="preserve" font-size="9.91919" style="font-family:Monospace;" transform="translate(1225.15, 82.3247)" >.param temp=27 vdd = 1.8 per=1u</text>
<text fill="#cccccc"  xml:space="preserve" font-size="9.91919" style="font-family:Monospace;" transform="translate(1225.15, 93.702)" >.model mysw SW vt={vdd/2} ron=0.1</text>
<text fill="#cccccc"  xml:space="preserve" font-size="9.91919" style="font-family:Monospace;" transform="translate(1225.15, 105.079)" >.option method=gear reltol=1e-4</text>
<text fill="#cccccc"  xml:space="preserve" font-size="9.91919" style="font-family:Monospace;" transform="translate(1225.15, 127.834)" >.control</text>
<text fill="#cccccc"  xml:space="preserve" font-size="9.91919" style="font-family:Monospace;" transform="translate(1225.15, 139.211)" >save all </text>
<text fill="#cccccc"  xml:space="preserve" font-size="9.91919" style="font-family:Monospace;" transform="translate(1225.15, 150.589)" >run</text>
<text fill="#cccccc"  xml:space="preserve" font-size="9.91919" style="font-family:Monospace;" transform="translate(1225.15, 161.966)" >tran 10n 30u</text>
<text fill="#cccccc"  xml:space="preserve" font-size="9.91919" style="font-family:Monospace;" transform="translate(1225.15, 173.343)" >plot vo1 vo2</text>
<text fill="#cccccc"  xml:space="preserve" font-size="9.91919" style="font-family:Monospace;" transform="translate(1225.15, 184.72)" >set wr_singlescale</text>
<text fill="#cccccc"  xml:space="preserve" font-size="9.91919" style="font-family:Monospace;" transform="translate(1225.15, 196.098)" >set wr_vecnames</text>
<text fill="#cccccc"  xml:space="preserve" font-size="9.91919" style="font-family:Monospace;" transform="translate(1225.15, 207.475)" >wrdata IDEAL_SwitchCap.txt vo1 p1 p2</text>
<text fill="#cccccc"  xml:space="preserve" font-size="9.91919" style="font-family:Monospace;" transform="translate(1225.15, 218.852)" >.endc</text>
<text fill="#cccccc"  xml:space="preserve" font-size="6.6128" transform="translate(191.905, 8.3346)" >Vsup</text>
<text fill="#cccccc"  xml:space="preserve" font-size="6.6128" transform="translate(191.905, 24.2307)" >dc {vdd}</text>
<text fill="#cccccc"  xml:space="preserve" font-size="6.6128" transform="translate(249.131, 8.3346)" >Vss</text>
<text fill="#cccccc"  xml:space="preserve" font-size="6.6128" transform="translate(249.131, 24.2307)" >dc 0</text>
<text fill="#cccccc"  xml:space="preserve" font-size="13.2256" transform="translate(455.781, 442.74)" >         IdealSwitchCapacitor_VCVS.sch</text>
<text fill="#cccccc"  xml:space="preserve" font-size="13.2256" transform="translate(455.781, 423.665)" >(c) Hrishikesh, @HSB</text>
<text fill="#cccccc"  xml:space="preserve" font-size="13.2256" transform="translate(816.92, 423.665)" >2025-01-25  14:26:26</text>
<text fill="#cccccc"  xml:space="preserve" font-size="33.064" transform="translate(309.537, 441.678)" >SCHEM</text>
<text fill="#cccccc"  xml:space="preserve" font-size="6.6128" transform="translate(754.629, 201.518)" >S5</text>
<text fill="#cccccc"  xml:space="preserve" font-size="6.6128" transform="translate(754.629, 216.097)" >mysw</text>
<text fill="#cccccc"  xml:space="preserve" font-size="1.98384" transform="translate(753.039, 221.432)" >.MODEL SW1 SW( VT=0.9 VH=0.01 RON=0.01 ROFF=10G )</text>
<text fill="#cccccc"  xml:space="preserve" font-size="6.6128" transform="translate(900.873, 201.518)" >S6</text>
<text fill="#cccccc"  xml:space="preserve" font-size="6.6128" transform="translate(900.873, 216.097)" >mysw</text>
<text fill="#cccccc"  xml:space="preserve" font-size="1.98384" transform="translate(899.284, 221.432)" >.MODEL SW1 SW( VT=0.9 VH=0.01 RON=0.01 ROFF=10G )</text>
<text fill="#cccccc"  xml:space="preserve" font-size="6.6128" transform="translate(754.629, 284.178)" >S7</text>
<text fill="#cccccc"  xml:space="preserve" font-size="6.6128" transform="translate(754.629, 298.757)" >mysw</text>
<text fill="#cccccc"  xml:space="preserve" font-size="1.98384" transform="translate(753.039, 304.092)" >.MODEL SW1 SW( VT=0.9 VH=0.01 RON=0.01 ROFF=10G )</text>
<text fill="#cccccc"  xml:space="preserve" font-size="6.6128" transform="translate(900.873, 284.178)" >S8</text>
<text fill="#cccccc"  xml:space="preserve" font-size="6.6128" transform="translate(900.873, 298.757)" >mysw</text>
<text fill="#cccccc"  xml:space="preserve" font-size="1.98384" transform="translate(899.284, 304.092)" >.MODEL SW1 SW( VT=0.9 VH=0.01 RON=0.01 ROFF=10G )</text>
<text fill="#aaaa00"  xml:space="preserve" font-size="6.6128" transform="translate(797.989, 269.411) rotate(270)" >1</text>
<text fill="#aaaa00"  xml:space="preserve" font-size="6.6128" transform="translate(825.012, 269.411) rotate(270)" >2</text>
<text fill="#cccccc"  xml:space="preserve" font-size="6.6128" transform="translate(802.758, 252.694) rotate(270)" >C2</text>
<text fill="#cccccc"  xml:space="preserve" font-size="6.6128" transform="translate(810.706, 252.694) rotate(270)" >54f</text>
<text fill="#cccccc"  xml:space="preserve" font-size="6.6128" transform="translate(818.654, 252.694) rotate(270)" >m=1</text>
<text fill="#aaaa00"  xml:space="preserve" font-size="6.6128" transform="translate(1007.82, 123.167) rotate(270)" >1</text>
<text fill="#aaaa00"  xml:space="preserve" font-size="6.6128" transform="translate(1034.84, 123.167) rotate(270)" >2</text>
<text fill="#cccccc"  xml:space="preserve" font-size="6.6128" transform="translate(1012.59, 106.45) rotate(270)" >C3</text>
<text fill="#cccccc"  xml:space="preserve" font-size="6.6128" transform="translate(1020.54, 106.45) rotate(270)" >98f</text>
<text fill="#cccccc"  xml:space="preserve" font-size="6.6128" transform="translate(1028.48, 106.45) rotate(270)" >m=1</text>
<text fill="#cccccc"  xml:space="preserve" font-size="6.6128" transform="translate(573.413, 168.454)" >1000</text>
<text fill="#cccccc"  xml:space="preserve" font-size="6.6128" transform="translate(573.413, 182.761)" >E2</text>
<text fill="#cccccc"  xml:space="preserve" font-size="6.6128" transform="translate(1056.66, 168.454)" >1000</text>
<text fill="#cccccc"  xml:space="preserve" font-size="6.6128" transform="translate(1056.66, 182.761)" >E1</text>
<path class="l4" d="M306.357 46.0446L306.357 53.9926"/>
<path class="l4" d="M303.178 53.9926L309.537 53.9926"/>
<path class="l4" d="M306.357 57.1719L309.537 53.9926"/>
<path class="l4" d="M303.178 53.9926L306.357 57.1719"/>
<path class="l4" d="M309.537 0L309.537 1.53537"/>
<path class="l4" d="M306.357 0L306.357 33.3277"/>
<circle class="l4" cx="306.357" cy="14.2523" r="9.53769" style="fill:none;" />
<path class="l4" d="M382.659 46.0446L382.659 53.9926"/>
<path class="l4" d="M379.48 53.9926L385.838 53.9926"/>
<path class="l4" d="M382.659 57.1719L385.838 53.9926"/>
<path class="l4" d="M379.48 53.9926L382.659 57.1719"/>
<path class="l4" d="M385.838 0L385.838 1.53537"/>
<path class="l4" d="M382.659 0L382.659 33.3277"/>
<circle class="l4" cx="382.659" cy="14.2523" r="9.53769" style="fill:none;" />
<path class="l4" d="M484.394 46.0446L484.394 53.9926"/>
<path class="l4" d="M481.215 53.9926L487.573 53.9926"/>
<path class="l4" d="M484.394 57.1719L487.573 53.9926"/>
<path class="l4" d="M481.215 53.9926L484.394 57.1719"/>
<path class="l4" d="M487.573 0L487.573 1.53537"/>
<path class="l4" d="M484.394 0L484.394 33.3277"/>
<circle class="l4" cx="484.394" cy="14.2523" r="9.53769" style="fill:none;" />
<path class="l4" d="M713.299 46.0446L713.299 53.9926"/>
<path class="l4" d="M710.119 53.9926L716.478 53.9926"/>
<path class="l4" d="M713.299 57.1719L716.478 53.9926"/>
<path class="l4" d="M710.119 53.9926L713.299 57.1719"/>
<path class="l4" d="M716.478 0L716.478 1.53537"/>
<path class="l4" d="M713.299 0L713.299 33.3277"/>
<circle class="l4" cx="713.299" cy="14.2523" r="9.53769" style="fill:none;" />
<path class="l4" d="M268.207 217.723L268.207 230.44"/>
<path class="l4" d="M261.848 205.006L268.207 217.723"/>
<path class="l4" d="M268.207 192.289L268.207 205.006"/>
<path class="l4" d="M242.773 211.364L265.027 211.364"/>
<path class="l4" d="M265.027 195.468L265.027 198.648"/>
<path class="l4" d="M263.438 197.058L266.617 197.058"/>
<path class="l4" d="M261.848 211.364L261.848 224.081"/>
<path class="l4" d="M242.773 224.081L261.848 224.081"/>
<path class="l4" d="M247.542 206.596L247.542 209.775"/>
<path class="l4" d="M245.952 208.185L249.131 208.185"/>
<path class="l4" d="M223.698 243.157L223.698 251.105"/>
<path class="l4" d="M220.518 251.105L226.877 251.105"/>
<path class="l4" d="M223.698 254.284L226.877 251.105"/>
<path class="l4" d="M220.518 251.105L223.698 254.284"/>
<path class="l4" d="M414.451 217.723L414.451 230.44"/>
<path class="l4" d="M408.093 205.006L414.451 217.723"/>
<path class="l4" d="M414.451 192.289L414.451 205.006"/>
<path class="l4" d="M389.017 211.364L411.272 211.364"/>
<path class="l4" d="M411.272 195.468L411.272 198.648"/>
<path class="l4" d="M409.682 197.058L412.862 197.058"/>
<path class="l4" d="M408.093 211.364L408.093 224.081"/>
<path class="l4" d="M389.017 224.081L408.093 224.081"/>
<path class="l4" d="M393.786 206.596L393.786 209.775"/>
<path class="l4" d="M392.197 208.185L395.376 208.185"/>
<path class="l4" d="M369.942 243.157L369.942 251.105"/>
<path class="l4" d="M366.763 251.105L373.121 251.105"/>
<path class="l4" d="M369.942 254.284L373.121 251.105"/>
<path class="l4" d="M366.763 251.105L369.942 254.284"/>
<path class="l4" d="M268.207 300.383L268.207 313.1"/>
<path class="l4" d="M261.848 287.666L268.207 300.383"/>
<path class="l4" d="M268.207 274.949L268.207 287.666"/>
<path class="l4" d="M242.773 294.024L265.027 294.024"/>
<path class="l4" d="M265.027 278.128L265.027 281.307"/>
<path class="l4" d="M263.438 279.718L266.617 279.718"/>
<path class="l4" d="M261.848 294.024L261.848 306.741"/>
<path class="l4" d="M242.773 306.741L261.848 306.741"/>
<path class="l4" d="M247.542 289.256L247.542 292.435"/>
<path class="l4" d="M245.952 290.845L249.131 290.845"/>
<path class="l4" d="M223.698 325.817L223.698 333.765"/>
<path class="l4" d="M220.518 333.765L226.877 333.765"/>
<path class="l4" d="M223.698 336.944L226.877 333.765"/>
<path class="l4" d="M220.518 333.765L223.698 336.944"/>
<path class="l4" d="M414.451 300.383L414.451 313.1"/>
<path class="l4" d="M408.093 287.666L414.451 300.383"/>
<path class="l4" d="M414.451 274.949L414.451 287.666"/>
<path class="l4" d="M389.017 294.024L411.272 294.024"/>
<path class="l4" d="M411.272 278.128L411.272 281.307"/>
<path class="l4" d="M409.682 279.718L412.862 279.718"/>
<path class="l4" d="M408.093 294.024L408.093 306.741"/>
<path class="l4" d="M389.017 306.741L408.093 306.741"/>
<path class="l4" d="M393.786 289.256L393.786 292.435"/>
<path class="l4" d="M392.197 290.845L395.376 290.845"/>
<path class="l4" d="M369.942 325.817L369.942 333.765"/>
<path class="l4" d="M366.763 333.765L373.121 333.765"/>
<path class="l4" d="M369.942 336.944L373.121 333.765"/>
<path class="l4" d="M366.763 333.765L369.942 336.944"/>
<path class="l4" d="M328.612 262.232L344.508 262.232"/>
<path class="l4" d="M306.357 262.232L322.254 262.232"/>
<path class="l4" d="M322.254 255.874L322.254 268.591"/>
<path class="l4" d="M328.612 255.874L328.612 268.591"/>
<path class="l4" d="M311.126 257.463L311.126 260.643"/>
<path class="l4" d="M309.537 259.053L312.716 259.053"/>
<path class="l4" d="M538.441 115.988L554.337 115.988"/>
<path class="l4" d="M516.187 115.988L532.083 115.988"/>
<path class="l4" d="M532.083 109.629L532.083 122.346"/>
<path class="l4" d="M538.441 109.629L538.441 122.346"/>
<path class="l4" d="M520.955 111.219L520.955 114.398"/>
<path class="l4" d="M519.366 112.808L522.545 112.808"/>
<path class="l4" d="M961.279 52.403L961.279 60.3511"/>
<path class="l4" d="M958.099 60.3511L964.458 60.3511"/>
<path class="l4" d="M961.279 63.5303L964.458 60.3511"/>
<path class="l4" d="M958.099 60.3511L961.279 63.5303"/>
<path class="l4" d="M962.868 6.30421L966.047 6.30421"/>
<path class="l4" d="M964.458 4.7146L964.458 7.89383"/>
<path class="l4" d="M961.279 1.53537L961.279 39.6861"/>
<circle class="l4" cx="961.279" cy="20.6107" r="9.53769" style="fill:none;" />
<path class="l4" d="M1215.62 294.024L1260.13 294.024"/>
<path class="l4" d="M1215.62 294.024L1215.62 306.741"/>
<path class="l4" d="M1215.62 58.7615L1260.13 58.7615"/>
<path class="l4" d="M1215.62 58.7615L1215.62 71.4784"/>
<path class="l4" d="M179.188 46.0446L179.188 53.9926"/>
<path class="l4" d="M176.009 53.9926L182.368 53.9926"/>
<path class="l4" d="M179.188 57.1719L182.368 53.9926"/>
<path class="l4" d="M176.009 53.9926L179.188 57.1719"/>
<path class="l4" d="M182.368 0L182.368 1.53537"/>
<path class="l4" d="M179.188 0L179.188 33.3277"/>
<circle class="l4" cx="179.188" cy="14.2523" r="9.53769" style="fill:none;" />
<path class="l4" d="M236.414 46.0446L236.414 53.9926"/>
<path class="l4" d="M233.235 53.9926L239.594 53.9926"/>
<path class="l4" d="M236.414 57.1719L239.594 53.9926"/>
<path class="l4" d="M233.235 53.9926L236.414 57.1719"/>
<path class="l4" d="M239.594 0L239.594 1.53537"/>
<path class="l4" d="M236.414 0L236.414 33.3277"/>
<circle class="l4" cx="236.414" cy="14.2523" r="9.53769" style="fill:none;" />
<path class="l4" d="M268.207 313.1L268.207 321.048"/>
<path class="l4" d="M265.027 321.048L271.386 321.048"/>
<path class="l4" d="M268.207 324.227L271.386 321.048"/>
<path class="l4" d="M265.027 321.048L268.207 324.227"/>
<path class="l4" d="M751.449 217.723L751.449 230.44"/>
<path class="l4" d="M745.091 205.006L751.449 217.723"/>
<path class="l4" d="M751.449 192.289L751.449 205.006"/>
<path class="l4" d="M726.016 211.364L748.27 211.364"/>
<path class="l4" d="M748.27 195.468L748.27 198.648"/>
<path class="l4" d="M746.681 197.058L749.86 197.058"/>
<path class="l4" d="M745.091 211.364L745.091 224.081"/>
<path class="l4" d="M726.016 224.081L745.091 224.081"/>
<path class="l4" d="M730.784 206.596L730.784 209.775"/>
<path class="l4" d="M729.195 208.185L732.374 208.185"/>
<path class="l4" d="M706.94 243.157L706.94 251.105"/>
<path class="l4" d="M703.761 251.105L710.119 251.105"/>
<path class="l4" d="M706.94 254.284L710.119 251.105"/>
<path class="l4" d="M703.761 251.105L706.94 254.284"/>
<path class="l4" d="M897.694 217.723L897.694 230.44"/>
<path class="l4" d="M891.336 205.006L897.694 217.723"/>
<path class="l4" d="M897.694 192.289L897.694 205.006"/>
<path class="l4" d="M872.26 211.364L894.515 211.364"/>
<path class="l4" d="M894.515 195.468L894.515 198.648"/>
<path class="l4" d="M892.925 197.058L896.104 197.058"/>
<path class="l4" d="M891.336 211.364L891.336 224.081"/>
<path class="l4" d="M872.26 224.081L891.336 224.081"/>
<path class="l4" d="M877.029 206.596L877.029 209.775"/>
<path class="l4" d="M875.439 208.185L878.619 208.185"/>
<path class="l4" d="M853.185 243.157L853.185 251.105"/>
<path class="l4" d="M850.006 251.105L856.364 251.105"/>
<path class="l4" d="M853.185 254.284L856.364 251.105"/>
<path class="l4" d="M850.006 251.105L853.185 254.284"/>
<path class="l4" d="M751.449 300.383L751.449 313.1"/>
<path class="l4" d="M745.091 287.666L751.449 300.383"/>
<path class="l4" d="M751.449 274.949L751.449 287.666"/>
<path class="l4" d="M726.016 294.024L748.27 294.024"/>
<path class="l4" d="M748.27 278.128L748.27 281.307"/>
<path class="l4" d="M746.681 279.718L749.86 279.718"/>
<path class="l4" d="M745.091 294.024L745.091 306.741"/>
<path class="l4" d="M726.016 306.741L745.091 306.741"/>
<path class="l4" d="M730.784 289.256L730.784 292.435"/>
<path class="l4" d="M729.195 290.845L732.374 290.845"/>
<path class="l4" d="M706.94 325.817L706.94 333.765"/>
<path class="l4" d="M703.761 333.765L710.119 333.765"/>
<path class="l4" d="M706.94 336.944L710.119 333.765"/>
<path class="l4" d="M703.761 333.765L706.94 336.944"/>
<path class="l4" d="M897.694 300.383L897.694 313.1"/>
<path class="l4" d="M891.336 287.666L897.694 300.383"/>
<path class="l4" d="M897.694 274.949L897.694 287.666"/>
<path class="l4" d="M872.26 294.024L894.515 294.024"/>
<path class="l4" d="M894.515 278.128L894.515 281.307"/>
<path class="l4" d="M892.925 279.718L896.104 279.718"/>
<path class="l4" d="M891.336 294.024L891.336 306.741"/>
<path class="l4" d="M872.26 306.741L891.336 306.741"/>
<path class="l4" d="M877.029 289.256L877.029 292.435"/>
<path class="l4" d="M875.439 290.845L878.619 290.845"/>
<path class="l4" d="M853.185 325.817L853.185 333.765"/>
<path class="l4" d="M850.006 333.765L856.364 333.765"/>
<path class="l4" d="M853.185 336.944L856.364 333.765"/>
<path class="l4" d="M850.006 333.765L853.185 336.944"/>
<path class="l4" d="M811.855 262.232L827.751 262.232"/>
<path class="l4" d="M789.6 262.232L805.496 262.232"/>
<path class="l4" d="M805.496 255.874L805.496 268.591"/>
<path class="l4" d="M811.855 255.874L811.855 268.591"/>
<path class="l4" d="M794.369 257.463L794.369 260.643"/>
<path class="l4" d="M792.779 259.053L795.959 259.053"/>
<path class="l4" d="M1021.68 115.988L1037.58 115.988"/>
<path class="l4" d="M999.429 115.988L1015.33 115.988"/>
<path class="l4" d="M1015.33 109.629L1015.33 122.346"/>
<path class="l4" d="M1021.68 109.629L1021.68 122.346"/>
<path class="l4" d="M1004.2 111.219L1004.2 114.398"/>
<path class="l4" d="M1002.61 112.808L1005.79 112.808"/>
<path class="l4" d="M751.449 313.1L751.449 321.048"/>
<path class="l4" d="M748.27 321.048L754.629 321.048"/>
<path class="l4" d="M751.449 324.227L754.629 321.048"/>
<path class="l4" d="M748.27 321.048L751.449 324.227"/>
<path class="l4" d="M560.696 192.289L560.696 200.237"/>
<path class="l4" d="M557.517 200.237L563.875 200.237"/>
<path class="l4" d="M560.696 203.416L563.875 200.237"/>
<path class="l4" d="M557.517 200.237L560.696 203.416"/>
<path class="l4" d="M1043.94 192.289L1043.94 200.237"/>
<path class="l4" d="M1040.76 200.237L1047.12 200.237"/>
<path class="l4" d="M1043.94 203.416L1047.12 200.237"/>
<path class="l4" d="M1040.76 200.237L1043.94 203.416"/>
<path class="l4" d="M562.285 187.52L565.465 187.52"/>
<path class="l4" d="M563.875 185.931L563.875 189.11"/>
<path class="l4" d="M560.696 154.138L560.696 192.289"/>
<path class="l4" d="M547.979 173.214L560.696 185.931"/>
<path class="l4" d="M547.979 173.214L560.696 160.497"/>
<path class="l4" d="M560.696 160.497L573.413 173.214"/>
<path class="l4" d="M560.696 185.931L573.413 173.214"/>
<path class="l4" d="M535.262 185.931L538.441 185.931"/>
<path class="l4" d="M541.62 185.931L544.8 185.931"/>
<path class="l4" d="M547.979 185.931L551.158 185.931"/>
<path class="l4" d="M535.262 160.497L538.441 160.497"/>
<path class="l4" d="M541.62 160.497L544.8 160.497"/>
<path class="l4" d="M547.979 160.497L551.158 160.497"/>
<path class="l4" d="M1045.53 187.52L1048.71 187.52"/>
<path class="l4" d="M1047.12 185.931L1047.12 189.11"/>
<path class="l4" d="M1043.94 154.138L1043.94 192.289"/>
<path class="l4" d="M1031.22 173.214L1043.94 185.931"/>
<path class="l4" d="M1031.22 173.214L1043.94 160.497"/>
<path class="l4" d="M1043.94 160.497L1056.66 173.214"/>
<path class="l4" d="M1043.94 185.931L1056.66 173.214"/>
<path class="l4" d="M1018.5 185.931L1021.68 185.931"/>
<path class="l4" d="M1024.86 185.931L1028.04 185.931"/>
<path class="l4" d="M1031.22 185.931L1034.4 185.931"/>
<path class="l4" d="M1018.5 160.497L1021.68 160.497"/>
<path class="l4" d="M1024.86 160.497L1028.04 160.497"/>
<path class="l4" d="M1031.22 160.497L1034.4 160.497"/>
<path class="l5" d="M304.768 44.455L307.947 44.455L307.947 47.6342L304.768 47.6342L304.768 44.455z"/>
<path class="l5" d="M304.768 31.738L307.947 31.738L307.947 34.9173L304.768 34.9173L304.768 31.738z"/>
<path class="l5" d="M381.069 44.455L384.249 44.455L384.249 47.6342L381.069 47.6342L381.069 44.455z"/>
<path class="l5" d="M381.069 31.738L384.249 31.738L384.249 34.9173L381.069 34.9173L381.069 31.738z"/>
<path class="l5" d="M482.805 44.455L485.984 44.455L485.984 47.6342L482.805 47.6342L482.805 44.455z"/>
<path class="l5" d="M482.805 31.738L485.984 31.738L485.984 34.9173L482.805 34.9173L482.805 31.738z"/>
<path class="l5" d="M711.709 44.455L714.888 44.455L714.888 47.6342L711.709 47.6342L711.709 44.455z"/>
<path class="l5" d="M711.709 31.738L714.888 31.738L714.888 34.9173L711.709 34.9173L711.709 31.738z"/>
<path class="l5" d="M241.183 209.775L244.362 209.775L244.362 212.954L241.183 212.954L241.183 209.775z"/>
<path class="l5" d="M266.617 190.699L269.796 190.699L269.796 193.879L266.617 193.879L266.617 190.699z"/>
<path class="l5" d="M266.617 228.85L269.796 228.85L269.796 232.029L266.617 232.029L266.617 228.85z"/>
<path class="l5" d="M241.183 222.492L244.362 222.492L244.362 225.671L241.183 225.671L241.183 222.492z"/>
<path class="l5" d="M222.108 241.567L225.287 241.567L225.287 244.746L222.108 244.746L222.108 241.567z"/>
<path class="l5" d="M222.903 210.57L224.492 210.57L224.492 212.159L222.903 212.159L222.903 210.57z"/>
<path class="l5" d="M387.428 209.775L390.607 209.775L390.607 212.954L387.428 212.954L387.428 209.775z"/>
<path class="l5" d="M412.862 190.699L416.041 190.699L416.041 193.879L412.862 193.879L412.862 190.699z"/>
<path class="l5" d="M412.862 228.85L416.041 228.85L416.041 232.029L412.862 232.029L412.862 228.85z"/>
<path class="l5" d="M387.428 222.492L390.607 222.492L390.607 225.671L387.428 225.671L387.428 222.492z"/>
<path class="l5" d="M368.352 241.567L371.532 241.567L371.532 244.746L368.352 244.746L368.352 241.567z"/>
<path class="l5" d="M369.147 210.57L370.737 210.57L370.737 212.159L369.147 212.159L369.147 210.57z"/>
<path class="l5" d="M241.183 292.435L244.362 292.435L244.362 295.614L241.183 295.614L241.183 292.435z"/>
<path class="l5" d="M266.617 273.359L269.796 273.359L269.796 276.539L266.617 276.539L266.617 273.359z"/>
<path class="l5" d="M266.617 311.51L269.796 311.51L269.796 314.689L266.617 314.689L266.617 311.51z"/>
<path class="l5" d="M241.183 305.152L244.362 305.152L244.362 308.331L241.183 308.331L241.183 305.152z"/>
<path class="l5" d="M222.108 324.227L225.287 324.227L225.287 327.406L222.108 327.406L222.108 324.227z"/>
<path class="l5" d="M222.903 293.23L224.492 293.23L224.492 294.819L222.903 294.819L222.903 293.23z"/>
<path class="l5" d="M387.428 292.435L390.607 292.435L390.607 295.614L387.428 295.614L387.428 292.435z"/>
<path class="l5" d="M412.862 273.359L416.041 273.359L416.041 276.539L412.862 276.539L412.862 273.359z"/>
<path class="l5" d="M412.862 311.51L416.041 311.51L416.041 314.689L412.862 314.689L412.862 311.51z"/>
<path class="l5" d="M387.428 305.152L390.607 305.152L390.607 308.331L387.428 308.331L387.428 305.152z"/>
<path class="l5" d="M368.352 324.227L371.532 324.227L371.532 327.406L368.352 327.406L368.352 324.227z"/>
<path class="l5" d="M369.147 293.23L370.737 293.23L370.737 294.819L369.147 294.819L369.147 293.23z"/>
<path class="l5" d="M515.392 185.136L516.981 185.136L516.981 186.725L515.392 186.725L515.392 185.136z"/>
<path class="l5" d="M304.768 260.643L307.947 260.643L307.947 263.822L304.768 263.822L304.768 260.643z"/>
<path class="l5" d="M342.919 260.643L346.098 260.643L346.098 263.822L342.919 263.822L342.919 260.643z"/>
<path class="l5" d="M413.656 325.022L415.246 325.022L415.246 326.612L413.656 326.612L413.656 325.022z"/>
<path class="l5" d="M514.597 114.398L517.776 114.398L517.776 117.577L514.597 117.577L514.597 114.398z"/>
<path class="l5" d="M552.748 114.398L555.927 114.398L555.927 117.577L552.748 117.577L552.748 114.398z"/>
<path class="l5" d="M267.412 191.494L269.002 191.494L269.002 193.084L267.412 193.084L267.412 191.494z"/>
<path class="l5" d="M629.844 146.985L631.434 146.985L631.434 148.575L629.844 148.575L629.844 146.985z"/>
<path class="l5" d="M959.689 50.8134L962.868 50.8134L962.868 53.9926L959.689 53.9926L959.689 50.8134z"/>
<path class="l5" d="M959.689 -0.0542429L962.868 -0.0542429L962.868 3.12499L959.689 3.12499L959.689 -0.0542429z"/>
<path class="l5" d="M959.689 38.0965L962.868 38.0965L962.868 41.2757L959.689 41.2757L959.689 38.0965z"/>
<path class="l5" d="M177.599 44.455L180.778 44.455L180.778 47.6342L177.599 47.6342L177.599 44.455z"/>
<path class="l5" d="M177.599 31.738L180.778 31.738L180.778 34.9173L177.599 34.9173L177.599 31.738z"/>
<path class="l5" d="M234.825 44.455L238.004 44.455L238.004 47.6342L234.825 47.6342L234.825 44.455z"/>
<path class="l5" d="M234.825 31.738L238.004 31.738L238.004 34.9173L234.825 34.9173L234.825 31.738z"/>
<path class="l5" d="M299.999 418.014L299.8 418.213L299.602 418.412L299.403 418.61L299.204 418.809L299.005 419.008L298.807 419.207L298.608 419.405L298.409 419.604L298.211 419.803L298.012 420.001L297.813 420.2L297.615 420.399L297.416 420.597L297.217 420.796L297.018 420.995L296.82 421.194L296.621 421.392L296.422 421.591L296.224 421.79L296.025 421.988L295.826 422.187L295.628 422.386L295.429 422.584L295.23 422.783L295.031 422.982L294.833 423.181L294.634 423.379L294.435 423.578L294.237 423.777L294.038 423.975L293.839 424.174L293.641 424.373L293.641 424.373L293.448 424.571L293.268 424.77L293.1 424.969L292.945 425.168L292.802 425.366L292.672 425.565L292.554 425.764L292.448 425.962L292.355 426.161L292.274 426.36L292.206 426.559L292.15 426.757L292.107 426.956L292.076 427.155L292.057 427.353L292.051 427.552L292.057 427.751L292.076 427.949L292.107 428.148L292.15 428.347L292.206 428.546L292.274 428.744L292.355 428.943L292.448 429.142L292.554 429.34L292.672 429.539L292.802 429.738L292.945 429.936L293.1 430.135L293.268 430.334L293.448 430.533L293.641 430.731L293.641 430.731L293.84 430.931L294.041 431.132L294.244 431.334L294.448 431.538L294.653 431.744L294.861 431.951L295.069 432.16L295.28 432.371L295.492 432.582L295.705 432.796L295.92 433.011L296.137 433.227L296.355 433.446L296.574 433.665L296.796 433.886L297.018 434.109L297.243 434.333L297.469 434.559L297.696 434.787L297.925 435.016L298.156 435.246L298.388 435.478L298.621 435.712L298.856 435.947L299.093 436.184L299.331 436.422L299.571 436.662L299.813 436.903L300.056 437.146L300.3 437.391L300.546 437.637L300.794 437.885L300.794 437.885L301.041 438.131L301.284 438.375L301.525 438.616L301.762 438.853L301.997 439.088L302.228 439.319L302.456 439.547L302.681 439.772L302.903 439.994L303.122 440.213L303.338 440.429L303.551 440.641L303.76 440.851L303.967 441.058L304.17 441.261L304.37 441.461L304.568 441.658L304.762 441.852L304.953 442.043L305.14 442.231L305.325 442.416L305.507 442.597L305.685 442.776L305.861 442.951L306.033 443.124L306.202 443.293L306.368 443.459L306.531 443.622L306.691 443.782L306.848 443.939L307.002 444.092L307.152 444.243L307.152 444.243L307.297 444.39L307.432 444.532L307.557 444.669L307.674 444.802L307.781 444.93L307.879 445.053L307.967 445.172L308.046 445.286L308.116 445.396L308.177 445.5L308.228 445.6L308.27 445.696L308.303 445.787L308.326 445.873L308.34 445.954L308.344 446.031L308.34 446.103L308.326 446.171L308.303 446.234L308.27 446.292L308.228 446.346L308.177 446.395L308.116 446.439L308.046 446.478L307.967 446.513L307.879 446.544L307.781 446.569L307.674 446.59L307.557 446.606L307.432 446.618L307.297 446.625L307.152 446.627L307.152 446.627L307.003 446.627L306.854 446.627L306.705 446.627L306.556 446.627L306.407 446.627L306.258 446.627L306.109 446.627L305.96 446.627L305.811 446.627L305.662 446.627L305.513 446.627L305.364 446.627L305.215 446.627L305.066 446.627L304.917 446.627L304.768 446.627L304.619 446.627L304.47 446.627L304.321 446.627L304.172 446.627L304.023 446.627L303.874 446.627L303.725 446.627L303.576 446.627L303.427 446.627L303.278 446.627L303.129 446.627L302.98 446.627L302.83 446.627L302.681 446.627L302.532 446.627L302.383 446.627L302.383 446.627L302.235 446.627L302.088 446.627L301.943 446.627L301.8 446.627L301.658 446.627L301.517 446.627L301.378 446.627L301.241 446.627L301.105 446.627L300.971 446.627L300.838 446.627L300.707 446.627L300.577 446.627L300.449 446.627L300.323 446.627L300.198 446.627L300.074 446.627L299.952 446.627L299.832 446.627L299.713 446.627L299.596 446.627L299.481 446.627L299.366 446.627L299.254 446.627L299.143 446.627L299.033 446.627L298.926 446.627L298.819 446.627L298.714 446.627L298.611 446.627L298.51 446.627L298.409 446.627L298.409 446.627L298.31 446.626L298.211 446.621L298.111 446.613L298.012 446.603L297.913 446.589L297.813 446.571L297.714 446.551L297.615 446.528L297.515 446.502L297.416 446.472L297.317 446.44L297.217 446.404L297.118 446.365L297.018 446.323L296.919 446.278L296.82 446.23L296.72 446.179L296.621 446.124L296.522 446.067L296.422 446.006L296.323 445.943L296.224 445.876L296.124 445.806L296.025 445.733L295.926 445.657L295.826 445.578L295.727 445.496L295.628 445.41L295.528 445.322L295.429 445.23L295.33 445.136L295.23 445.038L295.23 445.038L295.131 444.938L295.031 444.839L294.932 444.74L294.833 444.64L294.733 444.541L294.634 444.442L294.535 444.342L294.435 444.243L294.336 444.144L294.237 444.044L294.137 443.945L294.038 443.846L293.939 443.746L293.839 443.647L293.74 443.548L293.641 443.448L293.541 443.349L293.442 443.249L293.342 443.15L293.243 443.051L293.144 442.951L293.044 442.852L292.945 442.753L292.846 442.653L292.746 442.554L292.647 442.455L292.548 442.355L292.448 442.256L292.349 442.157L292.25 442.057L292.15 441.958L292.051 441.859L292.051 441.859L291.95 441.758L291.846 441.654L291.739 441.547L291.629 441.436L291.515 441.323L291.399 441.207L291.279 441.087L291.157 440.964L291.031 440.839L290.902 440.71L290.77 440.578L290.635 440.443L290.497 440.305L290.356 440.163L290.211 440.019L290.064 439.872L289.913 439.721L289.76 439.567L289.603 439.41L289.443 439.251L289.28 439.088L289.114 438.921L288.945 438.752L288.772 438.58L288.597 438.405L288.418 438.226L288.237 438.044L288.052 437.86L287.864 437.672L287.673 437.481L287.479 437.287L287.282 437.09L287.282 437.09L287.083 436.897L286.885 436.717L286.686 436.549L286.487 436.394L286.289 436.251L286.09 436.121L285.891 436.003L285.692 435.897L285.494 435.804L285.295 435.724L285.096 435.655L284.898 435.599L284.699 435.556L284.5 435.525L284.302 435.506L284.103 435.5L283.904 435.506L283.705 435.525L283.507 435.556L283.308 435.599L283.109 435.655L282.911 435.724L282.712 435.804L282.513 435.897L282.315 436.003L282.116 436.121L281.917 436.251L281.718 436.394L281.52 436.549L281.321 436.717L281.122 436.897L280.924 437.09L280.924 437.09L280.726 437.287L280.532 437.481L280.341 437.672L280.154 437.86L279.969 438.044L279.787 438.226L279.609 438.405L279.433 438.58L279.261 438.752L279.092 438.921L278.926 439.088L278.763 439.251L278.603 439.41L278.446 439.567L278.292 439.721L278.142 439.872L277.994 440.019L277.85 440.163L277.709 440.305L277.571 440.443L277.435 440.578L277.304 440.71L277.175 440.839L277.049 440.964L276.926 441.087L276.807 441.207L276.69 441.323L276.577 441.436L276.467 441.547L276.36 441.654L276.256 441.758L276.155 441.859L276.155 441.859L276.055 441.958L275.956 442.057L275.857 442.157L275.757 442.256L275.658 442.355L275.559 442.455L275.459 442.554L275.36 442.653L275.261 442.753L275.161 442.852L275.062 442.951L274.963 443.051L274.863 443.15L274.764 443.249L274.665 443.349L274.565 443.448L274.466 443.548L274.366 443.647L274.267 443.746L274.168 443.846L274.068 443.945L273.969 444.044L273.87 444.144L273.77 444.243L273.671 444.342L273.572 444.442L273.472 444.541L273.373 444.64L273.274 444.74L273.174 444.839L273.075 444.938L272.976 445.038L272.976 445.038L272.876 445.136L272.777 445.23L272.677 445.322L272.578 445.41L272.479 445.496L272.379 445.578L272.28 445.657L272.181 445.733L272.081 445.806L271.982 445.876L271.883 445.943L271.783 446.006L271.684 446.067L271.585 446.124L271.485 446.179L271.386 446.23L271.287 446.278L271.187 446.323L271.088 446.365L270.989 446.404L270.889 446.44L270.79 446.472L270.69 446.502L270.591 446.528L270.492 446.551L270.392 446.571L270.293 446.589L270.194 446.603L270.094 446.613L269.995 446.621L269.896 446.626L269.796 446.627L269.796 446.627L269.696 446.627L269.595 446.627L269.491 446.627L269.386 446.627L269.28 446.627L269.172 446.627L269.063 446.627L268.952 446.627L268.839 446.627L268.725 446.627L268.61 446.627L268.492 446.627L268.374 446.627L268.253 446.627L268.131 446.627L268.008 446.627L267.883 446.627L267.757 446.627L267.628 446.627L267.499 446.627L267.368 446.627L267.235 446.627L267.101 446.627L266.965 446.627L266.827 446.627L266.689 446.627L266.548 446.627L266.406 446.627L266.262 446.627L266.117 446.627L265.971 446.627L265.822 446.627L265.822 446.627L265.673 446.627L265.524 446.627L265.375 446.627L265.226 446.627L265.077 446.627L264.928 446.627L264.779 446.627L264.63 446.627L264.481 446.627L264.332 446.627L264.183 446.627L264.034 446.627L263.885 446.627L263.736 446.627L263.587 446.627L263.438 446.627L263.289 446.627L263.14 446.627L262.991 446.627L262.842 446.627L262.693 446.627L262.544 446.627L262.395 446.627L262.246 446.627L262.097 446.627L261.948 446.627L261.799 446.627L261.65 446.627L261.501 446.627L261.351 446.627L261.202 446.627L261.053 446.627L261.053 446.627L260.909 446.625L260.774 446.618L260.648 446.606L260.532 446.59L260.425 446.569L260.327 446.544L260.238 446.513L260.159 446.478L260.089 446.439L260.029 446.395L259.978 446.346L259.936 446.292L259.903 446.234L259.88 446.171L259.866 446.103L259.861 446.031L259.866 445.954L259.88 445.873L259.903 445.787L259.936 445.696L259.978 445.6L260.029 445.5L260.089 445.396L260.159 445.286L260.238 445.172L260.327 445.053L260.425 444.93L260.532 444.802L260.648 444.669L260.774 444.532L260.909 444.39L261.053 444.243L261.053 444.243L261.204 444.092L261.358 443.939L261.514 443.782L261.674 443.622L261.837 443.459L262.003 443.293L262.173 443.124L262.345 442.951L262.52 442.776L262.699 442.597L262.881 442.416L263.065 442.231L263.253 442.043L263.444 441.852L263.638 441.658L263.835 441.461L264.036 441.261L264.239 441.058L264.445 440.851L264.655 440.641L264.868 440.429L265.083 440.213L265.302 439.994L265.524 439.772L265.749 439.547L265.978 439.319L266.209 439.088L266.443 438.853L266.681 438.616L266.921 438.375L267.165 438.131L267.412 437.885L267.412 437.885L267.66 437.637L267.906 437.391L268.15 437.146L268.393 436.903L268.634 436.662L268.874 436.422L269.113 436.184L269.349 435.947L269.584 435.712L269.818 435.478L270.05 435.246L270.281 435.016L270.51 434.787L270.737 434.559L270.963 434.333L271.187 434.109L271.41 433.886L271.631 433.665L271.851 433.446L272.069 433.227L272.286 433.011L272.501 432.796L272.714 432.582L272.926 432.371L273.136 432.16L273.345 431.951L273.552 431.744L273.758 431.538L273.962 431.334L274.165 431.132L274.366 430.931L274.565 430.731L274.565 430.731L274.758 430.533L274.938 430.334L275.105 430.135L275.261 429.936L275.403 429.738L275.534 429.539L275.652 429.34L275.757 429.142L275.851 428.943L275.931 428.744L276 428.546L276.055 428.347L276.099 428.148L276.13 427.949L276.149 427.751L276.155 427.552L276.149 427.353L276.13 427.155L276.099 426.956L276.055 426.757L276 426.559L275.931 426.36L275.851 426.161L275.757 425.962L275.652 425.764L275.534 425.565L275.403 425.366L275.261 425.168L275.105 424.969L274.938 424.77L274.758 424.571L274.565 424.373L274.565 424.373L274.366 424.173L274.165 423.972L273.962 423.77L273.758 423.566L273.552 423.36L273.345 423.153L273.136 422.944L272.926 422.733L272.714 422.522L272.501 422.308L272.286 422.093L272.069 421.877L271.851 421.658L271.631 421.439L271.41 421.218L271.187 420.995L270.963 420.771L270.737 420.545L270.51 420.317L270.281 420.088L270.05 419.858L269.818 419.626L269.584 419.392L269.349 419.157L269.113 418.92L268.874 418.682L268.634 418.442L268.393 418.201L268.15 417.958L267.906 417.713L267.66 417.467L267.412 417.22L267.412 417.22L267.165 416.973L266.921 416.729L266.681 416.488L266.443 416.251L266.209 416.016L265.978 415.785L265.749 415.557L265.524 415.332L265.302 415.11L265.083 414.891L264.868 414.675L264.655 414.463L264.445 414.253L264.239 414.046L264.036 413.843L263.835 413.643L263.638 413.446L263.444 413.252L263.253 413.061L263.065 412.873L262.881 412.688L262.699 412.507L262.52 412.328L262.345 412.153L262.173 411.98L262.003 411.811L261.837 411.645L261.674 411.482L261.514 411.322L261.358 411.165L261.204 411.012L261.053 410.861L261.053 410.861L260.909 410.714L260.774 410.572L260.648 410.435L260.532 410.302L260.425 410.174L260.327 410.051L260.238 409.932L260.159 409.818L260.089 409.708L260.029 409.604L259.978 409.504L259.936 409.408L259.903 409.317L259.88 409.231L259.866 409.15L259.861 409.073L259.866 409.001L259.88 408.933L259.903 408.87L259.936 408.812L259.978 408.758L260.029 408.709L260.089 408.665L260.159 408.626L260.238 408.591L260.327 408.56L260.425 408.535L260.532 408.514L260.648 408.498L260.774 408.486L260.909 408.479L261.053 408.477L261.053 408.477L261.202 408.477L261.351 408.477L261.501 408.477L261.65 408.477L261.799 408.477L261.948 408.477L262.097 408.477L262.246 408.477L262.395 408.477L262.544 408.477L262.693 408.477L262.842 408.477L262.991 408.477L263.14 408.477L263.289 408.477L263.438 408.477L263.587 408.477L263.736 408.477L263.885 408.477L264.034 408.477L264.183 408.477L264.332 408.477L264.481 408.477L264.63 408.477L264.779 408.477L264.928 408.477L265.077 408.477L265.226 408.477L265.375 408.477L265.524 408.477L265.673 408.477L265.822 408.477L265.822 408.477L265.971 408.477L266.117 408.477L266.262 408.477L266.406 408.477L266.548 408.477L266.689 408.477L266.827 408.477L266.965 408.477L267.101 408.477L267.235 408.477L267.368 408.477L267.499 408.477L267.628 408.477L267.757 408.477L267.883 408.477L268.008 408.477L268.131 408.477L268.253 408.477L268.374 408.477L268.492 408.477L268.61 408.477L268.725 408.477L268.839 408.477L268.952 408.477L269.063 408.477L269.172 408.477L269.28 408.477L269.386 408.477L269.491 408.477L269.595 408.477L269.696 408.477L269.796 408.477L269.796 408.477L269.896 408.478L269.995 408.483L270.094 408.491L270.194 408.501L270.293 408.515L270.392 408.533L270.492 408.553L270.591 408.576L270.69 408.602L270.79 408.632L270.889 408.664L270.989 408.7L271.088 408.739L271.187 408.781L271.287 408.826L271.386 408.874L271.485 408.925L271.585 408.98L271.684 409.037L271.783 409.098L271.883 409.161L271.982 409.228L272.081 409.298L272.181 409.371L272.28 409.447L272.379 409.526L272.479 409.608L272.578 409.694L272.677 409.782L272.777 409.874L272.876 409.968L272.976 410.066L272.976 410.066L273.075 410.166L273.174 410.265L273.274 410.364L273.373 410.464L273.472 410.563L273.572 410.662L273.671 410.762L273.77 410.861L273.87 410.96L273.969 411.06L274.068 411.159L274.168 411.258L274.267 411.358L274.366 411.457L274.466 411.557L274.565 411.656L274.665 411.755L274.764 411.855L274.863 411.954L274.963 412.053L275.062 412.153L275.161 412.252L275.261 412.351L275.36 412.451L275.459 412.55L275.559 412.649L275.658 412.749L275.757 412.848L275.857 412.947L275.956 413.047L276.055 413.146L276.155 413.245L276.155 413.245L276.256 413.346L276.36 413.45L276.467 413.558L276.577 413.668L276.69 413.781L276.807 413.897L276.926 414.017L277.049 414.14L277.175 414.265L277.304 414.394L277.435 414.526L277.571 414.661L277.709 414.799L277.85 414.941L277.994 415.085L278.142 415.233L278.292 415.383L278.446 415.537L278.603 415.694L278.763 415.853L278.926 416.016L279.092 416.183L279.261 416.352L279.433 416.524L279.609 416.699L279.787 416.878L279.969 417.06L280.154 417.244L280.341 417.432L280.532 417.623L280.726 417.817L280.924 418.014L280.924 418.014L281.122 418.207L281.321 418.387L281.52 418.555L281.718 418.71L281.917 418.853L282.116 418.983L282.315 419.101L282.513 419.207L282.712 419.3L282.911 419.38L283.109 419.449L283.308 419.505L283.507 419.548L283.705 419.579L283.904 419.598L284.103 419.604L284.302 419.598L284.5 419.579L284.699 419.548L284.898 419.505L285.096 419.449L285.295 419.38L285.494 419.3L285.692 419.207L285.891 419.101L286.09 418.983L286.289 418.853L286.487 418.71L286.686 418.555L286.885 418.387L287.083 418.207L287.282 418.014L287.282 418.014L287.479 417.817L287.673 417.623L287.864 417.432L288.052 417.244L288.237 417.06L288.418 416.878L288.597 416.699L288.772 416.524L288.945 416.352L289.114 416.183L289.28 416.016L289.443 415.853L289.603 415.694L289.76 415.537L289.913 415.383L290.064 415.233L290.211 415.085L290.356 414.941L290.497 414.799L290.635 414.661L290.77 414.526L290.902 414.394L291.031 414.265L291.157 414.14L291.279 414.017L291.399 413.897L291.515 413.781L291.629 413.668L291.739 413.558L291.846 413.45L291.95 413.346L292.051 413.245L292.051 413.245L292.15 413.146L292.25 413.047L292.349 412.947L292.448 412.848L292.548 412.749L292.647 412.649L292.746 412.55L292.846 412.451L292.945 412.351L293.044 412.252L293.144 412.153L293.243 412.053L293.342 411.954L293.442 411.855L293.541 411.755L293.641 411.656L293.74 411.557L293.839 411.457L293.939 411.358L294.038 411.258L294.137 411.159L294.237 411.06L294.336 410.96L294.435 410.861L294.535 410.762L294.634 410.662L294.733 410.563L294.833 410.464L294.932 410.364L295.031 410.265L295.131 410.166L295.23 410.066L295.23 410.066L295.33 409.968L295.429 409.874L295.528 409.782L295.628 409.694L295.727 409.608L295.826 409.526L295.926 409.447L296.025 409.371L296.124 409.298L296.224 409.228L296.323 409.161L296.422 409.098L296.522 409.037L296.621 408.98L296.72 408.925L296.82 408.874L296.919 408.826L297.018 408.781L297.118 408.739L297.217 408.7L297.317 408.664L297.416 408.632L297.515 408.602L297.615 408.576L297.714 408.553L297.813 408.533L297.913 408.515L298.012 408.501L298.111 408.491L298.211 408.483L298.31 408.478L298.409 408.477L298.409 408.477L298.51 408.477L298.611 408.477L298.714 408.477L298.819 408.477L298.926 408.477L299.033 408.477L299.143 408.477L299.254 408.477L299.366 408.477L299.481 408.477L299.596 408.477L299.713 408.477L299.832 408.477L299.952 408.477L300.074 408.477L300.198 408.477L300.323 408.477L300.449 408.477L300.577 408.477L300.707 408.477L300.838 408.477L300.971 408.477L301.105 408.477L301.241 408.477L301.378 408.477L301.517 408.477L301.658 408.477L301.8 408.477L301.943 408.477L302.088 408.477L302.235 408.477L302.383 408.477L302.383 408.477L302.532 408.477L302.681 408.477L302.83 408.477L302.98 408.477L303.129 408.477L303.278 408.477L303.427 408.477L303.576 408.477L303.725 408.477L303.874 408.477L304.023 408.477L304.172 408.477L304.321 408.477L304.47 408.477L304.619 408.477L304.768 408.477L304.917 408.477L305.066 408.477L305.215 408.477L305.364 408.477L305.513 408.477L305.662 408.477L305.811 408.477L305.96 408.477L306.109 408.477L306.258 408.477L306.407 408.477L306.556 408.477L306.705 408.477L306.854 408.477L307.003 408.477L307.152 408.477L307.152 408.477L307.297 408.479L307.432 408.486L307.557 408.498L307.674 408.514L307.781 408.535L307.879 408.56L307.967 408.591L308.046 408.626L308.116 408.665L308.177 408.709L308.228 408.758L308.27 408.812L308.303 408.87L308.326 408.933L308.34 409.001L308.344 409.073L308.34 409.15L308.326 409.231L308.303 409.317L308.27 409.408L308.228 409.504L308.177 409.604L308.116 409.708L308.046 409.818L307.967 409.932L307.879 410.051L307.781 410.174L307.674 410.302L307.557 410.435L307.432 410.572L307.297 410.714L307.152 410.861L307.152 410.861L307.001 411.012L306.845 411.168L306.684 411.329L306.519 411.494L306.349 411.664L306.174 411.839L305.995 412.018L305.811 412.202L305.622 412.391L305.429 412.584L305.231 412.782L305.029 412.985L304.821 413.192L304.609 413.404L304.393 413.62L304.172 413.842L303.946 414.067L303.715 414.298L303.48 414.533L303.24 414.773L302.996 415.017L302.747 415.267L302.493 415.52L302.234 415.779L301.971 416.042L301.703 416.31L301.431 416.582L301.154 416.859L300.872 417.141L300.586 417.428L300.295 417.719L299.999 418.014"/>
<path class="l5" d="M266.617 311.51L269.796 311.51L269.796 314.689L266.617 314.689L266.617 311.51z"/>
<path class="l5" d="M724.426 209.775L727.605 209.775L727.605 212.954L724.426 212.954L724.426 209.775z"/>
<path class="l5" d="M749.86 190.699L753.039 190.699L753.039 193.879L749.86 193.879L749.86 190.699z"/>
<path class="l5" d="M749.86 228.85L753.039 228.85L753.039 232.029L749.86 232.029L749.86 228.85z"/>
<path class="l5" d="M724.426 222.492L727.605 222.492L727.605 225.671L724.426 225.671L724.426 222.492z"/>
<path class="l5" d="M705.351 241.567L708.53 241.567L708.53 244.746L705.351 244.746L705.351 241.567z"/>
<path class="l5" d="M706.145 210.57L707.735 210.57L707.735 212.159L706.145 212.159L706.145 210.57z"/>
<path class="l5" d="M870.671 209.775L873.85 209.775L873.85 212.954L870.671 212.954L870.671 209.775z"/>
<path class="l5" d="M896.104 190.699L899.284 190.699L899.284 193.879L896.104 193.879L896.104 190.699z"/>
<path class="l5" d="M896.104 228.85L899.284 228.85L899.284 232.029L896.104 232.029L896.104 228.85z"/>
<path class="l5" d="M870.671 222.492L873.85 222.492L873.85 225.671L870.671 225.671L870.671 222.492z"/>
<path class="l5" d="M851.595 241.567L854.774 241.567L854.774 244.746L851.595 244.746L851.595 241.567z"/>
<path class="l5" d="M852.39 210.57L853.98 210.57L853.98 212.159L852.39 212.159L852.39 210.57z"/>
<path class="l5" d="M724.426 292.435L727.605 292.435L727.605 295.614L724.426 295.614L724.426 292.435z"/>
<path class="l5" d="M749.86 273.359L753.039 273.359L753.039 276.539L749.86 276.539L749.86 273.359z"/>
<path class="l5" d="M749.86 311.51L753.039 311.51L753.039 314.689L749.86 314.689L749.86 311.51z"/>
<path class="l5" d="M724.426 305.152L727.605 305.152L727.605 308.331L724.426 308.331L724.426 305.152z"/>
<path class="l5" d="M705.351 324.227L708.53 324.227L708.53 327.406L705.351 327.406L705.351 324.227z"/>
<path class="l5" d="M706.145 293.23L707.735 293.23L707.735 294.819L706.145 294.819L706.145 293.23z"/>
<path class="l5" d="M870.671 292.435L873.85 292.435L873.85 295.614L870.671 295.614L870.671 292.435z"/>
<path class="l5" d="M896.104 273.359L899.284 273.359L899.284 276.539L896.104 276.539L896.104 273.359z"/>
<path class="l5" d="M896.104 311.51L899.284 311.51L899.284 314.689L896.104 314.689L896.104 311.51z"/>
<path class="l5" d="M870.671 305.152L873.85 305.152L873.85 308.331L870.671 308.331L870.671 305.152z"/>
<path class="l5" d="M851.595 324.227L854.774 324.227L854.774 327.406L851.595 327.406L851.595 324.227z"/>
<path class="l5" d="M852.39 293.23L853.98 293.23L853.98 294.819L852.39 294.819L852.39 293.23z"/>
<path class="l5" d="M998.634 185.136L1000.22 185.136L1000.22 186.725L998.634 186.725L998.634 185.136z"/>
<path class="l5" d="M788.011 260.643L791.19 260.643L791.19 263.822L788.011 263.822L788.011 260.643z"/>
<path class="l5" d="M826.161 260.643L829.341 260.643L829.341 263.822L826.161 263.822L826.161 260.643z"/>
<path class="l5" d="M896.899 325.022L898.489 325.022L898.489 326.612L896.899 326.612L896.899 325.022z"/>
<path class="l5" d="M997.84 114.398L1001.02 114.398L1001.02 117.577L997.84 117.577L997.84 114.398z"/>
<path class="l5" d="M1035.99 114.398L1039.17 114.398L1039.17 117.577L1035.99 117.577L1035.99 114.398z"/>
<path class="l5" d="M750.655 191.494L752.244 191.494L752.244 193.084L750.655 193.084L750.655 191.494z"/>
<path class="l5" d="M1113.09 146.985L1114.68 146.985L1114.68 148.575L1113.09 148.575L1113.09 146.985z"/>
<path class="l5" d="M749.86 311.51L753.039 311.51L753.039 314.689L749.86 314.689L749.86 311.51z"/>
<path class="l5" d="M559.106 190.699L562.285 190.699L562.285 193.879L559.106 193.879L559.106 190.699z"/>
<path class="l5" d="M1042.35 190.699L1045.53 190.699L1045.53 193.879L1042.35 193.879L1042.35 190.699z"/>
<path class="l5" d="M559.106 190.699L562.285 190.699L562.285 193.879L559.106 193.879L559.106 190.699z"/>
<path class="l5" d="M559.106 152.549L562.285 152.549L562.285 155.728L559.106 155.728L559.106 152.549z"/>
<path class="l5" d="M533.672 184.341L536.852 184.341L536.852 187.52L533.672 187.52L533.672 184.341z"/>
<path class="l5" d="M533.672 158.907L536.852 158.907L536.852 162.086L533.672 162.086L533.672 158.907z"/>
<path class="l5" d="M1042.35 190.699L1045.53 190.699L1045.53 193.879L1042.35 193.879L1042.35 190.699z"/>
<path class="l5" d="M1042.35 152.549L1045.53 152.549L1045.53 155.728L1042.35 155.728L1042.35 152.549z"/>
<path class="l5" d="M1016.92 184.341L1020.09 184.341L1020.09 187.52L1016.92 187.52L1016.92 184.341z"/>
<path class="l5" d="M1016.92 158.907L1020.09 158.907L1020.09 162.086L1016.92 162.086L1016.92 158.907z"/>
<path class="l6" d="M449.423 427.552L954.92 427.552"/>
<path class="l6" d="M204.622 427.552L245.952 427.552"/>
<path class="l1" d="M306.357 33.3277L306.357 46.0446"/>
<path class="l1" d="M382.659 33.3277L382.659 46.0446"/>
<path class="l1" d="M484.394 33.3277L484.394 46.0446"/>
<path class="l1" d="M713.299 33.3277L713.299 46.0446"/>
<path class="l1" d="M268.207 262.232L268.207 274.949"/>
<path class="l1" d="M223.698 224.081L242.773 224.081"/>
<path class="l1" d="M223.698 224.081L223.698 243.157"/>
<path class="l1" d="M223.698 211.364L242.773 211.364"/>
<path class="l1" d="M414.451 262.232L414.451 274.949"/>
<path class="l1" d="M369.942 224.081L389.017 224.081"/>
<path class="l1" d="M369.942 224.081L369.942 243.157"/>
<path class="l1" d="M369.942 211.364L389.017 211.364"/>
<path class="l1" d="M223.698 306.741L242.773 306.741"/>
<path class="l1" d="M223.698 306.741L223.698 325.817"/>
<path class="l1" d="M223.698 294.024L242.773 294.024"/>
<path class="l1" d="M414.451 313.1L414.451 325.817"/>
<path class="l1" d="M369.942 306.741L389.017 306.741"/>
<path class="l1" d="M369.942 306.741L369.942 325.817"/>
<path class="l1" d="M369.942 294.024L389.017 294.024"/>
<path class="l1" d="M516.187 185.931L535.262 185.931"/>
<path class="l1" d="M414.451 160.497L414.451 192.289"/>
<path class="l1" d="M503.47 160.497L535.262 160.497"/>
<path class="l1" d="M268.207 262.232L306.357 262.232"/>
<path class="l1" d="M268.207 230.44L268.207 262.232"/>
<path class="l1" d="M344.508 262.232L414.451 262.232"/>
<path class="l1" d="M414.451 230.44L414.451 262.232"/>
<path class="l1" d="M554.337 115.988L560.696 115.988"/>
<path class="l1" d="M503.47 115.988L516.187 115.988"/>
<path class="l1" d="M503.47 115.988L503.47 160.497"/>
<path class="l1" d="M414.451 160.497L503.47 160.497"/>
<path class="l1" d="M560.696 147.78L560.696 154.138"/>
<path class="l1" d="M961.279 39.6861L961.279 52.403"/>
<path class="l7" d="M961.279 0L961.279 1.53537"/>
<path class="l1" d="M179.188 33.3277L179.188 46.0446"/>
<path class="l1" d="M236.414 33.3277L236.414 46.0446"/>
<path class="l1" d="M560.696 147.78L630.639 147.78"/>
<path class="l1" d="M560.696 115.988L560.696 147.78"/>
<path class="l1" d="M751.449 262.232L751.449 274.949"/>
<path class="l1" d="M706.94 224.081L726.016 224.081"/>
<path class="l1" d="M706.94 224.081L706.94 243.157"/>
<path class="l1" d="M706.94 211.364L726.016 211.364"/>
<path class="l1" d="M897.694 262.232L897.694 274.949"/>
<path class="l1" d="M853.185 224.081L872.26 224.081"/>
<path class="l1" d="M853.185 224.081L853.185 243.157"/>
<path class="l1" d="M853.185 211.364L872.26 211.364"/>
<path class="l1" d="M706.94 306.741L726.016 306.741"/>
<path class="l1" d="M706.94 306.741L706.94 325.817"/>
<path class="l1" d="M706.94 294.024L726.016 294.024"/>
<path class="l1" d="M897.694 313.1L897.694 325.817"/>
<path class="l1" d="M853.185 306.741L872.26 306.741"/>
<path class="l1" d="M853.185 306.741L853.185 325.817"/>
<path class="l1" d="M853.185 294.024L872.26 294.024"/>
<path class="l1" d="M999.429 185.931L1018.5 185.931"/>
<path class="l1" d="M897.694 160.497L897.694 192.289"/>
<path class="l1" d="M986.712 160.497L1018.5 160.497"/>
<path class="l1" d="M751.449 262.232L789.6 262.232"/>
<path class="l1" d="M751.449 230.44L751.449 262.232"/>
<path class="l1" d="M827.751 262.232L897.694 262.232"/>
<path class="l1" d="M897.694 230.44L897.694 262.232"/>
<path class="l1" d="M1037.58 115.988L1043.94 115.988"/>
<path class="l1" d="M986.712 115.988L999.429 115.988"/>
<path class="l1" d="M986.712 115.988L986.712 160.497"/>
<path class="l1" d="M897.694 160.497L986.712 160.497"/>
<path class="l1" d="M1043.94 147.78L1043.94 154.138"/>
<path class="l1" d="M1043.94 147.78L1113.88 147.78"/>
<path class="l1" d="M1043.94 115.988L1043.94 147.78"/>
<circle class="l1" cx="414.451" cy="262.232" r="2.35263"/>
<circle class="l1" cx="268.207" cy="262.232" r="2.35263"/>
<circle class="l1" cx="268.207" cy="262.232" r="2.35263"/>
<circle class="l1" cx="268.207" cy="262.232" r="2.35263"/>
<circle class="l1" cx="560.696" cy="147.78" r="2.35263"/>
<circle class="l1" cx="560.696" cy="147.78" r="2.35263"/>
<circle class="l1" cx="560.696" cy="147.78" r="2.35263"/>
<circle class="l1" cx="503.47" cy="160.497" r="2.35263"/>
<circle class="l1" cx="503.47" cy="160.497" r="2.35263"/>
<circle class="l1" cx="414.451" cy="262.232" r="2.35263"/>
<circle class="l1" cx="503.47" cy="160.497" r="2.35263"/>
<circle class="l1" cx="414.451" cy="262.232" r="2.35263"/>
<circle class="l1" cx="897.694" cy="262.232" r="2.35263"/>
<circle class="l1" cx="751.449" cy="262.232" r="2.35263"/>
<circle class="l1" cx="751.449" cy="262.232" r="2.35263"/>
<circle class="l1" cx="751.449" cy="262.232" r="2.35263"/>
<circle class="l1" cx="1043.94" cy="147.78" r="2.35263"/>
<circle class="l1" cx="1043.94" cy="147.78" r="2.35263"/>
<circle class="l1" cx="1043.94" cy="147.78" r="2.35263"/>
<circle class="l1" cx="986.712" cy="160.497" r="2.35263"/>
<circle class="l1" cx="986.712" cy="160.497" r="2.35263"/>
<circle class="l1" cx="897.694" cy="262.232" r="2.35263"/>
<circle class="l1" cx="986.712" cy="160.497" r="2.35263"/>
<circle class="l1" cx="897.694" cy="262.232" r="2.35263"/>
</svg>
