<svg xmlns="http://www.w3.org/2000/svg" xmlns:xlink="http://www.w3.org/1999/xlink" width="1502" height="507" version="1.1">
<style type="text/css">
.l0{
  fill: #000000;
  stroke: #000000;
  stroke-linecap:round;
  stroke-linejoin:round;
  stroke-width: 0.970993;
}
.l1{
  fill: #00ccee;
  stroke: #00ccee;
  stroke-linecap:round;
  stroke-linejoin:round;
  stroke-width: 0.970993;
}
.l2{
  fill: #4f4f4f; fill-opacity: 0.2;
  stroke: #4f4f4f;
  stroke-linecap:round;
  stroke-linejoin:round;
  stroke-width: 0.970993;
}
.l3{
  fill: #cccccc; fill-opacity: 0.5;
  stroke: #cccccc;
  stroke-linecap:round;
  stroke-linejoin:round;
  stroke-width: 0.970993;
}
.l4{
  fill: #88dd00;
  stroke: #88dd00;
  stroke-linecap:round;
  stroke-linejoin:round;
  stroke-width: 0.970993;
}
.l5{
  fill: #bb2200;
  stroke: #bb2200;
  stroke-linecap:round;
  stroke-linejoin:round;
  stroke-width: 0.970993;
}
.l6{
  fill: #00ccee; fill-opacity: 0.5;
  stroke: #00ccee;
  stroke-linecap:round;
  stroke-linejoin:round;
  stroke-width: 0.970993;
}
.l7{
  fill: #ff0000; fill-opacity: 0.5;
  stroke: #ff0000;
  stroke-linecap:round;
  stroke-linejoin:round;
  stroke-width: 0.970993;
}
.l8{
  fill: #ffff00; fill-opacity: 0.5;
  stroke: #ffff00;
  stroke-linecap:round;
  stroke-linejoin:round;
  stroke-width: 0.970993;
}
.l9{
  fill: #ffffff; fill-opacity: 0.5;
  stroke: #ffffff;
  stroke-linecap:round;
  stroke-linejoin:round;
  stroke-width: 0.970993;
}
.l10{
  fill: #ff00ff;
  stroke: #ff00ff;
  stroke-linecap:round;
  stroke-linejoin:round;
  stroke-width: 0.970993;
}
.l11{
  fill: #00ff00; fill-opacity: 0.5;
  stroke: #00ff00;
  stroke-linecap:round;
  stroke-linejoin:round;
  stroke-width: 0.970993;
}
.l12{
  fill: #0000ff; fill-opacity: 0.5;
  stroke: #0000ff;
  stroke-linecap:round;
  stroke-linejoin:round;
  stroke-width: 0.970993;
}
.l13{
  fill: #aaaa00; fill-opacity: 0.5;
  stroke: #aaaa00;
  stroke-linecap:round;
  stroke-linejoin:round;
  stroke-width: 0.970993;
}
.l14{
  fill: #aaccaa; fill-opacity: 0.2;
  stroke: #aaccaa;
  stroke-linecap:round;
  stroke-linejoin:round;
  stroke-width: 0.970993;
}
.l15{
  fill: #ff7777; fill-opacity: 0.5;
  stroke: #ff7777;
  stroke-linecap:round;
  stroke-linejoin:round;
  stroke-width: 0.970993;
}
.l16{
  fill: #bfff81; fill-opacity: 0.5;
  stroke: #bfff81;
  stroke-linecap:round;
  stroke-linejoin:round;
  stroke-width: 0.970993;
}
.l17{
  fill: #00ffcc; fill-opacity: 0.2;
  stroke: #00ffcc;
  stroke-linecap:round;
  stroke-linejoin:round;
  stroke-width: 0.970993;
}
.l18{
  fill: #ce0097; fill-opacity: 0.5;
  stroke: #ce0097;
  stroke-linecap:round;
  stroke-linejoin:round;
  stroke-width: 0.970993;
}
.l19{
  fill: #d2d46b; fill-opacity: 0.2;
  stroke: #d2d46b;
  stroke-linecap:round;
  stroke-linejoin:round;
  stroke-width: 0.970993;
}
.l20{
  fill: #ef6158; fill-opacity: 0.2;
  stroke: #ef6158;
  stroke-linecap:round;
  stroke-linejoin:round;
  stroke-width: 0.970993;
}
.l21{
  fill: #fdb200; fill-opacity: 0.2;
  stroke: #fdb200;
  stroke-linecap:round;
  stroke-linejoin:round;
  stroke-width: 0.970993;
}
text {font-family: Sans-Serif;}
</style>
<rect class="l0" x="0" y="0" width="1502" height="507"/>
<text fill="#00ccee"  xml:space="preserve" font-size="9.3503" transform="translate(470.041, 308.292)" >GND</text>
<text fill="#00ccee"  xml:space="preserve" font-size="9.3503" transform="translate(362.153, 389.208)" >GND</text>
<text fill="#00ccee"  xml:space="preserve" font-size="9.3503" transform="translate(640.864, 389.208)" >GND</text>
<text fill="#00ccee"  xml:space="preserve" font-size="9.3503" transform="translate(559.948, 389.208)" >GND</text>
<text fill="#00ccee"  xml:space="preserve" font-size="12.6229" transform="translate(390.116, 237.222)" >g</text>
<text fill="#00ccee"  xml:space="preserve" font-size="12.6229" transform="translate(542.957, 192.268)" >d</text>
<text fill="#00ccee"  xml:space="preserve" font-size="12.6229" transform="translate(542.957, 237.222)" >b</text>
<text fill="#cccccc"  xml:space="preserve" font-size="9.3503" transform="translate(434.812, 266.1)" >m1</text>
<text fill="#ff0000"  xml:space="preserve" font-size="7.01273" transform="translate(465.546, 223.953)" >D</text>
<text fill="#ff0000"  xml:space="preserve" font-size="7.01273" transform="translate(465.546, 263.464)" >S</text>
<text fill="#ff0000"  xml:space="preserve" font-size="7.01273" transform="translate(463.298, 248.677)" >B</text>
<text fill="#ff0000"  xml:space="preserve" font-size="7.01273" transform="translate(431.326, 248.677)" >G</text>
<text fill="#cccccc"  xml:space="preserve" font-size="9.3503" transform="translate(472.289, 221.757)" >sg13_lv_nmos</text>
<text fill="#aaaa00"  xml:space="preserve" font-size="9.3503" transform="translate(473.413, 262.728)" >m=1</text>
<text fill="#aaaa00"  xml:space="preserve" font-size="9.3503" transform="translate(473.413, 255.985)" >ng=1</text>
<text fill="#aaaa00"  xml:space="preserve" font-size="9.3503" transform="translate(473.413, 246.995)" >l=0.45u</text>
<text fill="#aaaa00"  xml:space="preserve" font-size="9.3503" transform="translate(473.413, 238.004)" >w=1.0u</text>
<text fill="#cccccc"  xml:space="preserve" font-size="9.3503" transform="translate(373.392, 313.911)" >Vgs</text>
<text fill="#cccccc"  xml:space="preserve" font-size="9.3503" transform="translate(373.392, 336.388)" >0.6</text>
<text fill="#cccccc"  xml:space="preserve" font-size="14.0255" transform="translate(323.943, 110.247)" >MODEL</text>
<text fill="#cccccc"  xml:space="preserve" font-size="14.0255" style="font-family:Monospace;" transform="translate(332.934, 132.724)" >.lib $::SG13G2_MODELS/cornerMOSlv.lib mos_tt</text>
<text fill="#cccccc"  xml:space="preserve" font-size="9.3503" transform="translate(652.103, 313.911)" >Vds</text>
<text fill="#cccccc"  xml:space="preserve" font-size="9.3503" transform="translate(652.103, 336.388)" >0.6</text>
<text fill="#cccccc"  xml:space="preserve" font-size="9.3503" transform="translate(571.186, 336.901)" >Vsb</text>
<text fill="#cccccc"  xml:space="preserve" font-size="9.3503" transform="translate(571.186, 314.425)" >{vsbx}</text>
<text fill="#cccccc"  xml:space="preserve" font-size="14.0255" transform="translate(728.523, 20.3401)" >COMMANDS</text>
<text fill="#cccccc"  xml:space="preserve" font-size="14.0255" style="font-family:Monospace;" transform="translate(737.514, 58.904)" >.param temp=27</text>
<text fill="#cccccc"  xml:space="preserve" font-size="14.0255" style="font-family:Monospace;" transform="translate(737.514, 74.9912)" >.param Wx=5u Lx=0.13u Vsbx=0</text>
<text fill="#cccccc"  xml:space="preserve" font-size="14.0255" style="font-family:Monospace;" transform="translate(737.514, 91.0784)" >.dc Vgs 0 1.2 25m Vds 0 1.2 25m</text>
<text fill="#cccccc"  xml:space="preserve" font-size="14.0255" style="font-family:Monospace;" transform="translate(737.514, 107.166)" >.include tb_sg13_lv_nmos_save.spice</text>
<text fill="#cccccc"  xml:space="preserve" font-size="14.0255" style="font-family:Monospace;" transform="translate(737.514, 139.34)" >.control</text>
<text fill="#cccccc"  xml:space="preserve" font-size="14.0255" style="font-family:Monospace;" transform="translate(737.514, 155.427)" >set wr_singlescale</text>
<text fill="#cccccc"  xml:space="preserve" font-size="14.0255" style="font-family:Monospace;" transform="translate(737.514, 171.514)" >*set wr_vecnames</text>
<text fill="#cccccc"  xml:space="preserve" font-size="14.0255" style="font-family:Monospace;" transform="translate(737.514, 187.602)" >option numdgt = 3</text>
<text fill="#cccccc"  xml:space="preserve" font-size="14.0255" style="font-family:Monospace;" transform="translate(737.514, 219.776)" >foreach L_val 0.13u 0.14u 0.15u 0.16u 0.17u 0.18u 0.19u</text>
<text fill="#cccccc"  xml:space="preserve" font-size="14.0255" style="font-family:Monospace;" transform="translate(737.514, 235.863)" >+ 0.2u 0.3u 0.4u 0.5u 1u 2u 3u</text>
<text fill="#cccccc"  xml:space="preserve" font-size="14.0255" style="font-family:Monospace;" transform="translate(737.514, 251.95)" >  alterparam Lx = $L_val</text>
<text fill="#cccccc"  xml:space="preserve" font-size="14.0255" style="font-family:Monospace;" transform="translate(737.514, 268.038)" >  foreach Vsb_val 0 0.2 0.4 0.6</text>
<text fill="#cccccc"  xml:space="preserve" font-size="14.0255" style="font-family:Monospace;" transform="translate(737.514, 284.125)" >    alterparam Vsbx = $Vsb_val</text>
<text fill="#cccccc"  xml:space="preserve" font-size="14.0255" style="font-family:Monospace;" transform="translate(737.514, 300.212)" >    reset</text>
<text fill="#cccccc"  xml:space="preserve" font-size="14.0255" style="font-family:Monospace;" transform="translate(737.514, 316.299)" >    run</text>
<text fill="#cccccc"  xml:space="preserve" font-size="14.0255" style="font-family:Monospace;" transform="translate(737.514, 332.386)" >    wrdata sg13_lv_nmos.txt all</text>
<text fill="#cccccc"  xml:space="preserve" font-size="14.0255" style="font-family:Monospace;" transform="translate(737.514, 348.474)" >    destroy $curplot</text>
<text fill="#cccccc"  xml:space="preserve" font-size="14.0255" style="font-family:Monospace;" transform="translate(737.514, 364.561)" >    set appendwrite</text>
<text fill="#cccccc"  xml:space="preserve" font-size="14.0255" style="font-family:Monospace;" transform="translate(737.514, 380.648)" >  end</text>
<text fill="#cccccc"  xml:space="preserve" font-size="14.0255" style="font-family:Monospace;" transform="translate(737.514, 396.735)" >end</text>
<text fill="#cccccc"  xml:space="preserve" font-size="14.0255" style="font-family:Monospace;" transform="translate(737.514, 412.822)" >alterparam Lx=0.13u Vsbx=0</text>
<text fill="#cccccc"  xml:space="preserve" font-size="14.0255" style="font-family:Monospace;" transform="translate(737.514, 428.91)" >reset</text>
<text fill="#cccccc"  xml:space="preserve" font-size="14.0255" style="font-family:Monospace;" transform="translate(737.514, 444.997)" >op</text>
<text fill="#cccccc"  xml:space="preserve" font-size="14.0255" style="font-family:Monospace;" transform="translate(737.514, 461.084)" >show</text>
<text fill="#cccccc"  xml:space="preserve" font-size="14.0255" style="font-family:Monospace;" transform="translate(737.514, 477.171)" >.endc</text>
<path class="l4" d="M452.06 221.134L452.06 261.592"/>
<path class="l4" d="M463.298 257.096L463.298 268.335"/>
<path class="l4" d="M463.298 214.391L463.298 225.629"/>
<path class="l4" d="M447.565 227.877L447.565 254.849"/>
<path class="l4" d="M452.06 225.629L463.298 225.629"/>
<path class="l4" d="M452.06 257.096L463.298 257.096"/>
<path class="l4" d="M427.336 241.363L447.115 241.363"/>
<path class="l4" d="M456.555 254.849L461.051 257.096L456.555 259.344L456.555 254.849"/>
<path class="l4" d="M463.298 295.307L463.298 306.545"/>
<path class="l4" d="M458.803 306.545L467.794 306.545"/>
<path class="l4" d="M463.298 311.04L467.794 306.545"/>
<path class="l4" d="M458.803 306.545L463.298 311.04"/>
<path class="l4" d="M357.658 302.05L362.153 302.05"/>
<path class="l4" d="M359.906 299.802L359.906 304.297"/>
<path class="l4" d="M355.41 295.307L355.41 349.251"/>
<circle class="l4" cx="355.41" cy="322.279" r="13.486" style="fill:none;" />
<path class="l4" d="M355.41 376.223L355.41 387.461"/>
<path class="l4" d="M350.915 387.461L359.906 387.461"/>
<path class="l4" d="M355.41 391.956L359.906 387.461"/>
<path class="l4" d="M350.915 387.461L355.41 391.956"/>
<path class="l4" d="M319.448 115.493L382.382 115.493"/>
<path class="l4" d="M319.448 115.493L319.448 133.474"/>
<path class="l4" d="M636.369 302.05L640.864 302.05"/>
<path class="l4" d="M638.617 299.802L638.617 304.297"/>
<path class="l4" d="M634.121 295.307L634.121 349.251"/>
<circle class="l4" cx="634.121" cy="322.279" r="13.486" style="fill:none;" />
<path class="l4" d="M634.121 376.223L634.121 387.461"/>
<path class="l4" d="M629.626 387.461L638.617 387.461"/>
<path class="l4" d="M634.121 391.956L638.617 387.461"/>
<path class="l4" d="M629.626 387.461L634.121 391.956"/>
<path class="l4" d="M555.453 342.508L559.948 342.508"/>
<path class="l4" d="M557.7 340.26L557.7 344.755"/>
<path class="l4" d="M553.205 295.307L553.205 349.251"/>
<circle class="l4" cx="553.205" cy="322.279" r="13.486" style="fill:none;" />
<path class="l4" d="M553.205 376.223L553.205 387.461"/>
<path class="l4" d="M548.71 387.461L557.7 387.461"/>
<path class="l4" d="M553.205 391.956L557.7 387.461"/>
<path class="l4" d="M548.71 387.461L553.205 391.956"/>
<path class="l4" d="M724.028 25.5864L786.963 25.5864"/>
<path class="l4" d="M724.028 25.5864L724.028 43.5677"/>
<path class="l5" d="M458.803 243.61L463.298 241.363L458.803 239.115L458.803 243.61"/>
<path class="l5" d="M461.051 212.143L465.546 212.143L465.546 216.638L461.051 216.638L461.051 212.143z"/>
<path class="l5" d="M425.088 239.115L429.583 239.115L429.583 243.61L425.088 243.61L425.088 239.115z"/>
<path class="l5" d="M461.051 266.087L465.546 266.087L465.546 270.582L461.051 270.582L461.051 266.087z"/>
<path class="l5" d="M463.228 241.292L463.369 241.292L463.369 241.433L463.228 241.433L463.228 241.292z"/>
<path class="l5" d="M461.051 293.059L465.546 293.059L465.546 297.554L461.051 297.554L461.051 293.059z"/>
<path class="l5" d="M353.163 293.059L357.658 293.059L357.658 297.554L353.163 297.554L353.163 293.059z"/>
<path class="l5" d="M353.163 347.003L357.658 347.003L357.658 351.498L353.163 351.498L353.163 347.003z"/>
<path class="l5" d="M353.163 373.975L357.658 373.975L357.658 378.47L353.163 378.47L353.163 373.975z"/>
<path class="l5" d="M631.874 293.059L636.369 293.059L636.369 297.554L631.874 297.554L631.874 293.059z"/>
<path class="l5" d="M631.874 347.003L636.369 347.003L636.369 351.498L631.874 351.498L631.874 347.003z"/>
<path class="l5" d="M631.874 373.975L636.369 373.975L636.369 378.47L631.874 378.47L631.874 373.975z"/>
<path class="l5" d="M550.957 347.003L555.453 347.003L555.453 351.498L550.957 351.498L550.957 347.003z"/>
<path class="l5" d="M550.957 293.059L555.453 293.059L555.453 297.554L550.957 297.554L550.957 293.059z"/>
<path class="l5" d="M550.957 373.975L555.453 373.975L555.453 378.47L550.957 378.47L550.957 373.975z"/>
<path class="l5" d="M399.24 240.239L401.487 240.239L401.487 242.486L399.24 242.486L399.24 240.239z"/>
<path class="l5" d="M552.081 195.285L554.329 195.285L554.329 197.533L552.081 197.533L552.081 195.285z"/>
<path class="l5" d="M552.081 240.239L554.329 240.239L554.329 242.486L552.081 242.486L552.081 240.239z"/>
<path class="l1" d="M463.298 196.409L463.298 214.391"/>
<path class="l1" d="M355.41 349.251L355.41 376.223"/>
<path class="l1" d="M634.121 349.251L634.121 376.223"/>
<path class="l1" d="M553.205 349.251L553.205 376.223"/>
<path class="l1" d="M463.298 268.335L463.298 295.307"/>
<path class="l1" d="M553.205 241.363L553.205 295.307"/>
<path class="l1" d="M355.41 241.363L355.41 295.307"/>
<path class="l1" d="M355.41 241.363L427.336 241.363"/>
<path class="l1" d="M463.298 241.363L553.205 241.363"/>
<path class="l1" d="M463.298 196.409L634.121 196.409"/>
<path class="l1" d="M634.121 196.409L634.121 295.307"/>
</svg>
