<?xml version="1.0" standalone="yes"?>
<!DOCTYPE svg PUBLIC "-//W3C//DTD SVG 1.1//EN"
 "http://www.w3.org/Graphics/SVG/1.1/DTD/svg11.dtd">
<svg xmlns="http://www.w3.org/2000/svg" version="1.1"
  width="100%" height="100%" viewBox="0 0 1024 768"
  style="fill: none; font-family: Helvetica;
 font: Helvetica;
">

<!-- Creator: NGspice -->

<rect x="0" y="0" width="1024" height="768" fill="white" stroke="none"/>
<text stroke="none" fill="black" font-size="16" x="358" y="752">
time
</text>
<text stroke="none" fill="black" font-size="16" x="10" y="16">
tran1: ** sch_path: /foss/designs/cems_dsm/dsm/schematics/designs_hrishi/realcircuits/real_dsm_design.sch
</text>
<path stroke="black" d="M50 720l0 -672"/>
<text stroke="none" fill="black" font-size="16" x="35" y="728">
0.0
</text>
<path stroke="black" stroke-dasharray="1,2" d="M142 720l0 -672"/>
<text stroke="none" fill="black" font-size="16" x="127" y="728">
2.0
</text>
<path stroke="black" stroke-dasharray="1,2" d="M234 720l0 -672"/>
<text stroke="none" fill="black" font-size="16" x="219" y="728">
4.0
</text>
<path stroke="black" stroke-dasharray="1,2" d="M326 720l0 -672"/>
<text stroke="none" fill="black" font-size="16" x="311" y="728">
6.0
</text>
<path stroke="black" stroke-dasharray="1,2" d="M418 720l0 -672"/>
<text stroke="none" fill="black" font-size="16" x="403" y="728">
8.0
</text>
<path stroke="black" stroke-dasharray="1,2" d="M510 720l0 -672"/>
<text stroke="none" fill="black" font-size="16" x="490" y="728">
10.0
</text>
<path stroke="black" stroke-dasharray="1,2" d="M602 720l0 -672"/>
<text stroke="none" fill="black" font-size="16" x="582" y="728">
12.0
</text>
<path stroke="black" stroke-dasharray="1,2" d="M694 720l0 -672"/>
<text stroke="none" fill="black" font-size="16" x="674" y="728">
14.0
</text>
<path stroke="black" stroke-dasharray="1,2" d="M786 720l0 -672"/>
<text stroke="none" fill="black" font-size="16" x="766" y="728">
16.0
</text>
<path stroke="black" stroke-dasharray="1,2" d="M878 720l0 -672"/>
<text stroke="none" fill="black" font-size="16" x="858" y="728">
18.0
</text>
<path stroke="black" stroke-dasharray="1,2" d="M970 720l0 -672"/>
<text stroke="none" fill="black" font-size="16" x="950" y="728">
20.0
</text>
<text stroke="none" fill="black" font-size="16" x="614" y="752">
ms
</text>
<path stroke="black" stroke-dasharray="1,2" d="M50 720l920 0"/>
<text stroke="none" fill="black" font-size="16" x="8" y="728">
-0.8
</text>
<path stroke="black" stroke-dasharray="1,2" d="M50 664l920 0"/>
<text stroke="none" fill="black" font-size="16" x="8" y="672">
-0.6
</text>
<path stroke="black" stroke-dasharray="1,2" d="M50 608l920 0"/>
<text stroke="none" fill="black" font-size="16" x="8" y="616">
-0.4
</text>
<path stroke="black" stroke-dasharray="1,2" d="M50 552l920 0"/>
<text stroke="none" fill="black" font-size="16" x="8" y="560">
-0.2
</text>
<path stroke="black" d="M50 496l920 0"/>
<text stroke="none" fill="black" font-size="16" x="18" y="504">
0.0
</text>
<path stroke="black" stroke-dasharray="1,2" d="M50 440l920 0"/>
<text stroke="none" fill="black" font-size="16" x="18" y="448">
0.2
</text>
<path stroke="black" stroke-dasharray="1,2" d="M50 384l920 0"/>
<text stroke="none" fill="black" font-size="16" x="18" y="392">
0.4
</text>
<path stroke="black" stroke-dasharray="1,2" d="M50 328l920 0"/>
<text stroke="none" fill="black" font-size="16" x="18" y="336">
0.6
</text>
<path stroke="black" stroke-dasharray="1,2" d="M50 272l920 0"/>
<text stroke="none" fill="black" font-size="16" x="18" y="280">
0.8
</text>
<path stroke="black" stroke-dasharray="1,2" d="M50 216l920 0"/>
<text stroke="none" fill="black" font-size="16" x="18" y="224">
1.0
</text>
<path stroke="black" stroke-dasharray="1,2" d="M50 160l920 0"/>
<text stroke="none" fill="black" font-size="16" x="18" y="168">
1.2
</text>
<path stroke="black" stroke-dasharray="1,2" d="M50 104l920 0"/>
<text stroke="none" fill="black" font-size="16" x="18" y="112">
1.4
</text>
<path stroke="black" stroke-dasharray="1,2" d="M50 48l920 0"/>
<text stroke="none" fill="black" font-size="16" x="18" y="56">
1.6
</text>
<text stroke="none" fill="black" font-size="16" x="10" y="32">
V
</text>
<path stroke="red" d="M460 23l46 0"/>
<text stroke="none" fill="black" font-size="16" x="516" y="32">
vo1
</text>
<path stroke="red" d="M50 491l0 -42 1 0M51 484l0 -40 1 0M52 475l0 -37 1 0M53 476l0 -43 1 0M54 481l0 -54 1 0M55 471l0 -49 1 -1M56 449l0 -35 1 0M57 433l0 -28 1 0M58 419l0 -24M58 396l1 0M59 407l0 -23M59 385l1 0M60 397l0 -25 1 0M61 386l0 -24M61 364l1 -2"/>
<path stroke="red" d="M62 374l0 -26 1 0M63 364l0 -32 1 0M64 349l0 -34 1 0M65 334l0 -37 1 0M66 317l0 -41 1 0M67 298l0 -39M67 264l1 -2M68 278l0 -42 1 0M69 261l0 -49 1 0M70 238l0 -52 1 0M71 214l0 -54 1 0M72 189l0 -54 1 0M73 163l0 -44M73 131l1 -2"/>
<path stroke="red" d="M74 140l0 -34 1 0M75 125l0 -28 1 0M76 112l0 -20 1 0M77 102l0 -14 1 0M78 96l0 -11 1 0M79 91l0 -8M79 88l1 0 0 -6 1 0M81 86l0 -6 1 0M82 84l0 -5 1 0M83 82l0 -4 1 0M84 81l0 -3 1 0M85 80l0 -3 1 0M86 80l0 -4M86 77l1 0M87 79l0 -3"/>
<path stroke="red" d="M87 76l1 0M88 78l0 -2 1 0M89 78l0 -2 1 0M90 78l0 -2 1 0M91 78l0 -2 1 0M92 78l0 -2 1 0M93 78l0 -2 1 0M94 78l0 -2 1 0M95 78l0 -2 1 0M96 78l0 -2 1 0M97 78l0 -2 1 0M98 78l0 -2 1 0M99 78l0 -2 1 0M100 78l0 -2 1 0M101 78l0 -2 1 0"/>
<path stroke="red" d="M102 78l0 -2 1 0M103 78l0 -2 1 0M104 78l0 -2 1 0M105 78l0 -2 1 0M106 78l0 -2 1 0M107 78l0 -2 1 0M108 77l0 -1 1 0M109 77l0 -1 1 0M110 77l0 -1 1 0M111 77l0 -1 1 0M112 77l0 -1 1 0M113 77l0 -1 1 0M114 77l0 -1 1 0M115 77l0 -1"/>
<path stroke="red" d="M115 76l1 0M116 77l0 -1 1 0M117 77l0 -1 1 0M118 77l0 -1 1 0M119 77l0 -1 1 0M120 77l0 -1 1 0M121 77l0 -1 1 0M122 77l0 -1 1 0M123 77l0 -1 1 0M124 77l0 -1 1 0M125 77l0 -1 1 0M126 77l0 -1 1 0M127 77l0 -1 1 0M128 77l0 -1 1 0"/>
<path stroke="red" d="M129 77l0 -1 1 0M130 77l0 -1 1 0M131 77l0 -1 1 0M132 77l0 -1 1 0M133 77l0 -1 1 0M134 77l0 -1 1 0M135 77l0 -1 1 0M136 77l0 -1 1 0M137 77l0 -1 1 0M138 77l0 -1 1 0M139 77l0 -1 1 0M140 77l0 -1 1 0M141 77l0 -1 1 0M142 77l0 -1"/>
<path stroke="red" d="M142 76l1 0M143 77l0 -1 1 0M144 77l0 -1M144 77l1 0 0 -1 1 0M146 77l0 -1 1 0M147 77l0 -1 1 0M148 77l0 -1 1 0M149 77l0 -1 1 0M150 77l0 -1 1 0M151 77l0 -1 1 0M152 77l0 -1 1 0M153 77l0 -1 1 0M154 77l0 -1 1 0M155 77l0 -1 1 0"/>
<path stroke="red" d="M156 77l0 -1 1 0M157 77l0 -1 1 0M158 77l0 -1 1 0M159 77l0 -1 1 0M160 77l0 -1 1 0M161 77l0 -1 1 0M162 77l0 -1 1 0M163 77l0 -1 1 0M164 77l0 -1 1 0M165 77l0 -1 1 0M166 77l0 -1 1 0M167 77l0 -1 1 0M168 77l0 -1 1 0M169 77l0 -1"/>
<path stroke="red" d="M169 76l1 0M170 77l0 -1 1 0M171 77l0 -1 1 0M172 77l0 -1 1 0M173 77l0 -1 53 0 0 -1M226 76l1 0 0 -1M227 76l1 0 0 -1M228 76l1 0 0 -1M229 76l1 0 0 -1M230 76l1 0 0 -1M231 76l1 0 0 -1M232 76l1 0 0 -1M233 76l1 0 0 -1M234 76l1 0"/>
<path stroke="red" d="M235 76l0 -1M235 76l1 0 0 -1M236 76l1 0 0 -1M237 76l1 0 0 -1M238 76l1 0 0 -1M239 76l1 0 0 -1M240 76l1 0 0 -1M241 76l1 0 0 -1M242 76l1 0 0 -1M243 76l1 0 0 -1M244 76l1 0 0 -1M245 76l1 0 0 -1M246 76l1 0 0 -1M247 76l1 0 0 -1"/>
<path stroke="red" d="M248 76l1 0 0 -1M249 76l1 0 0 -1M250 76l1 0 0 -1M251 76l1 0 0 -1M252 76l1 0 0 -1M253 76l1 0 0 -1M254 76l1 0 0 -1M255 76l1 0 0 -1M256 76l1 0 0 -1M257 76l1 0 0 -1M258 76l1 0 0 -1M259 76l1 0 0 -1M260 76l1 0 0 -1M261 76l1 0"/>
<path stroke="red" d="M262 76l0 -1M262 76l1 0 0 -1M263 76l1 0 0 -1M264 76l1 0 0 -1M265 76l1 0 0 -1M266 76l1 0 0 -1M267 76l1 0 0 -1M268 76l1 0 0 -1M269 76l1 0 0 -1M270 76l1 0 0 -1M271 76l1 0 0 -1M272 76l1 0 0 -1M273 76l1 0 0 -1M274 76l1 0 0 -1"/>
<path stroke="red" d="M275 76l1 0 0 -1M276 76l1 0 0 -1M277 76l1 0 0 -1M278 76l1 0 0 -1M279 76l1 0 0 -1 1 0M281 76l0 -1M281 76l1 0 0 -1M282 76l1 0 0 -1M283 76l1 0 0 -1M284 76l1 0 0 -1M285 76l1 0 0 -1 1 0M287 76l0 -1M287 76l1 0 0 -1M288 76l1 0"/>
<path stroke="red" d="M289 76l0 -1M289 76l1 0 0 -1M290 76l1 0 0 -1M291 76l1 0 0 -1M292 76l1 0 0 -1M293 76l1 0 0 -1M294 76l1 0 0 -1M295 76l1 0 0 -1M296 76l1 0 0 -1M297 76l1 0 0 -2M298 76l1 0 0 -2M299 76l1 0 0 -2M300 76l1 0 0 -2M301 76l1 0 0 -2"/>
<path stroke="red" d="M302 76l1 0 0 -2M303 76l1 0 0 -1M304 76l1 0M305 77l0 -2M305 77l1 0 0 -2M306 77l1 0M307 78l0 -3M307 78l1 0M308 79l0 -3M308 79l1 0M309 80l0 -3M309 80l1 0 0 -3M310 80l1 0M311 81l0 -3M311 81l1 0M312 82l0 -3M312 82l1 0M313 83l0 -3"/>
<path stroke="red" d="M313 83l1 0M314 84l0 -3M314 84l1 0M315 85l0 -3M315 85l1 0M316 86l0 -3M316 86l1 0M317 87l0 -4M317 87l1 0M318 89l0 -4M318 89l1 0M319 90l0 -4M319 90l1 0M320 92l0 -5M320 91l1 0M321 93l0 -4M321 93l1 0M322 94l0 -4M322 94l1 0M323 96l0 -5"/>
<path stroke="red" d="M323 96l1 0M324 98l0 -5M324 98l1 0M325 100l0 -5M325 100l1 0M326 102l0 -6M326 102l1 0M327 104l0 -6M327 104l1 0M328 106l0 -6M328 106l1 0M329 108l0 -6M329 108l1 0M330 111l0 -7M330 111l1 0M331 114l0 -8M331 113l1 0M332 117l0 -8"/>
<path stroke="red" d="M332 117l1 0M333 120l0 -8M333 119l1 1M334 124l0 -9M334 123l1 0M335 128l0 -10M335 128l1 0M336 133l0 -11M336 133l1 0M337 140l0 -13M337 140l1 0M338 147l0 -15M338 147l1 0M339 154l0 -16M339 152l1 2M340 164l0 -18M340 164l1 0M341 176l0 -23"/>
<path stroke="red" d="M341 175l1 0M342 188l0 -25M342 188l1 0M343 203l0 -29M343 203l1 0M344 219l0 -32M344 219l1 0M345 233l0 -32M345 226l1 3M346 251l0 -34M346 251l1 0M347 272l0 -41M347 272l1 0M348 294l0 -44M348 294l1 0M349 317l0 -47M349 317l1 0"/>
<path stroke="red" d="M350 341l0 -49M350 341l1 0M351 361l0 -46M351 342l1 2M352 386l0 -47M352 386l1 0M353 411l0 -53M353 410l1 0M354 432l0 -49M354 431l1 0M355 445l0 -38M355 445l1 0M356 453l0 -28M356 453l1 0M357 457l0 -19M357 457l1 0M358 461l0 -16"/>
<path stroke="red" d="M358 461l1 0M359 463l0 -11M359 463l1 0M360 465l0 -8M360 465l1 0M361 466l0 -6M361 466l1 0M362 467l0 -5M362 467l1 0 0 -4M363 467l1 0M364 468l0 -4M364 468l1 0 0 -3M365 468l1 0M366 469l0 -3M366 469l1 0 0 -2M367 469l1 0M368 470l0 -3"/>
<path stroke="red" d="M368 470l1 0 0 -2M369 470l1 0 0 -2M370 470l1 0 0 -2M371 470l1 0M372 471l0 -3M372 471l1 0 0 -2M373 471l1 0 0 -2M374 471l1 0 0 -2M375 471l1 0 0 -2M376 471l1 0 0 -2M377 471l1 0 0 -1M378 471l1 0 0 -1M379 471l1 0 0 -1M380 471l1 0"/>
<path stroke="red" d="M381 472l0 -2M381 471l1 0M382 472l0 -2M382 471l1 0M383 472l0 -2M383 472l1 0 0 -2M384 472l1 0 0 -2M385 472l1 0 0 -2M386 472l1 0 0 -2M387 472l1 0 0 -2M388 472l1 0 0 -2M389 472l1 0 0 -2M390 472l1 0 0 -2M391 472l1 0 0 -2M392 472l1 0"/>
<path stroke="red" d="M393 472l0 -2M393 472l1 0 0 -2M394 472l1 0 0 -2M395 472l1 0 0 -2M396 472l1 0 0 -2M397 472l1 0 0 -2M398 472l1 0 0 -2M399 472l1 0 0 -2M400 472l1 0 0 -2M401 472l1 0 0 -2M402 472l1 0 0 -2M403 472l1 0 0 -2M404 471l1 1 0 -2M405 472l1 0"/>
<path stroke="red" d="M406 472l0 -2M406 472l1 0 0 -2M407 472l1 0 0 -2M408 472l1 0 0 -2M409 472l1 0 0 -2M410 471l1 1 0 -2M411 472l1 0 0 -2M412 472l1 0 0 -2M413 472l1 0 0 -2M414 472l1 0 0 -2M415 472l1 0 0 -2M416 471l1 0M417 472l0 -2M417 472l1 0"/>
<path stroke="red" d="M418 472l0 -2M418 472l1 0 0 -1M419 472l1 0 0 -1M420 472l1 0 0 -1M421 472l1 0 0 -1 1 0M423 472l0 -1M423 472l1 0 0 -1M424 472l1 0 0 -1M425 472l1 0 0 -1M426 472l1 0 0 -1M427 472l1 0 0 -1M428 472l1 0 0 -1M429 472l1 0 0 -1M430 472l1 0"/>
<path stroke="red" d="M431 472l0 -1M431 472l1 0 0 -1M432 472l1 0 0 -1M433 472l1 0 0 -1M434 472l1 0 0 -1M435 472l1 0 0 -1M436 472l1 0 0 -1M437 472l1 0 0 -1M438 472l1 0 0 -1M439 472l1 0 0 -1M440 472l1 0 0 -1M441 472l1 0 0 -1M442 472l1 0 0 -1M443 472l1 0"/>
<path stroke="red" d="M444 472l0 -1M444 472l1 0 0 -1M445 472l1 0 0 -1M446 472l1 0 0 -1M447 472l1 0 0 -1M448 472l1 0 0 -1M449 472l1 0 0 -1M450 472l1 0 0 -1M451 472l1 0 0 -1M452 472l1 0 0 -1M453 472l1 0 0 -1M454 472l1 0 0 -1M455 472l1 0 0 -1M456 472l1 0"/>
<path stroke="red" d="M457 472l0 -1M457 472l1 0 0 -1M458 472l1 0 0 -1M459 472l1 0 0 -1M460 472l1 0 0 -1M461 472l1 0 0 -1M462 472l1 0 0 -1M463 472l1 0 0 -1M464 472l1 0 0 -1M465 472l1 0 0 -1M466 472l1 0 0 -1M467 472l1 0 0 -1M468 472l1 0 0 -1M469 472l1 0"/>
<path stroke="red" d="M470 472l0 -1M470 472l1 0 0 -1M471 472l1 0 0 -1M472 472l1 0 0 -1M473 472l1 0 0 -1M474 472l1 0 0 -1M475 472l54 0M529 473l0 -1 1 0M530 473l0 -1 1 0M531 473l0 -1 1 0M532 473l0 -1 1 0M533 473l0 -1 1 0M534 473l0 -1 1 0M535 473l0 -1"/>
<path stroke="red" d="M535 472l1 0M536 473l0 -1 1 0M537 473l0 -1 1 0M538 473l0 -1 1 0M539 473l0 -1 1 0M540 473l0 -1 1 0M541 473l0 -1 1 0M542 473l0 -1 1 0M543 473l0 -1 1 0M544 473l0 -1 1 0M545 473l0 -1 1 0M546 473l0 -1 1 0M547 473l0 -1 1 0M548 473l0 -1"/>
<path stroke="red" d="M548 472l1 0M549 473l0 -1 1 0M550 473l0 -1 1 0M551 473l0 -1 1 0M552 473l0 -1 1 0M553 473l0 -1 1 0M554 473l0 -1 1 0M555 473l0 -1 1 0M556 473l0 -1 1 0M557 473l0 -1 1 0M558 473l0 -1M558 473l1 -1M559 473l0 -1 1 0M560 473l0 -1"/>
<path stroke="red" d="M560 472l1 0M561 473l0 -1 1 0M562 473l0 -1 1 0M563 473l0 -1 1 0M564 473l0 -1 1 0M565 473l0 -1 1 0M566 473l0 -1 1 0M567 473l0 -1 1 0M568 473l0 -1 1 0M569 473l0 -1 1 0M570 473l0 -1 1 0M571 473l0 -1 1 0M572 473l0 -1 1 0M573 473l0 -1"/>
<path stroke="red" d="M573 472l1 0M574 473l0 -1 1 0M575 473l0 -1 1 0M576 473l0 -1 1 0M577 473l0 -1 1 0M578 473l0 -1 1 0M579 473l0 -1 1 0M580 473l0 -1 1 0M581 473l0 -2 1 0M582 473l0 -2M582 472l1 0M583 473l0 -2 1 0M584 473l0 -2 1 0M585 473l0 -2"/>
<path stroke="red" d="M585 471l1 0M586 473l0 -2 1 0M587 473l0 -2 1 0M588 473l0 -2 1 0M589 473l0 -2 1 0M590 473l0 -2 1 0M591 473l0 -2 1 0M592 473l0 -2 1 0M593 472l0 -2 1 1M594 472l0 -2 1 0M595 472l0 -2 1 0M596 472l0 -2 1 0M597 472l0 -2 1 0M598 472l0 -3"/>
<path stroke="red" d="M598 469l1 0M599 471l0 -2 1 0M600 471l0 -3M600 469l1 0M601 471l0 -3 1 0M602 470l0 -2 1 0M603 470l0 -3 1 0M604 469l0 -3 1 0M605 469l0 -3 1 0M606 468l0 -3 1 0M607 468l0 -4 1 0M608 467l0 -3 1 0M609 466l0 -3 1 0M610 465l0 -3"/>
<path stroke="red" d="M610 462l1 0M611 465l0 -4 1 0M612 464l0 -4 1 0M613 463l0 -4 1 0M614 462l0 -4 1 0M615 461l0 -5 1 0M616 459l0 -4 1 0M617 458l0 -4 1 -1M618 457l0 -5 1 0M619 456l0 -6 1 0M620 454l0 -6M620 449l1 0M621 452l0 -6M621 447l1 0M622 450l0 -6"/>
<path stroke="red" d="M622 444l1 0M623 448l0 -6M623 444l1 -1M624 446l0 -6 1 0M625 444l0 -7 1 0M626 442l0 -8 1 0M627 439l0 -9 1 0M628 435l0 -10 1 0M629 432l0 -11M629 427l1 -1M630 427l0 -12 1 0M631 423l0 -16 1 0M632 416l0 -17 1 0M633 409l0 -20"/>
<path stroke="red" d="M633 389l1 0M634 400l0 -22 1 0M635 390l0 -21 1 0M636 382l0 -26 1 0M637 370l0 -28 1 0M638 358l0 -32 1 0M639 344l0 -35 1 0M640 328l0 -37 1 0M641 311l0 -37 1 0M642 296l0 -43 1 0M643 276l0 -46 1 0M644 255l0 -50M644 206l1 0M645 232l0 -52"/>
<path stroke="red" d="M645 180l1 0M646 208l0 -54 1 0M647 183l0 -49M647 135l1 0M648 162l0 -46 1 0M649 140l0 -36 1 0M650 122l0 -26 1 0M651 109l0 -18 1 0M652 101l0 -14 1 0M653 95l0 -10 1 0M654 91l0 -8 1 0M655 88l0 -6 1 0M656 85l0 -5 1 0M657 84l0 -5"/>
<path stroke="red" d="M657 79l1 0M658 82l0 -4 1 0M659 81l0 -3 1 0M660 80l0 -3 1 0M661 79l0 -3 1 0M662 79l0 -3 1 0M663 78l0 -2 1 0M664 78l0 -2 1 0M665 78l0 -2 1 0M666 78l0 -2 1 0M667 78l0 -2 1 0M668 78l0 -2 1 0M669 78l0 -2 1 0M670 78l0 -2 1 0"/>
<path stroke="red" d="M671 78l0 -2 1 0M672 78l0 -2 1 0M673 78l0 -2 1 0M674 78l0 -2 1 0M675 78l0 -2 1 0M676 78l0 -2 1 0M677 78l0 -2 1 0M678 78l0 -2 1 0M679 78l0 -2 1 0M680 78l0 -2 1 0M681 78l0 -2 1 0M682 78l0 -2 1 0M683 78l0 -2 1 0M684 78l0 -2"/>
<path stroke="red" d="M684 76l1 0M685 77l0 -1 1 0M686 77l0 -1 1 0M687 77l0 -1 1 0M688 77l0 -1 1 0M689 77l0 -1 1 0M690 77l0 -1 1 0M691 77l0 -1 1 0M692 77l0 -1 1 0M693 77l0 -1 1 0M694 77l0 -1M694 77l1 -1M695 77l0 -1 1 0M696 77l0 -1 1 0M697 77l0 -1"/>
<path stroke="red" d="M697 76l1 0M698 77l0 -1 1 0M699 77l0 -1 1 0M700 77l0 -1M700 77l1 0 0 -1 1 0M702 77l0 -1 1 0M703 77l0 -1 1 0M704 77l0 -1 1 0M705 77l0 -1 1 0M706 77l0 -1 1 0M707 77l0 -1 1 0M708 77l0 -1 1 0M709 77l0 -1 1 0M710 77l0 -1 1 0"/>
<path stroke="red" d="M711 77l0 -1 1 0M712 77l0 -1 1 0M713 77l0 -1 1 0M714 77l0 -1 1 0M715 77l0 -1 1 0M716 77l0 -1 1 0M717 77l0 -1 1 0M718 77l0 -1 1 0M719 77l0 -1 1 0M720 77l0 -1 1 0M721 77l0 -1 1 0M722 77l0 -1 1 0M723 77l0 -1 1 0M724 77l0 -1"/>
<path stroke="red" d="M724 76l1 0M725 77l0 -1 1 0M726 77l0 -1 1 0M727 77l0 -1 1 0M728 77l0 -1 1 0M729 77l0 -1 1 0M730 77l0 -1 1 0M731 77l0 -1 1 0M732 77l0 -1 1 0M733 77l0 -1 1 0M734 77l0 -1 1 0M735 77l0 -1 1 0M736 77l0 -1 1 0M737 77l0 -1 1 0"/>
<path stroke="red" d="M738 77l0 -1 1 0M739 77l0 -1 1 0M740 77l0 -1 1 0M741 77l0 -1 1 0M742 77l0 -1 1 0M743 77l0 -1 1 0M744 77l0 -1 1 0M745 77l0 -1 1 0M746 77l0 -1 1 0M747 77l0 -1 1 0M748 77l0 -1 53 0 0 -1M801 76l1 0 0 -1M802 76l1 0 0 -1M803 76l1 0"/>
<path stroke="red" d="M804 76l0 -1M804 76l1 0 0 -1M805 76l1 0 0 -1M806 76l1 0 0 -1M807 76l1 0 0 -1M808 76l1 0 0 -1M809 76l1 0 0 -1M810 76l1 0 0 -1M811 76l1 0 0 -1M812 76l1 0 0 -1M813 76l1 0 0 -1M814 76l1 0 0 -1M815 76l1 0 0 -1M816 76l1 0 0 -1"/>
<path stroke="red" d="M817 76l1 0 0 -1M818 76l1 0 0 -1M819 76l1 0 0 -1M820 76l1 0 0 -1M821 76l1 0 0 -1M822 76l1 0 0 -1M823 76l1 0 0 -1M824 76l1 0 0 -1M825 76l1 0 0 -1M826 76l1 0 0 -1M827 76l1 0 0 -1M828 76l1 0 0 -1M829 76l1 0 0 -1M830 76l1 0"/>
<path stroke="red" d="M831 76l0 -1M831 76l1 0 0 -1M832 76l1 0 0 -1M833 76l1 0 0 -1M834 76l1 0 0 -1M835 76l1 0 0 -1 1 0M837 76l0 -1M837 76l1 0 0 -1M838 76l1 0 0 -1M839 76l1 0 0 -1M840 76l1 0 0 -1M841 76l1 0 0 -1M842 76l1 0 0 -1M843 76l1 0 0 -1"/>
<path stroke="red" d="M844 76l1 0 0 -1M845 76l1 0 0 -1M846 76l1 0 0 -1M847 76l1 0 0 -1M848 76l1 0 0 -1M849 76l1 0 0 -1M850 76l1 0 0 -1M851 76l1 0 0 -1M852 76l1 0 0 -1M853 76l1 0 0 -1M854 76l1 0 0 -1M855 76l1 0 0 -1M856 76l1 0 0 -1M857 76l1 0"/>
<path stroke="red" d="M858 76l0 -1M858 76l1 0 0 -1M859 76l1 0 0 -1M860 76l1 0 0 -1M861 76l1 0 0 -1M862 76l1 0 0 -1M863 76l1 0 0 -1M864 76l1 0 0 -1M865 76l1 0 0 -1M866 76l1 0 0 -1M867 76l1 0 0 -1M868 76l1 0 0 -1M869 76l1 0 0 -1M870 76l1 0 0 -1"/>
<path stroke="red" d="M871 76l1 0 0 -1M872 76l1 0 0 -2M873 76l1 0 0 -2M874 76l1 0 0 -2M875 76l1 0 0 -2M876 76l1 0 0 -2M877 76l1 0 0 -2M878 76l1 0 0 -1M879 76l1 0M880 77l0 -2M880 77l1 0 0 -2M881 77l1 0M882 78l0 -3M882 78l1 0M883 79l0 -3M883 79l1 0"/>
<path stroke="red" d="M884 79l0 -2M884 79l1 0M885 80l0 -3M885 80l1 0M886 81l0 -3M886 81l1 0M887 82l0 -3M887 82l1 0M888 83l0 -3M888 83l1 0M889 84l0 -3M889 84l1 0M890 85l0 -3M890 85l1 0M891 86l0 -4M891 86l1 0M892 87l0 -4M892 87l1 0M893 89l0 -4"/>
<path stroke="red" d="M893 89l1 0M894 90l0 -4M894 90l1 0M895 91l0 -4M895 91l1 0M896 93l0 -4M896 93l1 0M897 94l0 -4M897 94l1 0M898 96l0 -5M898 96l1 0M899 98l0 -5M899 98l1 0M900 100l0 -5M900 100l1 0M901 101l0 -5M901 100l1 1M902 103l0 -5M902 103l1 0"/>
<path stroke="red" d="M903 106l0 -6M903 106l1 0M904 108l0 -6M904 108l1 0M905 111l0 -7M905 111l1 0M906 114l0 -7M906 114l1 0M907 116l0 -7M907 112l1 0M908 120l0 -8M908 120l1 0M909 124l0 -9M909 124l1 0M910 128l0 -10M910 128l1 0M911 134l0 -12M911 134l1 0"/>
<path stroke="red" d="M912 140l0 -13M912 140l1 0M913 146l0 -14M913 146l1 0M914 155l0 -18M914 154l1 0M915 165l0 -20M915 164l1 0M916 176l0 -23M916 176l1 0M917 189l0 -26M917 189l1 0M918 203l0 -28M918 203l1 1M919 216l0 -28M919 216l1 0M920 233l0 -34"/>
<path stroke="red" d="M920 233l1 0M921 252l0 -38M921 252l1 0M922 273l0 -41M922 273l1 0M923 295l0 -45M923 295l1 0M924 318l0 -47M924 318l1 0M925 337l0 -44M925 337l1 0M926 362l0 -51M926 362l1 0M927 387l0 -52M927 387l1 0M928 412l0 -53M928 411l1 0"/>
<path stroke="red" d="M929 432l0 -48M929 432l1 0M930 446l0 -38M930 446l1 -1M931 452l0 -26M931 452l1 0M932 458l0 -22M932 457l1 0M933 461l0 -15M933 461l1 0M934 463l0 -11M934 463l1 0M935 465l0 -8M935 465l1 0M936 466l0 -6M936 466l1 0M937 467l0 -5"/>
<path stroke="red" d="M937 467l1 0 0 -4M938 467l1 0M939 468l0 -4M939 468l1 0M940 469l0 -4M940 468l1 0M941 469l0 -3M941 469l1 0 0 -2M942 469l1 0M943 470l0 -3M943 470l1 0 0 -3M944 470l1 0 0 -2M945 470l1 0 0 -2M946 470l1 0M947 471l0 -3M947 471l1 0"/>
<path stroke="red" d="M948 471l0 -2M948 471l1 0 0 -2M949 471l1 0 0 -2M950 471l1 0 0 -2M951 471l1 0 0 -2M952 471l1 0 0 -1M953 471l1 0 0 -1M954 471l1 0 0 -1M955 471l1 0M956 472l0 -2M956 471l1 0M957 472l0 -2M957 471l1 0M958 472l0 -2M958 472l1 0"/>
<path stroke="red" d="M959 472l0 -2M959 472l1 0 0 -2M960 471l1 0M961 472l0 -2M961 472l1 0 0 -2M962 472l1 0 0 -2M963 472l1 0 0 -2M964 472l1 0 0 -2M965 472l1 0 0 -2M966 471l1 0M967 472l0 -2M967 472l1 0 0 -2M968 472l1 0 0 -2M969 472l1 0 0 -2"/>
<path stroke="blue" d="M50 23l46 0"/>
<text stroke="none" fill="black" font-size="16" x="106" y="32">
vo2
</text>
<path stroke="blue" d="M50 503l0 -73M50 431l1 0M51 477l0 -107 1 0M52 415l0 -112 1 -1M53 352l0 -111M53 242l1 0M54 295l0 -134M54 162l1 0M55 219l0 -116 1 0M56 148l0 -65 1 0M57 108l0 -32 1 0M58 91l0 -16M58 76l1 0M59 87l0 -12M59 76l1 0M60 86l0 -11"/>
<path stroke="blue" d="M60 76l1 0M61 87l0 -12M61 76l1 0M62 88l0 -13M62 76l1 0M63 89l0 -14M63 76l1 0M64 90l0 -15M64 76l1 0M65 91l0 -16M65 76l1 0M66 93l0 -18M66 76l1 0M67 94l0 -19M67 76l1 0M68 95l0 -20M68 76l1 0M69 96l0 -21M69 76l1 0M70 98l0 -23"/>
<path stroke="blue" d="M70 76l1 0M71 98l0 -23M71 76l1 0M72 98l0 -23M72 76l1 0M73 98l0 -23M73 76l1 0M74 93l0 -18M74 76l1 0M75 88l0 -13M75 76l1 0M76 84l0 -9M76 79l1 -2M77 81l0 -6M77 76l1 0M78 80l0 -5M78 76l1 0M79 79l0 -4M79 76l1 0M80 78l0 -3M80 76l1 0"/>
<path stroke="blue" d="M81 78l0 -3M81 76l1 0M82 77l0 -2M82 77l1 -1M83 77l0 -2M83 76l1 0M84 77l0 -2M84 76l1 0M85 77l0 -2M85 76l1 0M86 77l0 -2M86 76l1 0M87 77l0 -2M87 76l1 0M88 77l0 -2M88 76l1 0M89 77l0 -2M89 76l1 0M90 77l0 -2M90 76l1 0M91 77l0 -2"/>
<path stroke="blue" d="M91 76l1 -1M92 77l0 -2M92 76l1 0M93 77l0 -2M93 76l1 0M94 77l0 -2M94 76l1 0M95 77l0 -2M95 76l1 0M96 77l0 -2M96 76l1 0M97 77l0 -2M97 76l1 0M98 77l0 -2M98 76l1 0M99 77l0 -2M99 76l1 0M100 77l0 -2M100 76l1 0M101 77l0 -2M101 76l1 0"/>
<path stroke="blue" d="M102 77l0 -2M102 76l1 0M103 77l0 -2M103 76l1 0M104 77l0 -2M104 76l1 0M105 77l0 -2M105 76l1 0M106 77l0 -2M106 76l1 0M107 77l0 -2M107 76l1 0M108 77l0 -2M108 76l1 0M109 77l0 -2M109 76l1 0M110 77l0 -2M110 76l1 0M111 77l0 -2"/>
<path stroke="blue" d="M111 76l1 0M112 77l0 -2M112 76l1 0M113 77l0 -2M113 76l1 0M114 77l0 -2M114 76l1 0M115 77l0 -2M115 76l1 0M116 77l0 -2M116 76l1 0M117 77l0 -2M117 76l1 0M118 77l0 -2M118 76l1 0M119 77l0 -2M119 76l1 0M120 77l0 -2M120 76l1 0"/>
<path stroke="blue" d="M121 77l0 -2M121 76l1 0M122 77l0 -2M122 76l1 0M123 77l0 -2M123 76l1 0M124 77l0 -2M124 76l1 0M125 77l0 -2M125 76l1 0M126 77l0 -2M126 76l1 0M127 77l0 -2M127 76l1 0M128 77l0 -2M128 76l1 0M129 77l0 -2M129 76l1 0M130 77l0 -2"/>
<path stroke="blue" d="M130 76l1 0M131 77l0 -2M131 76l1 0M132 77l0 -2M132 76l1 0M133 77l0 -2M133 76l1 0M134 77l0 -2M134 76l1 0M135 77l0 -2M135 76l1 0M136 77l0 -2M136 76l1 0M137 77l0 -2M137 76l1 0M138 77l0 -2M138 76l1 0M139 77l0 -2M139 76l1 0"/>
<path stroke="blue" d="M140 77l0 -2M140 76l1 0M141 77l0 -2M141 76l1 0M142 77l0 -2M142 76l1 0M143 77l0 -2M143 76l1 0M144 77l0 -2M144 76l1 0M145 77l0 -2M145 76l1 0M146 77l0 -2M146 76l1 0M147 77l0 -2M147 76l1 0M148 77l0 -2M148 76l1 0M149 77l0 -2"/>
<path stroke="blue" d="M149 76l1 0M150 77l0 -2M150 76l1 0M151 77l0 -2M151 76l1 0M152 77l0 -2M152 76l1 0M153 77l0 -2M153 76l1 0M154 77l0 -2M154 76l1 0M155 77l0 -2M155 76l1 0M156 77l0 -2M156 76l1 0M157 77l0 -2M157 76l1 0M158 77l0 -2M158 76l1 0"/>
<path stroke="blue" d="M159 77l0 -2M159 76l1 0M160 77l0 -2M160 76l1 0M161 77l0 -2M161 76l1 0M162 77l0 -2M162 76l1 0M163 77l0 -2M163 76l1 0M164 77l0 -2M164 76l1 0M165 77l0 -2M165 76l1 0M166 77l0 -2M166 76l1 0M167 77l0 -2M167 76l1 0M168 77l0 -2"/>
<path stroke="blue" d="M168 76l1 0M169 77l0 -2M169 76l1 0M170 77l0 -2M170 76l1 0M171 77l0 -2M171 76l1 0M172 77l0 -2M172 76l1 0M173 77l0 -2M173 76l1 0M174 77l0 -2M174 76l1 0M175 77l0 -2M175 76l1 0M176 77l0 -2M176 76l1 0M177 77l0 -2M177 76l1 0"/>
<path stroke="blue" d="M178 77l0 -2M178 76l1 0M179 77l0 -2M179 76l1 0M180 77l0 -2M180 76l1 0M181 77l0 -2M181 76l1 0M182 77l0 -2M182 76l1 0M183 77l0 -2M183 76l1 0M184 77l0 -2M184 76l1 0M185 77l0 -2M185 76l1 0M186 77l0 -2M186 76l1 0M187 77l0 -2"/>
<path stroke="blue" d="M187 76l1 0M188 77l0 -2M188 76l1 0M189 77l0 -2M189 76l1 0M190 77l0 -2M190 76l1 0M191 77l0 -2M191 76l1 0M192 77l0 -2M192 76l1 0M193 77l0 -2M193 76l1 0M194 77l0 -2M194 76l1 0M195 77l0 -2M195 76l1 0M196 77l0 -2M196 76l1 0"/>
<path stroke="blue" d="M197 77l0 -2M197 76l1 0M198 77l0 -2M198 76l1 0M199 77l0 -2M199 76l1 0M200 77l0 -2M200 76l1 0M201 77l0 -2M201 76l1 0M202 77l0 -2M202 76l1 0M203 77l0 -2M203 76l1 0M204 77l0 -2M204 76l1 0M205 77l0 -2M205 76l1 0M206 77l0 -2"/>
<path stroke="blue" d="M206 76l1 0M207 77l0 -2M207 76l1 0M208 77l0 -2M208 76l1 0M209 77l0 -2M209 76l1 0M210 77l0 -2M210 76l1 0M211 77l0 -2M211 76l1 0M212 77l0 -2M212 76l1 0M213 77l0 -2M213 76l1 0M214 77l0 -2M214 76l1 0M215 77l0 -2M215 76l1 0"/>
<path stroke="blue" d="M216 77l0 -2M216 76l1 0M217 77l0 -2M217 76l1 0M218 77l0 -2M218 76l1 0M219 77l0 -2M219 76l1 0M220 77l0 -2M220 76l1 0M221 77l0 -2M221 76l1 0M222 77l0 -2M222 76l1 0M223 77l0 -2M223 76l1 0M224 77l0 -2M224 76l1 0M225 77l0 -2"/>
<path stroke="blue" d="M225 76l1 0M226 77l0 -2M226 76l1 0M227 77l0 -2M227 76l1 0M228 77l0 -2M228 76l1 0M229 77l0 -2M229 76l1 0M230 77l0 -2M230 76l1 0M231 77l0 -2M231 76l1 0M232 77l0 -2M232 76l1 0M233 77l0 -2M233 76l1 0M234 77l0 -2M234 76l1 0"/>
<path stroke="blue" d="M235 77l0 -2M235 76l1 0M236 77l0 -2M236 76l1 0M237 77l0 -2M237 76l1 0M238 77l0 -2M238 76l1 0M239 77l0 -2M239 76l1 0M240 77l0 -2M240 76l1 0M241 77l0 -2M241 76l1 0M242 77l0 -2M242 76l1 0M243 77l0 -2M243 76l1 0M244 77l0 -2"/>
<path stroke="blue" d="M244 76l1 0M245 77l0 -2M245 76l1 0M246 77l0 -2M246 76l1 0M247 77l0 -2M247 76l1 0M248 77l0 -2M248 76l1 0M249 77l0 -2M249 76l1 0M250 77l0 -2M250 76l1 0M251 77l0 -2M251 76l1 0M252 77l0 -2M252 76l1 0M253 77l0 -2M253 76l1 0"/>
<path stroke="blue" d="M254 77l0 -2M254 76l1 0M255 77l0 -2M255 76l1 0M256 77l0 -2M256 76l1 0M257 77l0 -2M257 76l1 0M258 77l0 -2M258 76l1 0M259 77l0 -2M259 76l1 0M260 77l0 -2M260 76l1 0M261 77l0 -2M261 76l1 0M262 77l0 -2M262 76l1 0M263 77l0 -2"/>
<path stroke="blue" d="M263 76l1 0M264 77l0 -2M264 76l1 0M265 77l0 -2M265 76l1 0M266 77l0 -2M266 76l1 0M267 77l0 -2M267 76l1 0M268 77l0 -2M268 76l1 0M269 77l0 -2M269 76l1 0M270 77l0 -2M270 76l1 0M271 77l0 -2M271 76l1 0M272 77l0 -2M272 76l1 0"/>
<path stroke="blue" d="M273 77l0 -2M273 76l1 0M274 77l0 -2M274 76l1 0M275 77l0 -2M275 76l1 0M276 77l0 -2M276 76l1 0M277 77l0 -2M277 76l1 0M278 77l0 -2M278 76l1 0M279 77l0 -2M279 76l1 0M280 77l0 -2M280 76l1 0M281 77l0 -2M281 76l1 0M282 77l0 -2"/>
<path stroke="blue" d="M282 76l1 0M283 77l0 -2M283 76l1 0M284 77l0 -2M284 76l1 0M285 77l0 -2M285 76l1 0M286 77l0 -2M286 76l1 0M287 77l0 -2M287 76l1 0M288 77l0 -2M288 76l1 0M289 77l0 -2M289 77l1 -1M290 77l0 -2M290 76l1 0M291 77l0 -2M291 76l1 0"/>
<path stroke="blue" d="M292 77l0 -2M292 76l1 0M293 77l0 -2M293 76l1 0M294 77l0 -2M294 76l1 0M295 77l0 -2M295 76l1 0M296 77l0 -2M296 76l1 0M297 77l0 -2M297 76l1 0M298 77l0 -2M298 76l1 -1M299 77l0 -2M299 76l1 0M300 77l0 -2M300 76l1 0M301 77l0 -2"/>
<path stroke="blue" d="M301 76l1 0M302 77l0 -2M302 76l1 0M303 77l0 -2M303 76l1 0M304 77l0 -2M304 76l1 0M305 77l0 -2M305 76l1 0M306 77l0 -2M306 76l1 0M307 77l0 -2M307 76l1 0M308 77l0 -2M308 76l1 0M309 77l0 -2M309 76l1 0M310 77l0 -2M310 76l1 0"/>
<path stroke="blue" d="M311 77l0 -2M311 76l1 0M312 77l0 -2M312 76l1 0M313 77l0 -2M313 76l1 0M314 77l0 -2M314 76l1 0M315 77l0 -2M315 76l1 0M316 77l0 -2M316 76l1 0M317 77l0 -2M317 76l1 0M318 77l0 -2M318 76l1 0M319 77l0 -2M319 76l1 0M320 77l0 -2"/>
<path stroke="blue" d="M320 76l1 0M321 77l0 -2M321 76l1 0M322 77l0 -2M322 76l1 0M323 77l0 -2M323 76l1 0M324 77l0 -2M324 76l1 0M325 77l0 -2M325 76l1 0M326 77l0 -2M326 76l1 0M327 77l0 -2M327 76l1 0M328 77l0 -3M328 76l1 0M329 77l0 -3M329 76l1 0"/>
<path stroke="blue" d="M330 77l0 -3M330 76l1 0M331 77l0 -3M331 76l1 0M332 77l0 -3M332 76l1 0M333 77l0 -4M333 76l1 0M334 77l0 -4M334 76l1 0M335 77l0 -4M335 76l1 0M336 77l0 -5M336 76l1 0M337 77l0 -6M337 76l1 0M338 77l0 -6M338 76l1 0M339 77l0 -8"/>
<path stroke="blue" d="M339 76l1 0M340 77l0 -9M340 76l1 0M341 77l0 -10M341 76l1 0M342 77l0 -11M342 76l1 0M343 77l0 -12M343 76l1 0M344 77l0 -14M344 76l1 0M345 77l0 -15M345 76l1 0M346 77l0 -17M346 76l1 0M347 77l0 -18M347 76l1 0M348 77l0 -19M348 75l1 1"/>
<path stroke="blue" d="M349 77l0 -20M349 76l1 0M350 77l0 -21M350 76l1 0M351 77l0 -22M351 76l1 0M352 77l0 -22M352 76l1 0M353 77l0 -22M353 76l1 0M354 77l0 -22M354 66l1 3M355 78l0 -19M355 78l1 0M356 83l0 -19M356 83l1 0M357 88l0 -16M357 88l1 0M358 91l0 -11"/>
<path stroke="blue" d="M358 91l1 0M359 94l0 -8M359 94l1 0M360 96l0 -6M360 96l1 0M361 98l0 -5M361 98l1 0M362 100l0 -4M362 99l1 0M363 101l0 -3M363 100l1 0M364 102l0 -3M364 101l1 0M365 102l0 -2M365 102l1 0M366 103l0 -2M366 103l1 0M367 104l0 -2M367 103l1 0"/>
<path stroke="blue" d="M368 104l0 -1M368 104l1 0M369 105l0 -2M369 104l1 0M370 105l0 -1M370 105l1 0 0 -1M371 105l1 0M372 106l0 -2M372 105l1 0M373 106l0 -1 1 0M374 106l0 -1M374 106l1 0 0 -1M375 106l1 0 0 -1M376 106l1 0M377 107l0 -2M377 106l1 0"/>
<path stroke="blue" d="M378 107l0 -1 1 0M379 107l0 -1 1 0M380 107l0 -1 1 0M381 107l0 -1 1 0M382 107l0 -1M382 107l1 0 0 -1M383 107l1 0 0 -1M384 107l1 0 0 -1M385 107l1 0 0 -1M386 107l1 0 0 -1M387 107l1 0 0 -1M388 107l1 0 0 -1M389 107l1 0 0 -1M390 107l1 0"/>
<path stroke="blue" d="M391 107l0 -1M391 107l1 0 0 -1M392 107l1 0 0 -1M393 107l1 0 0 -1M394 107l1 0 0 -1M395 107l1 0 0 -1M396 107l1 0 0 -1M397 107l1 0 0 -1M398 107l1 0 0 -1M399 107l1 0 0 -1M400 107l1 0 0 -1M401 107l1 0 0 -1M402 107l1 0 0 -1M403 107l1 0"/>
<path stroke="blue" d="M404 107l0 -1M404 107l1 0 0 -1M405 107l1 0 0 -1M406 107l1 0 0 -1M407 107l1 0 0 -1M408 107l1 0 0 -1M409 107l1 0 0 -1M410 107l1 0 0 -1M411 107l1 0 0 -1M412 107l1 0 0 -1M413 107l1 0 0 -1M414 107l1 0 0 -1M415 107l1 0 0 -1M416 107l1 0"/>
<path stroke="blue" d="M417 107l0 -1M417 107l1 0 0 -1M418 107l1 0 0 -1M419 107l1 0 0 -1M420 107l1 0 0 -1M421 107l1 0 0 -1M422 107l1 0 0 -1M423 107l1 0 0 -1M424 107l1 0 0 -1M425 107l1 0 0 -1M426 107l1 0 0 -1M427 107l1 0 0 -1M428 107l1 0 0 -1M429 107l1 0"/>
<path stroke="blue" d="M430 107l0 -1M430 107l1 0 0 -1M431 107l1 0 0 -1M432 107l1 0 0 -1M433 107l1 0 0 -1 1 0M435 107l0 -1M435 107l1 0 0 -1M436 107l1 0 0 -1M437 107l1 0 0 -1M438 107l1 0 0 -1M439 107l1 0 0 -1M440 107l1 0 0 -1M441 107l1 0 0 -1M442 107l1 0"/>
<path stroke="blue" d="M443 107l0 -1M443 107l1 0 0 -1M444 107l1 0 0 -1M445 107l1 0 0 -1M446 107l1 0 0 -1M447 107l1 0 0 -1M448 107l1 0 0 -1M449 107l1 0 0 -1M450 107l1 0 0 -1M451 107l1 0 0 -1M452 107l1 0 0 -1M453 107l1 0 0 -1M454 107l1 0 0 -1M455 107l1 0"/>
<path stroke="blue" d="M456 107l0 -1M456 107l1 0 0 -1M457 107l1 0 0 -1M458 107l1 0 0 -1M459 107l1 0 0 -1M460 107l1 0 0 -1M461 107l1 0 0 -1M462 107l1 0 0 -1M463 107l1 0 0 -1M464 107l1 0 0 -1M465 107l1 0 0 -1M466 107l1 0 0 -1M467 107l1 0 0 -1M468 107l1 0"/>
<path stroke="blue" d="M469 107l0 -1M469 107l1 0 0 -1M470 107l1 0 0 -1M471 107l1 0 0 -1M472 107l1 0 0 -1M473 107l1 0 0 -1M474 107l1 0 0 -1M475 107l1 0 0 -1M476 107l1 0 0 -1M477 107l1 0 0 -1M478 107l1 0 0 -1M479 107l1 0 0 -1M480 107l1 0 0 -1M481 107l1 0"/>
<path stroke="blue" d="M482 107l0 -1M482 107l1 0 0 -1M483 107l1 0 0 -1M484 107l1 0 0 -1M485 107l1 0 0 -1M486 107l1 0 0 -1M487 107l1 0 0 -1M488 107l1 0 0 -1M489 107l1 0 0 -1M490 107l1 0 0 -1M491 107l1 0 0 -1M492 107l1 0 0 -1M493 107l1 0 0 -1M494 107l1 0"/>
<path stroke="blue" d="M495 107l0 -1M495 107l1 0 0 -1M496 107l1 0 0 -1M497 107l1 0 0 -1M498 107l1 0 0 -1M499 107l1 0 0 -1M500 107l1 0 0 -1M501 107l1 0 0 -1M502 107l1 0 0 -1M503 107l1 0 0 -1M504 107l1 0 0 -1 1 0M506 107l0 -1M506 107l1 0 0 -1M507 107l1 0"/>
<path stroke="blue" d="M508 107l0 -1M508 107l1 0 0 -1M509 107l1 0 0 -1M510 107l1 0 0 -1M511 107l1 0 0 -1M512 107l1 0 0 -1M513 107l1 0 0 -1M514 107l1 0 0 -1M515 107l1 0 0 -1M516 107l1 0 0 -1M517 107l1 0 0 -1M518 107l1 0 0 -1M519 107l1 0 0 -1M520 107l1 0"/>
<path stroke="blue" d="M521 107l0 -1M521 107l1 0 0 -1M522 107l1 0 0 -1M523 107l1 0 0 -1M524 107l1 0 0 -1M525 107l1 0 0 -1M526 107l1 0 0 -1M527 107l1 0 0 -1M528 107l1 0 0 -1M529 107l1 0 0 -1M530 107l1 0 0 -1M531 107l1 0 0 -1M532 107l1 0 0 -1M533 107l1 0"/>
<path stroke="blue" d="M534 107l0 -1M534 107l1 0 0 -1M535 107l1 0 0 -1M536 107l1 0 0 -1M537 107l1 0 0 -1M538 107l1 0 0 -1M539 107l1 0 0 -1M540 107l1 0 0 -1M541 107l1 0 0 -1M542 107l1 0 0 -1M543 107l1 0 0 -1M544 107l1 0 0 -1M545 107l1 0 0 -1M546 107l1 0"/>
<path stroke="blue" d="M547 107l0 -1M547 107l1 0 0 -1M548 107l1 0 0 -1M549 107l1 0 0 -1M550 107l1 0 0 -1M551 107l1 0 0 -1M552 107l1 0 0 -1M553 107l1 0 0 -1M554 107l1 0 0 -1M555 107l1 0 0 -1M556 107l1 0 0 -1M557 107l1 0 0 -1M558 107l1 0 0 -1M559 107l1 0"/>
<path stroke="blue" d="M560 107l0 -1M560 107l1 0 0 -1M561 107l1 0 0 -1M562 107l1 0 0 -1M563 107l1 0 0 -1M564 107l1 0 0 -1M565 107l1 0 0 -1M566 107l1 0 0 -1M567 107l1 0 0 -1M568 107l1 0 0 -1M569 107l1 0 0 -1M570 107l1 0 0 -1M571 107l1 0 0 -1M572 107l1 0"/>
<path stroke="blue" d="M573 107l0 -1M573 107l1 0 0 -1M574 107l1 0 0 -1M575 107l1 0 0 -1M576 107l1 -1M577 107l0 -1M577 107l1 0 0 -1M578 107l1 0 0 -1M579 107l1 0 0 -1M580 107l1 0 0 -1M581 107l1 0 0 -1M582 107l1 0 0 -1M583 107l1 0 0 -1M584 107l1 0"/>
<path stroke="blue" d="M585 107l0 -1M585 107l1 0 0 -1M586 107l1 0 0 -1 1 0M588 107l0 -1 1 0M589 107l0 -1 1 0M590 107l0 -1 1 0M591 107l0 -1 1 0M592 107l0 -2M592 106l1 0 0 -1M593 106l1 0 0 -1M594 106l1 0 0 -1 1 0M596 106l0 -1 1 0M597 106l0 -2M597 105l1 0"/>
<path stroke="blue" d="M598 105l0 -1M598 105l1 0 0 -1 1 0M600 105l0 -2M600 104l1 0 0 -1 1 0M602 104l0 -1 1 0M603 104l0 -2M603 103l1 0 0 -2M604 102l1 0M605 103l0 -2 1 0M606 102l0 -2M606 101l1 0M607 102l0 -2 1 0M608 101l0 -2 1 0M609 100l0 -2M609 99l1 0"/>
<path stroke="blue" d="M610 100l0 -2 1 0M611 99l0 -2 1 0M612 98l0 -2 1 0M613 98l0 -3M613 96l1 0M614 97l0 -3M614 95l1 0M615 96l0 -3M615 94l1 0M616 95l0 -3M616 93l1 0M617 94l0 -3M617 92l1 0M618 93l0 -2 1 0M619 92l0 -3M619 90l1 0M620 92l0 -4M620 89l1 0"/>
<path stroke="blue" d="M621 91l0 -4M621 88l1 0M622 90l0 -4 1 0M623 89l0 -4 1 0M624 88l0 -4 1 0M625 87l0 -5M625 83l1 0M626 86l0 -5 1 0M627 85l0 -6M627 80l1 0M628 84l0 -6 1 0M629 83l0 -7M629 77l1 0M630 82l0 -6 1 0M631 82l0 -7M631 76l1 0M632 83l0 -8"/>
<path stroke="blue" d="M632 76l1 0M633 83l0 -8M633 76l1 0M634 85l0 -10M634 76l1 0M635 86l0 -11M635 76l1 0M636 86l0 -11M636 76l1 0M637 88l0 -13M637 76l1 0M638 89l0 -14M638 76l1 0M639 90l0 -15M639 76l1 0M640 91l0 -16M640 76l1 0M641 93l0 -18M641 76l1 0"/>
<path stroke="blue" d="M642 94l0 -19M642 76l1 0M643 95l0 -20M643 76l1 0M644 96l0 -21M644 76l1 0M645 98l0 -23M645 76l1 0M646 98l0 -23M646 76l1 0M647 98l0 -23M647 76l1 0M648 97l0 -22M648 76l1 0M649 92l0 -17M649 76l1 0M650 87l0 -12M650 76l1 0M651 84l0 -9"/>
<path stroke="blue" d="M651 76l1 0M652 81l0 -6M652 76l1 0M653 80l0 -5M653 76l1 0M654 79l0 -4M654 76l1 0M655 78l0 -3M655 76l1 0M656 78l0 -3M656 76l1 0M657 77l0 -2M657 76l1 0M658 77l0 -2M658 76l1 0M659 77l0 -2M659 76l1 0M660 77l0 -2M660 76l1 0"/>
<path stroke="blue" d="M661 77l0 -2M661 76l1 0M662 77l0 -2M662 76l1 0M663 77l0 -2M663 76l1 0M664 77l0 -2M664 76l1 0M665 77l0 -2M665 76l1 0M666 77l0 -2M666 76l1 0M667 77l0 -2M667 76l1 0M668 77l0 -2M668 76l1 0M669 77l0 -2M669 76l1 0M670 77l0 -2"/>
<path stroke="blue" d="M670 76l1 0M671 77l0 -2M671 76l1 0M672 77l0 -2M672 76l1 0M673 77l0 -2M673 76l1 0M674 77l0 -2M674 76l1 0M675 77l0 -2M675 76l1 0M676 77l0 -2M676 76l1 0M677 77l0 -2M677 76l1 0M678 77l0 -2M678 76l1 0M679 77l0 -2M679 76l1 0"/>
<path stroke="blue" d="M680 77l0 -2M680 76l1 0M681 77l0 -2M681 76l1 0M682 77l0 -2M682 76l1 0M683 77l0 -2M683 76l1 0M684 77l0 -2M684 76l1 0M685 77l0 -2M685 76l1 0M686 77l0 -2M686 76l1 0M687 77l0 -2M687 76l1 0M688 77l0 -2M688 76l1 0M689 77l0 -2"/>
<path stroke="blue" d="M689 76l1 0M690 77l0 -2M690 76l1 0M691 77l0 -2M691 76l1 0M692 77l0 -2M692 76l1 0M693 77l0 -2M693 76l1 0M694 77l0 -2M694 76l1 0M695 77l0 -2M695 76l1 0M696 77l0 -2M696 76l1 0M697 77l0 -2M697 76l1 0M698 77l0 -2M698 76l1 0"/>
<path stroke="blue" d="M699 77l0 -2M699 76l1 0M700 77l0 -2M700 76l1 0M701 77l0 -2M701 76l1 0M702 77l0 -2M702 76l1 0M703 77l0 -2M703 77l1 -1M704 77l0 -2M704 76l1 0M705 77l0 -2M705 76l1 0M706 77l0 -2M706 76l1 0M707 77l0 -2M707 76l1 0M708 77l0 -2"/>
<path stroke="blue" d="M708 76l1 0M709 77l0 -2M709 76l1 0M710 77l0 -2M710 76l1 0M711 77l0 -2M711 76l1 0M712 77l0 -2M712 76l1 -1M713 77l0 -2M713 76l1 0M714 77l0 -2M714 76l1 0M715 77l0 -2M715 76l1 0M716 77l0 -2M716 76l1 0M717 77l0 -2M717 76l1 0"/>
<path stroke="blue" d="M718 77l0 -2M718 76l1 0M719 77l0 -2M719 76l1 0M720 77l0 -2M720 76l1 0M721 77l0 -2M721 76l1 0M722 77l0 -2M722 76l1 0M723 77l0 -2M723 76l1 0M724 77l0 -2M724 76l1 0M725 77l0 -2M725 76l1 0M726 77l0 -2M726 76l1 0M727 77l0 -2"/>
<path stroke="blue" d="M727 76l1 0M728 77l0 -2M728 76l1 0M729 77l0 -2M729 76l1 0M730 77l0 -2M730 76l1 0M731 77l0 -2M731 76l1 0M732 77l0 -2M732 76l1 0M733 77l0 -2M733 76l1 0M734 77l0 -2M734 76l1 0M735 77l0 -2M735 76l1 0M736 77l0 -2M736 76l1 0"/>
<path stroke="blue" d="M737 77l0 -2M737 76l1 0M738 77l0 -2M738 76l1 0M739 77l0 -2M739 76l1 0M740 77l0 -2M740 76l1 0M741 77l0 -2M741 76l1 0M742 77l0 -2M742 76l1 0M743 77l0 -2M743 76l1 0M744 77l0 -2M744 76l1 0M745 77l0 -2M745 76l1 0M746 77l0 -2"/>
<path stroke="blue" d="M746 76l1 0M747 77l0 -2M747 76l1 0M748 77l0 -2M748 76l1 0M749 77l0 -2M749 76l1 0M750 77l0 -2M750 76l1 0M751 77l0 -2M751 76l1 0M752 77l0 -2M752 76l1 0M753 77l0 -2M753 76l1 0M754 77l0 -2M754 76l1 0M755 77l0 -2M755 76l1 0"/>
<path stroke="blue" d="M756 77l0 -2M756 76l1 0M757 77l0 -2M757 76l1 0M758 77l0 -2M758 76l1 0M759 77l0 -2M759 76l1 0M760 77l0 -2M760 76l1 0M761 77l0 -2M761 76l1 0M762 77l0 -2M762 76l1 0M763 77l0 -2M763 76l1 0M764 77l0 -2M764 76l1 0M765 77l0 -2"/>
<path stroke="blue" d="M765 76l1 0M766 77l0 -2M766 76l1 0M767 77l0 -2M767 76l1 0M768 77l0 -2M768 76l1 0M769 77l0 -2M769 76l1 0M770 77l0 -2M770 76l1 0M771 77l0 -2M771 76l1 0M772 77l0 -2M772 76l1 0M773 77l0 -2M773 76l1 0M774 77l0 -2M774 76l1 0"/>
<path stroke="blue" d="M775 77l0 -2M775 76l1 0M776 77l0 -2M776 76l1 0M777 77l0 -2M777 76l1 0M778 77l0 -2M778 76l1 0M779 77l0 -2M779 76l1 0M780 77l0 -2M780 76l1 0M781 77l0 -2M781 76l1 0M782 77l0 -2M782 76l1 0M783 77l0 -2M783 76l1 0M784 77l0 -2"/>
<path stroke="blue" d="M784 76l1 0M785 77l0 -2M785 76l1 0M786 77l0 -2M786 76l1 0M787 77l0 -2M787 76l1 0M788 77l0 -2M788 76l1 0M789 77l0 -2M789 76l1 0M790 77l0 -2M790 76l1 0M791 77l0 -2M791 76l1 0M792 77l0 -2M792 76l1 0M793 77l0 -2M793 76l1 0"/>
<path stroke="blue" d="M794 77l0 -2M794 76l1 0M795 77l0 -2M795 76l1 0M796 77l0 -2M796 76l1 0M797 77l0 -2M797 76l1 0M798 77l0 -2M798 76l1 0M799 77l0 -2M799 76l1 0M800 77l0 -2M800 76l1 0M801 77l0 -2M801 76l1 0M802 77l0 -2M802 76l1 0M803 77l0 -2"/>
<path stroke="blue" d="M803 76l1 0M804 77l0 -2M804 76l1 0M805 77l0 -2M805 76l1 0M806 77l0 -2M806 76l1 0M807 77l0 -2M807 76l1 0M808 77l0 -2M808 76l1 0M809 77l0 -2M809 76l1 0M810 77l0 -2M810 76l1 0M811 77l0 -2M811 76l1 0M812 77l0 -2M812 76l1 0"/>
<path stroke="blue" d="M813 77l0 -2M813 76l1 0M814 77l0 -2M814 76l1 0M815 77l0 -2M815 76l1 0M816 77l0 -2M816 76l1 0M817 77l0 -2M817 76l1 0M818 77l0 -2M818 76l1 0M819 77l0 -2M819 76l1 0M820 77l0 -2M820 76l1 0M821 77l0 -2M821 76l1 0M822 77l0 -2"/>
<path stroke="blue" d="M822 76l1 0M823 77l0 -2M823 76l1 0M824 77l0 -2M824 76l1 0M825 77l0 -2M825 76l1 0M826 77l0 -2M826 76l1 0M827 77l0 -2M827 76l1 0M828 77l0 -2M828 76l1 0M829 77l0 -2M829 76l1 0M830 77l0 -2M830 76l1 0M831 77l0 -2M831 76l1 0"/>
<path stroke="blue" d="M832 77l0 -2M832 76l1 0M833 77l0 -2M833 76l1 0M834 77l0 -2M834 76l1 0M835 77l0 -2M835 76l1 0M836 77l0 -2M836 76l1 0M837 77l0 -2M837 76l1 0M838 77l0 -2M838 76l1 0M839 77l0 -2M839 76l1 0M840 77l0 -2M840 76l1 0M841 77l0 -2"/>
<path stroke="blue" d="M841 76l1 0M842 77l0 -2M842 76l1 0M843 77l0 -2M843 76l1 0M844 77l0 -2M844 76l1 0M845 77l0 -2M845 76l1 0M846 77l0 -2M846 76l1 0M847 77l0 -2M847 76l1 0M848 77l0 -2M848 76l1 0M849 77l0 -2M849 76l1 0M850 77l0 -2M850 76l1 0"/>
<path stroke="blue" d="M851 77l0 -2M851 76l1 0M852 77l0 -2M852 76l1 0M853 77l0 -2M853 76l1 0M854 77l0 -2M854 76l1 0M855 77l0 -2M855 76l1 0M856 77l0 -2M856 76l1 0M857 77l0 -2M857 76l1 0M858 77l0 -2M858 76l1 0M859 77l0 -2M859 76l1 0M860 77l0 -2"/>
<path stroke="blue" d="M860 76l1 0M861 77l0 -2M861 76l1 0M862 77l0 -2M862 76l1 0M863 77l0 -2M863 76l1 0M864 77l0 -2M864 76l1 0M865 77l0 -2M865 76l1 0M866 77l0 -2M866 76l1 0M867 77l0 -2M867 76l1 0M868 77l0 -2M868 76l1 0M869 77l0 -2M869 76l1 0"/>
<path stroke="blue" d="M870 77l0 -2M870 76l1 0M871 77l0 -2M871 76l1 0M872 77l0 -2M872 76l1 0M873 77l0 -2M873 76l1 0M874 77l0 -2M874 76l1 0M875 77l0 -2M875 76l1 0M876 77l0 -2M876 76l1 0M877 77l0 -2M877 76l1 0M878 77l0 -2M878 76l1 0M879 77l0 -2"/>
<path stroke="blue" d="M879 76l1 0M880 77l0 -2M880 76l1 0M881 77l0 -2M881 76l1 0M882 77l0 -2M882 76l1 0M883 77l0 -2M883 76l1 0M884 77l0 -2M884 76l1 0M885 77l0 -2M885 76l1 0M886 77l0 -2M886 76l1 0M887 77l0 -2M887 76l1 0M888 77l0 -2M888 76l1 0"/>
<path stroke="blue" d="M889 77l0 -2M889 76l1 0M890 77l0 -2M890 76l1 0M891 77l0 -2M891 76l1 0M892 77l0 -2M892 76l1 0M893 77l0 -2M893 76l1 0M894 77l0 -2M894 76l1 0M895 77l0 -2M895 76l1 0M896 77l0 -2M896 76l1 0M897 77l0 -2M897 76l1 0M898 77l0 -2"/>
<path stroke="blue" d="M898 76l1 0M899 77l0 -2M899 76l1 0M900 77l0 -2M900 76l1 0M901 77l0 -2M901 76l1 0M902 77l0 -2M902 76l1 0M903 77l0 -3M903 76l1 0M904 77l0 -3M904 76l1 0M905 77l0 -3M905 76l1 0M906 77l0 -3M906 76l1 0M907 77l0 -3M907 76l1 0"/>
<path stroke="blue" d="M908 77l0 -4M908 76l1 0M909 77l0 -4M909 76l1 0M910 77l0 -4M910 77l1 -1M911 77l0 -5M911 76l1 0M912 77l0 -6M912 76l1 0M913 77l0 -7M913 76l1 0M914 77l0 -8M914 76l1 0M915 77l0 -9M915 76l1 0M916 77l0 -10M916 76l1 0M917 77l0 -11"/>
<path stroke="blue" d="M917 76l1 0M918 77l0 -12M918 76l1 0M919 77l0 -14M919 76l1 -1M920 77l0 -15M920 76l1 0M921 77l0 -17M921 76l1 0M922 77l0 -18M922 76l1 0M923 77l0 -19M923 76l1 0M924 77l0 -20M924 76l1 0M925 77l0 -21M925 76l1 0M926 77l0 -22M926 76l1 0"/>
<path stroke="blue" d="M927 77l0 -22M927 76l1 0M928 77l0 -22M928 76l1 0M929 77l0 -22M929 76l1 0M930 78l0 -20M930 78l1 0M931 83l0 -19M931 83l1 0M932 88l0 -15M932 88l1 0M933 92l0 -12M933 92l1 0M934 94l0 -7M934 94l1 0M935 96l0 -6M935 96l1 0M936 98l0 -5"/>
<path stroke="blue" d="M936 98l1 0M937 100l0 -4M937 99l1 0M938 101l0 -3M938 101l1 0M939 102l0 -3M939 101l1 0M940 102l0 -2M940 102l1 0M941 103l0 -2M941 103l1 0M942 104l0 -2M942 103l1 0M943 104l0 -1M943 104l1 0M944 105l0 -2M944 104l1 0M945 105l0 -1"/>
<path stroke="blue" d="M945 105l1 0 0 -1M946 105l1 0M947 106l0 -2M947 105l1 0M948 106l0 -1 1 0M949 106l0 -1M949 106l1 0 0 -1M950 106l1 0 0 -1M951 106l1 0M952 107l0 -2M952 106l1 0M953 107l0 -1 1 0M954 107l0 -1 1 0M955 107l0 -1 1 0M956 107l0 -1"/>
<path stroke="blue" d="M956 106l1 0M957 107l0 -1M957 107l1 0 0 -1M958 107l1 0 0 -1M959 107l1 0 0 -1M960 107l1 0 0 -1M961 107l1 0 0 -1M962 107l1 0 0 -1M963 107l1 0 0 -1M964 107l1 0 0 -1M965 107l1 0 0 -1M966 107l1 0 0 -1M967 107l1 0 0 -1M968 107l1 0"/>
<path stroke="blue" d="M969 107l0 -1M969 107l1 0 0 -1"/>
<path stroke="#FFA500" d="M460 39l46 0"/>
<text stroke="none" fill="black" font-size="16" x="516" y="48">
Vin
</text>
<path stroke="#FFA500" d="M50 496l0 -1 1 0 0 -2 1 0 0 -2 1 0 0 -2 1 -1 0 -2 1 0 0 -2 1 0 0 -2 1 0 0 -2 1 0 0 -2 1 0 0 -2 1 0 0 -2 1 0 0 -3 1 0 0 -2 1 0 0 -2 1 0 0 -2 1 0 0 -2 1 0 0 -2 1 0 0 -2 1 0 0 -2 1 0 0 -2 1 0 0 -3 1 0 0 -2 1 0 0 -2 1 0"/>
<path stroke="#FFA500" d="M73 448l0 -2 1 0 0 -2 1 0 0 -2 1 0 0 -2 1 0 0 -2 1 0 0 -2 1 0 0 -2 1 0 0 -2 1 0 0 -2 1 0 0 -2 1 0 0 -2 1 0 0 -2 1 0 0 -2 1 0 0 -2 1 0 0 -2 1 0 0 -2 1 0 0 -2 1 0 0 -2 1 0 0 -2 1 0 0 -2 1 0 0 -2 1 0 0 -2 1 0 0 -1 1 -1"/>
<path stroke="#FFA500" d="M96 402l0 -1 1 0 0 -2 1 0 0 -2 1 0 0 -2 1 0 0 -2 1 0 0 -2 1 0 0 -1 1 0 0 -2 1 0 0 -2 1 0 0 -2 1 0 0 -1 1 0 0 -2 1 0 0 -2 1 0 0 -2 1 0 0 -1 1 0 0 -2 1 0 0 -2 1 0 0 -1 1 0 0 -2 1 0 0 -2 1 0 0 -1 1 0 0 -2 1 0 0 -1 1 0 0 -2"/>
<path stroke="#FFA500" d="M119 361l1 0 0 -1 1 0 0 -2 1 0 0 -2 1 0 0 -1 1 0 0 -1 1 -1 0 -1 1 0 0 -1 1 0 0 -2 1 0 0 -1 1 0 0 -2 1 0 0 -1 1 0 0 -1 1 0 0 -2 1 0 0 -1 1 0 0 -1 1 0 0 -2 1 0 0 -1 1 0 0 -1 1 0 0 -1 1 0 0 -2 1 0 0 -1 1 0 0 -1 1 0 0 -1"/>
<path stroke="#FFA500" d="M142 330l1 0 0 -1 1 0 0 -1 1 0 0 -1 1 0 0 -1 1 0 0 -1 1 0 0 -2 1 0 0 -1 1 0 0 -1 2 0 0 -1 1 0 0 -1 1 0 0 -1 1 0 0 -1 1 0 0 -1 1 0 0 -1 1 0 0 -1 2 0 0 -1 1 0 0 -1 1 0 0 -1 2 0 0 -1 1 0 0 -1 2 0 0 -1 1 0 0 -1 2 0 0 -1"/>
<path stroke="#FFA500" d="M170 306l2 0 0 -1 2 0 0 -1 2 0 0 -1 3 0 0 -1 3 0 0 -1 5 0 0 -1 13 0M200 301l0 -1M200 301l5 0M205 302l0 -1M205 302l3 0M208 303l0 -1M208 303l3 0M211 304l0 -1M211 304l2 0M213 305l0 -1M213 305l2 0M215 306l0 -1M215 306l2 0"/>
<path stroke="#FFA500" d="M217 307l0 -1M217 307l2 0M219 308l0 -1M219 308l2 0M221 309l0 -1M221 309l1 0M222 310l0 -1M222 310l2 0M224 311l0 -1M224 311l1 0M225 312l0 -1M225 312l2 0M227 313l0 -1M227 313l1 0M228 314l0 -1M228 314l1 0M229 315l0 -1M229 315l1 0"/>
<path stroke="#FFA500" d="M230 316l0 -1M230 316l2 0M232 317l0 -1M232 317l1 0M233 318l0 -1M233 318l1 0M234 319l0 -1M234 319l1 0M235 320l0 -1M235 320l1 0M236 321l0 -1M236 321l1 0M237 322l0 -1M237 322l1 0M238 323l0 -1M238 323l1 0M239 324l0 -1M239 324l1 0"/>
<path stroke="#FFA500" d="M240 325l0 -1M240 325l1 0M241 326l0 -1M241 326l1 0M242 327l0 -1M242 327l1 0M243 328l0 -1M243 328l1 0M244 329l0 -1M244 329l1 0M245 330l0 -1M245 330l1 1M246 332l0 -1M246 332l1 0M247 333l0 -1M247 333l1 0M248 334l0 -1M248 334l1 0"/>
<path stroke="#FFA500" d="M249 335l0 -1M249 335l1 0M250 336l0 -1M250 336l1 0M251 338l0 -2M251 338l1 0M252 339l0 -1M252 339l1 0M253 340l0 -1M253 340l1 0M254 342l0 -2M254 342l1 0M255 343l0 -1M255 343l1 0M256 344l0 -1M256 344l1 0M257 346l0 -2M257 346l1 0"/>
<path stroke="#FFA500" d="M258 347l0 -1M258 347l1 0M259 348l0 -1M259 348l1 0M260 350l0 -2M260 350l1 0M261 351l0 -1M261 351l1 0M262 353l0 -2M262 353l1 0M263 354l0 -1M263 354l1 0M264 356l0 -2M264 356l1 0M265 357l0 -1M265 357l1 0M266 359l0 -2M266 359l1 0"/>
<path stroke="#FFA500" d="M267 360l0 -1M267 360l1 0M268 362l0 -2M268 362l1 0M269 363l0 -1M269 363l1 0M270 365l0 -2M270 365l1 0M271 367l0 -2M271 367l1 0M272 368l0 -1M272 368l1 0M273 370l0 -2M273 370l1 0M274 371l0 -1M274 371l1 0M275 373l0 -2M275 373l1 0"/>
<path stroke="#FFA500" d="M276 375l0 -2M276 375l1 0M277 377l0 -2M277 377l1 0M278 378l0 -1M278 378l1 0M279 380l0 -2M279 380l1 0M280 382l0 -2M280 382l1 0M281 383l0 -1M281 383l1 0M282 385l0 -2M282 385l1 0M283 387l0 -2M283 387l1 0M284 389l0 -2M284 389l1 0"/>
<path stroke="#FFA500" d="M285 391l0 -2M285 391l1 0M286 392l0 -1M286 392l1 0M287 394l0 -2M287 394l1 0M288 396l0 -2M288 396l1 0M289 398l0 -2M289 398l1 0M290 400l0 -2M290 400l1 0M291 402l0 -2M291 402l1 0M292 403l0 -1M292 403l1 0M293 405l0 -2M293 405l1 0"/>
<path stroke="#FFA500" d="M294 407l0 -2M294 407l1 0M295 409l0 -2M295 409l1 0M296 411l0 -2M296 411l1 0M297 413l0 -2M297 413l1 0M298 415l0 -2M298 415l1 0M299 417l0 -2M299 417l1 0M300 419l0 -2M300 419l1 0M301 421l0 -2M301 421l1 0M302 423l0 -2M302 423l1 0"/>
<path stroke="#FFA500" d="M303 425l0 -2M303 425l1 0M304 427l0 -2M304 427l1 0M305 429l0 -2M305 429l1 0M306 431l0 -2M306 431l1 0M307 433l0 -2M307 433l1 0M308 435l0 -2M308 435l1 0M309 437l0 -2M309 437l1 0M310 439l0 -2M310 439l1 0M311 441l0 -2M311 441l1 0"/>
<path stroke="#FFA500" d="M312 443l0 -2M312 443l1 0M313 445l0 -2M313 445l1 0M314 447l0 -2M314 447l1 0M315 449l0 -2M315 449l1 0M316 451l0 -2M316 451l1 0M317 454l0 -3M317 454l1 0M318 456l0 -2M318 456l1 0M319 458l0 -2M319 458l1 0M320 460l0 -2M320 460l1 0"/>
<path stroke="#FFA500" d="M321 462l0 -2M321 462l1 0M322 464l0 -2M322 464l1 0M323 466l0 -2M323 466l1 0M324 468l0 -2M324 468l1 0M325 470l0 -2M325 470l1 0M326 472l0 -2M326 472l1 1M327 475l0 -2M327 475l1 0M328 477l0 -2M328 477l1 0M329 479l0 -2M329 479l1 0"/>
<path stroke="#FFA500" d="M330 481l0 -2M330 481l1 0M331 483l0 -2M331 483l1 0M332 485l0 -2M332 485l1 0M333 487l0 -2M333 487l1 0M334 490l0 -3M334 490l1 0M335 492l0 -2M335 492l1 0M336 494l0 -2M336 494l1 0M337 496l0 -2M337 496l1 0M338 498l0 -2M338 498l1 0"/>
<path stroke="#FFA500" d="M339 500l0 -2M339 500l1 0M340 502l0 -2M340 502l1 0M341 505l0 -3M341 505l1 0M342 507l0 -2M342 507l1 0M343 509l0 -2M343 509l1 0M344 511l0 -2M344 511l1 0M345 513l0 -2M345 513l1 0M346 515l0 -2M346 515l1 0M347 517l0 -2M347 517l1 0"/>
<path stroke="#FFA500" d="M348 520l0 -3M348 520l1 0M349 522l0 -2M349 522l1 0M350 524l0 -2M350 524l1 0M351 526l0 -2M351 526l1 0M352 528l0 -2M352 528l1 0M353 530l0 -2M353 530l1 0M354 532l0 -2M354 532l1 0M355 534l0 -2M355 534l1 0M356 536l0 -2M356 536l1 0"/>
<path stroke="#FFA500" d="M357 538l0 -2M357 538l1 0M358 541l0 -3M358 541l1 0M359 543l0 -2M359 543l1 0M360 545l0 -2M360 545l1 0M361 547l0 -2M361 547l1 0M362 549l0 -2M362 549l1 0M363 551l0 -2M363 551l1 0M364 553l0 -2M364 553l1 0M365 555l0 -2M365 555l1 0"/>
<path stroke="#FFA500" d="M366 557l0 -2M366 557l1 0M367 559l0 -2M367 559l1 0M368 561l0 -2M368 561l1 0M369 563l0 -2M369 563l1 0M370 565l0 -2M370 565l1 0M371 567l0 -2M371 567l1 0M372 569l0 -2M372 569l1 0M373 571l0 -2M373 571l1 0M374 573l0 -2M374 573l1 0"/>
<path stroke="#FFA500" d="M375 575l0 -2M375 575l1 0M376 577l0 -2M376 577l1 0M377 579l0 -2M377 579l1 0M378 581l0 -2M378 581l1 0M379 583l0 -2M379 583l1 0M380 585l0 -2M380 585l1 0M381 587l0 -2M381 587l1 0M382 588l0 -1M382 588l1 1M383 590l0 -1M383 590l1 0"/>
<path stroke="#FFA500" d="M384 592l0 -2M384 592l1 0M385 594l0 -2M385 594l1 0M386 596l0 -2M386 596l1 0M387 598l0 -2M387 598l1 0M388 600l0 -2M388 600l1 0M389 601l0 -1M389 601l1 0M390 603l0 -2M390 603l1 0M391 605l0 -2M391 605l1 0M392 607l0 -2M392 607l1 0"/>
<path stroke="#FFA500" d="M393 609l0 -2M393 609l1 0M394 610l0 -1M394 610l1 0M395 612l0 -2M395 612l1 0M396 614l0 -2M396 614l1 0M397 615l0 -1M397 615l1 1M398 617l0 -1M398 617l1 0M399 619l0 -2M399 619l1 0M400 621l0 -2M400 621l1 0M401 622l0 -1M401 622l1 0"/>
<path stroke="#FFA500" d="M402 624l0 -2M402 624l1 0M403 625l0 -1M403 625l1 0M404 627l0 -2M404 627l1 0M405 629l0 -2M405 629l1 0M406 630l0 -1M406 630l1 0M407 632l0 -2M407 632l1 0M408 633l0 -1M408 633l1 0M409 635l0 -2M409 635l1 0M410 636l0 -1M410 636l1 0"/>
<path stroke="#FFA500" d="M411 638l0 -2M411 638l1 0M412 639l0 -1M412 639l1 0M413 641l0 -2M413 641l1 0M414 642l0 -1M414 642l1 0M415 644l0 -2M415 644l1 0M416 645l0 -1M416 645l1 0M417 646l0 -1M417 646l1 0M418 648l0 -2M418 648l1 0M419 649l0 -1M419 649l1 0"/>
<path stroke="#FFA500" d="M420 650l0 -1M420 650l1 0M421 652l0 -2M421 652l1 0M422 653l0 -1M422 653l1 0M423 654l0 -1M423 654l1 0M424 655l0 -1M424 655l1 1M425 657l0 -1M425 657l1 0M426 658l0 -1M426 658l1 0M427 659l0 -1M427 659l1 0M428 660l0 -1M428 660l1 0"/>
<path stroke="#FFA500" d="M429 661l0 -1M429 661l1 1M430 663l0 -1M430 663l1 0M431 664l0 -1M431 664l1 0M432 665l0 -1M432 665l1 0M433 666l0 -1M433 666l1 0M434 667l0 -1M434 667l1 0M435 668l0 -1M435 668l1 0M436 669l0 -1M436 669l1 0M437 670l0 -1M437 670l1 0"/>
<path stroke="#FFA500" d="M438 671l0 -1M438 671l1 0M439 672l0 -1M439 672l1 0M440 673l0 -1M440 673l1 0M441 674l0 -1M441 674l1 0M442 675l0 -1M442 675l1 0M443 676l0 -1M443 676l2 0M445 677l0 -1M445 677l1 0M446 678l0 -1M446 678l1 0M447 679l0 -1M447 679l1 0"/>
<path stroke="#FFA500" d="M448 680l0 -1M448 680l2 0M450 681l0 -1M450 681l1 0M451 682l0 -1M451 682l2 0M453 683l0 -1M453 683l1 0M454 684l0 -1M454 684l2 0M456 685l0 -1M456 685l2 0M458 686l0 -1M458 686l2 0M460 687l0 -1M460 687l2 0M462 688l0 -1M462 688l2 0"/>
<path stroke="#FFA500" d="M464 689l0 -1M464 689l3 0M467 690l0 -1M467 690l3 0M470 691l0 -1M470 691l5 0M475 692l0 -1M475 692l13 0 0 -1 5 0 0 -1 3 0 0 -1 3 0 0 -1 2 0 0 -1 2 0 0 -1 2 0 0 -1 2 0 0 -1 1 0 0 -1 2 0 0 -1 1 0 0 -1 2 0 0 -1 1 0 0 -1 1 0"/>
<path stroke="#FFA500" d="M515 679l0 -1 2 0 0 -1 1 0 0 -1 1 0 0 -1 1 0 0 -1 1 0 0 -1 1 0 0 -1 1 0 1 -1 1 0 0 -1 1 0 0 -1 1 0 0 -1 1 -1 0 -1 1 0 0 -1 1 0 0 -1 1 0 0 -1 1 0 0 -1 1 0 0 -1 1 0 0 -1 1 0 0 -1 1 0 0 -2 1 0 0 -1 1 0 0 -1 1 0 0 -1 1 0"/>
<path stroke="#FFA500" d="M540 654l0 -2 1 0 0 -1 1 0 0 -1 1 0 0 -2 1 0 0 -1 1 0 0 -1 1 0 0 -2 1 0 0 -1 1 0 0 -2 1 0 0 -1 1 0 0 -1 1 -1 0 -1 1 0 0 -1 1 0 0 -2 1 0 0 -1 1 -1 0 -1 1 0 0 -2 1 0 0 -1 1 0 0 -2 1 0 0 -1 1 0 0 -2 1 0 0 -2 1 0 0 -1 1 0"/>
<path stroke="#FFA500" d="M563 620l0 -2 1 0 0 -2 1 0 0 -1 1 0 0 -2 1 0 0 -2 1 0 0 -2 1 0 0 -1 1 0 0 -2 1 0 0 -2 1 0 0 -2 1 0 0 -1 1 0 0 -2 1 0 0 -2 1 0 0 -2 1 0 0 -2 1 0 0 -2 1 0 0 -2 1 0 0 -1 1 0 0 -2 1 0 0 -2 1 0 0 -2 1 0 0 -2 1 0 0 -2 1 0"/>
<path stroke="#FFA500" d="M586 578l0 -2 1 0 0 -2 1 0 0 -2 1 0 0 -2 1 0 0 -2 1 0 0 -2 1 0 0 -2 1 0 0 -2 1 0 0 -2 1 0 0 -2 1 0 0 -2 1 0 0 -2 1 0 0 -2 1 0 0 -2 1 0 0 -2 1 0 0 -2 1 0 0 -2 1 0 0 -2 1 0 0 -2 1 -1 0 -2 1 0 0 -2 1 0 0 -2 1 0 0 -2 1 0"/>
<path stroke="#FFA500" d="M609 531l0 -2 1 0 0 -2 1 0 0 -2 1 0 0 -2 1 0 0 -2 1 0 0 -3 1 0 0 -2 1 0 0 -2 1 0 0 -2 1 0 0 -2 1 0 0 -2 1 0 0 -2 1 0 0 -3 1 0 0 -2 1 0 0 -2 1 0 0 -2 1 0 0 -2 1 0 0 -2 1 0 0 -2 1 0 0 -2 1 0 0 -3 1 0 0 -2 1 0 0 -2 1 0"/>
<path stroke="#FFA500" d="M632 482l0 -2 1 0 0 -2 1 0 0 -2 1 0 0 -2 1 0 0 -3 1 0 0 -2 1 0 0 -2 1 0 0 -2 1 0 0 -2 1 0 0 -2 1 0 0 -2 1 0 0 -2 1 0 0 -2 1 0 0 -3 1 0 0 -2 1 0 0 -2 1 0 0 -2 1 0 0 -2 1 0 0 -2 1 0 0 -2 1 0 0 -2 1 0 0 -2 1 0 0 -2 1 0"/>
<path stroke="#FFA500" d="M655 434l0 -2 1 0 0 -2 1 0 0 -2 1 0 0 -2 1 0 0 -2 1 0 0 -2 1 0 0 -2 1 0 0 -2 1 0 0 -2 1 0 0 -2 1 0 0 -2 1 0 0 -2 1 0 0 -2 1 0 0 -2 1 0 0 -2 1 0 0 -1 1 0 0 -2 1 0 0 -2 1 0 0 -2 1 0 0 -2 1 0 0 -2 1 0 0 -2 1 0 0 -1 1 0"/>
<path stroke="#FFA500" d="M678 390l0 -2 1 0 0 -2 1 0 0 -2 1 0 0 -1 1 0 0 -2 1 0 0 -2 1 0 0 -2 1 0 0 -1 1 0 0 -2 1 0 0 -2 1 0 0 -1 1 0 0 -2 1 0 0 -2 1 0 0 -1 1 0 0 -2 1 0 0 -1 1 0 0 -2 1 0 0 -1 1 -1 0 -1 1 0 0 -2 1 0 0 -1 1 0 0 -1 1 -1 0 -1 1 0"/>
<path stroke="#FFA500" d="M701 352l0 -1 1 0 0 -2 1 0 0 -1 1 0 0 -2 1 0 0 -1 1 0 0 -1 1 0 0 -2 1 0 0 -1 1 0 0 -1 1 0 0 -2 1 0 0 -1 1 0 0 -1 1 0 0 -1 1 0 0 -2 1 0 0 -1 1 0 0 -1 1 0 0 -1 1 0 0 -1 1 0 0 -1 1 0 0 -1 1 0 0 -1 1 0 0 -1 1 -1 0 -1 1 0"/>
<path stroke="#FFA500" d="M724 323l0 -1 1 0 0 -1 2 0 0 -1 1 0 0 -1 1 0 0 -1 1 0 0 -1 1 0 0 -1 1 0 0 -1 1 0 0 -1 2 0 0 -1 1 0 0 -1 1 0 0 -1 2 0 0 -1 1 0 0 -1 2 0 0 -1 1 0 0 -1 2 0 0 -1 2 0 0 -1 2 0 0 -1 2 0 0 -1 3 0 0 -1 3 0 0 -1 5 0 0 -1 13 0"/>
<path stroke="#FFA500" d="M775 301l0 -1M775 301l5 0M780 302l0 -1M780 302l3 0M783 303l0 -1M783 303l3 0M786 304l0 -1M786 304l2 0M788 305l0 -1M788 305l2 0M790 306l0 -1M790 306l2 0M792 307l0 -1M792 307l2 0M794 308l0 -1M794 308l2 0M796 309l0 -1M796 309l1 0"/>
<path stroke="#FFA500" d="M797 310l0 -1M797 310l2 0M799 311l0 -1M799 311l1 0M800 312l0 -1M800 312l2 0M802 313l0 -1M802 313l1 0M803 314l0 -1M803 314l1 0M804 315l0 -1M804 315l1 0M805 316l0 -1M805 316l2 0M807 317l0 -1M807 317l1 0M808 318l0 -1M808 318l1 0"/>
<path stroke="#FFA500" d="M809 319l0 -1M809 319l1 0M810 320l0 -1M810 320l1 0M811 321l0 -1M811 321l1 0M812 322l0 -1M812 322l1 0M813 323l0 -1M813 323l1 0M814 324l0 -1M814 324l1 0M815 325l0 -1M815 325l1 0M816 326l0 -1M816 326l1 0M817 327l0 -1M817 327l1 0"/>
<path stroke="#FFA500" d="M818 328l0 -1M818 328l1 0M819 329l0 -1M819 329l1 0M820 330l0 -1M820 330l1 1M821 332l0 -1M821 332l1 0M822 333l0 -1M822 333l1 0M823 334l0 -1M823 334l1 0M824 335l0 -1M824 335l1 0M825 336l0 -1M825 336l1 1M826 338l0 -1M826 338l1 0"/>
<path stroke="#FFA500" d="M827 339l0 -1M827 339l1 0M828 340l0 -1M828 340l1 0M829 342l0 -2M829 342l1 0M830 343l0 -1M830 343l1 0M831 344l0 -1M831 344l1 0M832 346l0 -2M832 346l1 0M833 347l0 -1M833 347l1 0M834 348l0 -1M834 348l1 0M835 350l0 -2M835 350l1 0"/>
<path stroke="#FFA500" d="M836 351l0 -1M836 351l1 0M837 353l0 -2M837 353l1 0M838 354l0 -1M838 354l1 0M839 356l0 -2M839 356l1 0M840 357l0 -1M840 357l1 0M841 359l0 -2M841 359l1 0M842 360l0 -1M842 360l1 0M843 362l0 -2M843 362l1 0M844 363l0 -1M844 363l1 0"/>
<path stroke="#FFA500" d="M845 365l0 -2M845 365l1 0M846 367l0 -2M846 367l1 0M847 368l0 -1M847 368l1 0M848 370l0 -2M848 370l1 0M849 371l0 -1M849 371l1 1M850 373l0 -1M850 373l1 0M851 375l0 -2M851 375l1 0M852 376l0 -1M852 376l1 1M853 378l0 -1M853 378l1 0"/>
<path stroke="#FFA500" d="M854 380l0 -2M854 380l1 0M855 382l0 -2M855 382l1 0M856 383l0 -1M856 383l1 0M857 385l0 -2M857 385l1 0M858 387l0 -2M858 387l1 0M859 389l0 -2M859 389l1 0M860 390l0 -1M860 390l1 1M861 392l0 -1M861 392l1 0M862 394l0 -2M862 394l1 0"/>
<path stroke="#FFA500" d="M863 396l0 -2M863 396l1 0M864 398l0 -2M864 398l1 0M865 400l0 -2M865 400l1 0M866 402l0 -2M866 402l1 0M867 403l0 -1M867 403l1 0M868 405l0 -2M868 405l1 0M869 407l0 -2M869 407l1 0M870 409l0 -2M870 409l1 0M871 411l0 -2M871 411l1 0"/>
<path stroke="#FFA500" d="M872 413l0 -2M872 413l1 0M873 415l0 -2M873 415l1 0M874 417l0 -2M874 417l1 0M875 419l0 -2M875 419l1 0M876 421l0 -2M876 421l1 0M877 423l0 -2M877 423l1 0M878 425l0 -2M878 425l1 0M879 427l0 -2M879 427l1 0M880 429l0 -2M880 429l1 0"/>
<path stroke="#FFA500" d="M881 431l0 -2M881 431l1 0M882 433l0 -2M882 433l1 0M883 435l0 -2M883 435l1 0M884 437l0 -2M884 437l1 0M885 439l0 -2M885 439l1 0M886 441l0 -2M886 441l1 0M887 443l0 -2M887 443l1 0M888 445l0 -2M888 445l1 0M889 447l0 -2M889 447l1 0"/>
<path stroke="#FFA500" d="M890 449l0 -2M890 449l1 0M891 451l0 -2M891 451l1 0M892 454l0 -3M892 454l1 0M893 456l0 -2M893 456l1 0M894 458l0 -2M894 458l1 0M895 460l0 -2M895 460l1 0M896 462l0 -2M896 462l1 0M897 464l0 -2M897 464l1 0M898 466l0 -2M898 466l1 0"/>
<path stroke="#FFA500" d="M899 468l0 -2M899 468l1 0M900 470l0 -2M900 470l1 0M901 472l0 -2M901 472l1 0M902 475l0 -3M902 475l1 0M903 477l0 -2M903 477l1 0M904 479l0 -2M904 479l1 0M905 481l0 -2M905 481l1 0M906 483l0 -2M906 483l1 0M907 485l0 -2M907 485l1 0"/>
<path stroke="#FFA500" d="M908 487l0 -2M908 487l1 0M909 490l0 -3M909 490l1 0M910 492l0 -2M910 492l1 0M911 494l0 -2M911 494l1 0M912 496l0 -2M912 496l1 0M913 498l0 -2M913 498l1 0M914 500l0 -2M914 500l1 0M915 502l0 -2M915 502l1 0M916 505l0 -3M916 505l1 0"/>
<path stroke="#FFA500" d="M917 507l0 -2M917 507l1 0M918 509l0 -2M918 509l1 0M919 511l0 -2M919 511l1 0M920 513l0 -2M920 513l1 0M921 515l0 -2M921 515l1 0M922 517l0 -2M922 517l1 0M923 519l0 -2M923 519l1 1M924 522l0 -2M924 522l1 0M925 524l0 -2M925 524l1 0"/>
<path stroke="#FFA500" d="M926 526l0 -2M926 526l1 0M927 528l0 -2M927 528l1 0M928 530l0 -2M928 530l1 0M929 532l0 -2M929 532l1 0M930 534l0 -2M930 534l1 0M931 536l0 -2M931 536l1 0M932 538l0 -2M932 538l1 1M933 541l0 -2M933 541l1 0M934 543l0 -2M934 543l1 0"/>
<path stroke="#FFA500" d="M935 545l0 -2M935 545l1 0M936 547l0 -2M936 547l1 0M937 549l0 -2M937 549l1 0M938 551l0 -2M938 551l1 0M939 553l0 -2M939 553l1 0M940 555l0 -2M940 555l1 0M941 557l0 -2M941 557l1 0M942 559l0 -2M942 559l1 0M943 561l0 -2M943 561l1 0"/>
<path stroke="#FFA500" d="M944 563l0 -2M944 563l1 0M945 565l0 -2M945 565l1 0M946 567l0 -2M946 567l1 0M947 569l0 -2M947 569l1 0M948 571l0 -2M948 571l1 0M949 573l0 -2M949 573l1 0M950 575l0 -2M950 575l1 0M951 577l0 -2M951 577l1 0M952 579l0 -2M952 579l1 0"/>
<path stroke="#FFA500" d="M953 581l0 -2M953 581l1 0M954 583l0 -2M954 583l1 0M955 585l0 -2M955 585l1 0M956 587l0 -2M956 587l1 0M957 589l0 -2M957 589l1 0M958 590l0 -1M958 590l1 0M959 592l0 -2M959 592l1 0M960 594l0 -2M960 594l1 0M961 596l0 -2M961 596l1 0"/>
<path stroke="#FFA500" d="M962 598l0 -2M962 598l1 0M963 600l0 -2M963 600l1 0M964 601l0 -1M964 601l1 1M965 603l0 -1M965 603l1 0M966 605l0 -2M966 605l1 0M967 607l0 -2M967 607l1 0M968 609l0 -2M968 609l1 0M969 610l0 -1M969 610l1 0M970 611l0 -1"/>
</svg>
