<?xml version="1.0" standalone="yes"?>
<!DOCTYPE svg PUBLIC "-//W3C//DTD SVG 1.1//EN"
 "http://www.w3.org/Graphics/SVG/1.1/DTD/svg11.dtd">
<svg xmlns="http://www.w3.org/2000/svg" version="1.1"
  width="100%" height="100%" viewBox="0 0 1024 768"
  style="fill: none; font-family: Helvetica;
 font: Helvetica;
">

<!-- Creator: NGspice -->

<rect x="0" y="0" width="1024" height="768" fill="black" stroke="none"/>
<text stroke="none" fill="white" font-size="16" x="358" y="752">
time
</text>
<text stroke="none" fill="white" font-size="16" x="10" y="16">
tran1: ** sch_path: /foss/designs/cems_dsm/dsm/schematics/designs_hrishi/realcircuits/folded cascode/tb_folcas_tran.sch
</text>
<path stroke="white" d="M70 720l0 -670"/>
<text stroke="none" fill="white" font-size="16" x="55" y="728">
0.0
</text>
<path stroke="white" stroke-dasharray="1,2" d="M180 720l0 -670"/>
<text stroke="none" fill="white" font-size="16" x="165" y="728">
2.0
</text>
<path stroke="white" stroke-dasharray="1,2" d="M290 720l0 -670"/>
<text stroke="none" fill="white" font-size="16" x="275" y="728">
4.0
</text>
<path stroke="white" stroke-dasharray="1,2" d="M400 720l0 -670"/>
<text stroke="none" fill="white" font-size="16" x="385" y="728">
6.0
</text>
<path stroke="white" stroke-dasharray="1,2" d="M510 720l0 -670"/>
<text stroke="none" fill="white" font-size="16" x="495" y="728">
8.0
</text>
<path stroke="white" stroke-dasharray="1,2" d="M620 720l0 -670"/>
<text stroke="none" fill="white" font-size="16" x="600" y="728">
10.0
</text>
<path stroke="white" stroke-dasharray="1,2" d="M730 720l0 -670"/>
<text stroke="none" fill="white" font-size="16" x="710" y="728">
12.0
</text>
<path stroke="white" stroke-dasharray="1,2" d="M840 720l0 -670"/>
<text stroke="none" fill="white" font-size="16" x="820" y="728">
14.0
</text>
<path stroke="white" stroke-dasharray="1,2" d="M950 720l0 -670"/>
<text stroke="none" fill="white" font-size="16" x="930" y="728">
16.0
</text>
<text stroke="none" fill="white" font-size="16" x="614" y="752">
us
</text>
<path stroke="white" d="M70 720l880 0"/>
<text stroke="none" fill="white" font-size="16" x="38" y="728">
0.0
</text>
<path stroke="white" stroke-dasharray="1,2" d="M70 653l880 0"/>
<text stroke="none" fill="white" font-size="16" x="28" y="661">
50.0
</text>
<path stroke="white" stroke-dasharray="1,2" d="M70 586l880 0"/>
<text stroke="none" fill="white" font-size="16" x="18" y="594">
100.0
</text>
<path stroke="white" stroke-dasharray="1,2" d="M70 519l880 0"/>
<text stroke="none" fill="white" font-size="16" x="18" y="527">
150.0
</text>
<path stroke="white" stroke-dasharray="1,2" d="M70 452l880 0"/>
<text stroke="none" fill="white" font-size="16" x="18" y="460">
200.0
</text>
<path stroke="white" stroke-dasharray="1,2" d="M70 385l880 0"/>
<text stroke="none" fill="white" font-size="16" x="18" y="393">
250.0
</text>
<path stroke="white" stroke-dasharray="1,2" d="M70 318l880 0"/>
<text stroke="none" fill="white" font-size="16" x="18" y="326">
300.0
</text>
<path stroke="white" stroke-dasharray="1,2" d="M70 251l880 0"/>
<text stroke="none" fill="white" font-size="16" x="18" y="259">
350.0
</text>
<path stroke="white" stroke-dasharray="1,2" d="M70 184l880 0"/>
<text stroke="none" fill="white" font-size="16" x="18" y="192">
400.0
</text>
<path stroke="white" stroke-dasharray="1,2" d="M70 117l880 0"/>
<text stroke="none" fill="white" font-size="16" x="18" y="125">
450.0
</text>
<path stroke="white" stroke-dasharray="1,2" d="M70 50l880 0"/>
<text stroke="none" fill="white" font-size="16" x="18" y="58">
500.0
</text>
<text stroke="none" fill="white" font-size="16" x="10" y="32">
mV
</text>
<path stroke="red" d="M440 23l44 0"/>
<text stroke="none" fill="white" font-size="16" x="494" y="32">
v_out
</text>
<path stroke="red" d="M70 719l0 -7 1 -2 0 -53 1 -23 0 -62 1 -20 0 -37 1 -17 0 -50 1 -16 0 -44 1 -14 0 -27 1 -12 0 -36 1 -10 0 -30 1 -9 0 -17 1 -8 0 -22 1 -7 0 -12 1 -6 0 -15 1 -5 0 -13 1 -4 0 -7 1 -3 0 -10 1 -2 0 -8 1 -2 0 -4 1 -2 0 -6 1 -1 0 -5"/>
<path stroke="red" d="M89 91l1 -1 0 -3 1 -1 0 -3 1 -1 0 -2 1 0 0 -3 1 0 0 -2 1 -1 0 -1 1 0 0 -2 1 0 0 -1 1 0 0 -1 1 0 0 -1 1 0 0 -1 1 0 0 -1 2 0 0 -1 3 0 0 -1 6 0 0 -1 783 0"/>
</svg>
