<svg xmlns="http://www.w3.org/2000/svg" xmlns:xlink="http://www.w3.org/1999/xlink" width="1180" height="66" version="1.1">
<style type="text/css">
.l0{
  fill: #000000;
  stroke: #000000;
  stroke-linecap:round;
  stroke-linejoin:round;
  stroke-width: 0.484241;
}
.l1{
  fill: #00ccee;
  stroke: #00ccee;
  stroke-linecap:round;
  stroke-linejoin:round;
  stroke-width: 0.484241;
}
.l2{
  fill: #4f4f4f; fill-opacity: 0.2;
  stroke: #4f4f4f;
  stroke-linecap:round;
  stroke-linejoin:round;
  stroke-width: 0.484241;
}
.l3{
  fill: #cccccc; fill-opacity: 0.5;
  stroke: #cccccc;
  stroke-linecap:round;
  stroke-linejoin:round;
  stroke-width: 0.484241;
}
.l4{
  fill: #88dd00;
  stroke: #88dd00;
  stroke-linecap:round;
  stroke-linejoin:round;
  stroke-width: 0.484241;
}
.l5{
  fill: #bb2200;
  stroke: #bb2200;
  stroke-linecap:round;
  stroke-linejoin:round;
  stroke-width: 0.484241;
}
.l6{
  fill: #00ccee; fill-opacity: 0.5;
  stroke: #00ccee;
  stroke-linecap:round;
  stroke-linejoin:round;
  stroke-width: 0.484241;
}
.l7{
  fill: #ff0000; fill-opacity: 0.5;
  stroke: #ff0000;
  stroke-linecap:round;
  stroke-linejoin:round;
  stroke-width: 0.484241;
}
.l8{
  fill: #ffff00; fill-opacity: 0.5;
  stroke: #ffff00;
  stroke-linecap:round;
  stroke-linejoin:round;
  stroke-width: 0.484241;
}
.l9{
  fill: #ffffff; fill-opacity: 0.5;
  stroke: #ffffff;
  stroke-linecap:round;
  stroke-linejoin:round;
  stroke-width: 0.484241;
}
.l10{
  fill: #ff00ff;
  stroke: #ff00ff;
  stroke-linecap:round;
  stroke-linejoin:round;
  stroke-width: 0.484241;
}
.l11{
  fill: #00ff00; fill-opacity: 0.5;
  stroke: #00ff00;
  stroke-linecap:round;
  stroke-linejoin:round;
  stroke-width: 0.484241;
}
.l12{
  fill: #0000ff; fill-opacity: 0.5;
  stroke: #0000ff;
  stroke-linecap:round;
  stroke-linejoin:round;
  stroke-width: 0.484241;
}
.l13{
  fill: #aaaa00; fill-opacity: 0.5;
  stroke: #aaaa00;
  stroke-linecap:round;
  stroke-linejoin:round;
  stroke-width: 0.484241;
}
.l14{
  fill: #aaccaa; fill-opacity: 0.2;
  stroke: #aaccaa;
  stroke-linecap:round;
  stroke-linejoin:round;
  stroke-width: 0.484241;
}
.l15{
  fill: #ff7777; fill-opacity: 0.5;
  stroke: #ff7777;
  stroke-linecap:round;
  stroke-linejoin:round;
  stroke-width: 0.484241;
}
.l16{
  fill: #bfff81; fill-opacity: 0.5;
  stroke: #bfff81;
  stroke-linecap:round;
  stroke-linejoin:round;
  stroke-width: 0.484241;
}
.l17{
  fill: #00ffcc; fill-opacity: 0.2;
  stroke: #00ffcc;
  stroke-linecap:round;
  stroke-linejoin:round;
  stroke-width: 0.484241;
}
.l18{
  fill: #ce0097; fill-opacity: 0.5;
  stroke: #ce0097;
  stroke-linecap:round;
  stroke-linejoin:round;
  stroke-width: 0.484241;
}
.l19{
  fill: #d2d46b; fill-opacity: 0.2;
  stroke: #d2d46b;
  stroke-linecap:round;
  stroke-linejoin:round;
  stroke-width: 0.484241;
}
.l20{
  fill: #ef6158; fill-opacity: 0.2;
  stroke: #ef6158;
  stroke-linecap:round;
  stroke-linejoin:round;
  stroke-width: 0.484241;
}
.l21{
  fill: #fdb200; fill-opacity: 0.2;
  stroke: #fdb200;
  stroke-linecap:round;
  stroke-linejoin:round;
  stroke-width: 0.484241;
}
text {font-family: Sans-Serif;}
</style>
<rect class="l0" x="0" y="0" width="1180" height="66"/>
<text fill="#cccccc"  xml:space="preserve" font-size="20.7934" transform="translate(394.875, 53.8693)" >         FoldedCascodeOTA.sch</text>
<text fill="#cccccc"  xml:space="preserve" font-size="20.7934" transform="translate(394.875, 23.8788)" >(c) 2024 Hrishikesh, @HSB</text>
<text fill="#cccccc"  xml:space="preserve" font-size="20.7934" transform="translate(953.626, 23.8788)" >2025-01-25  02:57:10</text>
<text fill="#cccccc"  xml:space="preserve" font-size="51.9835" transform="translate(164.948, 52.1995)" >SCHEM</text>
<path class="l5" d="M149.953 14.9953L149.64 15.3077L149.328 15.6201L149.015 15.9325L148.703 16.2449L148.39 16.5573L148.078 16.8697L147.766 17.1821L147.453 17.4945L147.141 17.8069L146.828 18.1193L146.516 18.4317L146.204 18.7441L145.891 19.0565L145.579 19.3689L145.266 19.6813L144.954 19.9937L144.642 20.3061L144.329 20.6185L144.017 20.9309L143.704 21.2433L143.392 21.5557L143.08 21.8681L142.767 22.1805L142.455 22.4929L142.142 22.8053L141.83 23.1177L141.518 23.4301L141.205 23.7425L140.893 24.0549L140.58 24.3673L140.268 24.6797L139.956 24.9921L139.956 24.9921L139.653 25.3045L139.37 25.6169L139.106 25.9293L138.862 26.2417L138.638 26.5541L138.433 26.8665L138.247 27.1789L138.081 27.4913L137.935 27.8037L137.808 28.1161L137.701 28.4285L137.613 28.7409L137.544 29.0533L137.496 29.3657L137.466 29.6781L137.456 29.9905L137.466 30.3029L137.496 30.6153L137.544 30.9277L137.613 31.2401L137.701 31.5525L137.808 31.8649L137.935 32.1773L138.081 32.4897L138.247 32.8021L138.433 33.1145L138.638 33.4269L138.862 33.7393L139.106 34.0517L139.37 34.3641L139.653 34.6765L139.956 34.9889L139.956 34.9889L140.269 35.3025L140.585 35.6186L140.904 35.9371L141.225 36.258L141.548 36.5814L141.874 36.9073L142.202 37.2355L142.533 37.5662L142.866 37.8994L143.202 38.235L143.54 38.573L143.88 38.9135L144.223 39.2564L144.568 39.6017L144.916 39.9495L145.266 40.2997L145.619 40.6524L145.974 41.0075L146.332 41.3651L146.692 41.7251L147.054 42.0875L147.419 42.4524L147.786 42.8197L148.156 43.1894L148.528 43.5616L148.903 43.9363L149.28 44.3134L149.66 44.6929L150.042 45.0748L150.426 45.4592L150.813 45.8461L151.202 46.2354L151.202 46.2354L151.59 46.6234L151.973 47.0066L152.352 47.3849L152.725 47.7583L153.094 48.1268L153.457 48.4905L153.816 48.8493L154.17 49.2032L154.519 49.5522L154.863 49.8963L155.202 50.2356L155.537 50.5699L155.866 50.8994L156.191 51.224L156.51 51.5437L156.825 51.8586L157.135 52.1685L157.44 52.4736L157.741 52.7738L158.036 53.0691L158.326 53.3596L158.612 53.6451L158.893 53.9258L159.168 54.2016L159.439 54.4725L159.705 54.7385L159.966 54.9997L160.223 55.2559L160.474 55.5073L160.721 55.7538L160.962 55.9954L161.199 56.2322L161.199 56.2322L161.426 56.4628L161.638 56.6861L161.836 56.9021L162.019 57.1108L162.187 57.3122L162.341 57.5062L162.48 57.6929L162.605 57.8723L162.715 58.0444L162.81 58.2091L162.89 58.3665L162.956 58.5166L163.007 58.6594L163.044 58.7949L163.066 58.923L163.073 59.0438L163.066 59.1573L163.044 59.2635L163.007 59.3623L162.956 59.4538L162.89 59.538L162.81 59.6149L162.715 59.6845L162.605 59.7467L162.48 59.8016L162.341 59.8492L162.187 59.8895L162.019 59.9224L161.836 59.9481L161.638 59.9664L161.426 59.9773L161.199 59.981L161.199 59.981L160.965 59.981L160.73 59.981L160.496 59.981L160.262 59.981L160.027 59.981L159.793 59.981L159.559 59.981L159.325 59.981L159.09 59.981L158.856 59.981L158.622 59.981L158.387 59.981L158.153 59.981L157.919 59.981L157.684 59.981L157.45 59.981L157.216 59.981L156.982 59.981L156.747 59.981L156.513 59.981L156.279 59.981L156.044 59.981L155.81 59.981L155.576 59.981L155.341 59.981L155.107 59.981L154.873 59.981L154.639 59.981L154.404 59.981L154.17 59.981L153.936 59.981L153.701 59.981L153.701 59.981L153.468 59.981L153.238 59.981L153.009 59.981L152.784 59.981L152.56 59.981L152.339 59.981L152.121 59.981L151.905 59.981L151.691 59.981L151.48 59.981L151.272 59.981L151.065 59.981L150.862 59.981L150.66 59.981L150.461 59.981L150.265 59.981L150.071 59.981L149.879 59.981L149.69 59.981L149.503 59.981L149.319 59.981L149.137 59.981L148.958 59.981L148.781 59.981L148.606 59.981L148.434 59.981L148.265 59.981L148.098 59.981L147.933 59.981L147.771 59.981L147.611 59.981L147.453 59.981L147.453 59.981L147.297 59.9786L147.141 59.9712L146.985 59.959L146.828 59.942L146.672 59.92L146.516 59.8931L146.36 59.8614L146.204 59.8248L146.047 59.7833L145.891 59.7369L145.735 59.6857L145.579 59.6296L145.423 59.5685L145.266 59.5026L145.11 59.4319L144.954 59.3562L144.798 59.2757L144.642 59.1902L144.485 59.0999L144.329 59.0047L144.173 58.9047L144.017 58.7997L143.861 58.6899L143.704 58.5752L143.548 58.4556L143.392 58.3311L143.236 58.2018L143.08 58.0675L142.923 57.9284L142.767 57.7844L142.611 57.6356L142.455 57.4818L142.455 57.4818L142.299 57.3256L142.142 57.1694L141.986 57.0132L141.83 56.857L141.674 56.7008L141.518 56.5446L141.361 56.3884L141.205 56.2322L141.049 56.076L140.893 55.9198L140.737 55.7636L140.58 55.6074L140.424 55.4512L140.268 55.295L140.112 55.1388L139.956 54.9826L139.799 54.8264L139.643 54.6702L139.487 54.514L139.331 54.3578L139.175 54.2016L139.018 54.0454L138.862 53.8892L138.706 53.733L138.55 53.5768L138.394 53.4206L138.237 53.2644L138.081 53.1082L137.925 52.952L137.769 52.7958L137.613 52.6396L137.456 52.4834L137.456 52.4834L137.298 52.3247L137.134 52.1612L136.966 51.9928L136.793 51.8195L136.614 51.6414L136.431 51.4583L136.243 51.2704L136.051 51.0776L135.853 50.8799L135.65 50.6773L135.443 50.4699L135.231 50.2575L135.013 50.0403L134.791 49.8182L134.564 49.5912L134.332 49.3594L134.096 49.1226L133.854 48.881L133.608 48.6345L133.356 48.3831L133.1 48.1268L132.839 47.8657L132.573 47.5997L132.302 47.3288L132.026 47.053L131.745 46.7723L131.46 46.4867L131.169 46.1963L130.874 45.901L130.574 45.6008L130.269 45.2957L129.959 44.9858L129.959 44.9858L129.646 44.6831L129.334 44.4L129.022 44.1364L128.709 43.8923L128.397 43.6678L128.084 43.4628L127.772 43.2773L127.46 43.1113L127.147 42.9649L126.835 42.838L126.522 42.7306L126.21 42.6427L125.898 42.5744L125.585 42.5256L125.273 42.4963L124.96 42.4865L124.648 42.4963L124.336 42.5256L124.023 42.5744L123.711 42.6427L123.398 42.7306L123.086 42.838L122.774 42.9649L122.461 43.1113L122.149 43.2773L121.836 43.4628L121.524 43.6678L121.212 43.8923L120.899 44.1364L120.587 44.4L120.274 44.6831L119.962 44.9858L119.962 44.9858L119.652 45.2957L119.347 45.6008L119.047 45.901L118.751 46.1963L118.461 46.4867L118.175 46.7723L117.895 47.053L117.619 47.3288L117.348 47.5997L117.082 47.8657L116.821 48.1268L116.565 48.3831L116.313 48.6345L116.067 48.881L115.825 49.1226L115.588 49.3594L115.357 49.5912L115.13 49.8182L114.907 50.0403L114.69 50.2575L114.478 50.4699L114.27 50.6773L114.068 50.8799L113.87 51.0776L113.677 51.2704L113.489 51.4583L113.306 51.6414L113.128 51.8195L112.955 51.9928L112.787 52.1612L112.623 52.3247L112.464 52.4834L112.464 52.4834L112.308 52.6396L112.152 52.7958L111.996 52.952L111.84 53.1082L111.683 53.2644L111.527 53.4206L111.371 53.5768L111.215 53.733L111.059 53.8892L110.902 54.0454L110.746 54.2016L110.59 54.3578L110.434 54.514L110.278 54.6702L110.121 54.8264L109.965 54.9826L109.809 55.1388L109.653 55.295L109.497 55.4512L109.34 55.6074L109.184 55.7636L109.028 55.9198L108.872 56.076L108.716 56.2322L108.559 56.3884L108.403 56.5446L108.247 56.7008L108.091 56.857L107.935 57.0132L107.778 57.1694L107.622 57.3256L107.466 57.4818L107.466 57.4818L107.31 57.6356L107.154 57.7844L106.997 57.9284L106.841 58.0675L106.685 58.2018L106.529 58.3311L106.373 58.4556L106.216 58.5752L106.06 58.6899L105.904 58.7997L105.748 58.9047L105.592 59.0047L105.435 59.0999L105.279 59.1902L105.123 59.2757L104.967 59.3562L104.811 59.4319L104.654 59.5026L104.498 59.5685L104.342 59.6296L104.186 59.6857L104.03 59.7369L103.873 59.7833L103.717 59.8248L103.561 59.8614L103.405 59.8931L103.249 59.92L103.092 59.942L102.936 59.959L102.78 59.9712L102.624 59.9786L102.468 59.981L102.468 59.981L102.31 59.981L102.15 59.981L101.988 59.981L101.823 59.981L101.656 59.981L101.486 59.981L101.314 59.981L101.14 59.981L100.963 59.981L100.784 59.981L100.602 59.981L100.417 59.981L100.231 59.981L100.042 59.981L99.85 59.981L99.6559 59.981L99.4595 59.981L99.2606 59.981L99.0592 59.981L98.8554 59.981L98.6492 59.981L98.4405 59.981L98.2294 59.981L98.0158 59.981L97.7998 59.981L97.5814 59.981L97.3605 59.981L97.1372 59.981L96.9114 59.981L96.6832 59.981L96.4526 59.981L96.2195 59.981L96.2195 59.981L95.9852 59.981L95.7509 59.981L95.5166 59.981L95.2823 59.981L95.048 59.981L94.8137 59.981L94.5794 59.981L94.3451 59.981L94.1108 59.981L93.8765 59.981L93.6422 59.981L93.4079 59.981L93.1736 59.981L92.9393 59.981L92.705 59.981L92.4707 59.981L92.2364 59.981L92.0021 59.981L91.7678 59.981L91.5335 59.981L91.2992 59.981L91.0649 59.981L90.8306 59.981L90.5963 59.981L90.362 59.981L90.1277 59.981L89.8934 59.981L89.6591 59.981L89.4248 59.981L89.1905 59.981L88.9562 59.981L88.7219 59.981L88.7219 59.981L88.4949 59.9773L88.2826 59.9664L88.0849 59.9481L87.9018 59.9224L87.7334 59.8895L87.5797 59.8492L87.4406 59.8016L87.3161 59.7467L87.2063 59.6845L87.1111 59.6149L87.0305 59.538L86.9646 59.4538L86.9134 59.3623L86.8768 59.2635L86.8548 59.1573L86.8475 59.0438L86.8548 58.923L86.8768 58.7949L86.9134 58.6594L86.9646 58.5166L87.0305 58.3665L87.1111 58.2091L87.2063 58.0444L87.3161 57.8723L87.4406 57.6929L87.5797 57.5062L87.7334 57.3122L87.9018 57.1108L88.0849 56.9021L88.2826 56.6861L88.4949 56.4628L88.7219 56.2322L88.7219 56.2322L88.9586 55.9954L89.2003 55.7538L89.4468 55.5073L89.6982 55.2559L89.9544 54.9997L90.2156 54.7385L90.4816 54.4725L90.7525 54.2016L91.0283 53.9258L91.309 53.6451L91.5945 53.3596L91.885 53.0691L92.1803 52.7738L92.4805 52.4736L92.7856 52.1685L93.0955 51.8586L93.4104 51.5437L93.7301 51.224L94.0547 50.8994L94.3842 50.5699L94.7185 50.2356L95.0578 49.8963L95.4019 49.5522L95.7509 49.2032L96.1048 48.8493L96.4636 48.4905L96.8272 48.1268L97.1958 47.7583L97.5692 47.3849L97.9475 47.0066L98.3307 46.6234L98.7187 46.2354L98.7187 46.2354L99.108 45.8461L99.4949 45.4592L99.8793 45.0748L100.261 44.6929L100.641 44.3134L101.018 43.9363L101.392 43.5616L101.765 43.1894L102.134 42.8197L102.502 42.4524L102.867 42.0875L103.229 41.7251L103.589 41.3651L103.947 41.0075L104.302 40.6524L104.654 40.2997L105.005 39.9495L105.352 39.6017L105.698 39.2564L106.041 38.9135L106.381 38.573L106.719 38.235L107.055 37.8994L107.388 37.5662L107.719 37.2355L108.047 36.9073L108.373 36.5814L108.696 36.258L109.017 35.9371L109.335 35.6186L109.652 35.3025L109.965 34.9889L109.965 34.9889L110.268 34.6765L110.551 34.3641L110.815 34.0517L111.059 33.7393L111.283 33.4269L111.488 33.1145L111.674 32.8021L111.84 32.4897L111.986 32.1773L112.113 31.8649L112.22 31.5525L112.308 31.2401L112.377 30.9277L112.425 30.6153L112.455 30.3029L112.464 29.9905L112.455 29.6781L112.425 29.3657L112.377 29.0533L112.308 28.7409L112.22 28.4285L112.113 28.1161L111.986 27.8037L111.84 27.4913L111.674 27.1789L111.488 26.8665L111.283 26.5541L111.059 26.2417L110.815 25.9293L110.551 25.6169L110.268 25.3045L109.965 24.9921L109.965 24.9921L109.652 24.6785L109.335 24.3624L109.017 24.0439L108.696 23.723L108.373 23.3996L108.047 23.0737L107.719 22.7455L107.388 22.4148L107.055 22.0816L106.719 21.746L106.381 21.408L106.041 21.0675L105.698 20.7246L105.352 20.3793L105.005 20.0315L104.654 19.6813L104.302 19.3286L103.947 18.9735L103.589 18.6159L103.229 18.2559L102.867 17.8935L102.502 17.5286L102.134 17.1613L101.765 16.7916L101.392 16.4194L101.018 16.0447L100.641 15.6676L100.261 15.2881L99.8793 14.9062L99.4949 14.5218L99.108 14.1349L98.7187 13.7456L98.7187 13.7456L98.3307 13.3576L97.9475 12.9744L97.5692 12.5961L97.1958 12.2227L96.8272 11.8542L96.4636 11.4905L96.1048 11.1317L95.7509 10.7778L95.4019 10.4288L95.0578 10.0847L94.7185 9.74545L94.3842 9.41108L94.0547 9.0816L93.7301 8.75699L93.4104 8.43727L93.0955 8.12243L92.7856 7.81247L92.4805 7.50739L92.1803 7.20719L91.885 6.91187L91.5945 6.62144L91.309 6.33588L91.0283 6.05521L90.7525 5.77942L90.4816 5.50851L90.2156 5.24248L89.9544 4.98133L89.6982 4.72507L89.4468 4.47368L89.2003 4.22718L88.9586 3.98555L88.7219 3.74881L88.7219 3.74881L88.4949 3.51817L88.2826 3.29485L88.0849 3.07886L87.9018 2.87018L87.7334 2.66883L87.5797 2.4748L87.4406 2.28809L87.3161 2.10871L87.2063 1.93664L87.1111 1.7719L87.0305 1.61448L86.9646 1.46438L86.9134 1.3216L86.8768 1.18615L86.8548 1.05801L86.8475 0.937203L86.8548 0.823714L86.8768 0.717546L86.9134 0.618701L86.9646 0.527177L87.0305 0.442975L87.1111 0.366095L87.2063 0.296537L87.3161 0.234301L87.4406 0.179387L87.5797 0.131794L87.7334 0.0915237L87.9018 0.0585752L88.0849 0.0329485L88.2826 0.0146438L88.4949 0.00366095L88.7219 0L88.7219 0L88.9562 0L89.1905 0L89.4248 0L89.6591 0L89.8934 0L90.1277 0L90.362 0L90.5963 0L90.8306 0L91.0649 0L91.2992 0L91.5335 0L91.7678 0L92.0021 0L92.2364 0L92.4707 0L92.705 0L92.9393 0L93.1736 0L93.4079 0L93.6422 0L93.8765 0L94.1108 0L94.3451 0L94.5794 0L94.8137 0L95.048 0L95.2823 0L95.5166 0L95.7509 0L95.9852 0L96.2195 0L96.2195 0L96.4526 0L96.6832 0L96.9114 0L97.1372 0L97.3605 0L97.5814 0L97.7998 0L98.0158 0L98.2294 0L98.4405 0L98.6492 0L98.8554 0L99.0592 0L99.2606 0L99.4595 0L99.6559 0L99.85 0L100.042 0L100.231 0L100.417 0L100.602 0L100.784 0L100.963 0L101.14 0L101.314 0L101.486 0L101.656 0L101.823 0L101.988 0L102.15 0L102.31 0L102.468 0L102.468 0L102.624 0.00244063L102.78 0.00976253L102.936 0.0219657L103.092 0.0390501L103.249 0.0610158L103.405 0.0878628L103.561 0.119591L103.717 0.156201L103.873 0.197691L104.03 0.244063L104.186 0.295317L104.342 0.351451L104.498 0.412467L104.654 0.478364L104.811 0.549142L104.967 0.624802L105.123 0.705343L105.279 0.790765L105.435 0.881069L105.592 0.976253L105.748 1.07632L105.904 1.18127L106.06 1.29109L106.216 1.4058L106.373 1.5254L106.529 1.64987L106.685 1.77922L106.841 1.91346L106.997 2.05257L107.154 2.19657L107.31 2.34545L107.466 2.49921L107.466 2.49921L107.622 2.65541L107.778 2.81161L107.935 2.96781L108.091 3.12401L108.247 3.28021L108.403 3.43641L108.559 3.59261L108.716 3.74881L108.872 3.90501L109.028 4.06121L109.184 4.21741L109.34 4.37361L109.497 4.52982L109.653 4.68602L109.809 4.84222L109.965 4.99842L110.121 5.15462L110.278 5.31082L110.434 5.46702L110.59 5.62322L110.746 5.77942L110.902 5.93562L111.059 6.09182L111.215 6.24802L111.371 6.40422L111.527 6.56042L111.683 6.71662L111.84 6.87282L111.996 7.02902L112.152 7.18522L112.308 7.34142L112.464 7.49763L112.464 7.49763L112.623 7.65627L112.787 7.81979L112.955 7.98819L113.128 8.16148L113.306 8.33964L113.489 8.52269L113.677 8.71062L113.87 8.90343L114.068 9.10112L114.27 9.30369L114.478 9.51115L114.69 9.72348L114.907 9.9407L115.13 10.1628L115.357 10.3898L115.588 10.6216L115.825 10.8584L116.067 11.1L116.313 11.3465L116.565 11.5979L116.821 11.8542L117.082 12.1153L117.348 12.3813L117.619 12.6522L117.895 12.928L118.175 13.2087L118.461 13.4943L118.751 13.7847L119.047 14.08L119.347 14.3802L119.652 14.6853L119.962 14.9953L119.962 14.9953L120.274 15.2979L120.587 15.581L120.899 15.8446L121.212 16.0887L121.524 16.3132L121.836 16.5182L122.149 16.7037L122.461 16.8697L122.774 17.0161L123.086 17.143L123.398 17.2504L123.711 17.3383L124.023 17.4066L124.336 17.4554L124.648 17.4847L124.96 17.4945L125.273 17.4847L125.585 17.4554L125.898 17.4066L126.21 17.3383L126.522 17.2504L126.835 17.143L127.147 17.0161L127.46 16.8697L127.772 16.7037L128.084 16.5182L128.397 16.3132L128.709 16.0887L129.022 15.8446L129.334 15.581L129.646 15.2979L129.959 14.9953L129.959 14.9953L130.269 14.6853L130.574 14.3802L130.874 14.08L131.169 13.7847L131.46 13.4943L131.745 13.2087L132.026 12.928L132.302 12.6522L132.573 12.3813L132.839 12.1153L133.1 11.8542L133.356 11.5979L133.608 11.3465L133.854 11.1L134.096 10.8584L134.332 10.6216L134.564 10.3898L134.791 10.1628L135.013 9.9407L135.231 9.72348L135.443 9.51115L135.65 9.30369L135.853 9.10112L136.051 8.90343L136.243 8.71062L136.431 8.52269L136.614 8.33964L136.793 8.16148L136.966 7.98819L137.134 7.81979L137.298 7.65627L137.456 7.49763L137.456 7.49763L137.613 7.34142L137.769 7.18522L137.925 7.02902L138.081 6.87282L138.237 6.71662L138.394 6.56042L138.55 6.40422L138.706 6.24802L138.862 6.09182L139.018 5.93562L139.175 5.77942L139.331 5.62322L139.487 5.46702L139.643 5.31082L139.799 5.15462L139.956 4.99842L140.112 4.84222L140.268 4.68602L140.424 4.52982L140.58 4.37361L140.737 4.21741L140.893 4.06121L141.049 3.90501L141.205 3.74881L141.361 3.59261L141.518 3.43641L141.674 3.28021L141.83 3.12401L141.986 2.96781L142.142 2.81161L142.299 2.65541L142.455 2.49921L142.455 2.49921L142.611 2.34545L142.767 2.19657L142.923 2.05257L143.08 1.91346L143.236 1.77922L143.392 1.64987L143.548 1.5254L143.704 1.4058L143.861 1.29109L144.017 1.18127L144.173 1.07632L144.329 0.976253L144.485 0.881069L144.642 0.790765L144.798 0.705343L144.954 0.624802L145.11 0.549142L145.266 0.478364L145.423 0.412467L145.579 0.351451L145.735 0.295317L145.891 0.244063L146.047 0.197691L146.204 0.156201L146.36 0.119591L146.516 0.0878628L146.672 0.0610158L146.828 0.0390501L146.985 0.0219657L147.141 0.00976253L147.297 0.00244063L147.453 0L147.453 0L147.611 0L147.771 0L147.933 0L148.098 0L148.265 0L148.434 0L148.606 0L148.781 0L148.958 0L149.137 0L149.319 0L149.503 0L149.69 0L149.879 0L150.071 0L150.265 0L150.461 0L150.66 0L150.862 0L151.065 0L151.272 0L151.48 0L151.691 0L151.905 0L152.121 0L152.339 0L152.56 0L152.784 0L153.009 0L153.238 0L153.468 0L153.701 0L153.701 0L153.936 0L154.17 0L154.404 0L154.639 0L154.873 0L155.107 0L155.341 0L155.576 0L155.81 0L156.044 0L156.279 0L156.513 0L156.747 0L156.982 0L157.216 0L157.45 0L157.684 0L157.919 0L158.153 0L158.387 0L158.622 0L158.856 0L159.09 0L159.325 0L159.559 0L159.793 0L160.027 0L160.262 0L160.496 0L160.73 0L160.965 0L161.199 0L161.199 0L161.426 0.00366095L161.638 0.0146438L161.836 0.0329485L162.019 0.0585752L162.187 0.0915237L162.341 0.131794L162.48 0.179387L162.605 0.234301L162.715 0.296537L162.81 0.366095L162.89 0.442975L162.956 0.527177L163.007 0.618701L163.044 0.717546L163.066 0.823714L163.073 0.937203L163.066 1.05801L163.044 1.18615L163.007 1.3216L162.956 1.46438L162.89 1.61448L162.81 1.7719L162.715 1.93664L162.605 2.10871L162.48 2.28809L162.341 2.4748L162.187 2.66883L162.019 2.87018L161.836 3.07886L161.638 3.29485L161.426 3.51817L161.199 3.74881L161.199 3.74881L160.961 3.98677L160.716 4.23206L160.463 4.48466L160.203 4.74459L159.936 5.01184L159.661 5.28641L159.379 5.5683L159.09 5.85752L158.794 6.15406L158.49 6.45792L158.179 6.7691L157.86 7.0876L157.534 7.41342L157.201 7.74657L156.861 8.08704L156.513 8.43483L156.158 8.78994L155.795 9.15237L155.426 9.52213L155.049 9.89921L154.664 10.2836L154.272 10.6753L153.873 11.0744L153.467 11.4807L153.053 11.8944L152.632 12.3154L152.204 12.7438L151.768 13.1794L151.325 13.6224L150.875 14.0727L150.417 14.5303L149.953 14.9953"/>
<path class="l6" d="M384.878 29.9905L1179.63 29.9905"/>
<path class="l6" d="M0 29.9905L64.9794 29.9905"/>
</svg>
