<?xml version="1.0" standalone="yes"?>
<!DOCTYPE svg PUBLIC "-//W3C//DTD SVG 1.1//EN"
 "http://www.w3.org/Graphics/SVG/1.1/DTD/svg11.dtd">
<svg xmlns="http://www.w3.org/2000/svg" version="1.1"
  width="100%" height="100%" viewBox="0 0 1024 768"
  style="fill: none; font-family: Helvetica;
 font: Helvetica;
">

<!-- Creator: NGspice -->

<rect x="0" y="0" width="1024" height="768" fill="black" stroke="none"/>
<text stroke="none" fill="white" font-size="16" x="358" y="752">
frequency
</text>
<text stroke="none" fill="white" font-size="16" x="10" y="16">
ac1: ** sch_path: /foss/designs/cems_dsm/dsm/schematics/designs_hrishi/realcircuits/folded cascode/tb_folcas_ac.sch
</text>
<path stroke="white" d="M70 720l0 -671"/>
<text stroke="none" fill="white" font-size="16" x="50" y="728">
10^3
</text>
<path stroke="white" stroke-dasharray="1,2" d="M114 720l0 -671M140 720l0 -671M158 720l0 -671M172 720l0 -671M184 720l0 -671M194 720l0 -671M202 720l0 -671M210 720l0 -671"/>
<path stroke="white" d="M217 720l0 -671"/>
<text stroke="none" fill="white" font-size="16" x="197" y="728">
10^4
</text>
<path stroke="white" stroke-dasharray="1,2" d="M261 720l0 -671M287 720l0 -671M305 720l0 -671M319 720l0 -671M331 720l0 -671M341 720l0 -671M349 720l0 -671M357 720l0 -671"/>
<path stroke="white" d="M364 720l0 -671"/>
<text stroke="none" fill="white" font-size="16" x="344" y="728">
10^5
</text>
<path stroke="white" stroke-dasharray="1,2" d="M408 720l0 -671M434 720l0 -671M452 720l0 -671M466 720l0 -671M478 720l0 -671M488 720l0 -671M496 720l0 -671M504 720l0 -671"/>
<path stroke="white" d="M511 720l0 -671"/>
<text stroke="none" fill="white" font-size="16" x="491" y="728">
10^6
</text>
<path stroke="white" stroke-dasharray="1,2" d="M555 720l0 -671M581 720l0 -671M599 720l0 -671M613 720l0 -671M625 720l0 -671M635 720l0 -671M643 720l0 -671M651 720l0 -671"/>
<path stroke="white" d="M658 720l0 -671"/>
<text stroke="none" fill="white" font-size="16" x="638" y="728">
10^7
</text>
<path stroke="white" stroke-dasharray="1,2" d="M702 720l0 -671M728 720l0 -671M746 720l0 -671M760 720l0 -671M772 720l0 -671M782 720l0 -671M790 720l0 -671M798 720l0 -671"/>
<path stroke="white" d="M805 720l0 -671"/>
<text stroke="none" fill="white" font-size="16" x="785" y="728">
10^8
</text>
<path stroke="white" stroke-dasharray="1,2" d="M849 720l0 -671M875 720l0 -671M893 720l0 -671M907 720l0 -671M919 720l0 -671M929 720l0 -671M937 720l0 -671M945 720l0 -671"/>
<path stroke="white" d="M952 720l0 -671"/>
<text stroke="none" fill="white" font-size="16" x="932" y="728">
10^9
</text>
<text stroke="none" fill="white" font-size="16" x="614" y="752">
Hz
</text>
<path stroke="white" stroke-dasharray="1,2" d="M70 720l882 0"/>
<text stroke="none" fill="white" font-size="16" x="8" y="728">
-110.0
</text>
<path stroke="white" stroke-dasharray="1,2" d="M70 659l882 0"/>
<text stroke="none" fill="white" font-size="16" x="8" y="667">
-100.0
</text>
<path stroke="white" stroke-dasharray="1,2" d="M70 598l882 0"/>
<text stroke="none" fill="white" font-size="16" x="18" y="606">
-90.0
</text>
<path stroke="white" stroke-dasharray="1,2" d="M70 537l882 0"/>
<text stroke="none" fill="white" font-size="16" x="18" y="545">
-80.0
</text>
<path stroke="white" stroke-dasharray="1,2" d="M70 476l882 0"/>
<text stroke="none" fill="white" font-size="16" x="18" y="484">
-70.0
</text>
<path stroke="white" stroke-dasharray="1,2" d="M70 415l882 0"/>
<text stroke="none" fill="white" font-size="16" x="18" y="423">
-60.0
</text>
<path stroke="white" stroke-dasharray="1,2" d="M70 354l882 0"/>
<text stroke="none" fill="white" font-size="16" x="18" y="362">
-50.0
</text>
<path stroke="white" stroke-dasharray="1,2" d="M70 293l882 0"/>
<text stroke="none" fill="white" font-size="16" x="18" y="301">
-40.0
</text>
<path stroke="white" stroke-dasharray="1,2" d="M70 232l882 0"/>
<text stroke="none" fill="white" font-size="16" x="18" y="240">
-30.0
</text>
<path stroke="white" stroke-dasharray="1,2" d="M70 171l882 0"/>
<text stroke="none" fill="white" font-size="16" x="18" y="179">
-20.0
</text>
<path stroke="white" stroke-dasharray="1,2" d="M70 110l882 0"/>
<text stroke="none" fill="white" font-size="16" x="18" y="118">
-10.0
</text>
<path stroke="white" d="M70 49l882 0"/>
<text stroke="none" fill="white" font-size="16" x="28" y="57">
-0.0
</text>
<text stroke="none" fill="white" font-size="16" x="10" y="32">
     
</text>
<path stroke="red" d="M441 23l44 0"/>
<text stroke="none" fill="white" font-size="16" x="495" y="32">
180/pi*ph(v_out)
</text>
<path stroke="red" d="M70 49l49 0 2 1 68 0 2 1 30 0 2 1 20 0 2 1 14 0 2 1 11 0 2 1 8 0 2 1 9 0 1 1 6 0 1 1 6 0 2 1 4 0 2 1 4 0 1 1 5 0 1 1 3 0 2 1 4 0 1 1 2 0 1 1 3 0 2 1 3 0 1 1 1 0 2 1 3 0 1 1 2 0 1 1 2 0 1 1 2 0 1 1 1 0 2 1 1 0 2 1 1 1 2 0"/>
<path stroke="red" d="M373 75l1 1 2 0 1 1 2 1 1 0 1 1 2 1 1 0 2 1 1 1 2 1 1 0 2 1 1 1 2 1 1 1 1 0 2 1 1 1 2 1 1 1 2 1 1 1 2 1 1 1 2 1 2 2 2 1 1 2 2 1 1 1 2 1 4 4 2 1 1 2 4 4 2 1 1 2 8 8 1 2 3 3 1 2 2 2 1 2 2 2 1 2 2 2 1 2 2 2 1 2 2 2 1 3 1 2"/>
<path stroke="red" d="M464 156l2 2 1 2 2 3 1 2 2 3 1 2 2 3 1 3 2 2 2 6 2 2 1 3 2 3 1 3 2 3 1 3 2 3 1 3 2 4 2 6 2 3 1 4 2 3 1 3 2 4 1 3 2 4 1 4 2 3 1 4 1 3 2 4 1 4 2 4 1 3 2 4 1 4 2 4 1 4 2 4 2 8 2 4 1 4 2 4 1 4 2 4 1 4 2 4 1 4 2 4 2 8 2 4 1 4"/>
<path stroke="red" d="M547 350l2 4 1 4 2 4 1 4 2 4 1 3 2 4 2 8 2 4 1 4 2 3 1 4 2 4 1 3 2 4 1 3 2 4 1 3 1 4 2 3 1 4 2 3 1 3 2 4 1 3 2 3 1 3 2 3 1 3 2 3 2 6 2 3 1 3 2 2 1 3 2 3 1 2 2 3 1 3 2 2 1 3 1 2 2 2 1 3 2 2 1 2 2 3 1 2 2 2 1 2 2 2 2 4 2 2"/>
<path stroke="red" d="M629 521l1 2 2 2 1 2 2 2 1 2 5 5 2 4 2 1 1 2 2 1 1 2 16 16 2 1 1 2 2 1 5 5 2 1 1 2 2 1 1 1 2 1 1 2 2 1 1 1 2 1 5 5 2 1 1 1 2 1 4 4 2 1 2 2 2 1 4 4 2 1 1 1 2 1 1 2 2 1 2 2 2 1 1 2 2 1 1 1 2 1 1 2 2 1 1 1 2 1 1 2 2 1 1 1 1 2"/>
<path stroke="red" d="M742 627l2 1 1 2 2 1 10 10 1 2 8 8 1 2 5 5 2 4 2 2 1 2 2 2 1 2 2 2 1 2 2 2 1 2 2 2 2 4 2 3 1 2 2 2 1 3 2 2 1 3 2 2 1 3 2 2 1 3"/>
</svg>
