<?xml version="1.0" standalone="yes"?>
<!DOCTYPE svg PUBLIC "-//W3C//DTD SVG 1.1//EN"
 "http://www.w3.org/Graphics/SVG/1.1/DTD/svg11.dtd">
<svg xmlns="http://www.w3.org/2000/svg" version="1.1"
  width="100%" height="100%" viewBox="0 0 1024 768"
  style="fill: none; font-family: Helvetica;
 font: Helvetica;
">

<!-- Creator: NGspice -->

<rect x="0" y="0" width="1024" height="768" fill="black" stroke="none"/>
<text stroke="none" fill="white" font-size="16" x="358" y="752">
frequency
</text>
<text stroke="none" fill="white" font-size="16" x="10" y="16">
ac1: ** sch_path: /foss/designs/cems_dsm/dsm/schematics/ic_designs_hrishi/realcircuits/folded cascode/tb_folcas_ac.sch
</text>
<path stroke="white" d="M60 720l0 -672"/>
<text stroke="none" fill="white" font-size="16" x="40" y="728">
10^3
</text>
<path stroke="white" stroke-dasharray="1,2" d="M98 720l0 -672M121 720l0 -672M137 720l0 -672M150 720l0 -672M160 720l0 -672M169 720l0 -672M176 720l0 -672M183 720l0 -672"/>
<path stroke="white" d="M189 720l0 -672"/>
<text stroke="none" fill="white" font-size="16" x="169" y="728">
10^4
</text>
<path stroke="white" stroke-dasharray="1,2" d="M227 720l0 -672M250 720l0 -672M266 720l0 -672M279 720l0 -672M289 720l0 -672M298 720l0 -672M305 720l0 -672M312 720l0 -672"/>
<path stroke="white" d="M318 720l0 -672"/>
<text stroke="none" fill="white" font-size="16" x="298" y="728">
10^5
</text>
<path stroke="white" stroke-dasharray="1,2" d="M356 720l0 -672M379 720l0 -672M395 720l0 -672M408 720l0 -672M418 720l0 -672M427 720l0 -672M434 720l0 -672M441 720l0 -672"/>
<path stroke="white" d="M447 720l0 -672"/>
<text stroke="none" fill="white" font-size="16" x="427" y="728">
10^6
</text>
<path stroke="white" stroke-dasharray="1,2" d="M485 720l0 -672M508 720l0 -672M524 720l0 -672M537 720l0 -672M547 720l0 -672M556 720l0 -672M563 720l0 -672M570 720l0 -672"/>
<path stroke="white" d="M576 720l0 -672"/>
<text stroke="none" fill="white" font-size="16" x="556" y="728">
10^7
</text>
<path stroke="white" stroke-dasharray="1,2" d="M614 720l0 -672M637 720l0 -672M653 720l0 -672M666 720l0 -672M676 720l0 -672M685 720l0 -672M692 720l0 -672M699 720l0 -672"/>
<path stroke="white" d="M705 720l0 -672"/>
<text stroke="none" fill="white" font-size="16" x="685" y="728">
10^8
</text>
<path stroke="white" stroke-dasharray="1,2" d="M743 720l0 -672M766 720l0 -672M782 720l0 -672M795 720l0 -672M805 720l0 -672M814 720l0 -672M821 720l0 -672M828 720l0 -672"/>
<path stroke="white" d="M834 720l0 -672"/>
<text stroke="none" fill="white" font-size="16" x="814" y="728">
10^9
</text>
<path stroke="white" stroke-dasharray="1,2" d="M872 720l0 -672M895 720l0 -672M911 720l0 -672M924 720l0 -672M934 720l0 -672M943 720l0 -672M950 720l0 -672M957 720l0 -672"/>
<path stroke="white" d="M963 720l0 -672"/>
<text stroke="none" fill="white" font-size="16" x="938" y="728">
10^10
</text>
<text stroke="none" fill="white" font-size="16" x="614" y="752">
Hz
</text>
<path stroke="white" stroke-dasharray="1,2" d="M60 720l903 0"/>
<text stroke="none" fill="white" font-size="16" x="8" y="728">
-70.0
</text>
<path stroke="white" stroke-dasharray="1,2" d="M60 624l903 0"/>
<text stroke="none" fill="white" font-size="16" x="8" y="632">
-60.0
</text>
<path stroke="white" stroke-dasharray="1,2" d="M60 528l903 0"/>
<text stroke="none" fill="white" font-size="16" x="8" y="536">
-50.0
</text>
<path stroke="white" stroke-dasharray="1,2" d="M60 432l903 0"/>
<text stroke="none" fill="white" font-size="16" x="8" y="440">
-40.0
</text>
<path stroke="white" stroke-dasharray="1,2" d="M60 336l903 0"/>
<text stroke="none" fill="white" font-size="16" x="8" y="344">
-30.0
</text>
<path stroke="white" stroke-dasharray="1,2" d="M60 240l903 0"/>
<text stroke="none" fill="white" font-size="16" x="8" y="248">
-20.0
</text>
<path stroke="white" stroke-dasharray="1,2" d="M60 144l903 0"/>
<text stroke="none" fill="white" font-size="16" x="8" y="152">
-10.0
</text>
<path stroke="white" d="M60 48l903 0"/>
<text stroke="none" fill="white" font-size="16" x="28" y="56">
0.0
</text>
<text stroke="none" fill="white" font-size="16" x="10" y="32">
     
</text>
<path stroke="red" d="M451 23l45 0"/>
<text stroke="none" fill="white" font-size="16" x="506" y="32">
20*log10(v_out)
</text>
<path stroke="red" d="M60 56l269 0 2 1 27 0 1 1 14 0 1 1 8 0 1 1 7 0 1 1 4 0 1 1 4 0 1 1 4 0 1 1 3 0 1 1 1 0 2 1 2 0 1 1 2 0 1 1 1 0 1 1 2 0 1 1 1 0 2 1 1 0 2 2 2 0 2 2 2 0 3 3 2 0 3 3 2 1 1 1 1 0 2 1 3 3 2 1 7 7 2 1 2 2 1 2 2 1 6 6 1 2 2 1 1 1"/>
<path stroke="red" d="M479 111l1 2 4 4 1 2 2 1 1 2 1 1 1 2 2 1 1 2 3 3 1 2 1 1 1 2 2 1 2 4 3 3 1 2 3 3 1 2 1 1 1 2 2 2 1 2 3 3 1 2 1 1 1 2 2 2 2 4 3 3 2 4 2 1 3 6 3 3 1 2 2 2 2 4 3 3 3 6 3 3 1 2 2 2 2 4 3 3 2 4 2 2 1 2 1 1 1 2 2 2 3 6 2 1 2 4"/>
<path stroke="red" d="M577 244l2 2 1 2 1 1 1 2 2 2 2 4 3 3 2 4 3 3 2 4 3 3 1 2 2 2 1 2 1 1 1 2 2 2 1 2 1 1 1 2 2 2 1 2 3 3 1 2 1 1 1 2 3 3 1 2 3 3 2 4 2 1 2 4 3 3 1 2 4 4 2 4 2 1 1 2 3 3 1 2 1 1 1 2 2 1 2 4 4 4 1 2 2 1 2 4 4 4 1 2 2 1 2 4 4 4"/>
<path stroke="red" d="M677 374l2 4 2 1 2 4 2 1 1 2 1 1 1 2 3 3 1 2 2 2 1 2 1 1 1 2 3 3 2 4 3 3 1 2 2 2 2 4 3 3 3 6 2 2 1 2 3 3 3 6 2 2 2 4 2 2 3 6 2 2 3 6 2 3 2 4 2 2 2 4 1 3 2 2 2 4 2 3 2 4 1 3 2 2 1 3 1 2 1 3 2 2 1 3 1 2 2 3 1 3 1 2 1 3 2 3"/>
<path stroke="red" d="M773 526l2 6 2 3 3 9 2 3 1 3 1 4 1 3 2 4 1 3 1 4 2 3 3 12 2 4 2 8 2 5 2 8 1 5 2 4 2 10 1 4 2 5 2 10 2 5 2 10 1 4 2 5 2 10 2 5 1 4 1 5 1 4 2 4 3 12 2 3 1 3"/>
</svg>
