<?xml version="1.0" standalone="yes"?>
<!DOCTYPE svg PUBLIC "-//W3C//DTD SVG 1.1//EN"
 "http://www.w3.org/Graphics/SVG/1.1/DTD/svg11.dtd">
<svg xmlns="http://www.w3.org/2000/svg" version="1.1"
  width="100%" height="100%" viewBox="0 0 1024 768"
  style="fill: none; font-family: Helvetica;
 font: Helvetica;
">

<!-- Creator: NGspice -->

<rect x="0" y="0" width="1024" height="768" fill="white" stroke="none"/>
<text stroke="none" fill="black" font-size="16" x="358" y="752">
time
</text>
<text stroke="none" fill="black" font-size="16" x="10" y="16">
tran1: ** sch_path: /foss/designs/cems_dsm/dsm/schematics/designs_hrishi/realcircuits/real_dsm_design.sch
</text>
<path stroke="black" d="M80 720l0 -670"/>
<text stroke="none" fill="black" font-size="16" x="65" y="728">
0.0
</text>
<path stroke="black" stroke-dasharray="1,2" d="M166 720l0 -670"/>
<text stroke="none" fill="black" font-size="16" x="151" y="728">
2.0
</text>
<path stroke="black" stroke-dasharray="1,2" d="M252 720l0 -670"/>
<text stroke="none" fill="black" font-size="16" x="237" y="728">
4.0
</text>
<path stroke="black" stroke-dasharray="1,2" d="M338 720l0 -670"/>
<text stroke="none" fill="black" font-size="16" x="323" y="728">
6.0
</text>
<path stroke="black" stroke-dasharray="1,2" d="M424 720l0 -670"/>
<text stroke="none" fill="black" font-size="16" x="409" y="728">
8.0
</text>
<path stroke="black" stroke-dasharray="1,2" d="M510 720l0 -670"/>
<text stroke="none" fill="black" font-size="16" x="490" y="728">
10.0
</text>
<path stroke="black" stroke-dasharray="1,2" d="M596 720l0 -670"/>
<text stroke="none" fill="black" font-size="16" x="576" y="728">
12.0
</text>
<path stroke="black" stroke-dasharray="1,2" d="M682 720l0 -670"/>
<text stroke="none" fill="black" font-size="16" x="662" y="728">
14.0
</text>
<path stroke="black" stroke-dasharray="1,2" d="M768 720l0 -670"/>
<text stroke="none" fill="black" font-size="16" x="748" y="728">
16.0
</text>
<path stroke="black" stroke-dasharray="1,2" d="M854 720l0 -670"/>
<text stroke="none" fill="black" font-size="16" x="834" y="728">
18.0
</text>
<path stroke="black" stroke-dasharray="1,2" d="M940 720l0 -670"/>
<text stroke="none" fill="black" font-size="16" x="920" y="728">
20.0
</text>
<text stroke="none" fill="black" font-size="16" x="614" y="752">
ms
</text>
<path stroke="black" stroke-dasharray="1,2" d="M80 720l860 0"/>
<text stroke="none" fill="black" font-size="16" x="18" y="728">
1.4975
</text>
<path stroke="black" stroke-dasharray="1,2" d="M80 653l860 0"/>
<text stroke="none" fill="black" font-size="16" x="18" y="661">
1.4980
</text>
<path stroke="black" stroke-dasharray="1,2" d="M80 586l860 0"/>
<text stroke="none" fill="black" font-size="16" x="18" y="594">
1.4985
</text>
<path stroke="black" stroke-dasharray="1,2" d="M80 519l860 0"/>
<text stroke="none" fill="black" font-size="16" x="18" y="527">
1.4990
</text>
<path stroke="black" stroke-dasharray="1,2" d="M80 452l860 0"/>
<text stroke="none" fill="black" font-size="16" x="18" y="460">
1.4995
</text>
<path stroke="black" stroke-dasharray="1,2" d="M80 385l860 0"/>
<text stroke="none" fill="black" font-size="16" x="18" y="393">
1.5000
</text>
<path stroke="black" stroke-dasharray="1,2" d="M80 318l860 0"/>
<text stroke="none" fill="black" font-size="16" x="18" y="326">
1.5005
</text>
<path stroke="black" stroke-dasharray="1,2" d="M80 251l860 0"/>
<text stroke="none" fill="black" font-size="16" x="18" y="259">
1.5010
</text>
<path stroke="black" stroke-dasharray="1,2" d="M80 184l860 0"/>
<text stroke="none" fill="black" font-size="16" x="18" y="192">
1.5015
</text>
<path stroke="black" stroke-dasharray="1,2" d="M80 117l860 0"/>
<text stroke="none" fill="black" font-size="16" x="18" y="125">
1.5020
</text>
<path stroke="black" stroke-dasharray="1,2" d="M80 50l860 0"/>
<text stroke="none" fill="black" font-size="16" x="18" y="58">
1.5025
</text>
<text stroke="none" fill="black" font-size="16" x="10" y="32">
V
</text>
<path stroke="red" d="M430 23l43 0"/>
<text stroke="none" fill="black" font-size="16" x="483" y="32">
vcmp
</text>
<path stroke="red" d="M80 393l0 -21M80 385l1 0M81 388l0 -9M81 385l1 0M82 422l0 -74M82 385l1 0M83 396l0 -29M83 385l1 0M84 684l0 -396M84 385l1 0M85 462l0 -134M85 385l1 0M86 386l0 -4M86 385l1 0M87 386l0 -2M87 385l1 0M88 386l0 -2M88 385l1 0M89 386l0 -2"/>
<path stroke="red" d="M89 385l1 0M90 386l0 -2M90 385l1 0M91 386l0 -2M91 385l1 0M92 388l0 -5M92 385l1 0M93 395l0 -19M93 385l1 0M94 397l0 -21M94 385l1 0M95 405l0 -57M95 385l1 0M96 424l0 -288M96 385l1 0M97 422l0 -232M97 385l1 0M98 411l0 -82M98 385l1 0"/>
<path stroke="red" d="M99 431l0 -278M99 385l1 0M100 433l0 -323M100 385l1 0M101 429l0 -296M101 385l1 0M102 426l0 -247M102 385l1 0M103 388l0 -5M103 385l1 0M104 387l0 -4M104 385l1 0M105 386l0 -2M105 385l1 0M106 386l0 -2M106 385l1 0M107 386l0 -1"/>
<path stroke="red" d="M107 385l1 0M108 386l0 -1 1 0M109 386l0 -1 1 0M110 386l0 -1 1 0M111 386l0 -1 1 0M112 386l0 -1 1 0M113 386l0 -1 1 0M114 386l0 -1 1 0M115 386l0 -1 1 0M116 386l0 -1 1 0M117 386l0 -1 1 0M118 386l0 -1 1 0M119 386l0 -1 1 0M120 386l0 -1"/>
<path stroke="red" d="M120 385l1 0M121 386l0 -1 1 0M122 386l0 -1 1 0M123 386l0 -1 1 0M124 386l0 -1 1 0M125 386l0 -1 1 0M126 386l0 -1 1 0M127 386l0 -1M127 386l1 0 0 -1 1 0M129 386l0 -1 1 0M130 386l0 -1 1 0M131 386l0 -1 1 0M132 386l0 -1 1 0M133 386l0 -1"/>
<path stroke="red" d="M133 385l1 0M134 386l0 -1 1 0M135 386l0 -1 1 0M136 386l0 -1 1 0M137 386l0 -1 1 0M138 386l0 -1 1 0M139 386l0 -1 1 0M140 386l0 -1 1 0M141 386l0 -1 1 0M142 386l0 -1 1 0M143 386l0 -1 1 0M144 386l0 -1 1 0M145 386l0 -1 1 0M146 386l0 -1"/>
<path stroke="red" d="M146 385l1 0M147 386l0 -1 1 0M148 386l0 -1 1 0M149 386l0 -1 1 0M150 386l0 -1 1 0M151 386l0 -1 1 0M152 386l0 -1 1 0M153 386l0 -1 1 0M154 386l0 -1 1 0M155 386l0 -1 1 0M156 386l0 -1 1 0M157 386l0 -1 1 0M158 386l0 -1 1 0M159 386l0 -1"/>
<path stroke="red" d="M159 385l1 0M160 386l0 -1 1 0M161 386l0 -1 1 0M162 386l0 -1 1 0M163 386l0 -1 1 0M164 386l0 -1 1 0M165 386l0 -1 1 0M166 386l0 -1 1 0M167 386l0 -1 1 0M168 386l0 -1 1 0M169 386l0 -1 1 0M170 386l0 -1 1 0M171 386l0 -1 1 0M172 386l0 -1"/>
<path stroke="red" d="M172 385l1 0M173 386l0 -1 1 0M174 386l0 -1 1 0M175 386l0 -1 1 0M176 386l0 -1 1 0M177 386l0 -1 1 0M178 386l0 -1 1 0M179 386l0 -1 1 0M180 386l0 -1 1 0M181 386l0 -1 1 0M182 386l0 -1 1 0M183 386l0 -1 1 0M184 386l0 -1 1 0M185 386l0 -1"/>
<path stroke="red" d="M185 385l1 0M186 386l0 -1 1 0M187 386l0 -1 1 0M188 386l0 -1 1 0M189 386l0 -1 1 0M190 386l0 -1 1 0M191 386l0 -1 1 0M192 386l0 -1 1 0M193 386l0 -1 1 0M194 386l0 -1 1 0M195 386l0 -1 1 0M196 386l0 -1 1 0M197 386l0 -1 1 0M198 386l0 -1"/>
<path stroke="red" d="M198 385l1 0M199 386l0 -1 1 0M200 386l0 -1 1 0M201 386l0 -1 1 0M202 386l0 -1 1 0M203 386l0 -1 1 0M204 386l0 -1 1 0M205 386l0 -1 1 0M206 386l0 -1 1 0M207 386l0 -1 1 0M208 386l0 -1 1 0M209 386l0 -1 1 0M210 386l0 -1 1 0M211 386l0 -1"/>
<path stroke="red" d="M211 385l1 0M212 386l0 -1 1 0M213 386l0 -1 1 0M214 386l0 -1 1 0M215 386l0 -1 1 0M216 386l0 -1 1 0M217 386l0 -1 1 0M218 386l0 -1 1 0M219 386l0 -1 1 0M220 386l0 -1 1 0M221 386l0 -1 1 0M222 386l0 -1 1 0M223 386l0 -1 1 0M224 386l0 -1"/>
<path stroke="red" d="M224 385l1 0M225 386l0 -1 1 0M226 386l0 -1 1 0M227 386l0 -1 1 0M228 386l0 -1 1 0M229 386l0 -1 1 0M230 386l0 -1 1 0M231 386l0 -1 1 0M232 386l0 -1 1 0M233 386l0 -1 1 0M234 386l0 -1 1 0M235 386l0 -1 1 0M236 386l0 -1 1 0M237 386l0 -1"/>
<path stroke="red" d="M237 385l1 0M238 386l0 -1 1 0M239 386l0 -1 1 0M240 386l0 -1 1 0M241 386l0 -1 1 0M242 386l0 -1 1 0M243 386l0 -1 1 0M244 386l0 -1 1 0M245 386l0 -1 1 0M246 386l0 -1 1 0M247 386l0 -1 1 0M248 386l0 -1 1 0M249 386l0 -1 1 0M250 386l0 -1"/>
<path stroke="red" d="M250 385l1 0M251 386l0 -1 1 0M252 386l0 -1 1 1 0 -1 1 0M254 386l0 -1 1 0M255 386l0 -1 1 0M256 386l0 -1 1 0M257 386l0 -1 1 0M258 386l0 -1M258 386l1 -1M259 386l0 -1 1 0M260 386l0 -1 1 0M261 386l0 -1 1 0M262 386l0 -1 1 0M263 386l0 -1"/>
<path stroke="red" d="M263 385l1 0M264 386l0 -1 1 0M265 386l0 -1 1 0M266 386l0 -1 1 0M267 386l0 -1 1 0M268 386l0 -1 1 0M269 386l0 -1 1 0M270 386l0 -1 1 0M271 386l0 -1 1 0M272 386l0 -1 1 0M273 386l0 -1 1 0M274 386l0 -1 1 0M275 386l0 -1 1 0M276 386l0 -1"/>
<path stroke="red" d="M276 385l1 0M277 386l0 -1 1 0M278 386l0 -1 1 0M279 386l0 -1 1 0M280 386l0 -1 1 0M281 386l0 -1 1 0M282 386l0 -1 1 0M283 386l0 -1 1 0M284 386l0 -1 1 0M285 386l0 -1 1 0M286 386l0 -1 1 0M287 386l0 -1 1 0M288 386l0 -1 1 0M289 386l0 -1"/>
<path stroke="red" d="M289 385l1 0M290 386l0 -1 1 0M291 386l0 -1 1 0M292 386l0 -1 1 0M293 386l0 -1 1 0M294 386l0 -1 1 0M295 386l0 -1 1 0M296 386l0 -1 1 0M297 386l0 -1 1 0M298 386l0 -1 1 0M299 386l0 -1 1 0M300 386l0 -1 1 0M301 386l0 -1 1 0M302 386l0 -1"/>
<path stroke="red" d="M302 385l1 0M303 386l0 -1 1 0M304 386l0 -1 1 0M305 386l0 -1 1 0M306 386l0 -1 1 0M307 386l0 -1 1 0M308 386l0 -1 1 0M309 386l0 -1 1 0M310 386l0 -1 1 0M311 386l0 -1 1 0M312 386l0 -1 1 0M313 386l0 -1 1 0M314 386l0 -1 1 0M315 386l0 -1"/>
<path stroke="red" d="M315 385l1 0M316 386l0 -1 1 0M317 386l0 -1 1 0M318 386l0 -1 1 0M319 386l0 -1 1 0M320 386l0 -1 1 0M321 386l0 -1 1 0M322 386l0 -1 1 0M323 386l0 -1 1 0M324 386l0 -1 1 0M325 386l0 -1 1 0M326 386l0 -1 1 0M327 386l0 -1 1 0M328 386l0 -1"/>
<path stroke="red" d="M328 385l1 0M329 386l0 -1 1 0M330 386l0 -1 1 0M331 386l0 -1 1 0M332 386l0 -1 1 0M333 386l0 -1 1 0M334 386l0 -1 1 0M335 386l0 -1 1 0M336 386l0 -1 1 0M337 386l0 -1 1 0M338 386l0 -1 1 0M339 386l0 -1 1 0M340 386l0 -1 1 0M341 386l0 -1"/>
<path stroke="red" d="M341 385l1 0M342 386l0 -1 1 0M343 386l0 -1 1 0M344 386l0 -1 1 0M345 386l0 -1 1 0M346 386l0 -1 1 0M347 386l0 -1 1 0M348 386l0 -1 1 0M349 386l0 -1 1 0M350 386l0 -1 1 0M351 386l0 -1 1 0M352 386l0 -2M352 385l1 0M353 386l0 -2"/>
<path stroke="red" d="M353 385l1 0M354 386l0 -2M354 385l1 0M355 386l0 -2M355 385l1 0M356 387l0 -5M356 385l1 0M357 404l0 -35M357 385l1 0M358 472l0 -114M358 385l1 0M359 624l0 -280M359 385l1 0M360 599l0 -256M360 385l1 0M361 419l0 -55M361 385l1 0"/>
<path stroke="red" d="M362 467l0 -114M362 385l1 0M363 399l0 -30M363 385l1 0M364 387l0 -6M364 385l1 0M365 388l0 -10M365 385l1 0M366 386l0 -3M366 385l1 0M367 386l0 -2M367 385l1 0M368 386l0 -1 1 0M369 386l0 -1 1 0M370 386l0 -1 1 0M371 386l0 -1 1 0"/>
<path stroke="red" d="M372 386l0 -1 1 0M373 386l0 -1 1 0M374 386l0 -1 1 0M375 386l0 -1 1 0M376 386l0 -1 1 0M377 386l0 -1 1 0M378 386l0 -1 1 0M379 386l0 -1 1 0M380 386l0 -1 1 0M381 386l0 -1 1 0M382 386l0 -1 1 0M383 386l0 -1M383 386l1 0 0 -1 1 0"/>
<path stroke="red" d="M385 386l0 -1 1 0M386 386l0 -1 1 0M387 386l0 -1 1 0M388 386l0 -1 1 0M389 386l0 -1 1 0M390 386l0 -1 1 0M391 386l0 -1 1 0M392 386l0 -1 1 0M393 386l0 -1 1 0M394 386l0 -1 1 0M395 386l0 -1 1 0M396 386l0 -1 1 0M397 386l0 -1 1 0"/>
<path stroke="red" d="M398 386l0 -1 1 0M399 386l0 -1 1 0M400 386l0 -1 1 0M401 386l0 -1 1 0M402 386l0 -1 1 0M403 386l0 -1 1 0M404 386l0 -1 1 0M405 386l0 -1 1 0M406 386l0 -1 1 0M407 386l0 -1 1 0M408 386l0 -1 1 0M409 386l0 -1 1 0M410 386l0 -1 1 0"/>
<path stroke="red" d="M411 386l0 -1 1 0M412 386l0 -1 1 0M413 386l0 -1 1 0M414 386l0 -1 1 0M415 386l0 -1 1 0M416 386l0 -1 1 0M417 386l0 -1 1 0M418 386l0 -1 1 0M419 386l0 -1 1 0M420 386l0 -1 1 0M421 386l0 -1 1 0M422 386l0 -1 1 0M423 386l0 -1 1 0"/>
<path stroke="red" d="M424 386l0 -1 1 0M425 386l0 -1 1 0M426 386l0 -1 1 0M427 386l0 -1 1 0M428 386l0 -1 1 0M429 386l0 -1 1 0M430 386l0 -1 1 0M431 386l0 -1 1 0M432 386l0 -1 1 0M433 386l0 -1 1 0M434 386l0 -1 1 0M435 386l0 -1 1 0M436 386l0 -1 1 0"/>
<path stroke="red" d="M437 386l0 -1 1 0M438 386l0 -1 1 0M439 386l0 -1 1 0M440 386l0 -1 1 0M441 386l0 -1 1 0M442 386l0 -1 1 0M443 386l0 -1 1 0M444 386l0 -1 1 0M445 386l0 -1 1 0M446 386l0 -1 1 0M447 386l0 -1 1 0M448 386l0 -1 1 0M449 386l0 -1 1 0"/>
<path stroke="red" d="M450 386l0 -1 1 0M451 386l0 -1 1 0M452 386l0 -1 1 0M453 386l0 -1 1 0M454 386l0 -1 1 0M455 386l0 -1 1 0M456 386l0 -1 1 0M457 386l0 -1 1 0M458 386l0 -1 1 0M459 386l0 -1 1 0M460 386l0 -1 1 0M461 386l0 -1 1 0M462 386l0 -1 1 0"/>
<path stroke="red" d="M463 386l0 -1 1 0M464 386l0 -1 1 0M465 386l0 -1 1 0M466 386l0 -1 1 0M467 386l0 -1 1 0M468 386l0 -1 1 0M469 386l0 -1 1 0M470 386l0 -1 1 0M471 386l0 -1 1 0M472 386l0 -1 1 0M473 386l0 -1 1 0M474 386l0 -1 1 0M475 386l0 -1 1 0"/>
<path stroke="red" d="M476 386l0 -1 1 0M477 386l0 -1 1 0M478 386l0 -1 1 0M479 386l0 -1 1 0M480 386l0 -1 1 0M481 386l0 -1 1 0M482 386l0 -1 1 0M483 386l0 -1 1 0M484 386l0 -1 1 0M485 386l0 -1 1 0M486 386l0 -1 1 0M487 386l0 -1 1 0M488 386l0 -1 1 0"/>
<path stroke="red" d="M489 386l0 -1 1 0M490 386l0 -1 1 0M491 386l0 -1 1 0M492 386l0 -1 1 0M493 386l0 -1 1 0M494 386l0 -1 1 0M495 386l0 -1 1 0M496 386l0 -1 1 0M497 386l0 -1 1 0M498 386l0 -1 1 0M499 386l0 -1 1 0M500 386l0 -1 1 0M501 386l0 -1 1 0"/>
<path stroke="red" d="M502 386l0 -1 1 0M503 386l0 -1 1 0M504 386l0 -1 1 0M505 386l0 -1 1 0M506 386l0 -1 1 0M507 386l0 -1 1 0M508 386l0 -1 1 0M509 386l0 -1 1 0M510 386l0 -1 1 0M511 386l0 -1 1 0M512 386l0 -1 1 0M513 386l0 -1 1 0M514 386l0 -1M514 386l1 -1"/>
<path stroke="red" d="M515 386l0 -1 1 0M516 386l0 -1 1 0M517 386l0 -1 1 0M518 386l0 -1 1 0M519 386l0 -1 1 0M520 386l0 -1 1 0M521 386l0 -1 1 0M522 386l0 -1 1 0M523 386l0 -1 1 0M524 386l0 -1 1 0M525 386l0 -1 1 0M526 386l0 -1 1 0M527 386l0 -1 1 0"/>
<path stroke="red" d="M528 386l0 -1 1 0M529 386l0 -1 1 0M530 386l0 -1 1 0M531 386l0 -1 1 0M532 386l0 -1 1 0M533 386l0 -1 1 0M534 386l0 -1 1 0M535 386l0 -1 1 0M536 386l0 -1 1 0M537 386l0 -1 1 0M538 386l0 -1 1 0M539 386l0 -1 1 0M540 386l0 -1 1 0"/>
<path stroke="red" d="M541 386l0 -1 1 0M542 386l0 -1 1 0M543 386l0 -1 1 0M544 386l0 -1 1 0M545 386l0 -1 1 0M546 386l0 -1 1 0M547 386l0 -1 1 0M548 386l0 -1 1 0M549 386l0 -1 1 0M550 386l0 -1 1 0M551 386l0 -1 1 0M552 386l0 -1 1 0M553 386l0 -1 1 0"/>
<path stroke="red" d="M554 386l0 -1 1 0M555 386l0 -1 1 0M556 386l0 -1 1 0M557 386l0 -1 1 0M558 386l0 -1 1 0M559 386l0 -1 1 0M560 386l0 -1 1 0M561 386l0 -1 1 0M562 386l0 -1 1 0M563 386l0 -1 1 0M564 386l0 -1 1 0M565 386l0 -1 1 0M566 386l0 -1 1 0"/>
<path stroke="red" d="M567 386l0 -1 1 0M568 386l0 -1 1 0M569 386l0 -1 1 0M570 386l0 -1 1 0M571 386l0 -1 1 0M572 386l0 -1 1 0M573 386l0 -1 1 0M574 386l0 -1 1 0M575 386l0 -1 1 0M576 386l0 -1 1 0M577 386l0 -1 1 0M578 386l0 -1 1 0M579 386l0 -1 1 0"/>
<path stroke="red" d="M580 386l0 -1 1 0M581 386l0 -1 1 0M582 386l0 -1 1 0M583 386l0 -1 1 0M584 386l0 -1 1 0M585 386l0 -1 1 0M586 386l0 -1 1 0M587 386l0 -1 1 0M588 386l0 -1 1 0M589 386l0 -1 1 0M590 386l0 -1 1 0M591 386l0 -1 1 0M592 386l0 -1 1 0"/>
<path stroke="red" d="M593 386l0 -1 1 0M594 386l0 -1 1 0M595 386l0 -1 1 0M596 386l0 -1 1 0M597 386l0 -1 1 0M598 386l0 -1 1 0M599 386l0 -1 1 0M600 386l0 -1 1 0M601 386l0 -1 1 0M602 386l0 -1 1 0M603 386l0 -1 1 0M604 386l0 -1 1 0M605 386l0 -1 1 0"/>
<path stroke="red" d="M606 386l0 -1 1 0M607 386l0 -1 1 0M608 386l0 -1 1 0M609 386l0 -1 1 0M610 386l0 -1 1 0M611 386l0 -1 1 0M612 386l0 -1 1 0M613 386l0 -1 1 0M614 386l0 -1 1 0M615 386l0 -1 1 0M616 386l0 -1 1 0M617 386l0 -1 1 0M618 386l0 -1 1 0"/>
<path stroke="red" d="M619 386l0 -1 1 0M620 386l0 -1 1 0M621 386l0 -1 1 0M622 386l0 -1 1 0M623 386l0 -1 1 0M624 386l0 -1 1 0M625 386l0 -1 1 0M626 386l0 -2M626 385l1 0M627 386l0 -2M627 385l1 0M628 386l0 -2M628 385l1 0M629 387l0 -3M629 385l1 0"/>
<path stroke="red" d="M630 392l0 -12M630 385l1 0M631 411l0 -107M631 385l1 0M632 417l0 -181M632 385l1 0M633 423l0 -216M633 385l1 0M634 420l0 -230M634 385l1 0M635 406l0 -60M635 385l1 0M636 422l0 -169M636 385l1 0M637 433l0 -322M637 385l1 0M638 407l0 -58"/>
<path stroke="red" d="M638 385l1 0M639 433l0 -294M639 385l1 0M640 386l0 -2M640 385l1 0M641 407l0 -160M641 385l1 0M642 386l0 -2M642 385l1 0M643 386l0 -2M643 385l1 0M644 386l0 -1 1 0M645 386l0 -1M645 386l1 -1M646 386l0 -1 1 0M647 386l0 -1 1 0M648 386l0 -1"/>
<path stroke="red" d="M648 385l1 0M649 386l0 -1 1 0M650 386l0 -1 1 0M651 386l0 -1 1 0M652 386l0 -1 1 0M653 386l0 -1 1 0M654 386l0 -1 1 0M655 386l0 -1 1 0M656 386l0 -1 1 0M657 386l0 -1 1 0M658 386l0 -1 1 0M659 386l0 -1 1 0M660 386l0 -1 1 0M661 386l0 -1"/>
<path stroke="red" d="M661 385l1 0M662 386l0 -1 1 0M663 386l0 -1 1 0M664 386l0 -1 1 0M665 386l0 -1 1 0M666 386l0 -1 1 0M667 386l0 -1 1 0M668 386l0 -1 1 0M669 386l0 -1 1 0M670 386l0 -1 1 0M671 386l0 -1 1 0M672 386l0 -1 1 0M673 386l0 -1 1 0M674 386l0 -1"/>
<path stroke="red" d="M674 385l1 0M675 386l0 -1 1 0M676 386l0 -1 1 0M677 386l0 -1 1 0M678 386l0 -1 1 0M679 386l0 -1 1 0M680 386l0 -1 1 0M681 386l0 -1 1 0M682 386l0 -1 1 0M683 386l0 -1 1 0M684 386l0 -1 1 0M685 386l0 -1 1 0M686 386l0 -1 1 0M687 386l0 -1"/>
<path stroke="red" d="M687 385l1 0M688 386l0 -1 1 0M689 386l0 -1 1 0M690 386l0 -1 1 0M691 386l0 -1 1 0M692 386l0 -1 1 0M693 386l0 -1 1 0M694 386l0 -1 1 0M695 386l0 -1 1 0M696 386l0 -1 1 0M697 386l0 -1 1 0M698 386l0 -1 1 0M699 386l0 -1 1 0M700 386l0 -1"/>
<path stroke="red" d="M700 385l1 0M701 386l0 -1 1 0M702 386l0 -1 1 0M703 386l0 -1 1 0M704 386l0 -1 1 0M705 386l0 -1 1 0M706 386l0 -1 1 0M707 386l0 -1 1 0M708 386l0 -1 1 0M709 386l0 -1 1 0M710 386l0 -1 1 0M711 386l0 -1 1 0M712 386l0 -1 1 0M713 386l0 -1"/>
<path stroke="red" d="M713 385l1 0M714 386l0 -1 1 0M715 386l0 -1 1 0M716 386l0 -1 1 0M717 386l0 -1 1 0M718 386l0 -1 1 0M719 386l0 -1 1 0M720 386l0 -1 1 0M721 386l0 -1 1 0M722 386l0 -1 1 0M723 386l0 -1 1 0M724 386l0 -1 1 0M725 386l0 -1 1 0M726 386l0 -1"/>
<path stroke="red" d="M726 385l1 0M727 386l0 -1 1 0M728 386l0 -1 1 0M729 386l0 -1 1 0M730 386l0 -1 1 0M731 386l0 -1 1 0M732 386l0 -1 1 0M733 386l0 -1 1 0M734 386l0 -1 1 0M735 386l0 -1 1 0M736 386l0 -1 1 0M737 386l0 -1 1 0M738 386l0 -1 1 0M739 386l0 -1"/>
<path stroke="red" d="M739 385l1 0M740 386l0 -1 1 0M741 386l0 -1 1 0M742 386l0 -1 1 0M743 386l0 -1 1 0M744 386l0 -1 1 0M745 386l0 -1 1 0M746 386l0 -1 1 0M747 386l0 -1 1 0M748 386l0 -1 1 0M749 386l0 -1 1 0M750 386l0 -1 1 0M751 386l0 -1 1 0M752 386l0 -1"/>
<path stroke="red" d="M752 385l1 0M753 386l0 -1 1 0M754 386l0 -1 1 0M755 386l0 -1 1 0M756 386l0 -1 1 0M757 386l0 -1 1 0M758 386l0 -1 1 0M759 386l0 -1 1 0M760 386l0 -1 1 0M761 386l0 -1 1 0M762 386l0 -1 1 0M763 386l0 -1 1 0M764 386l0 -1 1 0M765 386l0 -1"/>
<path stroke="red" d="M765 385l1 0M766 386l0 -1 1 0M767 386l0 -1 1 0M768 386l0 -1 1 0M769 386l0 -1 1 0M770 386l0 -1M770 386l1 0 0 -1 1 0M772 386l0 -1 1 0M773 386l0 -1 1 0M774 386l0 -1 1 0M775 386l0 -1 1 0M776 386l0 -1 1 0M777 386l0 -1 1 0M778 386l0 -1"/>
<path stroke="red" d="M778 385l1 0M779 386l0 -1 1 0M780 386l0 -1 1 0M781 386l0 -1 1 0M782 386l0 -1 1 0M783 386l0 -1 1 0M784 386l0 -1 1 0M785 386l0 -1 1 0M786 386l0 -1 1 0M787 386l0 -1 1 0M788 386l0 -1 1 0M789 386l0 -1 1 0M790 386l0 -1 1 0M791 386l0 -1"/>
<path stroke="red" d="M791 385l1 0M792 386l0 -1 1 0M793 386l0 -1 1 0M794 386l0 -1 1 0M795 386l0 -1 1 0M796 386l0 -1 1 0M797 386l0 -1 1 0M798 386l0 -1 1 0M799 386l0 -1 1 0M800 386l0 -1 1 0M801 386l0 -1 1 0M802 386l0 -1 1 0M803 386l0 -1 1 0M804 386l0 -1"/>
<path stroke="red" d="M804 385l1 0M805 386l0 -1 1 0M806 386l0 -1 1 0M807 386l0 -1 1 0M808 386l0 -1 1 0M809 386l0 -1 1 0M810 386l0 -1 1 0M811 386l0 -1 1 0M812 386l0 -1 1 0M813 386l0 -1 1 0M814 386l0 -1 1 0M815 386l0 -1 1 0M816 386l0 -1 1 0M817 386l0 -1"/>
<path stroke="red" d="M817 385l1 0M818 386l0 -1 1 0M819 386l0 -1 1 0M820 386l0 -1 1 0M821 386l0 -1 1 0M822 386l0 -1 1 0M823 386l0 -1 1 0M824 386l0 -1 1 0M825 386l0 -1 1 0M826 386l0 -1 1 0M827 386l0 -1 1 0M828 386l0 -1 1 0M829 386l0 -1 1 0M830 386l0 -1"/>
<path stroke="red" d="M830 385l1 0M831 386l0 -1 1 0M832 386l0 -1 1 0M833 386l0 -1 1 0M834 386l0 -1 1 0M835 386l0 -1 1 0M836 386l0 -1 1 0M837 386l0 -1 1 0M838 386l0 -1 1 0M839 386l0 -1 1 0M840 386l0 -1 1 0M841 386l0 -1 1 0M842 386l0 -1 1 0M843 386l0 -1"/>
<path stroke="red" d="M843 385l1 0M844 386l0 -1 1 0M845 386l0 -1 1 0M846 386l0 -1 1 0M847 386l0 -1 1 0M848 386l0 -1 1 0M849 386l0 -1 1 0M850 386l0 -1 1 0M851 386l0 -1 1 0M852 386l0 -1 1 0M853 386l0 -1 1 0M854 386l0 -1 1 0M855 386l0 -1 1 0M856 386l0 -1"/>
<path stroke="red" d="M856 385l1 0M857 386l0 -1 1 0M858 386l0 -1 1 0M859 386l0 -1 1 0M860 386l0 -1 1 0M861 386l0 -1 1 0M862 386l0 -1 1 0M863 386l0 -1 1 0M864 386l0 -1 1 0M865 386l0 -1 1 0M866 386l0 -1 1 0M867 386l0 -1 1 0M868 386l0 -1 1 0M869 386l0 -1"/>
<path stroke="red" d="M869 385l1 0M870 386l0 -1 1 0M871 386l0 -1 1 0M872 386l0 -1 1 0M873 386l0 -1 1 0M874 386l0 -1 1 0M875 386l0 -1 1 0M876 386l0 -1 1 0M877 386l0 -1 1 0M878 386l0 -1 1 0M879 386l0 -1 1 0M880 386l0 -1 1 0M881 386l0 -1 1 0M882 386l0 -1"/>
<path stroke="red" d="M882 385l1 0M883 386l0 -1 1 0M884 386l0 -1 1 0M885 386l0 -1 1 0M886 386l0 -1 1 0M887 386l0 -1 1 0M888 386l0 -1 1 0M889 386l0 -1 1 0M890 386l0 -2M890 385l1 0M891 386l0 -2M891 385l1 0M892 386l0 -2M892 385l1 0M893 386l0 -4"/>
<path stroke="red" d="M893 385l1 0M894 390l0 -12M894 385l1 0M895 418l0 -50M895 385l1 0M896 452l0 -96M896 385l1 0M897 662l0 -317M897 385l1 0M898 642l0 -300M898 385l1 0M899 426l0 -64M899 385l1 0M900 498l0 -151M900 385l1 0M901 389l0 -10M901 386l1 0"/>
<path stroke="red" d="M902 386l0 -3M902 385l1 0M903 397l0 -25M903 385l1 0M904 386l0 -2M904 385l1 0M905 386l0 -2M905 385l1 0M906 386l0 -1 1 0M907 386l0 -1 1 0M908 386l0 -1 1 0M909 386l0 -1 1 0M910 386l0 -1 1 0M911 386l0 -1 1 0M912 386l0 -1 1 0"/>
<path stroke="red" d="M913 386l0 -1 1 0M914 386l0 -1 1 0M915 386l0 -1 1 0M916 386l0 -1 1 0M917 386l0 -1 1 0M918 386l0 -1 1 0M919 386l0 -1 1 0M920 386l0 -1 1 0M921 386l0 -1 1 0M922 386l0 -1 1 0M923 386l0 -1 1 0M924 386l0 -1 1 0M925 386l0 -1 1 0"/>
<path stroke="red" d="M926 386l0 -1 1 0M927 386l0 -1 1 0M928 386l0 -1 1 0M929 386l0 -1 1 0M930 386l0 -1 1 0M931 386l0 -1 1 0M932 386l0 -1 1 0M933 386l0 -1 1 0M934 386l0 -1 1 0M935 386l0 -1 1 0M936 386l0 -1 1 0M937 386l0 -1 1 0M938 386l0 -1 1 0"/>
<path stroke="red" d="M939 386l0 -1 1 0M940 386l0 -1"/>
</svg>
