<?xml version="1.0" standalone="yes"?>
<!DOCTYPE svg PUBLIC "-//W3C//DTD SVG 1.1//EN"
 "http://www.w3.org/Graphics/SVG/1.1/DTD/svg11.dtd">
<svg xmlns="http://www.w3.org/2000/svg" version="1.1"
  width="100%" height="100%" viewBox="0 0 1024 768"
  style="fill: none; font-family: Helvetica;
 font: Helvetica;
">

<!-- Creator: NGspice -->

<rect x="0" y="0" width="1024" height="768" fill="white" stroke="none"/>
<text stroke="none" fill="black" font-size="16" x="358" y="752">
time
</text>
<text stroke="none" fill="black" font-size="16" x="10" y="16">
tran1: ** sch_path: /foss/designs/cems_dsm/dsm/schematics/designs_hrishi/realcircuits/real_dsm_design.sch
</text>
<path stroke="black" d="M50 720l0 -666"/>
<text stroke="none" fill="black" font-size="16" x="35" y="728">
0.0
</text>
<path stroke="black" stroke-dasharray="1,2" d="M127 720l0 -666"/>
<text stroke="none" fill="black" font-size="16" x="112" y="728">
5.0
</text>
<path stroke="black" stroke-dasharray="1,2" d="M204 720l0 -666"/>
<text stroke="none" fill="black" font-size="16" x="184" y="728">
10.0
</text>
<path stroke="black" stroke-dasharray="1,2" d="M281 720l0 -666"/>
<text stroke="none" fill="black" font-size="16" x="261" y="728">
15.0
</text>
<path stroke="black" stroke-dasharray="1,2" d="M358 720l0 -666"/>
<text stroke="none" fill="black" font-size="16" x="338" y="728">
20.0
</text>
<path stroke="black" stroke-dasharray="1,2" d="M435 720l0 -666"/>
<text stroke="none" fill="black" font-size="16" x="415" y="728">
25.0
</text>
<path stroke="black" stroke-dasharray="1,2" d="M512 720l0 -666"/>
<text stroke="none" fill="black" font-size="16" x="492" y="728">
30.0
</text>
<path stroke="black" stroke-dasharray="1,2" d="M589 720l0 -666"/>
<text stroke="none" fill="black" font-size="16" x="569" y="728">
35.0
</text>
<path stroke="black" stroke-dasharray="1,2" d="M666 720l0 -666"/>
<text stroke="none" fill="black" font-size="16" x="646" y="728">
40.0
</text>
<path stroke="black" stroke-dasharray="1,2" d="M743 720l0 -666"/>
<text stroke="none" fill="black" font-size="16" x="723" y="728">
45.0
</text>
<path stroke="black" stroke-dasharray="1,2" d="M820 720l0 -666"/>
<text stroke="none" fill="black" font-size="16" x="800" y="728">
50.0
</text>
<path stroke="black" stroke-dasharray="1,2" d="M897 720l0 -666"/>
<text stroke="none" fill="black" font-size="16" x="877" y="728">
55.0
</text>
<path stroke="black" stroke-dasharray="1,2" d="M974 720l0 -666"/>
<text stroke="none" fill="black" font-size="16" x="954" y="728">
60.0
</text>
<text stroke="none" fill="black" font-size="16" x="614" y="752">
us
</text>
<path stroke="black" stroke-dasharray="1,2" d="M50 720l924 0"/>
<text stroke="none" fill="black" font-size="16" x="8" y="728">
-0.2
</text>
<path stroke="black" d="M50 646l924 0"/>
<text stroke="none" fill="black" font-size="16" x="18" y="654">
0.0
</text>
<path stroke="black" stroke-dasharray="1,2" d="M50 572l924 0"/>
<text stroke="none" fill="black" font-size="16" x="18" y="580">
0.2
</text>
<path stroke="black" stroke-dasharray="1,2" d="M50 498l924 0"/>
<text stroke="none" fill="black" font-size="16" x="18" y="506">
0.4
</text>
<path stroke="black" stroke-dasharray="1,2" d="M50 424l924 0"/>
<text stroke="none" fill="black" font-size="16" x="18" y="432">
0.6
</text>
<path stroke="black" stroke-dasharray="1,2" d="M50 350l924 0"/>
<text stroke="none" fill="black" font-size="16" x="18" y="358">
0.8
</text>
<path stroke="black" stroke-dasharray="1,2" d="M50 276l924 0"/>
<text stroke="none" fill="black" font-size="16" x="18" y="284">
1.0
</text>
<path stroke="black" stroke-dasharray="1,2" d="M50 202l924 0"/>
<text stroke="none" fill="black" font-size="16" x="18" y="210">
1.2
</text>
<path stroke="black" stroke-dasharray="1,2" d="M50 128l924 0"/>
<text stroke="none" fill="black" font-size="16" x="18" y="136">
1.4
</text>
<path stroke="black" stroke-dasharray="1,2" d="M50 54l924 0"/>
<text stroke="none" fill="black" font-size="16" x="18" y="62">
1.6
</text>
<text stroke="none" fill="black" font-size="16" x="10" y="32">
V
</text>
<path stroke="red" d="M462 23l46 0"/>
<text stroke="none" fill="black" font-size="16" x="518" y="32">
vo1
</text>
<path stroke="red" d="M50 587l35 0M85 642l0 -55M85 631l1 -3 0 -25 1 -2 0 -9 1 -1 0 -2 1 -1 0 -1 1 0 0 -1 65 0M155 632l0 -46M155 605l1 0 0 -13 1 -1 0 -3 1 -1 0 -1 1 -1 2 0 0 -1 63 0M224 628l0 -44M224 610l1 -4 0 -13 1 -1 0 -5 1 0 0 -2 2 -2 64 0"/>
<path stroke="red" d="M293 624l0 -41M293 616l1 -4 0 -17 1 -2 0 -6 1 -1 0 -2 1 -1 0 -1 2 0 0 -1 64 0M363 622l0 -41M363 597l1 -2 0 -7 1 -1 0 -4 1 0 0 -2 1 0 0 -1 65 0M432 620l0 -40M432 601l1 -3 0 -9 1 -2 0 -5 1 0 0 -2 1 0 0 -1 3 0 0 -1 62 0M501 619l0 -41"/>
<path stroke="red" d="M501 608l1 -4 0 -14 1 -1 0 -7 1 0 0 -3 1 0 0 -1 1 0 0 -1 65 0M571 617l0 -40M571 593l1 -2 0 -8 1 -1 0 -3 1 -1 0 -1 1 0 0 -1 65 0M640 616l0 -40M640 595l1 -2 0 -10 1 -1 0 -4 1 0 0 -2 1 0 0 -1 1 0 1 -1 63 0M709 615l0 -41M709 601l1 -4"/>
<path stroke="red" d="M710 597l0 -12 1 -2 0 -5 1 0 0 -3 1 0 0 -1 1 0 0 -1 64 0M778 617l0 -44M778 608l1 -1 0 -20 1 -2 0 -7 1 -1 0 -2 1 -1 0 -1 1 0 0 -1 2 0 0 -1 63 0M848 616l0 -45M848 590l1 -1 0 -10 1 -1 0 -4 1 0 0 -2 1 0 0 -1 1 0 0 -1 64 0M917 614l0 -44"/>
<path stroke="red" d="M917 595l1 -3 0 -12 1 -1 0 -5 1 0 0 -3 1 0 0 -1 1 0 0 -1 52 0"/>
<path stroke="blue" d="M50 23l46 0"/>
<text stroke="none" fill="black" font-size="16" x="106" y="32">
vo2
</text>
<path stroke="blue" d="M50 589l0 -2 1 0M51 623l0 -36M51 590l1 -2 0 -5 31 0 0 -1 1 0M84 583l0 -1M84 583l35 0 0 -1M119 583l1 0M120 655l0 -72M120 605l1 -11 0 -19 1 -1 0 -2 67 0M189 637l0 -65M189 623l1 -8 0 -48 1 -2 0 -4 1 0 0 -1 30 0 0 -1 1 0M223 560l0 -1"/>
<path stroke="blue" d="M223 560l35 0M258 561l0 -2M258 560l1 0M259 621l0 -61M259 561l1 -1 0 -11 1 -1 0 -2 30 0 0 -1 1 0M292 546l0 -1M292 546l35 0M327 547l0 -2M327 547l1 0M328 605l0 -59M328 568l1 -9 0 -22 1 -2 0 -3 1 -1 0 -1 30 0 0 -1M361 530l36 0"/>
<path stroke="blue" d="M397 589l0 -59M397 573l1 -9 0 -38 1 -2 0 -7 1 -1 0 -2 30 0 0 -1M430 514l36 0M466 515l0 -1 1 0M467 573l0 -59M467 518l1 -4 0 -11 1 -1 0 -4 1 0 0 -1 29 0 0 -1 1 0M500 497l0 -1M500 497l35 0M535 498l0 -1M535 498l1 0M536 556l0 -59"/>
<path stroke="blue" d="M536 515l1 -7 0 -19 1 -2 0 -5 1 0 0 -1 1 0 0 -1 29 0 0 -1M569 480l35 0M604 481l0 -1M604 481l1 0M605 540l0 -60M605 515l1 -10 0 -29 1 -3 0 -7 1 0 0 -2 1 0 0 -1 29 0 0 -1M638 463l36 0M674 523l0 -60M674 522l1 -1 0 -56 1 -4"/>
<path stroke="blue" d="M676 461l0 -10 1 -1 0 -3 1 -1 1 0 1 -1 27 0 0 -1M707 445l36 0M743 446l0 -1M743 446l1 0M744 506l0 -60M744 462l1 -6 0 -20 1 -2 0 -4 1 -1 0 -1 29 0 0 -1 1 -1M777 428l0 -2M777 428l36 0M813 489l0 -61M813 455l1 -9 0 -23 1 -3"/>
<path stroke="blue" d="M815 420l0 -8 1 0 0 -2 1 0 0 -1 29 0 0 -1M846 409l36 0M882 473l0 -64M882 466l1 -6 0 -51 1 -3 0 -10 1 -1 0 -4 1 0 1 -1 28 0 0 -1M915 390l36 0M951 391l0 -1M951 391l1 0M952 455l0 -65M952 400l1 -3 0 -18 1 -2 0 -4 1 0 0 -2 19 0"/>
<path stroke="#FFA500" d="M462 39l46 0"/>
<text stroke="none" fill="black" font-size="16" x="518" y="48">
vcmp
</text>
<path stroke="#FFA500" d="M50 91l924 0"/>
</svg>
