<svg xmlns="http://www.w3.org/2000/svg" xmlns:xlink="http://www.w3.org/1999/xlink" width="1502" height="604" version="1.1">
<style type="text/css">
.l0{
  fill: #000000;
  stroke: #000000;
  stroke-linecap:round;
  stroke-linejoin:round;
  stroke-width: 0.83391;
}
.l1{
  fill: #00ccee;
  stroke: #00ccee;
  stroke-linecap:round;
  stroke-linejoin:round;
  stroke-width: 0.83391;
}
.l2{
  fill: #4f4f4f; fill-opacity: 0.2;
  stroke: #4f4f4f;
  stroke-linecap:round;
  stroke-linejoin:round;
  stroke-width: 0.83391;
}
.l3{
  fill: #cccccc; fill-opacity: 0.5;
  stroke: #cccccc;
  stroke-linecap:round;
  stroke-linejoin:round;
  stroke-width: 0.83391;
}
.l4{
  fill: #88dd00;
  stroke: #88dd00;
  stroke-linecap:round;
  stroke-linejoin:round;
  stroke-width: 0.83391;
}
.l5{
  fill: #bb2200;
  stroke: #bb2200;
  stroke-linecap:round;
  stroke-linejoin:round;
  stroke-width: 0.83391;
}
.l6{
  fill: #00ccee; fill-opacity: 0.5;
  stroke: #00ccee;
  stroke-linecap:round;
  stroke-linejoin:round;
  stroke-width: 0.83391;
}
.l7{
  fill: #ff0000; fill-opacity: 0.5;
  stroke: #ff0000;
  stroke-linecap:round;
  stroke-linejoin:round;
  stroke-width: 0.83391;
}
.l8{
  fill: #ffff00; fill-opacity: 0.5;
  stroke: #ffff00;
  stroke-linecap:round;
  stroke-linejoin:round;
  stroke-width: 0.83391;
}
.l9{
  fill: #ffffff; fill-opacity: 0.5;
  stroke: #ffffff;
  stroke-linecap:round;
  stroke-linejoin:round;
  stroke-width: 0.83391;
}
.l10{
  fill: #ff00ff;
  stroke: #ff00ff;
  stroke-linecap:round;
  stroke-linejoin:round;
  stroke-width: 0.83391;
}
.l11{
  fill: #00ff00; fill-opacity: 0.5;
  stroke: #00ff00;
  stroke-linecap:round;
  stroke-linejoin:round;
  stroke-width: 0.83391;
}
.l12{
  fill: #0000ff; fill-opacity: 0.5;
  stroke: #0000ff;
  stroke-linecap:round;
  stroke-linejoin:round;
  stroke-width: 0.83391;
}
.l13{
  fill: #aaaa00; fill-opacity: 0.5;
  stroke: #aaaa00;
  stroke-linecap:round;
  stroke-linejoin:round;
  stroke-width: 0.83391;
}
.l14{
  fill: #aaccaa; fill-opacity: 0.2;
  stroke: #aaccaa;
  stroke-linecap:round;
  stroke-linejoin:round;
  stroke-width: 0.83391;
}
.l15{
  fill: #ff7777; fill-opacity: 0.5;
  stroke: #ff7777;
  stroke-linecap:round;
  stroke-linejoin:round;
  stroke-width: 0.83391;
}
.l16{
  fill: #bfff81; fill-opacity: 0.5;
  stroke: #bfff81;
  stroke-linecap:round;
  stroke-linejoin:round;
  stroke-width: 0.83391;
}
.l17{
  fill: #00ffcc; fill-opacity: 0.2;
  stroke: #00ffcc;
  stroke-linecap:round;
  stroke-linejoin:round;
  stroke-width: 0.83391;
}
.l18{
  fill: #ce0097; fill-opacity: 0.5;
  stroke: #ce0097;
  stroke-linecap:round;
  stroke-linejoin:round;
  stroke-width: 0.83391;
}
.l19{
  fill: #d2d46b; fill-opacity: 0.2;
  stroke: #d2d46b;
  stroke-linecap:round;
  stroke-linejoin:round;
  stroke-width: 0.83391;
}
.l20{
  fill: #ef6158; fill-opacity: 0.2;
  stroke: #ef6158;
  stroke-linecap:round;
  stroke-linejoin:round;
  stroke-width: 0.83391;
}
.l21{
  fill: #fdb200; fill-opacity: 0.2;
  stroke: #fdb200;
  stroke-linecap:round;
  stroke-linejoin:round;
  stroke-width: 0.83391;
}
text {font-family: Sans-Serif;}
</style>
<rect class="l0" x="0" y="0" width="1502" height="604"/>
<text fill="#00ccee"  xml:space="preserve" font-size="8.03025" transform="translate(543.225, 423.96)" >GND</text>
<text fill="#00ccee"  xml:space="preserve" font-size="13.2499" transform="translate(500.643, 341.351)" >v_dd</text>
<text fill="#00ccee"  xml:space="preserve" font-size="8.03025" transform="translate(604.996, 423.96)" >GND</text>
<text fill="#00ccee"  xml:space="preserve" font-size="13.2499" transform="translate(564.414, 341.351)" >v_ss</text>
<text fill="#00ccee"  xml:space="preserve" font-size="10.8408" transform="translate(1240.04, 139.003)" >v_out</text>
<text fill="#00ccee"  xml:space="preserve" font-size="10.8408" transform="translate(699.817, 115.839)" >v_in</text>
<text fill="#cccccc"  xml:space="preserve" font-size="8.03025" transform="translate(552.877, 367.015)" >Vdd</text>
<text fill="#cccccc"  xml:space="preserve" font-size="8.03025" transform="translate(552.877, 386.318)" >1.8</text>
<text fill="#cccccc"  xml:space="preserve" font-size="8.03025" transform="translate(614.648, 367.015)" >Vss</text>
<text fill="#cccccc"  xml:space="preserve" font-size="8.03025" transform="translate(614.648, 386.318)" >0</text>
<text fill="#aaaa00"  xml:space="preserve" font-size="8.03025" transform="translate(1262.11, 183.632)" >1</text>
<text fill="#aaaa00"  xml:space="preserve" font-size="8.03025" transform="translate(1262.11, 216.448)" >2</text>
<text fill="#cccccc"  xml:space="preserve" font-size="8.03025" transform="translate(1282.55, 189.423)" >C1</text>
<text fill="#cccccc"  xml:space="preserve" font-size="8.03025" transform="translate(1282.55, 199.075)" >17.98f</text>
<text fill="#cccccc"  xml:space="preserve" font-size="8.03025" transform="translate(1282.55, 208.726)" >m=1</text>
<text fill="#cccccc"  xml:space="preserve" font-size="8.03025" transform="translate(691.862, 204.866)" >Vin</text>
<text fill="#cccccc"  xml:space="preserve" font-size="8.03025" transform="translate(691.862, 224.169)" >dc 0.8 ac 1</text>
<text fill="#cccccc"  xml:space="preserve" font-size="8.03025" transform="translate(846.29, 57.194)" >I0</text>
<text fill="#cccccc"  xml:space="preserve" font-size="8.03025" transform="translate(846.29, 66.4046)" >3u</text>
<text fill="#cccccc"  xml:space="preserve" font-size="12.0454" transform="translate(1174.45, 431.467)" >MODEL1</text>
<text fill="#cccccc"  xml:space="preserve" font-size="12.0454" style="font-family:Monospace;" transform="translate(1182.17, 450.77)" >.lib cornerMOSlv.lib mos_tt</text>
<text fill="#cccccc"  xml:space="preserve" font-size="12.0454" transform="translate(1174.45, 369.695)" >MODEL2</text>
<text fill="#cccccc"  xml:space="preserve" font-size="12.0454" style="font-family:Monospace;" transform="translate(1182.17, 388.999)" >.lib cornerRES.lib res_typ</text>
<text fill="#cccccc"  xml:space="preserve" font-size="16.0605" transform="translate(479.523, 547.072)" >         tb_FolCas_ac.sch</text>
<text fill="#cccccc"  xml:space="preserve" font-size="16.0605" transform="translate(479.523, 523.908)" >(c) 2024 Hrishikesh, @HSB</text>
<text fill="#cccccc"  xml:space="preserve" font-size="16.0605" transform="translate(913.653, 523.908)" >2025-01-30  09:37:23</text>
<text fill="#cccccc"  xml:space="preserve" font-size="40.1512" transform="translate(301.931, 545.783)" >SCHEM</text>
<text fill="#cccccc"  xml:space="preserve" font-size="12.0454" transform="translate(132.061, 14.5113)" >NGSPICE</text>
<text fill="#cccccc"  xml:space="preserve" font-size="12.0454" style="font-family:Monospace;" transform="translate(139.782, 47.6309)" >.temp 27</text>
<text fill="#cccccc"  xml:space="preserve" font-size="12.0454" style="font-family:Monospace;" transform="translate(139.782, 61.4469)" >.control</text>
<text fill="#cccccc"  xml:space="preserve" font-size="12.0454" style="font-family:Monospace;" transform="translate(139.782, 75.2629)" >option sparse</text>
<text fill="#cccccc"  xml:space="preserve" font-size="12.0454" style="font-family:Monospace;" transform="translate(139.782, 89.079)" >save all</text>
<text fill="#cccccc"  xml:space="preserve" font-size="12.0454" style="font-family:Monospace;" transform="translate(139.782, 102.895)" >op</text>
<text fill="#cccccc"  xml:space="preserve" font-size="12.0454" style="font-family:Monospace;" transform="translate(139.782, 116.711)" >write tb_FolCas_ac.raw</text>
<text fill="#cccccc"  xml:space="preserve" font-size="12.0454" style="font-family:Monospace;" transform="translate(139.782, 130.527)" >set appendwrite</text>
<text fill="#cccccc"  xml:space="preserve" font-size="12.0454" style="font-family:Monospace;" transform="translate(139.782, 158.159)" >ac dec 101 1k 1G</text>
<text fill="#cccccc"  xml:space="preserve" font-size="12.0454" style="font-family:Monospace;" transform="translate(139.782, 171.975)" >write tb_FolCas_ac.raw</text>
<text fill="#cccccc"  xml:space="preserve" font-size="12.0454" style="font-family:Monospace;" transform="translate(139.782, 185.791)" >plot 20*log10(v_out)</text>
<text fill="#cccccc"  xml:space="preserve" font-size="12.0454" style="font-family:Monospace;" transform="translate(139.782, 213.423)" >meas ac dcgain MAX vmag(v_out) FROM=10 TO=10k</text>
<text fill="#cccccc"  xml:space="preserve" font-size="12.0454" style="font-family:Monospace;" transform="translate(139.782, 227.239)" >let f3db = dcgain/sqrt(2)</text>
<text fill="#cccccc"  xml:space="preserve" font-size="12.0454" style="font-family:Monospace;" transform="translate(139.782, 241.055)" >meas ac fbw WHEN vmag(v_out)=f3db FALL=1</text>
<text fill="#cccccc"  xml:space="preserve" font-size="12.0454" style="font-family:Monospace;" transform="translate(139.782, 254.871)" >let gainerror=(dcgain-1)/1</text>
<text fill="#cccccc"  xml:space="preserve" font-size="12.0454" style="font-family:Monospace;" transform="translate(139.782, 268.688)" >print dcgain</text>
<text fill="#cccccc"  xml:space="preserve" font-size="12.0454" style="font-family:Monospace;" transform="translate(139.782, 282.504)" >print fbw</text>
<text fill="#cccccc"  xml:space="preserve" font-size="12.0454" style="font-family:Monospace;" transform="translate(139.782, 296.32)" >print gainerror</text>
<text fill="#cccccc"  xml:space="preserve" font-size="12.0454" style="font-family:Monospace;" transform="translate(139.782, 351.584)" >plot 180/pi*ph(v_out) vs frequency</text>
<text fill="#cccccc"  xml:space="preserve" font-size="12.0454" style="font-family:Monospace;" transform="translate(139.782, 379.216)" >noise v(v_out) Vin dec 101 1k 100MEG</text>
<text fill="#cccccc"  xml:space="preserve" font-size="12.0454" style="font-family:Monospace;" transform="translate(139.782, 393.032)" >print onoise_total</text>
<text fill="#cccccc"  xml:space="preserve" font-size="12.0454" style="font-family:Monospace;" transform="translate(139.782, 420.664)" >.endc</text>
<text fill="#cccccc"  xml:space="preserve" font-size="12.0454" transform="translate(931.225, 148.864)" >FoldedCascodeOTA</text>
<text fill="#cccccc"  xml:space="preserve" font-size="8.03025" transform="translate(1104.96, 101.978)" >x1</text>
<text fill="#cccccc"  xml:space="preserve" font-size="8.03025" transform="translate(950.528, 100.434)" >VDD</text>
<text fill="#cccccc"  xml:space="preserve" font-size="8.03025" transform="translate(911.921, 146.762)" >I</text>
<text fill="#cccccc"  xml:space="preserve" font-size="8.03025" transform="translate(904.2, 123.598)" >PLUS</text>
<text fill="#cccccc"  xml:space="preserve" font-size="8.03025" transform="translate(904.2, 169.926)" >MINUS</text>
<text fill="#cccccc"  xml:space="preserve" font-size="8.03025" transform="translate(1078.23, 115.877)" >Vout</text>
<text fill="#cccccc"  xml:space="preserve" font-size="8.03025" transform="translate(958.25, 193.09)" >VSS</text>
<path class="l4" d="M539.364 356.828L543.225 356.828"/>
<path class="l4" d="M541.295 354.898L541.295 358.758"/>
<path class="l4" d="M537.434 351.037L537.434 397.365"/>
<circle class="l4" cx="537.434" cy="374.201" r="11.5821" style="fill:none;" />
<path class="l4" d="M537.434 412.808L537.434 422.46"/>
<path class="l4" d="M533.573 422.46L541.295 422.46"/>
<path class="l4" d="M537.434 426.32L541.295 422.46"/>
<path class="l4" d="M533.573 422.46L537.434 426.32"/>
<path class="l4" d="M601.135 356.828L604.996 356.828"/>
<path class="l4" d="M603.066 354.898L603.066 358.758"/>
<path class="l4" d="M599.205 351.037L599.205 397.365"/>
<circle class="l4" cx="599.205" cy="374.201" r="11.5821" style="fill:none;" />
<path class="l4" d="M599.205 412.808L599.205 422.46"/>
<path class="l4" d="M595.344 422.46L603.066 422.46"/>
<path class="l4" d="M599.205 426.32L603.066 422.46"/>
<path class="l4" d="M595.344 422.46L599.205 426.32"/>
<path class="l4" d="M1270.97 200.47L1270.97 219.773"/>
<path class="l4" d="M1270.97 173.445L1270.97 192.748"/>
<path class="l4" d="M1263.24 192.748L1278.69 192.748"/>
<path class="l4" d="M1263.24 200.47L1278.69 200.47"/>
<path class="l4" d="M1272.9 179.236L1276.76 179.236"/>
<path class="l4" d="M1274.83 177.305L1274.83 181.166"/>
<path class="l4" d="M678.349 194.679L682.21 194.679"/>
<path class="l4" d="M680.28 192.748L680.28 196.609"/>
<path class="l4" d="M676.419 188.888L676.419 235.216"/>
<circle class="l4" cx="676.419" cy="212.052" r="11.5821" style="fill:none;" />
<path class="l4" d="M830.847 34.4597L830.847 46.0418"/>
<path class="l4" d="M830.847 69.206L830.847 80.7881"/>
<path class="l4" d="M832.777 40.2507L836.638 40.2507"/>
<path class="l4" d="M834.707 38.3204L834.707 42.1811"/>
<path class="l4" d="M830.847 51.8328L830.847 59.5542L832.777 59.5542L830.847 65.3453L828.916 59.5542L830.847 59.5542L830.847 51.8328"/>
<circle class="l4" cx="830.847" cy="57.6239" r="11.5821" style="fill:none;" />
<path class="l4" d="M1170.59 435.972L1224.64 435.972"/>
<path class="l4" d="M1170.59 435.972L1170.59 451.415"/>
<path class="l4" d="M1170.59 374.201L1224.64 374.201"/>
<path class="l4" d="M1170.59 374.201L1170.59 389.644"/>
<path class="l4" d="M128.2 19.0169L182.25 19.0169"/>
<path class="l4" d="M128.2 19.0169L128.2 34.4597"/>
<path class="l4" d="M900.339 103.952L1101.1 142.559"/>
<path class="l4" d="M900.339 181.166L1101.1 142.559"/>
<path class="l4" d="M900.339 103.952L900.339 181.166"/>
<path class="l4" d="M977.553 103.952L977.553 119.395"/>
<path class="l4" d="M884.897 142.559L900.339 142.559"/>
<path class="l4" d="M884.897 119.395L900.339 119.395"/>
<path class="l4" d="M884.897 165.723L900.339 165.723"/>
<path class="l4" d="M1101.1 142.559L1116.54 142.559"/>
<path class="l4" d="M977.553 165.723L977.553 181.166"/>
<path class="l5" d="M535.503 349.106L539.364 349.106L539.364 352.967L535.503 352.967L535.503 349.106z"/>
<path class="l5" d="M535.503 395.435L539.364 395.435L539.364 399.296L535.503 399.296L535.503 395.435z"/>
<path class="l5" d="M535.503 410.878L539.364 410.878L539.364 414.738L535.503 414.738L535.503 410.878z"/>
<path class="l5" d="M536.469 334.629L538.399 334.629L538.399 336.559L536.469 336.559L536.469 334.629z"/>
<path class="l5" d="M597.275 349.106L601.135 349.106L601.135 352.967L597.275 352.967L597.275 349.106z"/>
<path class="l5" d="M597.275 395.435L601.135 395.435L601.135 399.296L597.275 399.296L597.275 395.435z"/>
<path class="l5" d="M597.275 410.878L601.135 410.878L601.135 414.738L597.275 414.738L597.275 410.878z"/>
<path class="l5" d="M598.24 334.629L600.17 334.629L600.17 336.559L598.24 336.559L598.24 334.629z"/>
<path class="l5" d="M1269.04 171.514L1272.9 171.514L1272.9 175.375L1269.04 175.375L1269.04 171.514z"/>
<path class="l5" d="M1269.04 217.843L1272.9 217.843L1272.9 221.703L1269.04 221.703L1269.04 217.843z"/>
<path class="l5" d="M1270 141.594L1271.93 141.594L1271.93 143.524L1270 143.524L1270 141.594z"/>
<path class="l5" d="M674.489 186.957L678.349 186.957L678.349 190.818L674.489 190.818L674.489 186.957z"/>
<path class="l5" d="M674.489 233.286L678.349 233.286L678.349 237.146L674.489 237.146L674.489 233.286z"/>
<path class="l5" d="M721.782 118.43L723.712 118.43L723.712 120.36L721.782 120.36L721.782 118.43z"/>
<path class="l5" d="M828.916 32.5294L832.777 32.5294L832.777 36.39L828.916 36.39L828.916 32.5294z"/>
<path class="l5" d="M828.916 78.8577L832.777 78.8577L832.777 82.7184L828.916 82.7184L828.916 78.8577z"/>
<path class="l5" d="M768.714 119.033L769.438 119.033L769.438 119.757L768.714 119.757L768.714 119.033z"/>
<path class="l5" d="M1154.78 142.197L1155.51 142.197L1155.51 142.921L1154.78 142.921L1154.78 142.197z"/>
<path class="l5" d="M290.349 517.047L290.108 517.288L289.867 517.529L289.625 517.771L289.384 518.012L289.143 518.253L288.901 518.495L288.66 518.736L288.419 518.977L288.178 519.218L287.936 519.46L287.695 519.701L287.454 519.942L287.212 520.184L286.971 520.425L286.73 520.666L286.489 520.907L286.247 521.149L286.006 521.39L285.765 521.631L285.523 521.873L285.282 522.114L285.041 522.355L284.8 522.597L284.558 522.838L284.317 523.079L284.076 523.32L283.834 523.562L283.593 523.803L283.352 524.044L283.11 524.286L282.869 524.527L282.628 524.768L282.628 524.768L282.394 525.009L282.175 525.251L281.972 525.492L281.783 525.733L281.61 525.975L281.452 526.216L281.308 526.457L281.18 526.699L281.067 526.94L280.969 527.181L280.886 527.422L280.818 527.664L280.765 527.905L280.728 528.146L280.705 528.388L280.698 528.629L280.705 528.87L280.728 529.111L280.765 529.353L280.818 529.594L280.886 529.835L280.969 530.077L281.067 530.318L281.18 530.559L281.308 530.8L281.452 531.042L281.61 531.283L281.783 531.524L281.972 531.766L282.175 532.007L282.394 532.248L282.628 532.49L282.628 532.49L282.87 532.732L283.114 532.976L283.36 533.222L283.608 533.47L283.858 533.72L284.11 533.971L284.363 534.225L284.619 534.48L284.876 534.738L285.135 534.997L285.396 535.258L285.659 535.521L285.924 535.786L286.191 536.052L286.459 536.321L286.73 536.592L287.002 536.864L287.277 537.138L287.553 537.414L287.831 537.692L288.111 537.972L288.393 538.254L288.676 538.538L288.962 538.824L289.249 539.111L289.539 539.4L289.83 539.692L290.123 539.985L290.418 540.28L290.715 540.577L291.014 540.875L291.314 541.176L291.314 541.176L291.614 541.476L291.91 541.772L292.202 542.064L292.491 542.352L292.775 542.637L293.056 542.918L293.333 543.195L293.607 543.468L293.876 543.738L294.142 544.004L294.404 544.266L294.662 544.524L294.917 544.779L295.168 545.029L295.415 545.276L295.658 545.519L295.897 545.759L296.133 545.994L296.365 546.226L296.593 546.454L296.817 546.679L297.038 546.899L297.254 547.116L297.467 547.329L297.677 547.538L297.882 547.744L298.084 547.946L298.282 548.143L298.476 548.338L298.666 548.528L298.853 548.715L299.036 548.898L299.036 548.898L299.211 549.076L299.375 549.248L299.528 549.415L299.669 549.576L299.799 549.732L299.918 549.882L300.026 550.026L300.122 550.164L300.206 550.297L300.28 550.424L300.342 550.546L300.393 550.662L300.433 550.772L300.461 550.877L300.478 550.976L300.484 551.069L300.478 551.157L300.461 551.239L300.433 551.315L300.393 551.386L300.342 551.451L300.28 551.51L300.206 551.564L300.122 551.612L300.026 551.654L299.918 551.691L299.799 551.722L299.669 551.748L299.528 551.768L299.375 551.782L299.211 551.79L299.036 551.793L299.036 551.793L298.855 551.793L298.674 551.793L298.493 551.793L298.312 551.793L298.131 551.793L297.95 551.793L297.769 551.793L297.588 551.793L297.407 551.793L297.226 551.793L297.045 551.793L296.864 551.793L296.683 551.793L296.502 551.793L296.321 551.793L296.14 551.793L295.959 551.793L295.778 551.793L295.597 551.793L295.416 551.793L295.235 551.793L295.054 551.793L294.874 551.793L294.693 551.793L294.512 551.793L294.331 551.793L294.15 551.793L293.969 551.793L293.788 551.793L293.607 551.793L293.426 551.793L293.245 551.793L293.245 551.793L293.065 551.793L292.887 551.793L292.71 551.793L292.536 551.793L292.363 551.793L292.193 551.793L292.024 551.793L291.857 551.793L291.692 551.793L291.529 551.793L291.368 551.793L291.209 551.793L291.051 551.793L290.896 551.793L290.742 551.793L290.591 551.793L290.441 551.793L290.293 551.793L290.147 551.793L290.002 551.793L289.86 551.793L289.72 551.793L289.581 551.793L289.444 551.793L289.31 551.793L289.177 551.793L289.046 551.793L288.917 551.793L288.789 551.793L288.664 551.793L288.54 551.793L288.419 551.793L288.419 551.793L288.298 551.791L288.178 551.785L288.057 551.776L287.936 551.763L287.816 551.746L287.695 551.725L287.574 551.701L287.454 551.672L287.333 551.64L287.212 551.605L287.092 551.565L286.971 551.522L286.85 551.474L286.73 551.424L286.609 551.369L286.489 551.31L286.368 551.248L286.247 551.182L286.127 551.113L286.006 551.039L285.885 550.962L285.765 550.881L285.644 550.796L285.523 550.707L285.403 550.615L285.282 550.519L285.161 550.419L285.041 550.315L284.92 550.208L284.8 550.096L284.679 549.981L284.558 549.863L284.558 549.863L284.438 549.742L284.317 549.621L284.196 549.501L284.076 549.38L283.955 549.259L283.834 549.139L283.714 549.018L283.593 548.898L283.472 548.777L283.352 548.656L283.231 548.536L283.11 548.415L282.99 548.294L282.869 548.174L282.749 548.053L282.628 547.932L282.507 547.812L282.387 547.691L282.266 547.57L282.145 547.45L282.025 547.329L281.904 547.208L281.783 547.088L281.663 546.967L281.542 546.847L281.421 546.726L281.301 546.605L281.18 546.485L281.059 546.364L280.939 546.243L280.818 546.123L280.698 546.002L280.698 546.002L280.575 545.879L280.449 545.753L280.319 545.623L280.185 545.489L280.047 545.352L279.906 545.21L279.761 545.065L279.612 544.916L279.459 544.763L279.303 544.607L279.142 544.447L278.978 544.283L278.811 544.115L278.639 543.943L278.464 543.768L278.285 543.589L278.102 543.406L277.915 543.22L277.725 543.029L277.531 542.835L277.333 542.637L277.131 542.435L276.925 542.23L276.716 542.021L276.503 541.808L276.286 541.591L276.066 541.37L275.841 541.146L275.613 540.918L275.382 540.686L275.146 540.45L274.906 540.211L274.906 540.211L274.665 539.977L274.424 539.759L274.183 539.555L273.941 539.366L273.7 539.193L273.459 539.035L273.217 538.891L272.976 538.763L272.735 538.65L272.494 538.552L272.252 538.469L272.011 538.401L271.77 538.348L271.528 538.311L271.287 538.288L271.046 538.281L270.804 538.288L270.563 538.311L270.322 538.348L270.081 538.401L269.839 538.469L269.598 538.552L269.357 538.65L269.115 538.763L268.874 538.891L268.633 539.035L268.392 539.193L268.15 539.366L267.909 539.555L267.668 539.759L267.426 539.977L267.185 540.211L267.185 540.211L266.946 540.45L266.71 540.686L266.478 540.918L266.25 541.146L266.026 541.37L265.805 541.591L265.588 541.808L265.375 542.021L265.166 542.23L264.961 542.435L264.759 542.637L264.561 542.835L264.367 543.029L264.176 543.22L263.99 543.406L263.807 543.589L263.628 543.768L263.453 543.943L263.281 544.115L263.113 544.283L262.949 544.447L262.789 544.607L262.633 544.763L262.48 544.916L262.331 545.065L262.186 545.21L262.044 545.352L261.907 545.489L261.773 545.623L261.643 545.753L261.517 545.879L261.394 546.002L261.394 546.002L261.273 546.123L261.153 546.243L261.032 546.364L260.911 546.485L260.791 546.605L260.67 546.726L260.55 546.847L260.429 546.967L260.308 547.088L260.188 547.208L260.067 547.329L259.946 547.45L259.826 547.57L259.705 547.691L259.584 547.812L259.464 547.932L259.343 548.053L259.222 548.174L259.102 548.294L258.981 548.415L258.86 548.536L258.74 548.656L258.619 548.777L258.499 548.898L258.378 549.018L258.257 549.139L258.137 549.259L258.016 549.38L257.895 549.501L257.775 549.621L257.654 549.742L257.533 549.863L257.533 549.863L257.413 549.981L257.292 550.096L257.171 550.208L257.051 550.315L256.93 550.419L256.809 550.519L256.689 550.615L256.568 550.707L256.448 550.796L256.327 550.881L256.206 550.962L256.086 551.039L255.965 551.113L255.844 551.182L255.724 551.248L255.603 551.31L255.482 551.369L255.362 551.424L255.241 551.474L255.12 551.522L255 551.565L254.879 551.605L254.758 551.64L254.638 551.672L254.517 551.701L254.397 551.725L254.276 551.746L254.155 551.763L254.035 551.776L253.914 551.785L253.793 551.791L253.673 551.793L253.673 551.793L253.551 551.793L253.428 551.793L253.302 551.793L253.175 551.793L253.046 551.793L252.915 551.793L252.782 551.793L252.647 551.793L252.51 551.793L252.372 551.793L252.231 551.793L252.089 551.793L251.945 551.793L251.799 551.793L251.651 551.793L251.501 551.793L251.349 551.793L251.196 551.793L251.04 551.793L250.883 551.793L250.723 551.793L250.562 551.793L250.399 551.793L250.234 551.793L250.067 551.793L249.899 551.793L249.728 551.793L249.556 551.793L249.381 551.793L249.205 551.793L249.027 551.793L248.847 551.793L248.847 551.793L248.666 551.793L248.485 551.793L248.304 551.793L248.123 551.793L247.942 551.793L247.761 551.793L247.58 551.793L247.399 551.793L247.218 551.793L247.037 551.793L246.856 551.793L246.675 551.793L246.494 551.793L246.313 551.793L246.132 551.793L245.951 551.793L245.77 551.793L245.589 551.793L245.408 551.793L245.227 551.793L245.046 551.793L244.865 551.793L244.684 551.793L244.503 551.793L244.323 551.793L244.142 551.793L243.961 551.793L243.78 551.793L243.599 551.793L243.418 551.793L243.237 551.793L243.056 551.793L243.056 551.793L242.88 551.79L242.716 551.782L242.564 551.768L242.422 551.748L242.292 551.722L242.173 551.691L242.066 551.654L241.97 551.612L241.885 551.564L241.812 551.51L241.749 551.451L241.698 551.386L241.659 551.315L241.631 551.239L241.614 551.157L241.608 551.069L241.614 550.976L241.631 550.877L241.659 550.772L241.698 550.662L241.749 550.546L241.812 550.424L241.885 550.297L241.97 550.164L242.066 550.026L242.173 549.882L242.292 549.732L242.422 549.576L242.564 549.415L242.716 549.248L242.88 549.076L243.056 548.898L243.056 548.898L243.239 548.715L243.425 548.528L243.616 548.338L243.81 548.143L244.008 547.946L244.209 547.744L244.415 547.538L244.624 547.329L244.837 547.116L245.054 546.899L245.274 546.679L245.499 546.454L245.727 546.226L245.959 545.994L246.194 545.759L246.434 545.519L246.677 545.276L246.924 545.029L247.175 544.779L247.429 544.524L247.687 544.266L247.949 544.004L248.215 543.738L248.485 543.468L248.758 543.195L249.035 542.918L249.316 542.637L249.601 542.352L249.889 542.064L250.181 541.772L250.477 541.476L250.777 541.176L250.777 541.176L251.078 540.875L251.377 540.577L251.673 540.28L251.969 539.985L252.262 539.692L252.553 539.4L252.842 539.111L253.13 538.824L253.415 538.538L253.699 538.254L253.981 537.972L254.261 537.692L254.539 537.414L254.815 537.138L255.089 536.864L255.362 536.592L255.632 536.321L255.901 536.052L256.168 535.786L256.432 535.521L256.695 535.258L256.956 534.997L257.216 534.738L257.473 534.48L257.728 534.225L257.982 533.971L258.234 533.72L258.483 533.47L258.731 533.222L258.977 532.976L259.221 532.732L259.464 532.49L259.464 532.49L259.697 532.248L259.916 532.007L260.12 531.766L260.308 531.524L260.482 531.283L260.64 531.042L260.783 530.8L260.911 530.559L261.025 530.318L261.123 530.077L261.206 529.835L261.273 529.594L261.326 529.353L261.364 529.111L261.386 528.87L261.394 528.629L261.386 528.388L261.364 528.146L261.326 527.905L261.273 527.664L261.206 527.422L261.123 527.181L261.025 526.94L260.911 526.699L260.783 526.457L260.64 526.216L260.482 525.975L260.308 525.733L260.12 525.492L259.916 525.251L259.697 525.009L259.464 524.768L259.464 524.768L259.221 524.526L258.977 524.282L258.731 524.036L258.483 523.788L258.234 523.538L257.982 523.286L257.728 523.033L257.473 522.777L257.216 522.52L256.956 522.261L256.695 522L256.432 521.737L256.168 521.472L255.901 521.205L255.632 520.937L255.362 520.666L255.089 520.394L254.815 520.119L254.539 519.843L254.261 519.565L253.981 519.285L253.699 519.004L253.415 518.72L253.13 518.434L252.842 518.147L252.553 517.857L252.262 517.566L251.969 517.273L251.673 516.978L251.377 516.681L251.078 516.382L250.777 516.082L250.777 516.082L250.477 515.782L250.181 515.486L249.889 515.194L249.601 514.905L249.316 514.621L249.035 514.34L248.758 514.063L248.485 513.789L248.215 513.52L247.949 513.254L247.687 512.992L247.429 512.734L247.175 512.479L246.924 512.228L246.677 511.981L246.434 511.738L246.194 511.499L245.959 511.263L245.727 511.031L245.499 510.803L245.274 510.579L245.054 510.358L244.837 510.142L244.624 509.929L244.415 509.719L244.209 509.514L244.008 509.312L243.81 509.114L243.616 508.92L243.425 508.73L243.239 508.543L243.056 508.36L243.056 508.36L242.88 508.182L242.716 508.01L242.564 507.843L242.422 507.682L242.292 507.526L242.173 507.376L242.066 507.232L241.97 507.093L241.885 506.961L241.812 506.833L241.749 506.712L241.698 506.596L241.659 506.485L241.631 506.381L241.614 506.282L241.608 506.189L241.614 506.101L241.631 506.019L241.659 505.943L241.698 505.872L241.749 505.807L241.812 505.747L241.885 505.694L241.97 505.646L242.066 505.603L242.173 505.566L242.292 505.535L242.422 505.51L242.564 505.49L242.716 505.476L242.88 505.468L243.056 505.465L243.056 505.465L243.237 505.465L243.418 505.465L243.599 505.465L243.78 505.465L243.961 505.465L244.142 505.465L244.323 505.465L244.503 505.465L244.684 505.465L244.865 505.465L245.046 505.465L245.227 505.465L245.408 505.465L245.589 505.465L245.77 505.465L245.951 505.465L246.132 505.465L246.313 505.465L246.494 505.465L246.675 505.465L246.856 505.465L247.037 505.465L247.218 505.465L247.399 505.465L247.58 505.465L247.761 505.465L247.942 505.465L248.123 505.465L248.304 505.465L248.485 505.465L248.666 505.465L248.847 505.465L248.847 505.465L249.027 505.465L249.205 505.465L249.381 505.465L249.556 505.465L249.728 505.465L249.899 505.465L250.067 505.465L250.234 505.465L250.399 505.465L250.562 505.465L250.723 505.465L250.883 505.465L251.04 505.465L251.196 505.465L251.349 505.465L251.501 505.465L251.651 505.465L251.799 505.465L251.945 505.465L252.089 505.465L252.231 505.465L252.372 505.465L252.51 505.465L252.647 505.465L252.782 505.465L252.915 505.465L253.046 505.465L253.175 505.465L253.302 505.465L253.428 505.465L253.551 505.465L253.673 505.465L253.673 505.465L253.793 505.467L253.914 505.472L254.035 505.482L254.155 505.495L254.276 505.512L254.397 505.533L254.517 505.557L254.638 505.585L254.758 505.617L254.879 505.653L255 505.693L255.12 505.736L255.241 505.783L255.362 505.834L255.482 505.889L255.603 505.947L255.724 506.009L255.844 506.075L255.965 506.145L256.086 506.219L256.206 506.296L256.327 506.377L256.448 506.462L256.568 506.55L256.689 506.643L256.809 506.739L256.93 506.839L257.051 506.943L257.171 507.05L257.292 507.161L257.413 507.276L257.533 507.395L257.533 507.395L257.654 507.516L257.775 507.636L257.895 507.757L258.016 507.878L258.137 507.998L258.257 508.119L258.378 508.24L258.499 508.36L258.619 508.481L258.74 508.601L258.86 508.722L258.981 508.843L259.102 508.963L259.222 509.084L259.343 509.205L259.464 509.325L259.584 509.446L259.705 509.567L259.826 509.687L259.946 509.808L260.067 509.929L260.188 510.049L260.308 510.17L260.429 510.291L260.55 510.411L260.67 510.532L260.791 510.652L260.911 510.773L261.032 510.894L261.153 511.014L261.273 511.135L261.394 511.256L261.394 511.256L261.517 511.378L261.643 511.505L261.773 511.635L261.907 511.768L262.044 511.906L262.186 512.047L262.331 512.193L262.48 512.342L262.633 512.494L262.789 512.651L262.949 512.811L263.113 512.975L263.281 513.143L263.453 513.314L263.628 513.49L263.807 513.669L263.99 513.852L264.176 514.038L264.367 514.229L264.561 514.423L264.759 514.621L264.961 514.822L265.166 515.028L265.375 515.237L265.588 515.45L265.805 515.667L266.026 515.887L266.25 516.112L266.478 516.34L266.71 516.572L266.946 516.807L267.185 517.047L267.185 517.047L267.426 517.281L267.668 517.499L267.909 517.703L268.15 517.891L268.392 518.065L268.633 518.223L268.874 518.366L269.115 518.495L269.357 518.608L269.598 518.706L269.839 518.789L270.081 518.856L270.322 518.909L270.563 518.947L270.804 518.97L271.046 518.977L271.287 518.97L271.528 518.947L271.77 518.909L272.011 518.856L272.252 518.789L272.494 518.706L272.735 518.608L272.976 518.495L273.217 518.366L273.459 518.223L273.7 518.065L273.941 517.891L274.183 517.703L274.424 517.499L274.665 517.281L274.906 517.047L274.906 517.047L275.146 516.807L275.382 516.572L275.613 516.34L275.841 516.112L276.066 515.887L276.286 515.667L276.503 515.45L276.716 515.237L276.925 515.028L277.131 514.822L277.333 514.621L277.531 514.423L277.725 514.229L277.915 514.038L278.102 513.852L278.285 513.669L278.464 513.49L278.639 513.314L278.811 513.143L278.978 512.975L279.142 512.811L279.303 512.651L279.459 512.494L279.612 512.342L279.761 512.193L279.906 512.047L280.047 511.906L280.185 511.768L280.319 511.635L280.449 511.505L280.575 511.378L280.698 511.256L280.698 511.256L280.818 511.135L280.939 511.014L281.059 510.894L281.18 510.773L281.301 510.652L281.421 510.532L281.542 510.411L281.663 510.291L281.783 510.17L281.904 510.049L282.025 509.929L282.145 509.808L282.266 509.687L282.387 509.567L282.507 509.446L282.628 509.325L282.749 509.205L282.869 509.084L282.99 508.963L283.11 508.843L283.231 508.722L283.352 508.601L283.472 508.481L283.593 508.36L283.714 508.24L283.834 508.119L283.955 507.998L284.076 507.878L284.196 507.757L284.317 507.636L284.438 507.516L284.558 507.395L284.558 507.395L284.679 507.276L284.8 507.161L284.92 507.05L285.041 506.943L285.161 506.839L285.282 506.739L285.403 506.643L285.523 506.55L285.644 506.462L285.765 506.377L285.885 506.296L286.006 506.219L286.127 506.145L286.247 506.075L286.368 506.009L286.489 505.947L286.609 505.889L286.73 505.834L286.85 505.783L286.971 505.736L287.092 505.693L287.212 505.653L287.333 505.617L287.454 505.585L287.574 505.557L287.695 505.533L287.816 505.512L287.936 505.495L288.057 505.482L288.178 505.472L288.298 505.467L288.419 505.465L288.419 505.465L288.54 505.465L288.664 505.465L288.789 505.465L288.917 505.465L289.046 505.465L289.177 505.465L289.31 505.465L289.444 505.465L289.581 505.465L289.72 505.465L289.86 505.465L290.002 505.465L290.147 505.465L290.293 505.465L290.441 505.465L290.591 505.465L290.742 505.465L290.896 505.465L291.051 505.465L291.209 505.465L291.368 505.465L291.529 505.465L291.692 505.465L291.857 505.465L292.024 505.465L292.193 505.465L292.363 505.465L292.536 505.465L292.71 505.465L292.887 505.465L293.065 505.465L293.245 505.465L293.245 505.465L293.426 505.465L293.607 505.465L293.788 505.465L293.969 505.465L294.15 505.465L294.331 505.465L294.512 505.465L294.693 505.465L294.874 505.465L295.054 505.465L295.235 505.465L295.416 505.465L295.597 505.465L295.778 505.465L295.959 505.465L296.14 505.465L296.321 505.465L296.502 505.465L296.683 505.465L296.864 505.465L297.045 505.465L297.226 505.465L297.407 505.465L297.588 505.465L297.769 505.465L297.95 505.465L298.131 505.465L298.312 505.465L298.493 505.465L298.674 505.465L298.855 505.465L299.036 505.465L299.036 505.465L299.211 505.468L299.375 505.476L299.528 505.49L299.669 505.51L299.799 505.535L299.918 505.566L300.026 505.603L300.122 505.646L300.206 505.694L300.28 505.747L300.342 505.807L300.393 505.872L300.433 505.943L300.461 506.019L300.478 506.101L300.484 506.189L300.478 506.282L300.461 506.381L300.433 506.485L300.393 506.596L300.342 506.712L300.28 506.833L300.206 506.961L300.122 507.093L300.026 507.232L299.918 507.376L299.799 507.526L299.669 507.682L299.528 507.843L299.375 508.01L299.211 508.182L299.036 508.36L299.036 508.36L298.852 508.544L298.663 508.733L298.467 508.929L298.267 509.129L298.06 509.336L297.848 509.548L297.63 509.766L297.407 509.989L297.178 510.218L296.943 510.453L296.703 510.693L296.457 510.939L296.205 511.191L295.948 511.448L295.685 511.711L295.416 511.98L295.142 512.254L294.862 512.534L294.577 512.819L294.285 513.111L293.988 513.408L293.686 513.71L293.378 514.018L293.064 514.332L292.744 514.652L292.419 514.977L292.088 515.308L291.752 515.644L291.41 515.986L291.062 516.334L290.708 516.688L290.349 517.047"/>
<path class="l5" d="M975.623 102.022L979.484 102.022L979.484 105.883L975.623 105.883L975.623 102.022z"/>
<path class="l5" d="M882.966 140.629L886.827 140.629L886.827 144.49L882.966 144.49L882.966 140.629z"/>
<path class="l5" d="M882.966 117.465L886.827 117.465L886.827 121.325L882.966 121.325L882.966 117.465z"/>
<path class="l5" d="M882.966 163.793L886.827 163.793L886.827 167.654L882.966 167.654L882.966 163.793z"/>
<path class="l5" d="M1114.61 140.629L1118.47 140.629L1118.47 144.49L1114.61 144.49L1114.61 140.629z"/>
<path class="l5" d="M975.623 179.236L979.484 179.236L979.484 183.097L975.623 183.097L975.623 179.236z"/>
<path class="l6" d="M471.802 528.629L1085.65 528.629"/>
<path class="l6" d="M174.528 528.629L224.717 528.629"/>
<path class="l15" d="M771.971 112.639L776.797 106.848"/>
<path class="l15" d="M769.076 119.395L771.971 112.639"/>
<path class="l15" d="M776.797 98.1612L776.797 108.778"/>
<path class="l15" d="M774.867 106.848L791.275 106.848"/>
<path class="l15" d="M778.727 103.952L782.588 103.952"/>
<path class="l15" d="M782.588 101.057L782.588 103.952"/>
<path class="l15" d="M782.588 101.057L785.484 101.057"/>
<path class="l15" d="M785.484 101.057L785.484 103.952"/>
<path class="l15" d="M785.484 103.952L788.379 103.952"/>
<path class="l15" d="M788.379 101.057L788.379 103.952"/>
<path class="l15" d="M788.379 101.057L790.551 101.057"/>
<path class="l15" d="M1158.04 135.803L1162.87 130.012"/>
<path class="l15" d="M1155.15 142.559L1158.04 135.803"/>
<path class="l15" d="M1162.87 121.325L1162.87 131.942"/>
<path class="l15" d="M1160.94 130.012L1177.34 130.012"/>
<path class="l15" d="M1164.8 127.116L1168.66 127.116"/>
<path class="l15" d="M1168.66 124.221L1168.66 127.116"/>
<path class="l15" d="M1168.66 124.221L1171.55 124.221"/>
<path class="l15" d="M1171.55 124.221L1171.55 127.116"/>
<path class="l15" d="M1171.55 127.116L1174.45 127.116"/>
<path class="l15" d="M1174.45 124.221L1174.45 127.116"/>
<path class="l15" d="M1174.45 124.221L1176.62 124.221"/>
<path class="l1" d="M537.434 397.365L537.434 412.808"/>
<path class="l1" d="M599.205 397.365L599.205 412.808"/>
<path class="l1" d="M599.205 335.594L599.205 351.037"/>
<path class="l1" d="M1270.97 219.773L1270.97 335.594"/>
<path class="l1" d="M1116.54 142.559L1116.54 235.216"/>
<path class="l1" d="M830.847 235.216L1116.54 235.216"/>
<path class="l1" d="M830.847 165.723L830.847 235.216"/>
<path class="l1" d="M830.847 165.723L884.897 165.723"/>
<path class="l1" d="M676.419 235.216L676.419 335.594"/>
<path class="l1" d="M599.205 335.594L676.419 335.594"/>
<path class="l1" d="M676.419 119.395L676.419 188.888"/>
<path class="l1" d="M676.419 119.395L884.897 119.395"/>
<path class="l1" d="M977.553 335.594L1270.97 335.594"/>
<path class="l1" d="M830.847 142.559L884.897 142.559"/>
<path class="l1" d="M830.847 80.7881L830.847 142.559"/>
<path class="l1" d="M1116.54 142.559L1270.97 142.559"/>
<path class="l1" d="M1270.97 142.559L1270.97 173.445"/>
<path class="l1" d="M537.434 34.4597L537.434 351.037"/>
<path class="l1" d="M537.434 34.4597L977.553 34.4597"/>
<path class="l1" d="M977.553 34.4597L977.553 103.952"/>
<path class="l1" d="M977.553 181.166L977.553 335.594"/>
<path class="l1" d="M676.419 335.594L977.553 335.594"/>
<circle class="l1" cx="676.419" cy="335.594" r="2.85692"/>
<circle class="l1" cx="977.553" cy="335.594" r="2.85692"/>
<circle class="l1" cx="676.419" cy="335.594" r="2.85692"/>
<circle class="l1" cx="676.419" cy="335.594" r="2.85692"/>
<circle class="l1" cx="977.553" cy="335.594" r="2.85692"/>
<circle class="l1" cx="977.553" cy="335.594" r="2.85692"/>
</svg>
