<?xml version="1.0" standalone="yes"?>
<!DOCTYPE svg PUBLIC "-//W3C//DTD SVG 1.1//EN"
 "http://www.w3.org/Graphics/SVG/1.1/DTD/svg11.dtd">
<svg xmlns="http://www.w3.org/2000/svg" version="1.1"
  width="100%" height="100%" viewBox="0 0 1024 768"
  style="fill: none; font-family: Helvetica;
 font: Helvetica;
">

<!-- Creator: NGspice -->

<rect x="0" y="0" width="1024" height="768" fill="black" stroke="none"/>
<text stroke="none" fill="white" font-size="16" x="358" y="752">
time
</text>
<text stroke="none" fill="white" font-size="16" x="10" y="16">
tran1: ** sch_path: /foss/designs/cems_dsm/dsm/schematics/ic_designs_hrishi/realcircuits/folded cascode/tb_folcas_tran.sch
</text>
<path stroke="white" d="M70 720l0 -672"/>
<text stroke="none" fill="white" font-size="16" x="55" y="728">
0.0
</text>
<path stroke="white" stroke-dasharray="1,2" d="M180 720l0 -672"/>
<text stroke="none" fill="white" font-size="16" x="165" y="728">
2.0
</text>
<path stroke="white" stroke-dasharray="1,2" d="M290 720l0 -672"/>
<text stroke="none" fill="white" font-size="16" x="275" y="728">
4.0
</text>
<path stroke="white" stroke-dasharray="1,2" d="M400 720l0 -672"/>
<text stroke="none" fill="white" font-size="16" x="385" y="728">
6.0
</text>
<path stroke="white" stroke-dasharray="1,2" d="M510 720l0 -672"/>
<text stroke="none" fill="white" font-size="16" x="495" y="728">
8.0
</text>
<path stroke="white" stroke-dasharray="1,2" d="M620 720l0 -672"/>
<text stroke="none" fill="white" font-size="16" x="600" y="728">
10.0
</text>
<path stroke="white" stroke-dasharray="1,2" d="M730 720l0 -672"/>
<text stroke="none" fill="white" font-size="16" x="710" y="728">
12.0
</text>
<path stroke="white" stroke-dasharray="1,2" d="M840 720l0 -672"/>
<text stroke="none" fill="white" font-size="16" x="820" y="728">
14.0
</text>
<path stroke="white" stroke-dasharray="1,2" d="M950 720l0 -672"/>
<text stroke="none" fill="white" font-size="16" x="930" y="728">
16.0
</text>
<text stroke="none" fill="white" font-size="16" x="614" y="752">
us
</text>
<path stroke="white" d="M70 720l880 0"/>
<text stroke="none" fill="white" font-size="16" x="38" y="728">
0.0
</text>
<path stroke="white" stroke-dasharray="1,2" d="M70 624l880 0"/>
<text stroke="none" fill="white" font-size="16" x="18" y="632">
100.0
</text>
<path stroke="white" stroke-dasharray="1,2" d="M70 528l880 0"/>
<text stroke="none" fill="white" font-size="16" x="18" y="536">
200.0
</text>
<path stroke="white" stroke-dasharray="1,2" d="M70 432l880 0"/>
<text stroke="none" fill="white" font-size="16" x="18" y="440">
300.0
</text>
<path stroke="white" stroke-dasharray="1,2" d="M70 336l880 0"/>
<text stroke="none" fill="white" font-size="16" x="18" y="344">
400.0
</text>
<path stroke="white" stroke-dasharray="1,2" d="M70 240l880 0"/>
<text stroke="none" fill="white" font-size="16" x="18" y="248">
500.0
</text>
<path stroke="white" stroke-dasharray="1,2" d="M70 144l880 0"/>
<text stroke="none" fill="white" font-size="16" x="18" y="152">
600.0
</text>
<path stroke="white" stroke-dasharray="1,2" d="M70 48l880 0"/>
<text stroke="none" fill="white" font-size="16" x="18" y="56">
700.0
</text>
<text stroke="none" fill="white" font-size="16" x="10" y="32">
mV
</text>
<path stroke="red" d="M440 23l44 0"/>
<text stroke="none" fill="white" font-size="16" x="494" y="32">
v_out
</text>
<path stroke="red" d="M70 719l0 -5 1 0 0 -29 1 -14 0 -38 1 -12 0 -22 1 -11 0 -30 1 -9 0 -27 1 -9 0 -18 1 -9 0 -25 1 -9 0 -17 1 -8 0 -25 1 -8 0 -24 1 -8 0 -15 1 -8 0 -22 1 -7 0 -21 1 -7 0 -13 1 -6 0 -18 1 -6 0 -17 1 -5 0 -10 1 -5 0 -14 1 -4 0 -8"/>
<path stroke="red" d="M89 176l1 -4 0 -11 1 -4 0 -10 1 -3 0 -6 1 -3 0 -8 1 -2 0 -7 1 -2 0 -4 1 -2 0 -6 1 -2 0 -4 1 -2 0 -3 1 -1 0 -4 1 -1 0 -3 1 -1 0 -3 1 -1 0 -2 1 -1 0 -2 1 -1 0 -2 1 0 0 -2 1 -1 0 -1 1 0 0 -2 1 0 0 -2 1 0 0 -1 1 0 0 -1 1 0 0 -1"/>
<path stroke="red" d="M111 60l1 0 0 -1 1 0 0 -1 1 0 0 -1 1 0 0 -1 2 0 0 -1 2 0 0 -1 2 0 0 -1 3 0 1 -1 5 0 0 -1 21 0 0 -1 744 0"/>
</svg>
