<svg xmlns="http://www.w3.org/2000/svg" xmlns:xlink="http://www.w3.org/1999/xlink" width="1680" height="897" version="1.1">
<style type="text/css">
.l0{
  fill: #ffffff;
  stroke: #ffffff;
  stroke-linecap:round;
  stroke-linejoin:round;
  stroke-width: 0.42007;
}
.l1{
  fill: #0044ee;
  stroke: #0044ee;
  stroke-linecap:round;
  stroke-linejoin:round;
  stroke-width: 0.42007;
}
.l2{
  fill: #aaaaaa; fill-opacity: 0.2;
  stroke: #aaaaaa;
  stroke-linecap:round;
  stroke-linejoin:round;
  stroke-width: 0.42007;
}
.l3{
  fill: #222222; fill-opacity: 0.5;
  stroke: #222222;
  stroke-linecap:round;
  stroke-linejoin:round;
  stroke-width: 0.42007;
}
.l4{
  fill: #229900;
  stroke: #229900;
  stroke-linecap:round;
  stroke-linejoin:round;
  stroke-width: 0.42007;
}
.l5{
  fill: #bb2200;
  stroke: #bb2200;
  stroke-linecap:round;
  stroke-linejoin:round;
  stroke-width: 0.42007;
}
.l6{
  fill: #00ccee; fill-opacity: 0.5;
  stroke: #00ccee;
  stroke-linecap:round;
  stroke-linejoin:round;
  stroke-width: 0.42007;
}
.l7{
  fill: #ff0000; fill-opacity: 0.5;
  stroke: #ff0000;
  stroke-linecap:round;
  stroke-linejoin:round;
  stroke-width: 0.42007;
}
.l8{
  fill: #888800; fill-opacity: 0.5;
  stroke: #888800;
  stroke-linecap:round;
  stroke-linejoin:round;
  stroke-width: 0.42007;
}
.l9{
  fill: #00aaaa; fill-opacity: 0.5;
  stroke: #00aaaa;
  stroke-linecap:round;
  stroke-linejoin:round;
  stroke-width: 0.42007;
}
.l10{
  fill: #880088;
  stroke: #880088;
  stroke-linecap:round;
  stroke-linejoin:round;
  stroke-width: 0.42007;
}
.l11{
  fill: #00ff00; fill-opacity: 0.5;
  stroke: #00ff00;
  stroke-linecap:round;
  stroke-linejoin:round;
  stroke-width: 0.42007;
}
.l12{
  fill: #0000cc; fill-opacity: 0.5;
  stroke: #0000cc;
  stroke-linecap:round;
  stroke-linejoin:round;
  stroke-width: 0.42007;
}
.l13{
  fill: #666600; fill-opacity: 0.5;
  stroke: #666600;
  stroke-linecap:round;
  stroke-linejoin:round;
  stroke-width: 0.42007;
}
.l14{
  fill: #557755; fill-opacity: 0.2;
  stroke: #557755;
  stroke-linecap:round;
  stroke-linejoin:round;
  stroke-width: 0.42007;
}
.l15{
  fill: #aa2222; fill-opacity: 0.5;
  stroke: #aa2222;
  stroke-linecap:round;
  stroke-linejoin:round;
  stroke-width: 0.42007;
}
.l16{
  fill: #7ccc40; fill-opacity: 0.5;
  stroke: #7ccc40;
  stroke-linecap:round;
  stroke-linejoin:round;
  stroke-width: 0.42007;
}
.l17{
  fill: #00ffcc; fill-opacity: 0.2;
  stroke: #00ffcc;
  stroke-linecap:round;
  stroke-linejoin:round;
  stroke-width: 0.42007;
}
.l18{
  fill: #ce0097; fill-opacity: 0.5;
  stroke: #ce0097;
  stroke-linecap:round;
  stroke-linejoin:round;
  stroke-width: 0.42007;
}
.l19{
  fill: #d2d46b; fill-opacity: 0.2;
  stroke: #d2d46b;
  stroke-linecap:round;
  stroke-linejoin:round;
  stroke-width: 0.42007;
}
.l20{
  fill: #ef6158; fill-opacity: 0.2;
  stroke: #ef6158;
  stroke-linecap:round;
  stroke-linejoin:round;
  stroke-width: 0.42007;
}
.l21{
  fill: #fdb200; fill-opacity: 0.2;
  stroke: #fdb200;
  stroke-linecap:round;
  stroke-linejoin:round;
  stroke-width: 0.42007;
}
text {font-family: Sans-Serif;}
</style>
<rect class="l0" x="0" y="0" width="1680" height="897"/>
<text fill="#0044ee"  xml:space="preserve" font-size="5.46091" transform="translate(1224.31, 444.122)" >VSS</text>
<text fill="#0044ee"  xml:space="preserve" font-size="5.46091" transform="translate(1198.36, 444.122)" >VSS</text>
<text fill="#0044ee"  xml:space="preserve" font-size="5.46091" transform="translate(1338.39, 385.779)" >VSS</text>
<text fill="#0044ee"  xml:space="preserve" font-size="5.46091" transform="translate(1060.95, 385.779)" >VSS</text>
<text fill="#0044ee"  xml:space="preserve" font-size="6.67445" transform="translate(1531.89, 359.111)" >outp</text>
<text fill="#0044ee"  xml:space="preserve" font-size="4.04512" transform="translate(1219.76, 521.543)" >GND</text>
<text fill="#0044ee"  xml:space="preserve" font-size="6.67445" transform="translate(395.19, 444.681)" >PLUS</text>
<text fill="#0044ee"  xml:space="preserve" font-size="6.67445" transform="translate(640.7, 444.681)" >MINUS</text>
<text fill="#0044ee"  xml:space="preserve" font-size="6.67445" transform="translate(159.149, 207.419)" >p1</text>
<text fill="#0044ee"  xml:space="preserve" font-size="5.46091" transform="translate(524.196, 440.233)" >VSS</text>
<text fill="#0044ee"  xml:space="preserve" font-size="5.46091" transform="translate(498.246, 440.233)" >VSS</text>
<text fill="#0044ee"  xml:space="preserve" font-size="5.46091" transform="translate(638.269, 381.889)" >VSS</text>
<text fill="#0044ee"  xml:space="preserve" font-size="5.46091" transform="translate(360.836, 381.889)" >VSS</text>
<text fill="#0044ee"  xml:space="preserve" font-size="6.67445" transform="translate(1636.91, 316.326)" >outm</text>
<text fill="#0044ee"  xml:space="preserve" font-size="4.04512" transform="translate(76.2307, 229.827)" >GND</text>
<text fill="#0044ee"  xml:space="preserve" font-size="4.04512" transform="translate(453.516, 603.223)" >GND</text>
<text fill="#222222"  xml:space="preserve" font-size="4.04512" transform="translate(1164.33, 379.575)" >MN3</text>
<text fill="#ff0000"  xml:space="preserve" font-size="3.03384" transform="translate(1154.52, 397.132)" >D</text>
<text fill="#ff0000"  xml:space="preserve" font-size="3.03384" transform="translate(1155.52, 380.039)" >S</text>
<text fill="#ff0000"  xml:space="preserve" font-size="3.03384" transform="translate(1156.49, 386.436)" >B</text>
<text fill="#ff0000"  xml:space="preserve" font-size="3.03384" transform="translate(1170.16, 386.436)" >G</text>
<text fill="#222222"  xml:space="preserve" font-size="4.04512" transform="translate(1125.61, 398.758)" >sg13_lv_nmos</text>
<text fill="#666600"  xml:space="preserve" font-size="4.04512" transform="translate(1144.12, 381.033)" >m=1</text>
<text fill="#666600"  xml:space="preserve" font-size="4.04512" transform="translate(1142.12, 383.95)" >ng=1</text>
<text fill="#666600"  xml:space="preserve" font-size="4.04512" transform="translate(1137.12, 387.84)" >l=0.18u</text>
<text fill="#666600"  xml:space="preserve" font-size="4.04512" transform="translate(1142.12, 391.73)" >w=1u</text>
<text fill="#222222"  xml:space="preserve" font-size="4.04512" transform="translate(992.969, 274.557)" >MP5</text>
<text fill="#ff0000"  xml:space="preserve" font-size="3.03384" transform="translate(1007.78, 292.114)" >D</text>
<text fill="#ff0000"  xml:space="preserve" font-size="3.03384" transform="translate(1007.78, 275.021)" >S</text>
<text fill="#ff0000"  xml:space="preserve" font-size="3.03384" transform="translate(1006.8, 281.418)" >B</text>
<text fill="#ff0000"  xml:space="preserve" font-size="3.03384" transform="translate(992.134, 281.418)" >G</text>
<text fill="#222222"  xml:space="preserve" font-size="4.04512" transform="translate(1010.69, 293.741)" >sg13_lv_pmos</text>
<text fill="#666600"  xml:space="preserve" font-size="4.04512" transform="translate(1011.18, 276.016)" >m=1</text>
<text fill="#666600"  xml:space="preserve" font-size="4.04512" transform="translate(1011.18, 278.933)" >ng=1</text>
<text fill="#666600"  xml:space="preserve" font-size="4.04512" transform="translate(1011.18, 282.822)" >l=0.18u</text>
<text fill="#666600"  xml:space="preserve" font-size="4.04512" transform="translate(1011.18, 286.712)" >w=0.5u</text>
<text fill="#222222"  xml:space="preserve" font-size="4.04512" transform="translate(1164.33, 301.784)" >MP1</text>
<text fill="#ff0000"  xml:space="preserve" font-size="3.03384" transform="translate(1154.52, 319.341)" >D</text>
<text fill="#ff0000"  xml:space="preserve" font-size="3.03384" transform="translate(1155.52, 302.248)" >S</text>
<text fill="#ff0000"  xml:space="preserve" font-size="3.03384" transform="translate(1156.49, 308.645)" >B</text>
<text fill="#ff0000"  xml:space="preserve" font-size="3.03384" transform="translate(1170.16, 308.645)" >G</text>
<text fill="#222222"  xml:space="preserve" font-size="4.04512" transform="translate(1125.61, 320.968)" >sg13_lv_pmos</text>
<text fill="#666600"  xml:space="preserve" font-size="4.04512" transform="translate(1144.12, 303.243)" >m=1</text>
<text fill="#666600"  xml:space="preserve" font-size="4.04512" transform="translate(1142.12, 306.16)" >ng=1</text>
<text fill="#666600"  xml:space="preserve" font-size="4.04512" transform="translate(1137.12, 310.049)" >l=0.18u</text>
<text fill="#666600"  xml:space="preserve" font-size="4.04512" transform="translate(1142.12, 313.939)" >w=2u</text>
<text fill="#222222"  xml:space="preserve" font-size="4.04512" transform="translate(1257.46, 301.784)" >MP2</text>
<text fill="#ff0000"  xml:space="preserve" font-size="3.03384" transform="translate(1272.26, 319.341)" >D</text>
<text fill="#ff0000"  xml:space="preserve" font-size="3.03384" transform="translate(1272.26, 302.248)" >S</text>
<text fill="#ff0000"  xml:space="preserve" font-size="3.03384" transform="translate(1271.29, 308.645)" >B</text>
<text fill="#ff0000"  xml:space="preserve" font-size="3.03384" transform="translate(1256.62, 308.645)" >G</text>
<text fill="#222222"  xml:space="preserve" font-size="4.04512" transform="translate(1275.18, 320.968)" >sg13_lv_pmos</text>
<text fill="#666600"  xml:space="preserve" font-size="4.04512" transform="translate(1275.67, 303.243)" >m=1</text>
<text fill="#666600"  xml:space="preserve" font-size="4.04512" transform="translate(1275.67, 306.16)" >ng=1</text>
<text fill="#666600"  xml:space="preserve" font-size="4.04512" transform="translate(1275.67, 310.049)" >l=0.18u</text>
<text fill="#666600"  xml:space="preserve" font-size="4.04512" transform="translate(1275.67, 313.939)" >w=2u</text>
<text fill="#222222"  xml:space="preserve" font-size="4.04512" transform="translate(1436.6, 266.778)" >MP6</text>
<text fill="#ff0000"  xml:space="preserve" font-size="3.03384" transform="translate(1426.79, 284.335)" >D</text>
<text fill="#ff0000"  xml:space="preserve" font-size="3.03384" transform="translate(1427.79, 267.242)" >S</text>
<text fill="#ff0000"  xml:space="preserve" font-size="3.03384" transform="translate(1428.76, 273.639)" >B</text>
<text fill="#ff0000"  xml:space="preserve" font-size="3.03384" transform="translate(1442.43, 273.639)" >G</text>
<text fill="#222222"  xml:space="preserve" font-size="4.04512" transform="translate(1397.87, 285.962)" >sg13_lv_pmos</text>
<text fill="#666600"  xml:space="preserve" font-size="4.04512" transform="translate(1416.39, 268.237)" >m=1</text>
<text fill="#666600"  xml:space="preserve" font-size="4.04512" transform="translate(1414.39, 271.154)" >ng=1</text>
<text fill="#666600"  xml:space="preserve" font-size="4.04512" transform="translate(1409.39, 275.043)" >l=0.15u</text>
<text fill="#666600"  xml:space="preserve" font-size="4.04512" transform="translate(1410.39, 278.933)" >w=0.5u</text>
<text fill="#222222"  xml:space="preserve" font-size="4.04512" transform="translate(1256.46, 379.575)" >MN4</text>
<text fill="#ff0000"  xml:space="preserve" font-size="3.03384" transform="translate(1272.26, 397.132)" >D</text>
<text fill="#ff0000"  xml:space="preserve" font-size="3.03384" transform="translate(1272.26, 380.039)" >S</text>
<text fill="#ff0000"  xml:space="preserve" font-size="3.03384" transform="translate(1271.29, 386.436)" >B</text>
<text fill="#ff0000"  xml:space="preserve" font-size="3.03384" transform="translate(1256.62, 386.436)" >G</text>
<text fill="#222222"  xml:space="preserve" font-size="4.04512" transform="translate(1275.18, 398.758)" >sg13_lv_nmos</text>
<text fill="#666600"  xml:space="preserve" font-size="4.04512" transform="translate(1275.67, 381.033)" >m=1</text>
<text fill="#666600"  xml:space="preserve" font-size="4.04512" transform="translate(1275.67, 383.95)" >ng=1</text>
<text fill="#666600"  xml:space="preserve" font-size="4.04512" transform="translate(1275.67, 387.84)" >l=0.18u</text>
<text fill="#666600"  xml:space="preserve" font-size="4.04512" transform="translate(1275.67, 391.73)" >w=1u</text>
<text fill="#222222"  xml:space="preserve" font-size="4.04512" transform="translate(1143.66, 437.918)" >MN1</text>
<text fill="#ff0000"  xml:space="preserve" font-size="3.03384" transform="translate(1159.47, 455.475)" >D</text>
<text fill="#ff0000"  xml:space="preserve" font-size="3.03384" transform="translate(1159.47, 438.382)" >S</text>
<text fill="#ff0000"  xml:space="preserve" font-size="3.03384" transform="translate(1158.49, 444.779)" >B</text>
<text fill="#ff0000"  xml:space="preserve" font-size="3.03384" transform="translate(1143.83, 444.779)" >G</text>
<text fill="#222222"  xml:space="preserve" font-size="4.04512" transform="translate(1162.38, 457.101)" >sg13_lv_nmos</text>
<text fill="#666600"  xml:space="preserve" font-size="4.04512" transform="translate(1162.87, 439.376)" >m=1</text>
<text fill="#666600"  xml:space="preserve" font-size="4.04512" transform="translate(1162.87, 442.294)" >ng=1</text>
<text fill="#666600"  xml:space="preserve" font-size="4.04512" transform="translate(1162.87, 446.183)" >l=0.18u</text>
<text fill="#666600"  xml:space="preserve" font-size="4.04512" transform="translate(1162.87, 450.073)" >w=2u</text>
<text fill="#222222"  xml:space="preserve" font-size="4.04512" transform="translate(1277.13, 437.918)" >MN2</text>
<text fill="#ff0000"  xml:space="preserve" font-size="3.03384" transform="translate(1267.32, 455.475)" >D</text>
<text fill="#ff0000"  xml:space="preserve" font-size="3.03384" transform="translate(1268.32, 438.382)" >S</text>
<text fill="#ff0000"  xml:space="preserve" font-size="3.03384" transform="translate(1269.29, 444.779)" >B</text>
<text fill="#ff0000"  xml:space="preserve" font-size="3.03384" transform="translate(1282.96, 444.779)" >G</text>
<text fill="#222222"  xml:space="preserve" font-size="4.04512" transform="translate(1238.4, 457.101)" >sg13_lv_nmos</text>
<text fill="#666600"  xml:space="preserve" font-size="4.04512" transform="translate(1256.92, 439.376)" >m=1</text>
<text fill="#666600"  xml:space="preserve" font-size="4.04512" transform="translate(1254.92, 442.294)" >ng=1</text>
<text fill="#666600"  xml:space="preserve" font-size="4.04512" transform="translate(1249.92, 446.183)" >l=0.18u</text>
<text fill="#666600"  xml:space="preserve" font-size="4.04512" transform="translate(1254.92, 450.073)" >w=2u</text>
<text fill="#222222"  xml:space="preserve" font-size="6.06768" transform="translate(28.5839, 680.906)" >MODEL</text>
<text fill="#222222"  xml:space="preserve" font-size="6.06768" style="font-family:Monospace;" transform="translate(32.4734, 690.63)" >.lib $::SG13G2_MODELS/cornerMOSlv.lib mos_tt</text>
<text fill="#222222"  xml:space="preserve" font-size="6.06768" style="font-family:Monospace;" transform="translate(32.4734, 697.589)" >.lib $::SG13G2_MODELS/cornerCAP.lib cap_typ</text>
<text fill="#222222"  xml:space="preserve" font-size="6.06768" style="font-family:Monospace;" transform="translate(32.4734, 704.549)" >.inc $::PDK_ROOT/ihp-sg13g2/libs.ref/sg13g2_stdcell/spice/sg13g2_stdcell.spice</text>
<text fill="#222222"  xml:space="preserve" font-size="4.04512" transform="translate(464.212, 375.685)" >MN5</text>
<text fill="#ff0000"  xml:space="preserve" font-size="3.03384" transform="translate(454.406, 393.242)" >D</text>
<text fill="#ff0000"  xml:space="preserve" font-size="3.03384" transform="translate(455.406, 376.149)" >S</text>
<text fill="#ff0000"  xml:space="preserve" font-size="3.03384" transform="translate(456.378, 382.546)" >B</text>
<text fill="#ff0000"  xml:space="preserve" font-size="3.03384" transform="translate(470.047, 382.546)" >G</text>
<text fill="#222222"  xml:space="preserve" font-size="4.04512" transform="translate(425.488, 394.869)" >sg13_lv_nmos</text>
<text fill="#666600"  xml:space="preserve" font-size="4.04512" transform="translate(444.002, 377.144)" >m=1</text>
<text fill="#666600"  xml:space="preserve" font-size="4.04512" transform="translate(442.002, 380.061)" >ng=1</text>
<text fill="#666600"  xml:space="preserve" font-size="4.04512" transform="translate(437.002, 383.95)" >l=0.18u</text>
<text fill="#666600"  xml:space="preserve" font-size="4.04512" transform="translate(442.002, 387.84)" >w=1u</text>
<text fill="#222222"  xml:space="preserve" font-size="4.04512" transform="translate(292.852, 270.668)" >MP7</text>
<text fill="#ff0000"  xml:space="preserve" font-size="3.03384" transform="translate(307.658, 288.225)" >D</text>
<text fill="#ff0000"  xml:space="preserve" font-size="3.03384" transform="translate(307.658, 271.132)" >S</text>
<text fill="#ff0000"  xml:space="preserve" font-size="3.03384" transform="translate(306.686, 277.528)" >B</text>
<text fill="#ff0000"  xml:space="preserve" font-size="3.03384" transform="translate(292.017, 277.528)" >G</text>
<text fill="#222222"  xml:space="preserve" font-size="4.04512" transform="translate(310.575, 289.851)" >sg13_lv_pmos</text>
<text fill="#666600"  xml:space="preserve" font-size="4.04512" transform="translate(311.062, 272.126)" >m=1</text>
<text fill="#666600"  xml:space="preserve" font-size="4.04512" transform="translate(311.062, 275.043)" >ng=1</text>
<text fill="#666600"  xml:space="preserve" font-size="4.04512" transform="translate(311.062, 278.933)" >l=0.18u</text>
<text fill="#666600"  xml:space="preserve" font-size="4.04512" transform="translate(311.062, 282.822)" >w=0.5u</text>
<text fill="#222222"  xml:space="preserve" font-size="4.04512" transform="translate(382.311, 270.668)" >MP8</text>
<text fill="#ff0000"  xml:space="preserve" font-size="3.03384" transform="translate(397.118, 288.225)" >D</text>
<text fill="#ff0000"  xml:space="preserve" font-size="3.03384" transform="translate(397.118, 271.132)" >S</text>
<text fill="#ff0000"  xml:space="preserve" font-size="3.03384" transform="translate(396.145, 277.528)" >B</text>
<text fill="#ff0000"  xml:space="preserve" font-size="3.03384" transform="translate(381.477, 277.528)" >G</text>
<text fill="#222222"  xml:space="preserve" font-size="4.04512" transform="translate(400.035, 289.851)" >sg13_lv_pmos</text>
<text fill="#666600"  xml:space="preserve" font-size="4.04512" transform="translate(400.521, 272.126)" >m=1</text>
<text fill="#666600"  xml:space="preserve" font-size="4.04512" transform="translate(400.521, 275.043)" >ng=1</text>
<text fill="#666600"  xml:space="preserve" font-size="4.04512" transform="translate(400.521, 278.933)" >l=0.18u</text>
<text fill="#666600"  xml:space="preserve" font-size="4.04512" transform="translate(400.521, 282.822)" >w=0.5u</text>
<text fill="#222222"  xml:space="preserve" font-size="4.04512" transform="translate(464.212, 297.894)" >MP9</text>
<text fill="#ff0000"  xml:space="preserve" font-size="3.03384" transform="translate(454.406, 315.451)" >D</text>
<text fill="#ff0000"  xml:space="preserve" font-size="3.03384" transform="translate(455.406, 298.358)" >S</text>
<text fill="#ff0000"  xml:space="preserve" font-size="3.03384" transform="translate(456.378, 304.755)" >B</text>
<text fill="#ff0000"  xml:space="preserve" font-size="3.03384" transform="translate(470.047, 304.755)" >G</text>
<text fill="#222222"  xml:space="preserve" font-size="4.04512" transform="translate(425.488, 317.078)" >sg13_lv_pmos</text>
<text fill="#666600"  xml:space="preserve" font-size="4.04512" transform="translate(444.002, 299.353)" >m=1</text>
<text fill="#666600"  xml:space="preserve" font-size="4.04512" transform="translate(442.002, 302.27)" >ng=1</text>
<text fill="#666600"  xml:space="preserve" font-size="4.04512" transform="translate(437.002, 306.16)" >l=0.18u</text>
<text fill="#666600"  xml:space="preserve" font-size="4.04512" transform="translate(442.002, 310.049)" >w=2u</text>
<text fill="#222222"  xml:space="preserve" font-size="4.04512" transform="translate(554.34, 297.894)" >MP10</text>
<text fill="#ff0000"  xml:space="preserve" font-size="3.03384" transform="translate(572.147, 315.451)" >D</text>
<text fill="#ff0000"  xml:space="preserve" font-size="3.03384" transform="translate(572.147, 298.358)" >S</text>
<text fill="#ff0000"  xml:space="preserve" font-size="3.03384" transform="translate(571.175, 304.755)" >B</text>
<text fill="#ff0000"  xml:space="preserve" font-size="3.03384" transform="translate(556.506, 304.755)" >G</text>
<text fill="#222222"  xml:space="preserve" font-size="4.04512" transform="translate(575.064, 317.078)" >sg13_lv_pmos</text>
<text fill="#666600"  xml:space="preserve" font-size="4.04512" transform="translate(575.55, 299.353)" >m=1</text>
<text fill="#666600"  xml:space="preserve" font-size="4.04512" transform="translate(575.55, 302.27)" >ng=1</text>
<text fill="#666600"  xml:space="preserve" font-size="4.04512" transform="translate(575.55, 306.16)" >l=0.18u</text>
<text fill="#666600"  xml:space="preserve" font-size="4.04512" transform="translate(575.55, 310.049)" >w=2u</text>
<text fill="#222222"  xml:space="preserve" font-size="4.04512" transform="translate(666.468, 270.668)" >MP11</text>
<text fill="#ff0000"  xml:space="preserve" font-size="3.03384" transform="translate(656.662, 288.225)" >D</text>
<text fill="#ff0000"  xml:space="preserve" font-size="3.03384" transform="translate(657.662, 271.132)" >S</text>
<text fill="#ff0000"  xml:space="preserve" font-size="3.03384" transform="translate(658.634, 277.528)" >B</text>
<text fill="#ff0000"  xml:space="preserve" font-size="3.03384" transform="translate(672.303, 277.528)" >G</text>
<text fill="#222222"  xml:space="preserve" font-size="4.04512" transform="translate(627.744, 289.851)" >sg13_lv_pmos</text>
<text fill="#666600"  xml:space="preserve" font-size="4.04512" transform="translate(646.258, 272.126)" >m=1</text>
<text fill="#666600"  xml:space="preserve" font-size="4.04512" transform="translate(644.258, 275.043)" >ng=1</text>
<text fill="#666600"  xml:space="preserve" font-size="4.04512" transform="translate(639.258, 278.933)" >l=0.18u</text>
<text fill="#666600"  xml:space="preserve" font-size="4.04512" transform="translate(640.258, 282.822)" >w=0.5u</text>
<text fill="#222222"  xml:space="preserve" font-size="4.04512" transform="translate(736.48, 262.889)" >MP12</text>
<text fill="#ff0000"  xml:space="preserve" font-size="3.03384" transform="translate(726.673, 280.446)" >D</text>
<text fill="#ff0000"  xml:space="preserve" font-size="3.03384" transform="translate(727.673, 263.352)" >S</text>
<text fill="#ff0000"  xml:space="preserve" font-size="3.03384" transform="translate(728.646, 269.749)" >B</text>
<text fill="#ff0000"  xml:space="preserve" font-size="3.03384" transform="translate(742.314, 269.749)" >G</text>
<text fill="#222222"  xml:space="preserve" font-size="4.04512" transform="translate(697.756, 282.072)" >sg13_lv_pmos</text>
<text fill="#666600"  xml:space="preserve" font-size="4.04512" transform="translate(716.27, 264.347)" >m=1</text>
<text fill="#666600"  xml:space="preserve" font-size="4.04512" transform="translate(714.27, 267.264)" >ng=1</text>
<text fill="#666600"  xml:space="preserve" font-size="4.04512" transform="translate(709.27, 271.154)" >l=0.15u</text>
<text fill="#666600"  xml:space="preserve" font-size="4.04512" transform="translate(710.27, 275.043)" >w=0.5u</text>
<text fill="#222222"  xml:space="preserve" font-size="4.04512" transform="translate(556.34, 375.685)" >MN6</text>
<text fill="#ff0000"  xml:space="preserve" font-size="3.03384" transform="translate(572.147, 393.242)" >D</text>
<text fill="#ff0000"  xml:space="preserve" font-size="3.03384" transform="translate(572.147, 376.149)" >S</text>
<text fill="#ff0000"  xml:space="preserve" font-size="3.03384" transform="translate(571.175, 382.546)" >B</text>
<text fill="#ff0000"  xml:space="preserve" font-size="3.03384" transform="translate(556.506, 382.546)" >G</text>
<text fill="#222222"  xml:space="preserve" font-size="4.04512" transform="translate(575.064, 394.869)" >sg13_lv_nmos</text>
<text fill="#666600"  xml:space="preserve" font-size="4.04512" transform="translate(575.55, 377.144)" >m=1</text>
<text fill="#666600"  xml:space="preserve" font-size="4.04512" transform="translate(575.55, 380.061)" >ng=1</text>
<text fill="#666600"  xml:space="preserve" font-size="4.04512" transform="translate(575.55, 383.95)" >l=0.18u</text>
<text fill="#666600"  xml:space="preserve" font-size="4.04512" transform="translate(575.55, 387.84)" >w=1u</text>
<text fill="#222222"  xml:space="preserve" font-size="4.04512" transform="translate(443.544, 434.028)" >MN7</text>
<text fill="#ff0000"  xml:space="preserve" font-size="3.03384" transform="translate(459.35, 451.585)" >D</text>
<text fill="#ff0000"  xml:space="preserve" font-size="3.03384" transform="translate(459.35, 434.492)" >S</text>
<text fill="#ff0000"  xml:space="preserve" font-size="3.03384" transform="translate(458.378, 440.889)" >B</text>
<text fill="#ff0000"  xml:space="preserve" font-size="3.03384" transform="translate(443.709, 440.889)" >G</text>
<text fill="#222222"  xml:space="preserve" font-size="4.04512" transform="translate(462.267, 453.212)" >sg13_lv_nmos</text>
<text fill="#666600"  xml:space="preserve" font-size="4.04512" transform="translate(462.754, 435.487)" >m=1</text>
<text fill="#666600"  xml:space="preserve" font-size="4.04512" transform="translate(462.754, 438.404)" >ng=1</text>
<text fill="#666600"  xml:space="preserve" font-size="4.04512" transform="translate(462.754, 442.294)" >l=0.18u</text>
<text fill="#666600"  xml:space="preserve" font-size="4.04512" transform="translate(462.754, 446.183)" >w=2u</text>
<text fill="#222222"  xml:space="preserve" font-size="4.04512" transform="translate(577.009, 434.028)" >MN8</text>
<text fill="#ff0000"  xml:space="preserve" font-size="3.03384" transform="translate(567.202, 451.585)" >D</text>
<text fill="#ff0000"  xml:space="preserve" font-size="3.03384" transform="translate(568.202, 434.492)" >S</text>
<text fill="#ff0000"  xml:space="preserve" font-size="3.03384" transform="translate(569.175, 440.889)" >B</text>
<text fill="#ff0000"  xml:space="preserve" font-size="3.03384" transform="translate(582.843, 440.889)" >G</text>
<text fill="#222222"  xml:space="preserve" font-size="4.04512" transform="translate(538.285, 453.212)" >sg13_lv_nmos</text>
<text fill="#666600"  xml:space="preserve" font-size="4.04512" transform="translate(556.799, 435.487)" >m=1</text>
<text fill="#666600"  xml:space="preserve" font-size="4.04512" transform="translate(554.799, 438.404)" >ng=1</text>
<text fill="#666600"  xml:space="preserve" font-size="4.04512" transform="translate(549.799, 442.294)" >l=0.18u</text>
<text fill="#666600"  xml:space="preserve" font-size="4.04512" transform="translate(554.799, 446.183)" >w=2u</text>
<text fill="#222222"  xml:space="preserve" font-size="4.04512" transform="translate(500.997, 558.494)" >M7</text>
<text fill="#ff0000"  xml:space="preserve" font-size="3.03384" transform="translate(513.804, 576.051)" >D</text>
<text fill="#ff0000"  xml:space="preserve" font-size="3.03384" transform="translate(513.804, 558.957)" >S</text>
<text fill="#ff0000"  xml:space="preserve" font-size="3.03384" transform="translate(512.831, 565.354)" >B</text>
<text fill="#ff0000"  xml:space="preserve" font-size="3.03384" transform="translate(498.163, 565.354)" >G</text>
<text fill="#222222"  xml:space="preserve" font-size="4.04512" transform="translate(516.721, 577.677)" >sg13_lv_nmos</text>
<text fill="#666600"  xml:space="preserve" font-size="4.04512" transform="translate(517.207, 559.952)" >m=1</text>
<text fill="#666600"  xml:space="preserve" font-size="4.04512" transform="translate(517.207, 562.869)" >ng=1</text>
<text fill="#666600"  xml:space="preserve" font-size="4.04512" transform="translate(517.207, 566.759)" >l=0.18u</text>
<text fill="#666600"  xml:space="preserve" font-size="4.04512" transform="translate(517.207, 570.648)" >w=4u</text>
<text fill="#222222"  xml:space="preserve" font-size="4.04512" transform="translate(81.0927, 208.921)" >VDD1</text>
<text fill="#222222"  xml:space="preserve" font-size="4.04512" transform="translate(81.0927, 218.645)" >{vdd}</text>
<path class="l4" d="M1163.36 378.819L1163.36 396.322"/>
<path class="l4" d="M1158.49 375.902L1158.49 380.764"/>
<path class="l4" d="M1158.49 394.377L1158.49 399.239"/>
<path class="l4" d="M1165.3 381.736L1165.3 393.405"/>
<path class="l4" d="M1158.49 394.377L1163.36 394.377"/>
<path class="l4" d="M1158.49 380.764L1163.36 380.764"/>
<path class="l4" d="M1165.5 387.57L1174.05 387.57"/>
<path class="l4" d="M1161.41 381.736L1159.47 380.764L1161.41 379.791L1161.41 381.736"/>
<path class="l4" d="M1001.94 273.801L1001.94 291.304"/>
<path class="l4" d="M1006.8 270.884L1006.8 275.746"/>
<path class="l4" d="M1006.8 289.36L1006.8 294.221"/>
<path class="l4" d="M999.996 276.719L999.996 288.387"/>
<path class="l4" d="M1001.94 289.36L1006.8 289.36"/>
<path class="l4" d="M1001.94 275.746L1006.8 275.746"/>
<path class="l4" d="M991.245 282.553L999.802 282.553"/>
<path class="l4" d="M1003.89 274.774L1001.94 275.746L1003.89 276.719L1003.89 274.774"/>
<path class="l4" d="M1163.36 301.028L1163.36 318.531"/>
<path class="l4" d="M1158.49 298.111L1158.49 302.973"/>
<path class="l4" d="M1158.49 316.586L1158.49 321.448"/>
<path class="l4" d="M1165.3 303.945L1165.3 315.614"/>
<path class="l4" d="M1158.49 316.586L1163.36 316.586"/>
<path class="l4" d="M1158.49 302.973L1163.36 302.973"/>
<path class="l4" d="M1165.5 309.78L1174.05 309.78"/>
<path class="l4" d="M1161.41 302.001L1163.36 302.973L1161.41 303.945L1161.41 302.001"/>
<path class="l4" d="M1266.43 301.028L1266.43 318.531"/>
<path class="l4" d="M1271.29 298.111L1271.29 302.973"/>
<path class="l4" d="M1271.29 316.586L1271.29 321.448"/>
<path class="l4" d="M1264.48 303.945L1264.48 315.614"/>
<path class="l4" d="M1266.43 316.586L1271.29 316.586"/>
<path class="l4" d="M1266.43 302.973L1271.29 302.973"/>
<path class="l4" d="M1255.73 309.78L1264.29 309.78"/>
<path class="l4" d="M1268.37 302.001L1266.43 302.973L1268.37 303.945L1268.37 302.001"/>
<path class="l4" d="M1435.62 266.022L1435.62 283.525"/>
<path class="l4" d="M1430.76 263.105L1430.76 267.967"/>
<path class="l4" d="M1430.76 281.58L1430.76 286.442"/>
<path class="l4" d="M1437.57 268.939L1437.57 280.608"/>
<path class="l4" d="M1430.76 281.58L1435.62 281.58"/>
<path class="l4" d="M1430.76 267.967L1435.62 267.967"/>
<path class="l4" d="M1437.76 274.774L1446.32 274.774"/>
<path class="l4" d="M1433.68 266.995L1435.62 267.967L1433.68 268.939L1433.68 266.995"/>
<path class="l4" d="M1266.43 378.819L1266.43 396.322"/>
<path class="l4" d="M1271.29 375.902L1271.29 380.764"/>
<path class="l4" d="M1271.29 394.377L1271.29 399.239"/>
<path class="l4" d="M1264.48 381.736L1264.48 393.405"/>
<path class="l4" d="M1266.43 394.377L1271.29 394.377"/>
<path class="l4" d="M1266.43 380.764L1271.29 380.764"/>
<path class="l4" d="M1255.73 387.57L1264.29 387.57"/>
<path class="l4" d="M1268.37 381.736L1270.32 380.764L1268.37 379.791L1268.37 381.736"/>
<path class="l4" d="M1153.63 437.162L1153.63 454.665"/>
<path class="l4" d="M1158.49 434.245L1158.49 439.107"/>
<path class="l4" d="M1158.49 452.72L1158.49 457.582"/>
<path class="l4" d="M1151.69 440.079L1151.69 451.748"/>
<path class="l4" d="M1153.63 452.72L1158.49 452.72"/>
<path class="l4" d="M1153.63 439.107L1158.49 439.107"/>
<path class="l4" d="M1142.94 445.913L1151.49 445.913"/>
<path class="l4" d="M1155.58 440.079L1157.52 439.107L1155.58 438.134L1155.58 440.079"/>
<path class="l4" d="M1276.15 437.162L1276.15 454.665"/>
<path class="l4" d="M1271.29 434.245L1271.29 439.107"/>
<path class="l4" d="M1271.29 452.72L1271.29 457.582"/>
<path class="l4" d="M1278.1 440.079L1278.1 451.748"/>
<path class="l4" d="M1271.29 452.72L1276.15 452.72"/>
<path class="l4" d="M1271.29 439.107L1276.15 439.107"/>
<path class="l4" d="M1278.29 445.913L1286.85 445.913"/>
<path class="l4" d="M1274.21 440.079L1272.26 439.107L1274.21 438.134L1274.21 440.079"/>
<path class="l4" d="M1216.84 515.925L1216.84 520.787"/>
<path class="l4" d="M1214.89 520.787L1218.78 520.787"/>
<path class="l4" d="M1216.84 522.732L1218.78 520.787"/>
<path class="l4" d="M1214.89 520.787L1216.84 522.732"/>
<path class="l4" d="M26.6391 683.175L53.8659 683.175"/>
<path class="l4" d="M26.6391 683.175L26.6391 690.954"/>
<path class="l4" d="M463.24 374.929L463.24 392.432"/>
<path class="l4" d="M458.378 372.012L458.378 376.874"/>
<path class="l4" d="M458.378 390.488L458.378 395.349"/>
<path class="l4" d="M465.185 377.847L465.185 389.515"/>
<path class="l4" d="M458.378 390.488L463.24 390.488"/>
<path class="l4" d="M458.378 376.874L463.24 376.874"/>
<path class="l4" d="M465.379 383.681L473.936 383.681"/>
<path class="l4" d="M461.295 377.847L459.35 376.874L461.295 375.902L461.295 377.847"/>
<path class="l4" d="M301.824 269.912L301.824 287.415"/>
<path class="l4" d="M306.686 266.995L306.686 271.857"/>
<path class="l4" d="M306.686 285.47L306.686 290.332"/>
<path class="l4" d="M299.879 272.829L299.879 284.498"/>
<path class="l4" d="M301.824 285.47L306.686 285.47"/>
<path class="l4" d="M301.824 271.857L306.686 271.857"/>
<path class="l4" d="M291.128 278.663L299.685 278.663"/>
<path class="l4" d="M303.769 270.884L301.824 271.857L303.769 272.829L303.769 270.884"/>
<path class="l4" d="M391.283 269.912L391.283 287.415"/>
<path class="l4" d="M396.145 266.995L396.145 271.857"/>
<path class="l4" d="M396.145 285.47L396.145 290.332"/>
<path class="l4" d="M389.339 272.829L389.339 284.498"/>
<path class="l4" d="M391.283 285.47L396.145 285.47"/>
<path class="l4" d="M391.283 271.857L396.145 271.857"/>
<path class="l4" d="M380.587 278.663L389.144 278.663"/>
<path class="l4" d="M393.228 270.884L391.283 271.857L393.228 272.829L393.228 270.884"/>
<path class="l4" d="M463.24 297.139L463.24 314.642"/>
<path class="l4" d="M458.378 294.221L458.378 299.083"/>
<path class="l4" d="M458.378 312.697L458.378 317.559"/>
<path class="l4" d="M465.185 300.056L465.185 311.724"/>
<path class="l4" d="M458.378 312.697L463.24 312.697"/>
<path class="l4" d="M458.378 299.083L463.24 299.083"/>
<path class="l4" d="M465.379 305.89L473.936 305.89"/>
<path class="l4" d="M461.295 298.111L463.24 299.083L461.295 300.056L461.295 298.111"/>
<path class="l4" d="M566.313 297.139L566.313 314.642"/>
<path class="l4" d="M571.175 294.221L571.175 299.083"/>
<path class="l4" d="M571.175 312.697L571.175 317.559"/>
<path class="l4" d="M564.368 300.056L564.368 311.724"/>
<path class="l4" d="M566.313 312.697L571.175 312.697"/>
<path class="l4" d="M566.313 299.083L571.175 299.083"/>
<path class="l4" d="M555.616 305.89L564.173 305.89"/>
<path class="l4" d="M568.257 298.111L566.313 299.083L568.257 300.056L568.257 298.111"/>
<path class="l4" d="M665.496 269.912L665.496 287.415"/>
<path class="l4" d="M660.634 266.995L660.634 271.857"/>
<path class="l4" d="M660.634 285.47L660.634 290.332"/>
<path class="l4" d="M667.441 272.829L667.441 284.498"/>
<path class="l4" d="M660.634 285.47L665.496 285.47"/>
<path class="l4" d="M660.634 271.857L665.496 271.857"/>
<path class="l4" d="M667.635 278.663L676.192 278.663"/>
<path class="l4" d="M663.551 270.884L665.496 271.857L663.551 272.829L663.551 270.884"/>
<path class="l4" d="M735.508 262.133L735.508 279.636"/>
<path class="l4" d="M730.646 259.216L730.646 264.078"/>
<path class="l4" d="M730.646 277.691L730.646 282.553"/>
<path class="l4" d="M737.452 265.05L737.452 276.719"/>
<path class="l4" d="M730.646 277.691L735.508 277.691"/>
<path class="l4" d="M730.646 264.078L735.508 264.078"/>
<path class="l4" d="M737.647 270.884L746.204 270.884"/>
<path class="l4" d="M733.563 263.105L735.508 264.078L733.563 265.05L733.563 263.105"/>
<path class="l4" d="M566.313 374.929L566.313 392.432"/>
<path class="l4" d="M571.175 372.012L571.175 376.874"/>
<path class="l4" d="M571.175 390.488L571.175 395.349"/>
<path class="l4" d="M564.368 377.847L564.368 389.515"/>
<path class="l4" d="M566.313 390.488L571.175 390.488"/>
<path class="l4" d="M566.313 376.874L571.175 376.874"/>
<path class="l4" d="M555.616 383.681L564.173 383.681"/>
<path class="l4" d="M568.257 377.847L570.202 376.874L568.257 375.902L568.257 377.847"/>
<path class="l4" d="M453.516 433.272L453.516 450.775"/>
<path class="l4" d="M458.378 430.355L458.378 435.217"/>
<path class="l4" d="M458.378 448.831L458.378 453.693"/>
<path class="l4" d="M451.571 436.19L451.571 447.858"/>
<path class="l4" d="M453.516 448.831L458.378 448.831"/>
<path class="l4" d="M453.516 435.217L458.378 435.217"/>
<path class="l4" d="M442.82 442.024L451.377 442.024"/>
<path class="l4" d="M455.461 436.19L457.406 435.217L455.461 434.245L455.461 436.19"/>
<path class="l4" d="M576.036 433.272L576.036 450.775"/>
<path class="l4" d="M571.175 430.355L571.175 435.217"/>
<path class="l4" d="M571.175 448.831L571.175 453.693"/>
<path class="l4" d="M577.981 436.19L577.981 447.858"/>
<path class="l4" d="M571.175 448.831L576.036 448.831"/>
<path class="l4" d="M571.175 435.217L576.036 435.217"/>
<path class="l4" d="M578.176 442.024L586.733 442.024"/>
<path class="l4" d="M574.092 436.19L572.147 435.217L574.092 434.245L574.092 436.19"/>
<path class="l4" d="M507.97 557.738L507.97 575.241"/>
<path class="l4" d="M512.831 554.821L512.831 559.682"/>
<path class="l4" d="M512.831 573.296L512.831 578.158"/>
<path class="l4" d="M506.025 560.655L506.025 572.323"/>
<path class="l4" d="M507.97 573.296L512.831 573.296"/>
<path class="l4" d="M507.97 559.682L512.831 559.682"/>
<path class="l4" d="M497.273 566.489L505.83 566.489"/>
<path class="l4" d="M509.914 560.655L511.859 559.682L509.914 558.71L509.914 560.655"/>
<path class="l4" d="M74.286 203.79L76.2307 203.79"/>
<path class="l4" d="M75.2584 202.817L75.2584 204.762"/>
<path class="l4" d="M73.3136 200.873L73.3136 224.21"/>
<circle class="l4" cx="73.3136" cy="212.541" r="5.83431" style="fill:none;" />
<path class="l4" d="M73.3136 224.21L73.3136 229.072"/>
<path class="l4" d="M71.3688 229.072L75.2584 229.072"/>
<path class="l4" d="M73.3136 231.016L75.2584 229.072"/>
<path class="l4" d="M71.3688 229.072L73.3136 231.016"/>
<path class="l4" d="M450.599 597.605L450.599 602.467"/>
<path class="l4" d="M448.654 602.467L452.544 602.467"/>
<path class="l4" d="M450.599 604.412L452.544 602.467"/>
<path class="l4" d="M448.654 602.467L450.599 604.412"/>
<path class="l5" d="M1160.44 386.598L1158.49 387.57L1160.44 388.543L1160.44 386.598"/>
<path class="l5" d="M1157.52 398.267L1159.47 398.267L1159.47 400.211L1157.52 400.211L1157.52 398.267z"/>
<path class="l5" d="M1173.08 386.598L1175.03 386.598L1175.03 388.543L1173.08 388.543L1173.08 386.598z"/>
<path class="l5" d="M1157.52 374.929L1159.47 374.929L1159.47 376.874L1157.52 376.874L1157.52 374.929z"/>
<path class="l5" d="M1158.46 387.54L1158.53 387.54L1158.53 387.601L1158.46 387.601L1158.46 387.54z"/>
<path class="l5" d="M1004.86 281.58L1006.8 282.553L1004.86 283.525L1004.86 281.58"/>
<path class="l5" d="M1005.83 293.249L1007.78 293.249L1007.78 295.194L1005.83 295.194L1005.83 293.249z"/>
<path class="l5" d="M990.272 281.58L992.217 281.58L992.217 283.525L990.272 283.525L990.272 281.58z"/>
<path class="l5" d="M1005.83 269.912L1007.78 269.912L1007.78 271.857L1005.83 271.857L1005.83 269.912z"/>
<path class="l5" d="M1006.77 282.522L1006.83 282.522L1006.83 282.583L1006.77 282.583L1006.77 282.522z"/>
<path class="l5" d="M1160.44 308.807L1158.49 309.78L1160.44 310.752L1160.44 308.807"/>
<path class="l5" d="M1157.52 320.476L1159.47 320.476L1159.47 322.421L1157.52 322.421L1157.52 320.476z"/>
<path class="l5" d="M1173.08 308.807L1175.03 308.807L1175.03 310.752L1173.08 310.752L1173.08 308.807z"/>
<path class="l5" d="M1157.52 297.139L1159.47 297.139L1159.47 299.083L1157.52 299.083L1157.52 297.139z"/>
<path class="l5" d="M1158.46 309.749L1158.53 309.749L1158.53 309.81L1158.46 309.81L1158.46 309.749z"/>
<path class="l5" d="M1269.35 308.807L1271.29 309.78L1269.35 310.752L1269.35 308.807"/>
<path class="l5" d="M1270.32 320.476L1272.26 320.476L1272.26 322.421L1270.32 322.421L1270.32 320.476z"/>
<path class="l5" d="M1254.76 308.807L1256.71 308.807L1256.71 310.752L1254.76 310.752L1254.76 308.807z"/>
<path class="l5" d="M1270.32 297.139L1272.26 297.139L1272.26 299.083L1270.32 299.083L1270.32 297.139z"/>
<path class="l5" d="M1271.26 309.749L1271.32 309.749L1271.32 309.81L1271.26 309.81L1271.26 309.749z"/>
<path class="l5" d="M1432.71 273.801L1430.76 274.774L1432.71 275.746L1432.71 273.801"/>
<path class="l5" d="M1429.79 285.47L1431.73 285.47L1431.73 287.415L1429.79 287.415L1429.79 285.47z"/>
<path class="l5" d="M1445.35 273.801L1447.29 273.801L1447.29 275.746L1445.35 275.746L1445.35 273.801z"/>
<path class="l5" d="M1429.79 262.133L1431.73 262.133L1431.73 264.078L1429.79 264.078L1429.79 262.133z"/>
<path class="l5" d="M1430.73 274.743L1430.79 274.743L1430.79 274.804L1430.73 274.804L1430.73 274.743z"/>
<path class="l5" d="M1269.35 386.598L1271.29 387.57L1269.35 388.543L1269.35 386.598"/>
<path class="l5" d="M1270.32 398.267L1272.26 398.267L1272.26 400.211L1270.32 400.211L1270.32 398.267z"/>
<path class="l5" d="M1254.76 386.598L1256.71 386.598L1256.71 388.543L1254.76 388.543L1254.76 386.598z"/>
<path class="l5" d="M1270.32 374.929L1272.26 374.929L1272.26 376.874L1270.32 376.874L1270.32 374.929z"/>
<path class="l5" d="M1271.26 387.54L1271.32 387.54L1271.32 387.601L1271.26 387.601L1271.26 387.54z"/>
<path class="l5" d="M1156.55 444.941L1158.49 445.913L1156.55 446.886L1156.55 444.941"/>
<path class="l5" d="M1157.52 456.61L1159.47 456.61L1159.47 458.554L1157.52 458.554L1157.52 456.61z"/>
<path class="l5" d="M1141.96 444.941L1143.91 444.941L1143.91 446.886L1141.96 446.886L1141.96 444.941z"/>
<path class="l5" d="M1157.52 433.272L1159.47 433.272L1159.47 435.217L1157.52 435.217L1157.52 433.272z"/>
<path class="l5" d="M1158.46 445.883L1158.53 445.883L1158.53 445.944L1158.46 445.944L1158.46 445.883z"/>
<path class="l5" d="M1273.24 444.941L1271.29 445.913L1273.24 446.886L1273.24 444.941"/>
<path class="l5" d="M1270.32 456.61L1272.26 456.61L1272.26 458.554L1270.32 458.554L1270.32 456.61z"/>
<path class="l5" d="M1285.88 444.941L1287.82 444.941L1287.82 446.886L1285.88 446.886L1285.88 444.941z"/>
<path class="l5" d="M1270.32 433.272L1272.26 433.272L1272.26 435.217L1270.32 435.217L1270.32 433.272z"/>
<path class="l5" d="M1271.26 445.883L1271.32 445.883L1271.32 445.944L1271.26 445.944L1271.26 445.883z"/>
<path class="l5" d="M1235.8 445.427L1236.77 445.427L1236.77 446.4L1235.8 446.4L1235.8 445.427z"/>
<path class="l5" d="M1196.9 445.427L1197.88 445.427L1197.88 446.4L1196.9 446.4L1196.9 445.427z"/>
<path class="l5" d="M1336.93 387.084L1337.9 387.084L1337.9 388.057L1336.93 388.057L1336.93 387.084z"/>
<path class="l5" d="M1072.44 387.084L1073.41 387.084L1073.41 388.057L1072.44 388.057L1072.44 387.084z"/>
<path class="l5" d="M1524.11 356.454L1527.51 356.454"/>
<path class="l5" d="M1530.92 356.454L1529.46 354.509L1526.06 354.509L1527.51 356.454L1526.06 358.399L1529.46 358.399L1530.92 356.454"/>
<path class="l5" d="M1523.63 355.968L1524.6 355.968L1524.6 356.94L1523.63 356.94L1523.63 355.968z"/>
<path class="l5" d="M1215.87 514.953L1217.81 514.953L1217.81 516.898L1215.87 516.898L1215.87 514.953z"/>
<path class="l5" d="M460.323 382.708L458.378 383.681L460.323 384.653L460.323 382.708"/>
<path class="l5" d="M457.406 394.377L459.35 394.377L459.35 396.322L457.406 396.322L457.406 394.377z"/>
<path class="l5" d="M472.964 382.708L474.908 382.708L474.908 384.653L472.964 384.653L472.964 382.708z"/>
<path class="l5" d="M457.406 371.04L459.35 371.04L459.35 372.985L457.406 372.985L457.406 371.04z"/>
<path class="l5" d="M458.348 383.65L458.408 383.65L458.408 383.711L458.348 383.711L458.348 383.65z"/>
<path class="l5" d="M304.741 277.691L306.686 278.663L304.741 279.636L304.741 277.691"/>
<path class="l5" d="M305.714 289.36L307.658 289.36L307.658 291.304L305.714 291.304L305.714 289.36z"/>
<path class="l5" d="M290.155 277.691L292.1 277.691L292.1 279.636L290.155 279.636L290.155 277.691z"/>
<path class="l5" d="M305.714 266.022L307.658 266.022L307.658 267.967L305.714 267.967L305.714 266.022z"/>
<path class="l5" d="M306.656 278.633L306.716 278.633L306.716 278.694L306.656 278.694L306.656 278.633z"/>
<path class="l5" d="M394.201 277.691L396.145 278.663L394.201 279.636L394.201 277.691"/>
<path class="l5" d="M395.173 289.36L397.118 289.36L397.118 291.304L395.173 291.304L395.173 289.36z"/>
<path class="l5" d="M379.615 277.691L381.56 277.691L381.56 279.636L379.615 279.636L379.615 277.691z"/>
<path class="l5" d="M395.173 266.022L397.118 266.022L397.118 267.967L395.173 267.967L395.173 266.022z"/>
<path class="l5" d="M396.115 278.633L396.176 278.633L396.176 278.694L396.115 278.694L396.115 278.633z"/>
<path class="l5" d="M460.323 304.918L458.378 305.89L460.323 306.862L460.323 304.918"/>
<path class="l5" d="M457.406 316.586L459.35 316.586L459.35 318.531L457.406 318.531L457.406 316.586z"/>
<path class="l5" d="M472.964 304.918L474.908 304.918L474.908 306.862L472.964 306.862L472.964 304.918z"/>
<path class="l5" d="M457.406 293.249L459.35 293.249L459.35 295.194L457.406 295.194L457.406 293.249z"/>
<path class="l5" d="M458.348 305.86L458.408 305.86L458.408 305.92L458.348 305.92L458.348 305.86z"/>
<path class="l5" d="M569.23 304.918L571.175 305.89L569.23 306.862L569.23 304.918"/>
<path class="l5" d="M570.202 316.586L572.147 316.586L572.147 318.531L570.202 318.531L570.202 316.586z"/>
<path class="l5" d="M554.644 304.918L556.589 304.918L556.589 306.862L554.644 306.862L554.644 304.918z"/>
<path class="l5" d="M570.202 293.249L572.147 293.249L572.147 295.194L570.202 295.194L570.202 293.249z"/>
<path class="l5" d="M571.144 305.86L571.205 305.86L571.205 305.92L571.144 305.92L571.144 305.86z"/>
<path class="l5" d="M662.579 277.691L660.634 278.663L662.579 279.636L662.579 277.691"/>
<path class="l5" d="M659.662 289.36L661.606 289.36L661.606 291.304L659.662 291.304L659.662 289.36z"/>
<path class="l5" d="M675.22 277.691L677.164 277.691L677.164 279.636L675.22 279.636L675.22 277.691z"/>
<path class="l5" d="M659.662 266.022L661.606 266.022L661.606 267.967L659.662 267.967L659.662 266.022z"/>
<path class="l5" d="M660.604 278.633L660.664 278.633L660.664 278.694L660.604 278.694L660.604 278.633z"/>
<path class="l5" d="M732.59 269.912L730.646 270.884L732.59 271.857L732.59 269.912"/>
<path class="l5" d="M729.673 281.58L731.618 281.58L731.618 283.525L729.673 283.525L729.673 281.58z"/>
<path class="l5" d="M745.231 269.912L747.176 269.912L747.176 271.857L745.231 271.857L745.231 269.912z"/>
<path class="l5" d="M729.673 258.243L731.618 258.243L731.618 260.188L729.673 260.188L729.673 258.243z"/>
<path class="l5" d="M730.615 270.854L730.676 270.854L730.676 270.915L730.615 270.915L730.615 270.854z"/>
<path class="l5" d="M569.23 382.708L571.175 383.681L569.23 384.653L569.23 382.708"/>
<path class="l5" d="M570.202 394.377L572.147 394.377L572.147 396.322L570.202 396.322L570.202 394.377z"/>
<path class="l5" d="M554.644 382.708L556.589 382.708L556.589 384.653L554.644 384.653L554.644 382.708z"/>
<path class="l5" d="M570.202 371.04L572.147 371.04L572.147 372.985L570.202 372.985L570.202 371.04z"/>
<path class="l5" d="M571.144 383.65L571.205 383.65L571.205 383.711L571.144 383.711L571.144 383.65z"/>
<path class="l5" d="M456.433 441.052L458.378 442.024L456.433 442.996L456.433 441.052"/>
<path class="l5" d="M457.406 452.72L459.35 452.72L459.35 454.665L457.406 454.665L457.406 452.72z"/>
<path class="l5" d="M441.847 441.052L443.792 441.052L443.792 442.996L441.847 442.996L441.847 441.052z"/>
<path class="l5" d="M457.406 429.383L459.35 429.383L459.35 431.328L457.406 431.328L457.406 429.383z"/>
<path class="l5" d="M458.348 441.994L458.408 441.994L458.408 442.054L458.348 442.054L458.348 441.994z"/>
<path class="l5" d="M573.119 441.052L571.175 442.024L573.119 442.996L573.119 441.052"/>
<path class="l5" d="M570.202 452.72L572.147 452.72L572.147 454.665L570.202 454.665L570.202 452.72z"/>
<path class="l5" d="M585.76 441.052L587.705 441.052L587.705 442.996L585.76 442.996L585.76 441.052z"/>
<path class="l5" d="M570.202 429.383L572.147 429.383L572.147 431.328L570.202 431.328L570.202 429.383z"/>
<path class="l5" d="M571.144 441.994L571.205 441.994L571.205 442.054L571.144 442.054L571.144 441.994z"/>
<path class="l5" d="M510.887 565.517L512.831 566.489L510.887 567.462L510.887 565.517"/>
<path class="l5" d="M511.859 577.185L513.804 577.185L513.804 579.13L511.859 579.13L511.859 577.185z"/>
<path class="l5" d="M496.301 565.517L498.246 565.517L498.246 567.462L496.301 567.462L496.301 565.517z"/>
<path class="l5" d="M511.859 553.848L513.804 553.848L513.804 555.793L511.859 555.793L511.859 553.848z"/>
<path class="l5" d="M512.801 566.459L512.862 566.459L512.862 566.52L512.801 566.52L512.801 566.459z"/>
<path class="l5" d="M417.538 442.024L419.483 442.024"/>
<path class="l5" d="M417.538 442.024L416.079 440.079L412.676 440.079L414.134 442.024L412.676 443.969L416.079 443.969L417.538 442.024"/>
<path class="l5" d="M418.996 441.538L419.969 441.538L419.969 442.51L418.996 442.51L418.996 441.538z"/>
<path class="l5" d="M633.407 442.024L635.352 442.024"/>
<path class="l5" d="M635.352 442.024L636.811 440.079L640.214 440.079L638.755 442.024L640.214 443.969L636.811 443.969L635.352 442.024"/>
<path class="l5" d="M632.921 441.538L633.893 441.538L633.893 442.51L632.921 442.51L632.921 441.538z"/>
<path class="l5" d="M172.497 204.762L174.442 204.762"/>
<path class="l5" d="M172.497 204.762L171.038 202.817L167.635 202.817L169.093 204.762L167.635 206.707L171.038 206.707L172.497 204.762"/>
<path class="l5" d="M173.955 204.276L174.928 204.276L174.928 205.248L173.955 205.248L173.955 204.276z"/>
<path class="l5" d="M535.682 441.538L536.655 441.538L536.655 442.51L535.682 442.51L535.682 441.538z"/>
<path class="l5" d="M496.787 441.538L497.759 441.538L497.759 442.51L496.787 442.51L496.787 441.538z"/>
<path class="l5" d="M636.811 383.195L637.783 383.195L637.783 384.167L636.811 384.167L636.811 383.195z"/>
<path class="l5" d="M372.322 383.195L373.294 383.195L373.294 384.167L372.322 384.167L372.322 383.195z"/>
<path class="l5" d="M72.3412 199.9L74.286 199.9L74.286 201.845L72.3412 201.845L72.3412 199.9z"/>
<path class="l5" d="M72.3412 223.237L74.286 223.237L74.286 225.182L72.3412 225.182L72.3412 223.237z"/>
<path class="l5" d="M1629.13 313.669L1632.53 313.669"/>
<path class="l5" d="M1635.94 313.669L1634.48 311.724L1631.07 311.724L1632.53 313.669L1631.07 315.614L1634.48 315.614L1635.94 313.669"/>
<path class="l5" d="M1628.64 313.183L1629.62 313.183L1629.62 314.155L1628.64 314.155L1628.64 313.183z"/>
<path class="l5" d="M72.3412 223.237L74.286 223.237L74.286 225.182L72.3412 225.182L72.3412 223.237z"/>
<path class="l5" d="M449.626 596.633L451.571 596.633L451.571 598.578L449.626 598.578L449.626 596.633z"/>
<path class="l1" d="M1158.49 348.675L1158.49 375.902"/>
<path class="l1" d="M1271.29 356.454L1271.29 375.902"/>
<path class="l1" d="M1158.49 457.582L1158.49 515.925"/>
<path class="l1" d="M1271.29 457.582L1271.29 515.925"/>
<path class="l1" d="M1174.05 309.78L1193.5 309.78"/>
<path class="l1" d="M1193.5 356.454L1193.5 387.57"/>
<path class="l1" d="M1174.05 387.57L1193.5 387.57"/>
<path class="l1" d="M1240.18 309.78L1255.73 309.78"/>
<path class="l1" d="M1240.18 348.675L1240.18 387.57"/>
<path class="l1" d="M1240.18 387.57L1255.73 387.57"/>
<path class="l1" d="M1158.49 321.448L1158.49 348.675"/>
<path class="l1" d="M1240.18 309.78L1240.18 348.675"/>
<path class="l1" d="M1271.29 321.448L1271.29 356.454"/>
<path class="l1" d="M1193.5 356.454L1271.29 356.454"/>
<path class="l1" d="M1193.5 309.78L1193.5 356.454"/>
<path class="l1" d="M1158.49 515.925L1271.29 515.925"/>
<path class="l1" d="M1286.85 445.913L1430.76 445.913"/>
<path class="l1" d="M1158.49 445.913L1197.39 445.913"/>
<path class="l1" d="M1271.29 387.57L1337.41 387.57"/>
<path class="l1" d="M1072.93 387.57L1158.49 387.57"/>
<path class="l1" d="M1131.27 309.78L1158.49 309.78"/>
<path class="l1" d="M1271.29 309.78L1306.3 309.78"/>
<path class="l1" d="M1006.8 282.553L1037.92 282.553"/>
<path class="l1" d="M1403.54 274.774L1430.76 274.774"/>
<path class="l1" d="M1446.32 274.774L1465.77 274.774"/>
<path class="l1" d="M979.576 282.553L991.245 282.553"/>
<path class="l1" d="M1006.8 185.314L1006.8 270.884"/>
<path class="l1" d="M1037.92 185.314L1037.92 282.553"/>
<path class="l1" d="M1006.8 185.314L1037.92 185.314"/>
<path class="l1" d="M1131.27 185.314L1131.27 309.78"/>
<path class="l1" d="M1158.49 185.314L1158.49 298.111"/>
<path class="l1" d="M1131.27 185.314L1158.49 185.314"/>
<path class="l1" d="M1271.29 185.314L1271.29 298.111"/>
<path class="l1" d="M1158.49 185.314L1271.29 185.314"/>
<path class="l1" d="M1306.3 185.314L1306.3 309.78"/>
<path class="l1" d="M1271.29 185.314L1306.3 185.314"/>
<path class="l1" d="M1306.3 185.314L1403.54 185.314"/>
<path class="l1" d="M1403.54 185.314L1403.54 274.774"/>
<path class="l1" d="M1430.76 185.314L1430.76 263.105"/>
<path class="l1" d="M1006.8 294.221L1006.8 445.913"/>
<path class="l1" d="M1158.49 399.239L1158.49 434.245"/>
<path class="l1" d="M1271.29 399.239L1271.29 434.245"/>
<path class="l1" d="M1236.29 445.913L1271.29 445.913"/>
<path class="l1" d="M1271.29 356.454L1524.11 356.454"/>
<path class="l1" d="M956.239 348.675L1158.49 348.675"/>
<path class="l1" d="M979.576 185.314L1006.8 185.314"/>
<path class="l1" d="M979.576 185.314L979.576 282.553"/>
<path class="l1" d="M1037.92 185.314L1131.27 185.314"/>
<path class="l1" d="M1465.77 185.314L1465.77 274.774"/>
<path class="l1" d="M1430.76 185.314L1465.77 185.314"/>
<path class="l1" d="M1403.54 185.314L1430.76 185.314"/>
<path class="l1" d="M979.576 181.425L979.576 185.314"/>
<path class="l1" d="M458.378 344.785L458.378 372.012"/>
<path class="l1" d="M571.175 352.565L571.175 372.012"/>
<path class="l1" d="M458.378 453.693L458.378 512.036"/>
<path class="l1" d="M571.175 453.693L571.175 512.036"/>
<path class="l1" d="M473.936 305.89L493.384 305.89"/>
<path class="l1" d="M493.384 352.565L493.384 383.681"/>
<path class="l1" d="M473.936 383.681L493.384 383.681"/>
<path class="l1" d="M540.058 305.89L555.616 305.89"/>
<path class="l1" d="M540.058 344.785L540.058 383.681"/>
<path class="l1" d="M540.058 383.681L555.616 383.681"/>
<path class="l1" d="M458.378 317.559L458.378 344.785"/>
<path class="l1" d="M458.378 344.785L540.058 344.785"/>
<path class="l1" d="M540.058 305.89L540.058 344.785"/>
<path class="l1" d="M660.634 290.332L660.634 352.565"/>
<path class="l1" d="M571.175 317.559L571.175 352.565"/>
<path class="l1" d="M493.384 352.565L571.175 352.565"/>
<path class="l1" d="M493.384 305.89L493.384 352.565"/>
<path class="l1" d="M512.831 512.036L512.831 554.821"/>
<path class="l1" d="M458.378 512.036L512.831 512.036"/>
<path class="l1" d="M419.483 442.024L442.82 442.024"/>
<path class="l1" d="M586.733 442.024L633.407 442.024"/>
<path class="l1" d="M361.139 278.663L380.587 278.663"/>
<path class="l1" d="M512.831 578.158L512.831 597.605"/>
<path class="l1" d="M512.831 566.489L547.837 566.489"/>
<path class="l1" d="M547.837 566.489L547.837 597.605"/>
<path class="l1" d="M512.831 597.605L547.837 597.605"/>
<path class="l1" d="M458.378 442.024L497.273 442.024"/>
<path class="l1" d="M450.599 597.605L512.831 597.605"/>
<path class="l1" d="M571.175 383.681L637.297 383.681"/>
<path class="l1" d="M372.808 383.681L458.378 383.681"/>
<path class="l1" d="M431.151 305.89L458.378 305.89"/>
<path class="l1" d="M571.175 305.89L606.18 305.89"/>
<path class="l1" d="M396.145 278.663L423.372 278.663"/>
<path class="l1" d="M306.686 278.663L337.802 278.663"/>
<path class="l1" d="M629.518 278.663L660.634 278.663"/>
<path class="l1" d="M703.419 270.884L730.646 270.884"/>
<path class="l1" d="M687.861 204.762L765.651 204.762"/>
<path class="l1" d="M571.175 407.018L571.175 430.355"/>
<path class="l1" d="M746.204 270.884L765.651 270.884"/>
<path class="l1" d="M765.651 204.762L765.651 270.884"/>
<path class="l1" d="M279.459 278.663L291.128 278.663"/>
<path class="l1" d="M279.459 204.762L279.459 278.663"/>
<path class="l1" d="M458.378 414.797L458.378 430.355"/>
<path class="l1" d="M306.686 181.425L306.686 266.995"/>
<path class="l1" d="M337.802 181.425L337.802 278.663"/>
<path class="l1" d="M306.686 181.425L337.802 181.425"/>
<path class="l1" d="M361.139 204.762L361.139 278.663"/>
<path class="l1" d="M279.459 204.762L361.139 204.762"/>
<path class="l1" d="M396.145 181.425L396.145 266.995"/>
<path class="l1" d="M337.802 181.425L396.145 181.425"/>
<path class="l1" d="M423.372 181.425L423.372 278.663"/>
<path class="l1" d="M396.145 181.425L423.372 181.425"/>
<path class="l1" d="M431.151 181.425L431.151 305.89"/>
<path class="l1" d="M423.372 181.425L431.151 181.425"/>
<path class="l1" d="M458.378 181.425L458.378 294.221"/>
<path class="l1" d="M431.151 181.425L458.378 181.425"/>
<path class="l1" d="M571.175 181.425L571.175 294.221"/>
<path class="l1" d="M458.378 181.425L571.175 181.425"/>
<path class="l1" d="M606.18 181.425L606.18 305.89"/>
<path class="l1" d="M571.175 181.425L606.18 181.425"/>
<path class="l1" d="M629.518 181.425L629.518 278.663"/>
<path class="l1" d="M606.18 181.425L629.518 181.425"/>
<path class="l1" d="M660.634 181.425L660.634 266.995"/>
<path class="l1" d="M629.518 181.425L660.634 181.425"/>
<path class="l1" d="M703.419 181.425L703.419 270.884"/>
<path class="l1" d="M660.634 181.425L703.419 181.425"/>
<path class="l1" d="M730.646 181.425L730.646 259.216"/>
<path class="l1" d="M703.419 181.425L730.646 181.425"/>
<path class="l1" d="M676.192 278.663L687.861 278.663"/>
<path class="l1" d="M687.861 204.762L687.861 278.663"/>
<path class="l1" d="M361.139 204.762L687.861 204.762"/>
<path class="l1" d="M306.686 290.332L306.686 414.797"/>
<path class="l1" d="M306.686 414.797L458.378 414.797"/>
<path class="l1" d="M458.378 395.349L458.378 414.797"/>
<path class="l1" d="M730.646 282.553L730.646 407.018"/>
<path class="l1" d="M571.175 407.018L730.646 407.018"/>
<path class="l1" d="M571.175 395.349L571.175 407.018"/>
<path class="l1" d="M263.901 204.762L279.459 204.762"/>
<path class="l1" d="M263.901 566.489L497.273 566.489"/>
<path class="l1" d="M263.901 204.762L263.901 566.489"/>
<path class="l1" d="M174.442 204.762L263.901 204.762"/>
<path class="l1" d="M536.169 442.024L571.175 442.024"/>
<path class="l1" d="M396.145 344.785L458.378 344.785"/>
<path class="l1" d="M396.145 290.332L396.145 344.785"/>
<path class="l1" d="M660.634 352.565L823.995 352.565"/>
<path class="l1" d="M571.175 352.565L660.634 352.565"/>
<path class="l1" d="M73.3136 181.425L73.3136 200.873"/>
<path class="l1" d="M73.3136 181.425L306.686 181.425"/>
<path class="l1" d="M823.995 352.565L823.995 368.123"/>
<path class="l1" d="M823.995 368.123L1185.72 368.123"/>
<path class="l1" d="M1185.72 356.454L1185.72 368.123"/>
<path class="l1" d="M1185.72 356.454L1193.5 356.454"/>
<path class="l1" d="M730.646 181.425L979.576 181.425"/>
<path class="l1" d="M26.6391 344.785L396.145 344.785"/>
<path class="l1" d="M26.6391 344.785L26.6391 655.949"/>
<path class="l1" d="M26.6391 655.949L956.239 655.949"/>
<path class="l1" d="M956.239 348.675L956.239 655.949"/>
<path class="l1" d="M1158.49 348.675L1240.18 348.675"/>
<path class="l1" d="M1465.77 313.669L1629.13 313.669"/>
<path class="l1" d="M1465.77 313.669L1465.77 348.675"/>
<path class="l1" d="M1240.18 348.675L1465.77 348.675"/>
<path class="l1" d="M1006.8 445.913L1142.94 445.913"/>
<path class="l1" d="M1430.76 286.442L1430.76 445.913"/>
<path class="l1" d="M512.831 512.036L571.175 512.036"/>
<circle class="l1" cx="396.145" cy="344.785" r="1.43913"/>
<circle class="l1" cx="306.686" cy="181.425" r="1.43913"/>
<circle class="l1" cx="263.901" cy="204.762" r="1.43913"/>
<circle class="l1" cx="263.901" cy="204.762" r="1.43913"/>
<circle class="l1" cx="263.901" cy="204.762" r="1.43913"/>
<circle class="l1" cx="279.459" cy="204.762" r="1.43913"/>
<circle class="l1" cx="337.802" cy="181.425" r="1.43913"/>
<circle class="l1" cx="396.145" cy="181.425" r="1.43913"/>
<circle class="l1" cx="279.459" cy="204.762" r="1.43913"/>
<circle class="l1" cx="361.139" cy="204.762" r="1.43913"/>
<circle class="l1" cx="306.686" cy="181.425" r="1.43913"/>
<circle class="l1" cx="337.802" cy="181.425" r="1.43913"/>
<circle class="l1" cx="337.802" cy="181.425" r="1.43913"/>
<circle class="l1" cx="306.686" cy="181.425" r="1.43913"/>
<circle class="l1" cx="279.459" cy="204.762" r="1.43913"/>
<circle class="l1" cx="458.378" cy="414.797" r="1.43913"/>
<circle class="l1" cx="361.139" cy="204.762" r="1.43913"/>
<circle class="l1" cx="687.861" cy="204.762" r="1.43913"/>
<circle class="l1" cx="458.378" cy="181.425" r="1.43913"/>
<circle class="l1" cx="571.175" cy="181.425" r="1.43913"/>
<circle class="l1" cx="431.151" cy="181.425" r="1.43913"/>
<circle class="l1" cx="458.378" cy="181.425" r="1.43913"/>
<circle class="l1" cx="458.378" cy="181.425" r="1.43913"/>
<circle class="l1" cx="423.372" cy="181.425" r="1.43913"/>
<circle class="l1" cx="431.151" cy="181.425" r="1.43913"/>
<circle class="l1" cx="431.151" cy="181.425" r="1.43913"/>
<circle class="l1" cx="396.145" cy="181.425" r="1.43913"/>
<circle class="l1" cx="423.372" cy="181.425" r="1.43913"/>
<circle class="l1" cx="423.372" cy="181.425" r="1.43913"/>
<circle class="l1" cx="396.145" cy="181.425" r="1.43913"/>
<circle class="l1" cx="361.139" cy="204.762" r="1.43913"/>
<circle class="l1" cx="396.145" cy="344.785" r="1.43913"/>
<circle class="l1" cx="396.145" cy="344.785" r="1.43913"/>
<circle class="l1" cx="458.378" cy="344.785" r="1.43913"/>
<circle class="l1" cx="458.378" cy="414.797" r="1.43913"/>
<circle class="l1" cx="458.378" cy="414.797" r="1.43913"/>
<circle class="l1" cx="493.384" cy="352.565" r="1.43913"/>
<circle class="l1" cx="493.384" cy="352.565" r="1.43913"/>
<circle class="l1" cx="571.175" cy="352.565" r="1.43913"/>
<circle class="l1" cx="458.378" cy="344.785" r="1.43913"/>
<circle class="l1" cx="540.058" cy="344.785" r="1.43913"/>
<circle class="l1" cx="458.378" cy="344.785" r="1.43913"/>
<circle class="l1" cx="493.384" cy="352.565" r="1.43913"/>
<circle class="l1" cx="458.378" cy="344.785" r="1.43913"/>
<circle class="l1" cx="512.831" cy="512.036" r="1.43913"/>
<circle class="l1" cx="512.831" cy="597.605" r="1.43913"/>
<circle class="l1" cx="512.831" cy="512.036" r="1.43913"/>
<circle class="l1" cx="512.831" cy="512.036" r="1.43913"/>
<circle class="l1" cx="512.831" cy="597.605" r="1.43913"/>
<circle class="l1" cx="512.831" cy="597.605" r="1.43913"/>
<circle class="l1" cx="660.634" cy="181.425" r="1.43913"/>
<circle class="l1" cx="703.419" cy="181.425" r="1.43913"/>
<circle class="l1" cx="629.518" cy="181.425" r="1.43913"/>
<circle class="l1" cx="660.634" cy="181.425" r="1.43913"/>
<circle class="l1" cx="660.634" cy="181.425" r="1.43913"/>
<circle class="l1" cx="606.18" cy="181.425" r="1.43913"/>
<circle class="l1" cx="629.518" cy="181.425" r="1.43913"/>
<circle class="l1" cx="629.518" cy="181.425" r="1.43913"/>
<circle class="l1" cx="571.175" cy="181.425" r="1.43913"/>
<circle class="l1" cx="606.18" cy="181.425" r="1.43913"/>
<circle class="l1" cx="606.18" cy="181.425" r="1.43913"/>
<circle class="l1" cx="571.175" cy="181.425" r="1.43913"/>
<circle class="l1" cx="571.175" cy="352.565" r="1.43913"/>
<circle class="l1" cx="660.634" cy="352.565" r="1.43913"/>
<circle class="l1" cx="660.634" cy="352.565" r="1.43913"/>
<circle class="l1" cx="571.175" cy="407.018" r="1.43913"/>
<circle class="l1" cx="571.175" cy="407.018" r="1.43913"/>
<circle class="l1" cx="571.175" cy="407.018" r="1.43913"/>
<circle class="l1" cx="571.175" cy="352.565" r="1.43913"/>
<circle class="l1" cx="660.634" cy="352.565" r="1.43913"/>
<circle class="l1" cx="540.058" cy="344.785" r="1.43913"/>
<circle class="l1" cx="540.058" cy="344.785" r="1.43913"/>
<circle class="l1" cx="571.175" cy="352.565" r="1.43913"/>
<circle class="l1" cx="730.646" cy="181.425" r="1.43913"/>
<circle class="l1" cx="687.861" cy="204.762" r="1.43913"/>
<circle class="l1" cx="703.419" cy="181.425" r="1.43913"/>
<circle class="l1" cx="730.646" cy="181.425" r="1.43913"/>
<circle class="l1" cx="730.646" cy="181.425" r="1.43913"/>
<circle class="l1" cx="703.419" cy="181.425" r="1.43913"/>
<circle class="l1" cx="687.861" cy="204.762" r="1.43913"/>
<circle class="l1" cx="979.576" cy="185.314" r="1.43913"/>
<circle class="l1" cx="979.576" cy="185.314" r="1.43913"/>
<circle class="l1" cx="979.576" cy="185.314" r="1.43913"/>
<circle class="l1" cx="1006.8" cy="185.314" r="1.43913"/>
<circle class="l1" cx="1158.49" cy="348.675" r="1.43913"/>
<circle class="l1" cx="1037.92" cy="185.314" r="1.43913"/>
<circle class="l1" cx="1131.27" cy="185.314" r="1.43913"/>
<circle class="l1" cx="1131.27" cy="185.314" r="1.43913"/>
<circle class="l1" cx="1158.49" cy="185.314" r="1.43913"/>
<circle class="l1" cx="1131.27" cy="185.314" r="1.43913"/>
<circle class="l1" cx="1006.8" cy="185.314" r="1.43913"/>
<circle class="l1" cx="1037.92" cy="185.314" r="1.43913"/>
<circle class="l1" cx="1037.92" cy="185.314" r="1.43913"/>
<circle class="l1" cx="1006.8" cy="185.314" r="1.43913"/>
<circle class="l1" cx="1271.29" cy="185.314" r="1.43913"/>
<circle class="l1" cx="1306.3" cy="185.314" r="1.43913"/>
<circle class="l1" cx="1158.49" cy="185.314" r="1.43913"/>
<circle class="l1" cx="1271.29" cy="185.314" r="1.43913"/>
<circle class="l1" cx="1271.29" cy="185.314" r="1.43913"/>
<circle class="l1" cx="1158.49" cy="185.314" r="1.43913"/>
<circle class="l1" cx="1240.18" cy="348.675" r="1.43913"/>
<circle class="l1" cx="1158.49" cy="348.675" r="1.43913"/>
<circle class="l1" cx="1240.18" cy="348.675" r="1.43913"/>
<circle class="l1" cx="1193.5" cy="356.454" r="1.43913"/>
<circle class="l1" cx="1271.29" cy="356.454" r="1.43913"/>
<circle class="l1" cx="1193.5" cy="356.454" r="1.43913"/>
<circle class="l1" cx="1193.5" cy="356.454" r="1.43913"/>
<circle class="l1" cx="1271.29" cy="356.454" r="1.43913"/>
<circle class="l1" cx="1271.29" cy="356.454" r="1.43913"/>
<circle class="l1" cx="1240.18" cy="348.675" r="1.43913"/>
<circle class="l1" cx="1158.49" cy="348.675" r="1.43913"/>
<circle class="l1" cx="1240.18" cy="348.675" r="1.43913"/>
<circle class="l1" cx="1193.5" cy="356.454" r="1.43913"/>
<circle class="l1" cx="1271.29" cy="356.454" r="1.43913"/>
<circle class="l1" cx="1158.49" cy="348.675" r="1.43913"/>
<circle class="l1" cx="1403.54" cy="185.314" r="1.43913"/>
<circle class="l1" cx="1430.76" cy="185.314" r="1.43913"/>
<circle class="l1" cx="1430.76" cy="185.314" r="1.43913"/>
<circle class="l1" cx="1430.76" cy="185.314" r="1.43913"/>
<circle class="l1" cx="1403.54" cy="185.314" r="1.43913"/>
<circle class="l1" cx="1306.3" cy="185.314" r="1.43913"/>
<circle class="l1" cx="1403.54" cy="185.314" r="1.43913"/>
<circle class="l1" cx="1306.3" cy="185.314" r="1.43913"/>
</svg>
