<?xml version="1.0" standalone="yes"?>
<!DOCTYPE svg PUBLIC "-//W3C//DTD SVG 1.1//EN"
 "http://www.w3.org/Graphics/SVG/1.1/DTD/svg11.dtd">
<svg xmlns="http://www.w3.org/2000/svg" version="1.1"
  width="100%" height="100%" viewBox="0 0 1024 768"
  style="fill: none; font-family: Helvetica;
 font: Helvetica;
">

<!-- Creator: NGspice -->

<rect x="0" y="0" width="1024" height="768" fill="black" stroke="none"/>
<text stroke="none" fill="white" font-size="16" x="358" y="752">
frequency
</text>
<text stroke="none" fill="white" font-size="16" x="10" y="16">
ac1: ** sch_path: /foss/designs/cems_dsm/dsm/ic_designs_hrishi/realcircuits/folded cascode/tb_folcas_ac.sch
</text>
<path stroke="white" d="M70 720l0 -672"/>
<text stroke="none" fill="white" font-size="16" x="50" y="728">
10^3
</text>
<path stroke="white" stroke-dasharray="1,2" d="M107 720l0 -672M130 720l0 -672M145 720l0 -672M158 720l0 -672M168 720l0 -672M176 720l0 -672M183 720l0 -672M190 720l0 -672"/>
<path stroke="white" d="M196 720l0 -672"/>
<text stroke="none" fill="white" font-size="16" x="176" y="728">
10^4
</text>
<path stroke="white" stroke-dasharray="1,2" d="M233 720l0 -672M256 720l0 -672M271 720l0 -672M284 720l0 -672M294 720l0 -672M302 720l0 -672M309 720l0 -672M316 720l0 -672"/>
<path stroke="white" d="M322 720l0 -672"/>
<text stroke="none" fill="white" font-size="16" x="302" y="728">
10^5
</text>
<path stroke="white" stroke-dasharray="1,2" d="M359 720l0 -672M382 720l0 -672M397 720l0 -672M410 720l0 -672M420 720l0 -672M428 720l0 -672M435 720l0 -672M442 720l0 -672"/>
<path stroke="white" d="M448 720l0 -672"/>
<text stroke="none" fill="white" font-size="16" x="428" y="728">
10^6
</text>
<path stroke="white" stroke-dasharray="1,2" d="M485 720l0 -672M508 720l0 -672M523 720l0 -672M536 720l0 -672M546 720l0 -672M554 720l0 -672M561 720l0 -672M568 720l0 -672"/>
<path stroke="white" d="M574 720l0 -672"/>
<text stroke="none" fill="white" font-size="16" x="554" y="728">
10^7
</text>
<path stroke="white" stroke-dasharray="1,2" d="M611 720l0 -672M634 720l0 -672M649 720l0 -672M662 720l0 -672M672 720l0 -672M680 720l0 -672M687 720l0 -672M694 720l0 -672"/>
<path stroke="white" d="M700 720l0 -672"/>
<text stroke="none" fill="white" font-size="16" x="680" y="728">
10^8
</text>
<path stroke="white" stroke-dasharray="1,2" d="M737 720l0 -672M760 720l0 -672M775 720l0 -672M788 720l0 -672M798 720l0 -672M806 720l0 -672M813 720l0 -672M820 720l0 -672"/>
<path stroke="white" d="M826 720l0 -672"/>
<text stroke="none" fill="white" font-size="16" x="806" y="728">
10^9
</text>
<path stroke="white" stroke-dasharray="1,2" d="M863 720l0 -672M886 720l0 -672M901 720l0 -672M914 720l0 -672M924 720l0 -672M932 720l0 -672M939 720l0 -672M946 720l0 -672"/>
<path stroke="white" d="M952 720l0 -672"/>
<text stroke="none" fill="white" font-size="16" x="927" y="728">
10^10
</text>
<text stroke="none" fill="white" font-size="16" x="614" y="752">
Hz
</text>
<path stroke="white" stroke-dasharray="1,2" d="M70 720l882 0"/>
<text stroke="none" fill="white" font-size="16" x="8" y="728">
-120.0
</text>
<path stroke="white" stroke-dasharray="1,2" d="M70 664l882 0"/>
<text stroke="none" fill="white" font-size="16" x="8" y="672">
-110.0
</text>
<path stroke="white" stroke-dasharray="1,2" d="M70 608l882 0"/>
<text stroke="none" fill="white" font-size="16" x="8" y="616">
-100.0
</text>
<path stroke="white" stroke-dasharray="1,2" d="M70 552l882 0"/>
<text stroke="none" fill="white" font-size="16" x="18" y="560">
-90.0
</text>
<path stroke="white" stroke-dasharray="1,2" d="M70 496l882 0"/>
<text stroke="none" fill="white" font-size="16" x="18" y="504">
-80.0
</text>
<path stroke="white" stroke-dasharray="1,2" d="M70 440l882 0"/>
<text stroke="none" fill="white" font-size="16" x="18" y="448">
-70.0
</text>
<path stroke="white" stroke-dasharray="1,2" d="M70 384l882 0"/>
<text stroke="none" fill="white" font-size="16" x="18" y="392">
-60.0
</text>
<path stroke="white" stroke-dasharray="1,2" d="M70 328l882 0"/>
<text stroke="none" fill="white" font-size="16" x="18" y="336">
-50.0
</text>
<path stroke="white" stroke-dasharray="1,2" d="M70 272l882 0"/>
<text stroke="none" fill="white" font-size="16" x="18" y="280">
-40.0
</text>
<path stroke="white" stroke-dasharray="1,2" d="M70 216l882 0"/>
<text stroke="none" fill="white" font-size="16" x="18" y="224">
-30.0
</text>
<path stroke="white" stroke-dasharray="1,2" d="M70 160l882 0"/>
<text stroke="none" fill="white" font-size="16" x="18" y="168">
-20.0
</text>
<path stroke="white" stroke-dasharray="1,2" d="M70 104l882 0"/>
<text stroke="none" fill="white" font-size="16" x="18" y="112">
-10.0
</text>
<path stroke="white" d="M70 48l882 0"/>
<text stroke="none" fill="white" font-size="16" x="28" y="56">
-0.0
</text>
<text stroke="none" fill="white" font-size="16" x="10" y="32">
     
</text>
<path stroke="red" d="M441 23l44 0"/>
<text stroke="none" fill="white" font-size="16" x="495" y="32">
180/pi*ph(v_out)
</text>
<path stroke="red" d="M70 48l262 0 1 1 59 0 1 1 26 0 2 1 17 0 1 1 13 0 1 1 10 0 1 1 8 0 1 1 6 0 1 1 7 0 1 1 5 0 1 1 4 0 1 1 4 0 1 1 4 0 1 1 3 0 1 1 2 0 2 1 2 0 1 1 3 0 1 1 3 0 1 1 1 0 1 1 2 0 1 1 2 0 2 1 1 0 1 1 1 0 2 1 1 0 2 2 2 0 1 1 1 0 1 1"/>
<path stroke="red" d="M550 75l2 1 1 0 1 1 1 0 2 1 1 1 1 0 1 1 2 1 1 1 1 0 1 1 2 1 3 3 2 0 4 4 2 1 3 3 2 1 2 2 1 2 2 1 11 11 1 2 1 1 2 1 1 2 1 1 1 2 3 3 2 4 2 1 3 6 2 1 3 6 2 2 3 6 2 2 3 6 2 3 3 6 2 3 2 4 1 3 2 2 1 3 1 2 1 3 2 2 1 3 1 2 1 3 2 3"/>
<path stroke="red" d="M653 200l1 2 2 6 2 2 2 6 1 2 2 3 3 9 2 2 3 9 2 3 1 2 2 6 2 3 1 3 1 2 1 3 2 3 3 9 2 2 3 9 2 3 1 3 1 2 1 3 2 3 3 9 1 2 2 3 3 9 2 3 3 9 2 2 3 9 2 4 3 9 2 3 3 9 2 4 2 6 1 4 2 3 1 3 1 4 1 3 2 4 1 3 1 4 1 3 2 4 1 3 2 8 2 3 3 12"/>
<path stroke="red" d="M752 442l2 3 3 12 2 4 2 8 1 3 2 4 3 12 2 4 3 12 2 4 3 12 2 4 3 12 2 4 3 12 2 4 3 12 2 4 3 12 2 3 3 12 2 4 1 4 1 3 1 4 2 4 1 4 1 3 1 4 2 3 2 8 1 3 2 3 1 4 2 6 2 3 2 6"/>
</svg>
